<?xml version="1.0" standalone="no"?>
<!DOCTYPE svg PUBLIC "-//W3C//DTD SVG 1.1//EN" "http://www.w3.org/Graphics/SVG/1.1/DTD/svg11.dtd" >
<svg>
<metadata>
Created by FontForge 20120731 at Fri Aug 12 09:10:16 2016
 By ,,,
Copyright (C) 1996, 2007 Hoefler &#38; Frere-Jones. http://www.typography.com
</metadata>
<defs>
<font id="Whitney-MediumItalic" horiz-adv-x="454" >
  <font-face 
    font-family="Whitney Medium"
    font-weight="350"
    font-style="italic"
    font-stretch="normal"
    units-per-em="1000"
    panose-1="0 0 0 0 0 0 0 0 0 0"
    ascent="800"
    descent="-200"
    x-height="477"
    cap-height="690"
    bbox="-132 -283 1027 1009"
    underline-thickness="50"
    underline-position="-50"
    slope="-9"
    unicode-range="U+0020-FB04"
  />
<missing-glyph horiz-adv-x="500" 
d="M0 -200v1000h500v-1000h-500zM71 750l179 -390l179 390h-358zM50 -76l172 376l-172 376v-752zM450 676l-172 -376l172 -376v752zM250 240l-179 -390h358z" />
    <glyph glyph-name="f_f" unicode="ff" horiz-adv-x="588" 
d="M344 637q-27 3 -43 3q-59 0 -70 -68l-16 -95h89v-72h-101l-90 -578l-88 -13l92 591h-67l12 72h67l18 110q11 66 48.5 96t106.5 30q22 0 42 -2v-74zM638 637q-27 3 -43 3q-59 0 -70 -68l-16 -95h89v-72h-101l-90 -578l-88 -13l92 591h-67l12 72h67l18 110q11 66 48.5 96
t106.5 30q22 0 42 -2v-74z" />
    <glyph glyph-name="fi" unicode="fi" horiz-adv-x="524" 
d="M344 637q-27 3 -43 3q-59 0 -70 -68l-16 -95h89v-72h-101l-90 -578l-88 -13l92 591h-67l12 72h67l18 110q11 66 48.5 96t106.5 30q22 0 42 -2v-74zM528 630q0 -24 -16.5 -40.5t-40.5 -16.5t-40.5 16.5t-16.5 40.5t16.5 40.5t40.5 16.5t40.5 -16.5t16.5 -40.5zM489 477
l-75 -477h-86l75 477h86z" />
    <glyph glyph-name="fl" unicode="fl" horiz-adv-x="524" 
d="M344 637q-27 3 -43 3q-59 0 -70 -68l-16 -95h89v-72h-101l-90 -578l-88 -13l92 591h-67l12 72h67l18 110q11 66 48.5 96t106.5 30q22 0 42 -2v-74zM528 722l-114 -722h-86l111 708z" />
    <glyph glyph-name="f_f_i" unicode="ffi" horiz-adv-x="818" 
d="M344 637q-27 3 -43 3q-59 0 -70 -68l-16 -95h89v-72h-101l-90 -578l-88 -13l92 591h-67l12 72h67l18 110q11 66 48.5 96t106.5 30q22 0 42 -2v-74zM638 637q-27 3 -43 3q-59 0 -70 -68l-16 -95h89v-72h-101l-90 -578l-88 -13l92 591h-67l12 72h67l18 110q11 66 48.5 96
t106.5 30q22 0 42 -2v-74zM822 630q0 -24 -16.5 -40.5t-40.5 -16.5t-40.5 16.5t-16.5 40.5t16.5 40.5t40.5 16.5t40.5 -16.5t16.5 -40.5zM783 477l-75 -477h-86l75 477h86z" />
    <glyph glyph-name="f_f_l" unicode="ffl" horiz-adv-x="818" 
d="M344 637q-27 3 -43 3q-59 0 -70 -68l-16 -95h89v-72h-101l-90 -578l-88 -13l92 591h-67l12 72h67l18 110q11 66 48.5 96t106.5 30q22 0 42 -2v-74zM638 637q-27 3 -43 3q-59 0 -70 -68l-16 -95h89v-72h-101l-90 -578l-88 -13l92 591h-67l12 72h67l18 110q11 66 48.5 96
t106.5 30q22 0 42 -2v-74zM823 722l-114 -722h-86l111 708z" />
    <glyph glyph-name=".notdef" horiz-adv-x="500" 
d="M0 -200v1000h500v-1000h-500zM71 750l179 -390l179 390h-358zM50 -76l172 376l-172 376v-752zM450 676l-172 -376l172 -376v752zM250 240l-179 -390h358z" />
    <glyph glyph-name=".null" horiz-adv-x="0" 
 />
    <glyph glyph-name="nonmarkingreturn" horiz-adv-x="333" 
 />
    <glyph glyph-name="space" unicode=" " horiz-adv-x="210" 
 />
    <glyph glyph-name="exclam" unicode="!" horiz-adv-x="272" 
d="M262 690l-99 -472l-61 -13l52 485h108zM167 119l-19 -119h-100l19 119h100z" />
    <glyph glyph-name="quotedbl" unicode="&#x22;" horiz-adv-x="409" 
d="M416 676l-58 -208l-50 12l6 196h102zM234 676l-58 -208l-50 12l6 196h102z" />
    <glyph glyph-name="numbersign" unicode="#" horiz-adv-x="662" 
d="M539 668l-26 -163h107v-77h-120l-28 -180h116l13 -77h-142l-27 -173h-72l28 173h-168l-28 -178l-70 15l26 163h-107v77h119l29 180h-115l-13 77h140l28 173h72l-28 -173h168l28 178zM261 428l-29 -180h168l29 180h-168z" />
    <glyph glyph-name="dollar" unicode="$" horiz-adv-x="519" 
d="M438 740l-22 -70q50 -12 95 -37l-25 -79q-41 28 -96 43l-68 -216q81 -39 114 -81t33 -102q0 -94 -68 -148.5t-169 -54.5q-5 0 -15 0.5t-14 0.5l-37 -118l-64 14l36 113q-67 15 -126 49l24 80q67 -41 128 -58l77 248q-71 34 -105.5 73t-34.5 101q0 82 58.5 132.5
t157.5 50.5q11 0 35 -2l22 76zM386 189q0 35 -19.5 59.5t-69.5 49.5l-72 -231h13q63 0 105.5 34t42.5 88zM182 506q0 -29 18.5 -52t66.5 -47l63 202q-6 1 -18 1q-62 0 -96 -29t-34 -75z" />
    <glyph glyph-name="percent" unicode="%" horiz-adv-x="864" 
d="M379 519q0 -94 -50 -163.5t-121 -69.5q-66 0 -100 44.5t-34 120.5q0 94 50 163.5t121 69.5q66 0 100 -44.5t34 -120.5zM749 667l-271 -340l-263 -334l-68 16l286 359l248 315zM244 623q-42 0 -69 -52.5t-27 -122.5q0 -101 60 -101q43 0 70 53t27 123q0 49 -16.5 74.5
t-44.5 25.5zM822 225q0 -94 -50 -163.5t-121 -69.5q-66 0 -100 44.5t-34 120.5q0 94 50 163.5t121 69.5q66 0 100 -44.5t34 -120.5zM748 228q0 101 -60 101q-43 0 -70 -53t-27 -123q0 -49 16.5 -74.5t44.5 -25.5q42 0 69 52.5t27 122.5z" />
    <glyph glyph-name="ampersand" unicode="&#x26;" horiz-adv-x="654" 
d="M222 -13q-88 0 -142 47t-54 126q0 153 200 226q-56 78 -56 140q0 76 53.5 126.5t137.5 50.5q87 0 166 -42l-26 -81q-73 45 -144 45q-43 0 -70.5 -24.5t-27.5 -65.5q0 -29 11.5 -54t41.5 -65l141 -186q41 75 67 170l77 -18q-36 -121 -96 -215l115 -151l-90 -22l-79 103
q-99 -110 -225 -110zM232 62q91 0 170 94l-131 171q-152 -48 -152 -161q0 -47 29.5 -75.5t83.5 -28.5z" />
    <glyph glyph-name="quotesingle" unicode="'" horiz-adv-x="227" 
d="M234 676l-58 -208l-50 12l6 196h102z" />
    <glyph glyph-name="parenleft" unicode="(" horiz-adv-x="406" 
d="M395 638q-231 -149 -231 -398q0 -152 149 -315l-89 -19q-154 158 -154 328q0 303 325 492v-88z" />
    <glyph glyph-name="parenright" unicode=")" horiz-adv-x="406" 
d="M34 -11q231 149 231 398q0 152 -149 315l89 19q154 -157 154 -328q0 -303 -325 -492v88z" />
    <glyph glyph-name="asterisk" unicode="*" horiz-adv-x="400" 
d="M401 569l-109 -52l58 -107l-26 -17l-82 87l-83 -87l-25 17l57 107l-108 52l10 29l118 -21l14 118h33l14 -118l119 21z" />
    <glyph glyph-name="plus" unicode="+" horiz-adv-x="572" 
d="M528 301h-193l-31 -199h-78l31 199h-193l12 74h193l31 199h78l-31 -199h193z" />
    <glyph glyph-name="comma" unicode="," horiz-adv-x="227" 
d="M166 119l-143 -252l-48 12l88 240h103z" />
    <glyph glyph-name="hyphen" unicode="-" horiz-adv-x="354" 
d="M311 327l-12 -85h-245l11 85h246z" />
    <glyph glyph-name="period" unicode="." horiz-adv-x="227" 
d="M144 119l-18 -119h-100l18 119h100z" />
    <glyph glyph-name="slash" unicode="/" horiz-adv-x="536" 
d="M585 682l-596 -809l-82 17l596 809z" />
    <glyph glyph-name="zero" unicode="0" horiz-adv-x="587" 
d="M558 428q0 -191 -83.5 -316t-207.5 -125q-95 0 -149.5 71.5t-54.5 189.5q0 192 83 316.5t208 124.5q94 0 149 -71.5t55 -189.5zM467 423q0 92 -32 140.5t-90 48.5q-83 0 -137.5 -102.5t-54.5 -256.5q0 -92 31.5 -140.5t89.5 -48.5q83 0 138 102.5t55 256.5z" />
    <glyph glyph-name="one" unicode="1" horiz-adv-x="342" 
d="M321 678l-106 -678h-87l93 586l-144 -51v70l171 73h73z" />
    <glyph glyph-name="two" unicode="2" horiz-adv-x="517" 
d="M500 522q0 -57 -30.5 -105t-109.5 -122l-229 -216h298v-79h-427l11 69l302 286q50 48 73 83.5t23 75.5q0 45 -28 70t-78 25q-90 0 -189 -75v88q94 67 198 67q88 0 137 -46t49 -121z" />
    <glyph glyph-name="three" unicode="3" horiz-adv-x="494" 
d="M480 533q0 -73 -43.5 -117t-110.5 -63q115 -42 115 -153q0 -97 -68 -155t-178 -58q-99 0 -194 56l27 80q88 -58 174 -58q69 0 110 34.5t41 93.5q0 125 -168 125h-21v77h45q81 0 131.5 34t50.5 92q0 43 -28 66.5t-81 23.5q-88 0 -178 -63v84q88 57 185 57
q90 0 140.5 -41.5t50.5 -114.5z" />
    <glyph glyph-name="four" unicode="4" horiz-adv-x="569" 
d="M544 228l-12 -73h-110l-24 -155h-80l25 155h-319l9 65l368 456h105l-72 -448h110zM354 228l56 349l-283 -349h227z" />
    <glyph glyph-name="five" unicode="5" horiz-adv-x="503" 
d="M495 599h-272l-42 -175q137 -21 204 -74t67 -145q0 -99 -67.5 -158t-168.5 -59q-108 0 -206 55l27 80q94 -57 184 -57q64 0 103 36t39 93q0 70 -63 107.5t-210 53.5l74 320h331v-77z" />
    <glyph glyph-name="six" unicode="6" horiz-adv-x="549" 
d="M479 612q-122 -25 -203.5 -89t-114.5 -158q85 49 171 49q83 0 130.5 -46.5t47.5 -134.5q0 -105 -71 -175.5t-178 -70.5q-94 0 -150.5 64t-56.5 176q0 181 115.5 303.5t309.5 160.5v-79zM309 338q-83 0 -167 -55q-3 -24 -3 -50q0 -79 34 -124.5t95 -45.5q67 0 111 45
t44 116q0 114 -114 114z" />
    <glyph glyph-name="seven" unicode="7" horiz-adv-x="520" 
d="M541 676l-11 -67l-363 -616l-82 20l347 585h-327v78h436z" />
    <glyph glyph-name="eight" unicode="8" horiz-adv-x="553" 
d="M35 160q0 132 163 203q-85 56 -85 142q0 77 59.5 130.5t156.5 53.5q91 0 145 -44.5t54 -114.5q0 -118 -133 -182q106 -65 106 -158q0 -88 -66.5 -145t-179.5 -57q-101 0 -160.5 48.5t-59.5 123.5zM123 170q0 -51 39 -80.5t100 -29.5q70 0 110.5 34t40.5 87q0 44 -30 75.5
t-112 69.5q-72 -26 -110 -66.5t-38 -89.5zM199 513q0 -39 28.5 -68t97.5 -62q117 52 117 140q0 43 -30.5 68t-85.5 25q-58 0 -92.5 -30.5t-34.5 -72.5z" />
    <glyph glyph-name="nine" unicode="9" horiz-adv-x="549" 
d="M96 64q122 25 204 86t116 153q-80 -47 -168 -47q-83 0 -130.5 46.5t-47.5 134.5q0 105 71.5 178.5t177.5 73.5q94 0 150.5 -64t56.5 -176q0 -183 -117 -304t-313 -160v79zM271 332q83 0 166 54q4 36 4 57q0 79 -34 124.5t-95 45.5q-67 0 -111 -47.5t-44 -119.5
q0 -114 114 -114z" />
    <glyph glyph-name="colon" unicode=":" horiz-adv-x="236" 
d="M205 477l-18 -119h-100l18 119h100zM149 119l-18 -119h-100l18 119h100z" />
    <glyph glyph-name="semicolon" unicode=";" horiz-adv-x="236" 
d="M210 477l-18 -119h-100l18 119h100zM161 119l-143 -252l-48 12l88 240h103z" />
    <glyph glyph-name="less" unicode="&#x3c;" horiz-adv-x="572" 
d="M478 82l-411 222l10 68l483 222l-15 -89l-382 -170l328 -169z" />
    <glyph glyph-name="equal" unicode="=" horiz-adv-x="590" 
d="M545 410h-445l13 80h445zM510 186h-445l13 80h445z" />
    <glyph glyph-name="greater" unicode="&#x3e;" horiz-adv-x="572" 
d="M125 594l411 -222l-10 -68l-483 -222l15 89l382 170l-328 169z" />
    <glyph glyph-name="question" unicode="?" horiz-adv-x="484" 
d="M487 546q0 -80 -49 -129.5t-176 -99.5l-25 -99l-60 -13l13 163l29 12q103 43 138.5 73t35.5 81q0 40 -27.5 63t-76.5 23q-88 0 -190 -72v90q96 65 205 65q85 0 134 -43t49 -114zM242 119l-19 -119h-100l19 119h100z" />
    <glyph glyph-name="at" unicode="@" horiz-adv-x="826" 
d="M602 44q-51 0 -85.5 23.5t-43.5 68.5q-42 -50 -73.5 -71t-68.5 -21q-44 0 -75 32t-31 90q0 122 69.5 201.5t158.5 79.5q63 0 135 -26l-35 -209q-6 -39 -6 -55q0 -31 17 -47.5t47 -16.5q55 0 89.5 56t34.5 154q0 139 -79.5 213.5t-204.5 74.5q-149 0 -255 -116t-106 -290
q0 -144 79 -217t209 -73q117 0 217 49l6 -36q-103 -48 -227 -48q-151 0 -239.5 85.5t-88.5 238.5q0 183 118.5 313t290.5 130q147 0 235 -88t88 -235q0 -115 -49.5 -187.5t-126.5 -72.5zM354 111q43 0 118 93l30 170q-27 9 -59 9q-53 0 -96 -58t-43 -145q0 -69 50 -69z" />
    <glyph glyph-name="A" unicode="A" horiz-adv-x="639" 
d="M489 -7l-40 214h-257l-103 -207h-97l358 693h93l136 -680zM380 583l-147 -295h201z" />
    <glyph glyph-name="B" unicode="B" horiz-adv-x="527" 
d="M500 535q0 -63 -33.5 -107t-90.5 -65q105 -44 105 -147q0 -104 -76.5 -160t-203.5 -56h-162l109 690h150q99 0 150.5 -42t51.5 -113zM409 522q0 42 -28.5 66.5t-86.5 24.5h-68l-34 -214h57q72 0 116 31t44 92zM390 210q0 54 -37.5 84t-112.5 30h-59l-40 -247h71
q84 0 131 33t47 100z" />
    <glyph glyph-name="C" unicode="C" horiz-adv-x="599" 
d="M597 636l-28 -91q-75 75 -166 75q-110 0 -179.5 -98.5t-69.5 -230.5q0 -109 48 -165t131 -56q91 0 181 63v-89q-87 -56 -186 -56q-125 0 -196.5 77.5t-71.5 215.5q0 170 98.5 295.5t249.5 125.5q114 0 189 -66z" />
    <glyph glyph-name="D" unicode="D" horiz-adv-x="654" 
d="M623 409q0 -184 -112 -296q-113 -113 -301 -113h-171l109 690h173q142 0 222 -73.5t80 -207.5zM528 399q0 104 -55.5 157t-161.5 53h-84l-84 -528h78q140 0 221 81q86 86 86 237z" />
    <glyph glyph-name="E" unicode="E" horiz-adv-x="467" 
d="M494 690l-13 -82h-254l-32 -205h196v-84h-209l-38 -237h263l-13 -82h-355l109 690h346z" />
    <glyph glyph-name="F" unicode="F" horiz-adv-x="444" 
d="M483 690l-13 -82h-243l-34 -216h188v-84h-201l-49 -308h-92l109 690h335z" />
    <glyph glyph-name="G" unicode="G" horiz-adv-x="660" 
d="M610 377l-51 -325q-108 -64 -222 -64q-125 0 -202 78.5t-77 214.5q0 109 45.5 205.5t129 156t184.5 59.5q128 0 205 -58l-27 -91q-77 67 -187 67q-108 0 -181.5 -97.5t-73.5 -231.5q0 -108 52.5 -164.5t136.5 -56.5q78 0 136 34l29 189h-147v84h250z" />
    <glyph glyph-name="H" unicode="H" horiz-adv-x="656" 
d="M649 690l-109 -690h-92l50 319h-316l-51 -319h-92l109 690h92l-45 -287h317l45 287h92z" />
    <glyph glyph-name="I" unicode="I" horiz-adv-x="258" 
d="M245 690l-109 -690h-92l109 690h92z" />
    <glyph glyph-name="J" unicode="J" horiz-adv-x="361" 
d="M358 690l-81 -513q-15 -94 -62 -138.5t-130 -44.5q-47 0 -85 9v84q43 -12 79 -12q44 0 70.5 24t35.5 82l81 509h92z" />
    <glyph glyph-name="K" unicode="K" horiz-adv-x="573" 
d="M608 690l-328 -325l240 -351l-94 -21l-240 357l-55 -350h-92l109 690h92l-49 -308l306 308h111z" />
    <glyph glyph-name="L" unicode="L" horiz-adv-x="435" 
d="M370 0h-331l109 690h92l-97 -608h227v-82z" />
    <glyph glyph-name="M" unicode="M" horiz-adv-x="854" 
d="M811 690l-55 -690h-89l45 555l-290 -558h-71l-113 558l-130 -555h-85l163 690h115l109 -566l288 566h113z" />
    <glyph glyph-name="N" unicode="N" horiz-adv-x="654" 
d="M647 690l-109 -690h-57l-271 558l-88 -558h-83l109 690h91l246 -506l79 506h83z" />
    <glyph glyph-name="O" unicode="O" horiz-adv-x="696" 
d="M663 407q0 -180 -97.5 -300t-241.5 -120q-128 0 -196 81.5t-68 214.5q0 180 97.5 300t241.5 120q128 0 196 -81.5t68 -214.5zM569 402q0 105 -45.5 163.5t-129.5 58.5q-104 0 -172 -96t-68 -240q0 -105 45.5 -163.5t128.5 -58.5q105 0 173 96t68 240z" />
    <glyph glyph-name="P" unicode="P" horiz-adv-x="515" 
d="M517 508q0 -105 -75.5 -166t-212.5 -61h-54l-44 -281h-92l109 690h133q114 0 175 -46.5t61 -135.5zM424 497q0 112 -139 112h-58l-38 -247h56q179 0 179 135z" />
    <glyph glyph-name="Q" unicode="Q" horiz-adv-x="696" 
d="M594 -60l-29 -83l-299 128q-111 47 -158.5 113.5t-47.5 184.5q0 180 97.5 300t241.5 120q128 0 196 -81.5t68 -214.5q0 -145 -64.5 -252.5t-171.5 -146.5zM569 402q0 105 -45.5 163.5t-129.5 58.5q-104 0 -172 -96t-68 -240q0 -105 45.5 -164t128.5 -59q105 0 173 96.5
t68 240.5z" />
    <glyph glyph-name="R" unicode="R" horiz-adv-x="548" 
d="M517 518q0 -83 -48.5 -138t-137.5 -74l160 -292l-95 -21l-165 305h-53l-47 -298h-92l109 690h138q109 0 170 -42.5t61 -129.5zM424 507q0 102 -134 102h-63l-36 -233h66q83 0 125 34t42 97z" />
    <glyph glyph-name="S" unicode="S" horiz-adv-x="503" 
d="M486 652l-26 -86q-78 55 -151 55q-55 0 -83.5 -29.5t-28.5 -72.5q0 -34 23 -60t84 -62q83 -49 115 -94t32 -105q0 -98 -65.5 -153t-160.5 -55q-110 0 -202 58l26 87q90 -66 181 -66q56 0 92 31.5t36 85.5q0 38 -20.5 63t-77.5 60q-85 52 -120.5 93.5t-35.5 102.5
q0 85 59.5 140t155.5 55q98 0 167 -48z" />
    <glyph glyph-name="T" unicode="T" horiz-adv-x="561" 
d="M596 608h-210l-96 -608h-92l96 608h-205l13 82h494v-82z" />
    <glyph glyph-name="U" unicode="U" horiz-adv-x="637" 
d="M642 690l-73 -460q-20 -122 -92 -182.5t-180 -60.5q-107 0 -168.5 55.5t-61.5 161.5q0 31 7 75l65 411h92l-66 -416q-4 -27 -4 -61q0 -68 36.5 -105.5t106.5 -37.5q148 0 176 179l70 441h92z" />
    <glyph glyph-name="V" unicode="V" horiz-adv-x="628" 
d="M673 690l-361 -693h-76l-139 680l95 20l103 -566l279 559h99z" />
    <glyph glyph-name="W" unicode="W" horiz-adv-x="981" 
d="M1017 690l-309 -690h-79l-89 555l-267 -555h-77l-88 677l96 20l59 -545l254 538h93l81 -538l229 538h97z" />
    <glyph glyph-name="X" unicode="X" horiz-adv-x="599" 
d="M622 690l-252 -328l164 -349l-95 -20l-131 298l-216 -291h-104l279 363l-145 314l93 20l114 -263l189 256h104z" />
    <glyph glyph-name="Y" unicode="Y" horiz-adv-x="606" 
d="M655 690l-303 -416l-43 -274h-92l44 274l-167 403l95 20l130 -337l232 330h104z" />
    <glyph glyph-name="Z" unicode="Z" horiz-adv-x="577" 
d="M598 690l-11 -67l-451 -544h362v-79h-487l11 67l451 544h-336v79h461z" />
    <glyph glyph-name="bracketleft" unicode="[" horiz-adv-x="409" 
d="M429 690l-10 -68h-186l-105 -658h183v-68h-278l125 794h271z" />
    <glyph glyph-name="backslash" unicode="\" horiz-adv-x="536" 
d="M573 -111l-80 -17l-472 809l80 17z" />
    <glyph glyph-name="bracketright" unicode="]" horiz-adv-x="409" 
d="M392 690l-125 -794h-271l10 68h186l105 658h-183v68h278z" />
    <glyph glyph-name="asciicircum" unicode="^" 
d="M417 547h-54l-72 71l-99 -71h-58l123 141h84z" />
    <glyph glyph-name="underscore" unicode="_" 
d="M413 -35l-11 -69h-457l11 69h457z" />
    <glyph glyph-name="grave" unicode="`" 
d="M364 547h-56l-114 127l107 24z" />
    <glyph glyph-name="a" unicode="a" horiz-adv-x="493" 
d="M326 79q-89 -89 -160 -89q-60 0 -96.5 42t-36.5 120q0 147 82 239t194 92q66 0 150 -29l-52 -328v-126h-76zM327 161l37 240q-31 11 -66 11q-71 0 -124.5 -71.5t-53.5 -177.5q0 -98 66 -98q54 0 141 96z" />
    <glyph glyph-name="b" unicode="b" horiz-adv-x="499" 
d="M35 24l108 684l88 14l-47 -302q73 67 141 67q62 0 102 -44t40 -125q0 -144 -80 -234t-192 -90q-73 0 -160 30zM130 80q33 -14 77 -14q69 0 121 66t52 176q0 104 -74 104q-57 0 -136 -81z" />
    <glyph glyph-name="c" unicode="c" horiz-adv-x="426" 
d="M420 446l-27 -81q-60 45 -117 45q-61 0 -107.5 -64.5t-46.5 -151.5q0 -61 30 -94.5t83 -33.5q59 0 124 45v-81q-63 -40 -135 -40q-87 0 -138 52.5t-51 145.5q0 123 70.5 211t173.5 88q79 0 141 -41z" />
    <glyph glyph-name="d" unicode="d" horiz-adv-x="500" 
d="M507 722l-95 -608v-114h-77l-5 69q-77 -79 -155 -79q-62 0 -102 44t-40 125q0 144 80 234t188 90q42 0 81 -12l37 237zM370 397q-33 14 -77 14q-69 0 -121 -66t-52 -176q0 -104 74 -104q57 0 136 81z" />
    <glyph glyph-name="e" unicode="e" horiz-adv-x="456" 
d="M232 63q72 0 157 62v-80q-80 -55 -171 -55q-84 0 -134 49.5t-50 143.5q0 134 68.5 219t158.5 85q76 0 118.5 -49t42.5 -135q0 -39 -7 -74h-292q-2 -14 -2 -41q0 -125 111 -125zM257 422q-41 0 -73.5 -35t-48.5 -93h202q5 128 -80 128z" />
    <glyph glyph-name="f" unicode="f" horiz-adv-x="294" 
d="M344 637q-27 3 -43 3q-59 0 -70 -68l-16 -95h89v-72h-101l-90 -578l-88 -13l92 591h-67l12 72h67l18 110q11 66 48.5 96t106.5 30q22 0 42 -2v-74z" />
    <glyph glyph-name="g" unicode="g" horiz-adv-x="499" 
d="M465 453l-66 -420q-17 -110 -73 -162.5t-156 -52.5q-90 0 -167 37l25 75q75 -40 148 -40q111 0 134 125l9 51q-73 -67 -145 -67q-62 0 -101.5 42t-39.5 115q0 145 80.5 236t191.5 91q73 0 160 -30zM370 397q-33 14 -77 14q-69 0 -121 -68t-52 -177q0 -92 75 -92
q61 0 136 80z" />
    <glyph glyph-name="h" unicode="h" horiz-adv-x="495" 
d="M455 380q0 -18 -2 -36l-55 -344h-86l52 325q2 16 2 27q0 58 -49 58q-27 0 -69.5 -33t-84.5 -86l-45 -291h-86l112 708l88 14l-54 -333q94 98 165 98q54 0 83 -28t29 -79z" />
    <glyph glyph-name="i" unicode="i" horiz-adv-x="230" 
d="M234 630q0 -24 -16.5 -40.5t-40.5 -16.5t-40.5 16.5t-16.5 40.5t16.5 40.5t40.5 16.5t40.5 -16.5t16.5 -40.5zM195 477l-75 -477h-86l75 477h86z" />
    <glyph glyph-name="j" unicode="j" horiz-adv-x="230" 
d="M234 630q0 -24 -16.5 -40.5t-40.5 -16.5t-40.5 16.5t-16.5 40.5t16.5 40.5t40.5 16.5t40.5 -16.5t16.5 -40.5zM195 477l-85 -537q-10 -64 -42 -93t-88 -29q-31 0 -54 7v75q19 -7 44 -7q47 0 56 60l83 524h86z" />
    <glyph glyph-name="k" unicode="k" horiz-adv-x="455" 
d="M118 0h-86l112 708l88 14l-70 -444l196 199h110l-222 -215l164 -254l-92 -15l-161 256z" />
    <glyph glyph-name="l" unicode="l" horiz-adv-x="230" 
d="M234 722l-114 -722h-86l111 708z" />
    <glyph glyph-name="m" unicode="m" horiz-adv-x="766" 
d="M726 380q0 -16 -3 -36l-55 -344h-86l52 325q3 15 3 27q0 58 -50 58q-24 0 -66 -33t-82 -85l-46 -292h-87l52 325q3 15 3 27q0 30 -9 44t-36 14q-26 0 -68.5 -33t-84.5 -86l-45 -291h-86l57 363v114h77l5 -95q96 105 172 105q101 0 107 -96q89 96 164 96q54 0 83 -28
t29 -79z" />
    <glyph glyph-name="n" unicode="n" horiz-adv-x="495" 
d="M455 380q0 -18 -2 -36l-55 -344h-86l52 325q2 18 2 27q0 58 -49 58q-27 0 -69.5 -33t-84.5 -86l-45 -291h-86l57 363v114h77l5 -95q96 105 172 105q54 0 83 -28t29 -79z" />
    <glyph glyph-name="o" unicode="o" horiz-adv-x="489" 
d="M454 283q0 -122 -67.5 -207.5t-170.5 -85.5q-83 0 -132 53.5t-49 149.5q0 122 67.5 208t169.5 86q84 0 133 -54t49 -150zM367 281q0 69 -27.5 103t-72.5 34q-66 0 -105.5 -68t-39.5 -154q0 -70 27 -104t73 -34q66 0 105.5 68.5t39.5 154.5z" />
    <glyph glyph-name="p" unicode="p" horiz-adv-x="500" 
d="M3 -186l86 549v114h77l5 -69q77 79 155 79q62 0 102 -44t40 -125q0 -144 -80 -234t-188 -90q-42 0 -81 12l-28 -178zM131 80q33 -14 77 -14q69 0 121 66t52 176q0 104 -74 104q-57 0 -136 -81z" />
    <glyph glyph-name="q" unicode="q" horiz-adv-x="499" 
d="M465 453l-99 -626l-88 -13l38 243q-73 -67 -141 -67q-62 0 -102 44t-40 125q0 144 80 234t192 90q73 0 160 -30zM370 397q-33 14 -77 14q-69 0 -121 -66t-52 -176q0 -104 74 -104q57 0 136 81z" />
    <glyph glyph-name="r" unicode="r" horiz-adv-x="332" 
d="M344 400q-57 -6 -105 -39t-77 -82l-44 -279h-86l57 363v114h77l5 -107q33 49 79 82.5t94 34.5v-87z" />
    <glyph glyph-name="s" unicode="s" horiz-adv-x="388" 
d="M367 449l-26 -80q-63 42 -127 42q-33 0 -52 -16t-19 -38q0 -23 14.5 -37t56.5 -32q73 -32 104 -63.5t31 -83.5q0 -72 -48.5 -111.5t-126.5 -39.5q-92 0 -169 55l26 78q76 -58 156 -58q36 0 58 17.5t22 46.5q0 24 -17 40.5t-59 35.5q-72 33 -101 62t-29 78q0 64 44.5 103
t119.5 39q70 0 142 -38z" />
    <glyph glyph-name="t" unicode="t" horiz-adv-x="321" 
d="M313 405h-114l-42 -271q-2 -14 -2 -26q0 -42 51 -42q25 0 45 5v-72q-30 -7 -74 -7q-112 0 -112 93q0 18 4 42l44 278h-68l12 72h67l25 159l89 13l-27 -172h102v-72z" />
    <glyph glyph-name="u" unicode="u" horiz-adv-x="495" 
d="M463 477l-57 -363v-114h-77l-5 95q-96 -105 -172 -105q-54 0 -83 28t-29 79q0 18 2 36l55 344h86l-52 -325q-2 -18 -2 -27q0 -58 49 -58q27 0 69.5 33t84.5 86l45 291h86z" />
    <glyph glyph-name="v" unicode="v" horiz-adv-x="440" 
d="M455 477l-233 -479h-78l-85 472l87 14l56 -374l164 367h89z" />
    <glyph glyph-name="w" unicode="w" horiz-adv-x="700" 
d="M711 477l-224 -477h-70l-49 361l-162 -361h-69l-75 470l86 14l43 -358l157 351h79l46 -351l152 351h86z" />
    <glyph glyph-name="x" unicode="x" horiz-adv-x="447" 
d="M449 477l-178 -232l114 -239l-86 -13l-83 190l-132 -183h-96l189 246l-104 224l86 14l74 -177l121 170h95z" />
    <glyph glyph-name="y" unicode="y" horiz-adv-x="450" 
d="M466 477l-264 -528q-37 -74 -78.5 -102.5t-103.5 -28.5q-13 0 -31 4v76q25 -5 46 -5q49 0 79 54l34 62l-89 461l87 14l61 -374l170 367h89z" />
    <glyph glyph-name="z" unicode="z" horiz-adv-x="434" 
d="M424 477l-12 -67l-301 -339h249v-71h-363l11 67l302 339h-225v71h339z" />
    <glyph glyph-name="braceleft" unicode="{" horiz-adv-x="474" 
d="M496 690l-10 -67h-105q-80 0 -80 -84v-94q0 -72 -33 -107t-94 -47v-2q45 -11 65.5 -32t20.5 -61q0 -26 -20 -96.5t-20 -90.5q0 -46 63 -46h93v-67h-116q-58 0 -91 25t-33 75q0 26 20 96t20 97q0 72 -90 72h-32v65h49q60 0 88 32t28 100v92q0 140 168 140h109z" />
    <glyph glyph-name="bar" unicode="|" horiz-adv-x="266" 
d="M173 -173l-80 -13v895l80 13v-895z" />
    <glyph glyph-name="braceright" unicode="}" horiz-adv-x="474" 
d="M-5 -104l10 67h105q80 0 80 84v94q0 72 33 107t94 47v2q-45 11 -65.5 32t-20.5 61q0 25 20 96.5t20 90.5q0 46 -63 46h-93v67h116q58 0 91 -25t33 -75q0 -26 -20 -96t-20 -97q0 -72 90 -72h32v-65h-49q-60 0 -88 -32t-28 -100v-92q0 -140 -168 -140h-109z" />
    <glyph glyph-name="asciitilde" unicode="~" horiz-adv-x="409" 
d="M375 337q-31 -114 -101 -114q-29 0 -67 23q-44 25 -61 25q-22 0 -40 -51l-57 12q31 114 101 114q29 0 67 -23q44 -25 61 -25q22 0 40 51z" />
    <glyph glyph-name="uni00A0" unicode="&#xa0;" horiz-adv-x="105" 
 />
    <glyph glyph-name="exclamdown" unicode="&#xa1;" horiz-adv-x="272" 
d="M258 690l-19 -119h-100l19 119h100zM204 485l-52 -485h-108l99 472z" />
    <glyph glyph-name="cent" unicode="&#xa2;" horiz-adv-x="457" 
d="M411 671l-33 -100q44 -12 77 -39l-24 -76q-37 32 -77 43l-103 -330h13q70 0 135 43v-76q-70 -42 -147 -42q-16 0 -23 1l-33 -105l-64 15l34 107q-51 22 -81 70t-30 113q0 119 69.5 202.5t183.5 83.5h7l32 104zM141 301q0 -85 51 -115l100 321q-70 -1 -110.5 -61.5
t-40.5 -144.5z" />
    <glyph glyph-name="sterling" unicode="&#xa3;" horiz-adv-x="524" 
d="M61 370h94l66 155q37 87 82.5 125.5t122.5 38.5q51 0 98 -15l-21 -79q-41 15 -86 15q-72 0 -113 -95l-62 -145h168v-75h-200l-92 -218h336v-77h-436l11 73l94 222h-74z" />
    <glyph glyph-name="yen" unicode="&#xa5;" horiz-adv-x="578" 
d="M80 227l10 68h150l-147 368l87 20l126 -334l222 327h98l-271 -381h144v-68h-171l-12 -76h165l-10 -68h-165l-13 -83h-84l13 83h-160v68h170l12 76h-164z" />
    <glyph glyph-name="section" unicode="&#xa7;" horiz-adv-x="525" 
d="M498 366q0 -53 -41 -110l-74 17q33 45 33 80q0 21 -15.5 33.5t-57.5 23.5l-65 16q-70 17 -102.5 46t-32.5 80q0 60 46.5 96.5t128.5 36.5q87 0 166 -38l-23 -72q-76 41 -154 41q-39 0 -60.5 -16.5t-21.5 -40.5q0 -25 19.5 -38.5t69.5 -26.5l50 -13q68 -18 101 -42.5
t33 -72.5zM59 310q0 53 41 110l74 -17q-33 -45 -33 -80q0 -21 15.5 -33.5t57.5 -23.5l65 -16q70 -17 102.5 -46t32.5 -80q0 -60 -46.5 -96.5t-128.5 -36.5q-87 0 -166 38l23 72q76 -41 154 -41q39 0 60.5 16.5t21.5 40.5q0 25 -20 39t-69 26l-50 13q-68 18 -101 42.5
t-33 72.5z" />
    <glyph glyph-name="dieresis" unicode="&#xa8;" 
d="M416 551h-99l16 101h99zM237 551h-99l16 101h99z" />
    <glyph glyph-name="copyright" unicode="&#xa9;" horiz-adv-x="799" 
d="M761 346q0 -160 -96.5 -259.5t-249.5 -99.5q-154 0 -249.5 98.5t-95.5 258.5t96.5 259.5t249.5 99.5q154 0 249.5 -98.5t95.5 -258.5zM717 345q0 151 -85 236.5t-216 85.5q-133 0 -217.5 -85.5t-84.5 -236.5t85 -236.5t217 -85.5t216.5 85.5t84.5 236.5zM552 185
q-59 -41 -126 -41q-84 0 -135 56t-51 148q0 91 51.5 147.5t134.5 56.5q63 0 119 -35l-10 -68q-54 41 -109 41q-54 0 -86.5 -39t-32.5 -103t33 -103t86 -39q54 0 116 44z" />
    <glyph glyph-name="ordfeminine" unicode="&#xaa;" horiz-adv-x="381" 
d="M321 223h-267l9 59h258v-59zM281 444l12 77q-144 -16 -144 -85q0 -34 39 -34q33 0 93 42zM300 562l2 11q10 56 -49 56q-51 0 -111 -28v54q65 26 118 26q125 0 106 -112l-24 -145v-66h-55l-5 41q-60 -48 -112 -48q-38 0 -62 21.5t-24 59.5q0 113 216 130z" />
    <glyph glyph-name="guillemotleft" unicode="&#xab;" horiz-adv-x="527" 
d="M520 477l-185 -243l103 -224l-67 -15l-130 244l194 238h85zM315 477l-185 -243l102 -224l-67 -15l-130 244l195 238h85z" />
    <glyph glyph-name="registered" unicode="&#xae;" horiz-adv-x="563" 
d="M544 470q0 -103 -63.5 -167.5t-163.5 -64.5q-101 0 -163.5 64t-62.5 168q0 103 63.5 168t163.5 65t163 -64.5t63 -168.5zM512 470q0 96 -55.5 151t-138.5 55q-85 0 -140 -55t-55 -151q0 -95 55.5 -150t138.5 -55q85 0 140 55t55 150zM429 356l-45 -10l-77 110h-25v-106
h-43v257h77q41 0 65.5 -20t24.5 -55q0 -55 -52 -71zM361 529q0 38 -45 38h-34v-76h32q47 0 47 38z" />
    <glyph glyph-name="macron" unicode="&#xaf;" 
d="M413 570h-266l11 72h266z" />
    <glyph glyph-name="degree" unicode="&#xb0;" horiz-adv-x="427" 
d="M424 514q0 -73 -47 -119.5t-120 -46.5t-120 46.5t-47 119.5t47 120.5t120 47.5t120 -47.5t47 -120.5zM356 514q0 44 -28.5 74t-70.5 30q-43 0 -71 -30t-28 -74q0 -45 28 -73.5t71 -28.5q42 0 70.5 28.5t28.5 73.5z" />
    <glyph glyph-name="plusminus" unicode="&#xb1;" horiz-adv-x="540" 
d="M327 371l-25 -157h-76l25 157h-152l11 70h152l25 158h76l-25 -158h152l-11 -70h-152zM467 95h-444l11 70h444z" />
    <glyph glyph-name="acute" unicode="&#xb4;" 
d="M403 674l-152 -127h-68l108 151z" />
    <glyph glyph-name="paragraph" unicode="&#xb6;" horiz-adv-x="536" 
d="M415 0h-77l97 609h-73l-23 -144l-65 -199q-95 4 -149 49t-54 129q0 105 75 168.5t204 63.5h172z" />
    <glyph glyph-name="periodcentered" unicode="&#xb7;" horiz-adv-x="227" 
d="M162 224h-100l18 119h100z" />
    <glyph glyph-name="cedilla" unicode="&#xb8;" 
d="M242 -89l-140 -108h-60l97 133z" />
    <glyph glyph-name="ordmasculine" unicode="&#xba;" horiz-adv-x="385" 
d="M216 352q-58 0 -93 36t-35 99q0 80 47.5 137t120.5 57q58 0 93.5 -36.5t35.5 -99.5q0 -80 -48 -136.5t-121 -56.5zM330 223h-276l9 59h267v-59zM252 629q-46 0 -72.5 -42.5t-26.5 -95.5q0 -43 18.5 -65t49.5 -22q46 0 72.5 42.5t26.5 95.5q0 43 -18.5 65t-49.5 22z" />
    <glyph glyph-name="guillemotright" unicode="&#xbb;" horiz-adv-x="527" 
d="M211 0l185 243l-102 224l67 15l130 -244l-195 -238h-85zM6 0l185 243l-103 224l67 15l130 -244l-194 -238h-85z" />
    <glyph glyph-name="onequarter" unicode="&#xbc;" horiz-adv-x="810" 
d="M324 311h-238l9 60h86l37 238l-88 -36v61l118 49h51l-49 -312h74v-60zM744 74h-49l-12 -79h-66l13 79h-162l8 49l179 245h86l-38 -241h50zM639 127l14 90l17 87h-3l-50 -74l-38 -52l-42 -52l1 -2l73 3h28zM485 324l-242 -332l-60 18l258 342l244 332l60 -18z" />
    <glyph glyph-name="onehalf" unicode="&#xbd;" horiz-adv-x="810" 
d="M324 311h-238l9 60h86l37 238l-88 -36v61l118 49h51l-49 -312h74v-60zM731 0h-255l9 58l150 133q50 45 50 78q0 18 -12 29t-34 11q-45 0 -100 -34v65q56 33 113 33q51 0 79 -27.5t28 -65.5q0 -37 -17.5 -64t-62.5 -65l-101 -87h153v-64zM460 324l-242 -332l-60 18
l258 342l244 332l60 -18z" />
    <glyph glyph-name="threequarters" unicode="&#xbe;" horiz-adv-x="810" 
d="M321 415q0 -53 -38.5 -82.5t-98.5 -29.5q-56 0 -114 30l21 59q54 -28 92 -28q33 0 50 14.5t17 38.5q0 55 -86 55h-9v57h24q44 0 69.5 16.5t25.5 41.5q0 36 -46 36q-44 0 -88 -21v61q47 21 100 21q45 0 74.5 -22.5t29.5 -64.5q0 -39 -25 -64t-64 -35q66 -21 66 -83z
M744 74h-49l-12 -79h-66l13 79h-162l8 49l179 245h86l-38 -241h50zM639 127l14 90l17 87h-3l-50 -74l-38 -52l-42 -52l1 -2l73 3h28zM460 324l-242 -332l-60 18l258 342l244 332l60 -18z" />
    <glyph glyph-name="questiondown" unicode="&#xbf;" horiz-adv-x="484" 
d="M229 70q88 0 190 72v-90q-96 -65 -205 -65q-85 0 -134 43t-49 114q0 80 49 129.5t176 99.5l25 99l60 13l-13 -163l-29 -12q-103 -42 -138.5 -72.5t-35.5 -81.5q0 -40 27.5 -63t76.5 -23zM276 571l19 119h100l-19 -119h-100z" />
    <glyph glyph-name="Agrave" unicode="&#xc0;" horiz-adv-x="639" 
d="M489 -7l-40 214h-257l-103 -207h-97l358 693h93l136 -680zM380 583l-147 -295h201zM436 762h-56l-114 127l107 24z" />
    <glyph glyph-name="Aacute" unicode="&#xc1;" horiz-adv-x="639" 
d="M489 -7l-40 214h-257l-103 -207h-97l358 693h93l136 -680zM380 583l-147 -295h201zM586 889l-152 -127h-68l108 151z" />
    <glyph glyph-name="Acircumflex" unicode="&#xc2;" horiz-adv-x="639" 
d="M489 -7l-40 214h-257l-103 -207h-97l358 693h93l136 -680zM380 583l-147 -295h201zM543 754h-54l-72 71l-99 -71h-58l123 141h84z" />
    <glyph glyph-name="Atilde" unicode="&#xc3;" horiz-adv-x="639" 
d="M489 -7l-40 214h-257l-103 -207h-97l358 693h93l136 -680zM380 583l-147 -295h201zM582 879q-32 -114 -101 -114q-29 0 -67 23q-44 25 -61 25q-22 0 -40 -51l-57 12q32 114 101 114q29 0 67 -23q44 -25 61 -25q22 0 40 51z" />
    <glyph glyph-name="Adieresis" unicode="&#xc4;" horiz-adv-x="639" 
d="M489 -7l-40 214h-257l-103 -207h-97l358 693h93l136 -680zM380 583l-147 -295h201zM547 766h-99l16 101h99zM368 766h-99l16 101h99z" />
    <glyph glyph-name="Aring" unicode="&#xc5;" horiz-adv-x="639" 
d="M489 -7l-40 214h-257l-103 -207h-97l335 649q-32 30 -32 77q0 44 29.5 74t74.5 30t74.5 -30t29.5 -74q0 -61 -49 -89l125 -624zM380 583l-147 -295h201zM399 667q25 0 41 16.5t16 42.5t-16 43t-41 17t-41 -17t-16 -43t16 -42.5t41 -16.5z" />
    <glyph glyph-name="AE" unicode="&#xc6;" horiz-adv-x="850" 
d="M64 0h-99l508 690h404l-13 -82h-254l-32 -205h196v-84h-209l-38 -237h263l-13 -82h-355l32 207h-239zM275 288h192l53 335z" />
    <glyph glyph-name="Ccedilla" unicode="&#xc7;" horiz-adv-x="599" 
d="M597 636l-28 -91q-75 75 -166 75q-110 0 -179.5 -98.5t-69.5 -230.5q0 -109 48 -165t131 -56q91 0 181 63v-89q-87 -56 -186 -56q-125 0 -196.5 77.5t-71.5 215.5q0 170 98.5 295.5t249.5 125.5q114 0 189 -66zM342 -94l-140 -108h-60l97 133z" />
    <glyph glyph-name="Egrave" unicode="&#xc8;" horiz-adv-x="467" 
d="M494 690l-13 -82h-254l-32 -205h196v-84h-209l-38 -237h263l-13 -82h-355l109 690h346zM366 752h-56l-114 127l107 24z" />
    <glyph glyph-name="Eacute" unicode="&#xc9;" horiz-adv-x="467" 
d="M494 690l-13 -82h-254l-32 -205h196v-84h-209l-38 -237h263l-13 -82h-355l109 690h346zM516 879l-152 -127h-68l108 151z" />
    <glyph glyph-name="Ecircumflex" unicode="&#xca;" horiz-adv-x="467" 
d="M494 690l-13 -82h-254l-32 -205h196v-84h-209l-38 -237h263l-13 -82h-355l109 690h346zM475 752h-54l-72 71l-99 -71h-58l123 141h84z" />
    <glyph glyph-name="Edieresis" unicode="&#xcb;" horiz-adv-x="467" 
d="M494 690l-13 -82h-254l-32 -205h196v-84h-209l-38 -237h263l-13 -82h-355l109 690h346zM477 756h-99l16 101h99zM298 756h-99l16 101h99z" />
    <glyph glyph-name="Igrave" unicode="&#xcc;" horiz-adv-x="258" 
d="M245 690l-109 -690h-92l109 690h92zM237 752h-56l-114 127l107 24z" />
    <glyph glyph-name="Iacute" unicode="&#xcd;" horiz-adv-x="258" 
d="M245 690l-109 -690h-92l109 690h92zM387 879l-152 -127h-68l108 151z" />
    <glyph glyph-name="Icircumflex" unicode="&#xce;" horiz-adv-x="258" 
d="M245 690l-109 -690h-92l109 690h92zM346 752h-54l-72 71l-99 -71h-58l123 141h84z" />
    <glyph glyph-name="Idieresis" unicode="&#xcf;" horiz-adv-x="258" 
d="M245 690l-109 -690h-92l109 690h92zM348 756h-99l16 101h99zM169 756h-99l16 101h99z" />
    <glyph glyph-name="Eth" unicode="&#xd0;" horiz-adv-x="670" 
d="M639 409q0 -184 -112 -296q-113 -113 -301 -113h-171l50 319h-75v84h88l46 287h173q142 0 222 -73.5t80 -207.5zM363 319h-166l-38 -238h78q140 0 221 81q86 86 86 237q0 104 -55.5 157t-161.5 53h-84l-33 -206h167z" />
    <glyph glyph-name="Ntilde" unicode="&#xd1;" horiz-adv-x="654" 
d="M647 690l-109 -690h-57l-271 558l-88 -558h-83l109 690h91l246 -506l79 506h83zM584 859q-32 -114 -101 -114q-29 0 -67 23q-44 25 -61 25q-22 0 -40 -51l-57 12q32 114 101 114q29 0 67 -23q44 -25 61 -25q22 0 40 51z" />
    <glyph glyph-name="Ograve" unicode="&#xd2;" horiz-adv-x="696" 
d="M663 407q0 -180 -97.5 -300t-241.5 -120q-128 0 -196 81.5t-68 214.5q0 180 97.5 300t241.5 120q128 0 196 -81.5t68 -214.5zM569 402q0 105 -45.5 163.5t-129.5 58.5q-104 0 -172 -96t-68 -240q0 -105 45.5 -163.5t128.5 -58.5q105 0 173 96t68 240zM456 762h-56
l-114 127l107 24z" />
    <glyph glyph-name="Oacute" unicode="&#xd3;" horiz-adv-x="696" 
d="M663 407q0 -180 -97.5 -300t-241.5 -120q-128 0 -196 81.5t-68 214.5q0 180 97.5 300t241.5 120q128 0 196 -81.5t68 -214.5zM569 402q0 105 -45.5 163.5t-129.5 58.5q-104 0 -172 -96t-68 -240q0 -105 45.5 -163.5t128.5 -58.5q105 0 173 96t68 240zM606 889l-152 -127
h-68l108 151z" />
    <glyph glyph-name="Ocircumflex" unicode="&#xd4;" horiz-adv-x="696" 
d="M663 407q0 -180 -97.5 -300t-241.5 -120q-128 0 -196 81.5t-68 214.5q0 180 97.5 300t241.5 120q128 0 196 -81.5t68 -214.5zM569 402q0 105 -45.5 163.5t-129.5 58.5q-104 0 -172 -96t-68 -240q0 -105 45.5 -163.5t128.5 -58.5q105 0 173 96t68 240zM565 762h-54l-72 71
l-99 -71h-58l123 141h84z" />
    <glyph glyph-name="Otilde" unicode="&#xd5;" horiz-adv-x="696" 
d="M663 407q0 -180 -97.5 -300t-241.5 -120q-128 0 -196 81.5t-68 214.5q0 180 97.5 300t241.5 120q128 0 196 -81.5t68 -214.5zM569 402q0 105 -45.5 163.5t-129.5 58.5q-104 0 -172 -96t-68 -240q0 -105 45.5 -163.5t128.5 -58.5q105 0 173 96t68 240zM602 879
q-32 -114 -101 -114q-29 0 -67 23q-44 25 -61 25q-22 0 -40 -51l-57 12q32 114 101 114q29 0 67 -23q44 -25 61 -25q22 0 40 51z" />
    <glyph glyph-name="Odieresis" unicode="&#xd6;" horiz-adv-x="696" 
d="M663 407q0 -180 -97.5 -300t-241.5 -120q-128 0 -196 81.5t-68 214.5q0 180 97.5 300t241.5 120q128 0 196 -81.5t68 -214.5zM569 402q0 105 -45.5 163.5t-129.5 58.5q-104 0 -172 -96t-68 -240q0 -105 45.5 -163.5t128.5 -58.5q105 0 173 96t68 240zM567 766h-99l16 101
h99zM388 766h-99l16 101h99z" />
    <glyph glyph-name="multiply" unicode="&#xd7;" horiz-adv-x="572" 
d="M433 123l-137 165l-190 -166l-47 55l192 164l-138 162l59 51l136 -164l189 165l47 -55l-191 -163l139 -163z" />
    <glyph glyph-name="Oslash" unicode="&#xd8;" horiz-adv-x="696" 
d="M717 681l-93 -102q39 -72 39 -172q0 -180 -96.5 -300t-237.5 -120q-117 0 -186 66l-56 -62l-80 18l92 101q-39 72 -39 173q0 180 96.5 300t237.5 120q116 0 186 -67l57 63zM390 626q-102 0 -170 -97.5t-68 -245.5q0 -57 14 -102l355 391q-48 54 -131 54zM571 407
q0 57 -15 100l-354 -390q47 -53 130 -53q103 0 171 98t68 245z" />
    <glyph glyph-name="Ugrave" unicode="&#xd9;" horiz-adv-x="637" 
d="M642 690l-73 -460q-20 -122 -92 -182.5t-180 -60.5q-107 0 -168.5 55.5t-61.5 161.5q0 31 7 75l65 411h92l-66 -416q-4 -27 -4 -61q0 -68 36.5 -105.5t106.5 -37.5q148 0 176 179l70 441h92zM430 742h-56l-114 127l107 24z" />
    <glyph glyph-name="Uacute" unicode="&#xda;" horiz-adv-x="637" 
d="M642 690l-73 -460q-20 -122 -92 -182.5t-180 -60.5q-107 0 -168.5 55.5t-61.5 161.5q0 31 7 75l65 411h92l-66 -416q-4 -27 -4 -61q0 -68 36.5 -105.5t106.5 -37.5q148 0 176 179l70 441h92zM580 869l-152 -127h-68l108 151z" />
    <glyph glyph-name="Ucircumflex" unicode="&#xdb;" horiz-adv-x="637" 
d="M642 690l-73 -460q-20 -122 -92 -182.5t-180 -60.5q-107 0 -168.5 55.5t-61.5 161.5q0 31 7 75l65 411h92l-66 -416q-4 -27 -4 -61q0 -68 36.5 -105.5t106.5 -37.5q148 0 176 179l70 441h92zM539 742h-54l-72 71l-99 -71h-58l123 141h84z" />
    <glyph glyph-name="Udieresis" unicode="&#xdc;" horiz-adv-x="637" 
d="M642 690l-73 -460q-20 -122 -92 -182.5t-180 -60.5q-107 0 -168.5 55.5t-61.5 161.5q0 31 7 75l65 411h92l-66 -416q-4 -27 -4 -61q0 -68 36.5 -105.5t106.5 -37.5q148 0 176 179l70 441h92zM541 746h-99l16 101h99zM362 746h-99l16 101h99z" />
    <glyph glyph-name="Yacute" unicode="&#xdd;" horiz-adv-x="606" 
d="M655 690l-303 -416l-43 -274h-92l44 274l-167 403l95 20l130 -337l232 330h104zM558 869l-152 -127h-68l108 151z" />
    <glyph glyph-name="Thorn" unicode="&#xde;" horiz-adv-x="515" 
d="M496 377q0 -105 -75.5 -166.5t-212.5 -61.5h-54l-23 -149h-92l109 690h92l-21 -132h42q114 0 174.5 -46.5t60.5 -134.5zM403 365q0 113 -139 113h-58l-39 -247h57q179 0 179 134z" />
    <glyph glyph-name="germandbls" unicode="&#xdf;" horiz-adv-x="580" 
d="M538 161q0 -82 -51.5 -126.5t-132.5 -44.5q-78 0 -144 41l24 72q67 -40 126 -40q44 0 69 24t25 67q0 47 -41.5 79.5t-133.5 53.5v68q61 68 87.5 115t26.5 96q0 33 -18 52.5t-51 19.5q-83 0 -101 -110l-110 -701l-88 -13l92 591h-67l12 72h67l9 57q14 89 66 134t132 45
q69 0 107.5 -38t38.5 -100q0 -64 -32 -118t-96 -120q92 -23 138 -65t46 -111z" />
    <glyph glyph-name="agrave" unicode="&#xe0;" horiz-adv-x="493" 
d="M326 79q-89 -89 -160 -89q-60 0 -96.5 42t-36.5 120q0 147 82 239t194 92q66 0 150 -29l-52 -328v-126h-76zM327 161l37 240q-31 11 -66 11q-71 0 -124.5 -71.5t-53.5 -177.5q0 -98 66 -98q54 0 141 96zM335 547h-56l-114 127l107 24z" />
    <glyph glyph-name="aacute" unicode="&#xe1;" horiz-adv-x="493" 
d="M326 79q-89 -89 -160 -89q-60 0 -96.5 42t-36.5 120q0 147 82 239t194 92q66 0 150 -29l-52 -328v-126h-76zM327 161l37 240q-31 11 -66 11q-71 0 -124.5 -71.5t-53.5 -177.5q0 -98 66 -98q54 0 141 96zM485 674l-152 -127h-68l108 151z" />
    <glyph glyph-name="acircumflex" unicode="&#xe2;" horiz-adv-x="493" 
d="M326 79q-89 -89 -160 -89q-60 0 -96.5 42t-36.5 120q0 147 82 239t194 92q66 0 150 -29l-52 -328v-126h-76zM327 161l37 240q-31 11 -66 11q-71 0 -124.5 -71.5t-53.5 -177.5q0 -98 66 -98q54 0 141 96zM444 547h-54l-72 71l-99 -71h-58l123 141h84z" />
    <glyph glyph-name="atilde" unicode="&#xe3;" horiz-adv-x="493" 
d="M326 79q-89 -89 -160 -89q-60 0 -96.5 42t-36.5 120q0 147 82 239t194 92q66 0 150 -29l-52 -328v-126h-76zM327 161l37 240q-31 11 -66 11q-71 0 -124.5 -71.5t-53.5 -177.5q0 -98 66 -98q54 0 141 96zM481 664q-31 -114 -101 -114q-29 0 -67 23q-44 25 -61 25
q-22 0 -40 -51l-57 12q31 114 101 114q29 0 67 -23q44 -25 61 -25q22 0 40 51z" />
    <glyph glyph-name="adieresis" unicode="&#xe4;" horiz-adv-x="493" 
d="M326 79q-89 -89 -160 -89q-60 0 -96.5 42t-36.5 120q0 147 82 239t194 92q66 0 150 -29l-52 -328v-126h-76zM327 161l37 240q-31 11 -66 11q-71 0 -124.5 -71.5t-53.5 -177.5q0 -98 66 -98q54 0 141 96zM446 551h-99l16 101h99zM267 551h-99l16 101h99z" />
    <glyph glyph-name="aring" unicode="&#xe5;" horiz-adv-x="493" 
d="M326 79q-89 -89 -160 -89q-60 0 -96.5 42t-36.5 120q0 147 82 239t194 92q66 0 150 -29l-52 -328v-126h-76zM327 161l37 240q-31 11 -66 11q-71 0 -124.5 -71.5t-53.5 -177.5q0 -98 66 -98q54 0 141 96zM322 588q25 0 41 16.5t16 42.5t-16 43t-41 17t-41 -17t-16 -43
t16 -42.5t41 -16.5zM322 544q-45 0 -74.5 29t-29.5 74q0 44 29.5 74t74.5 30t74.5 -30t29.5 -74q0 -45 -29.5 -74t-74.5 -29z" />
    <glyph glyph-name="ae" unicode="&#xe6;" horiz-adv-x="732" 
d="M698 303q0 -39 -7 -74h-292q-2 -24 -2 -37q0 -129 111 -129q72 0 157 62v-80q-80 -55 -171 -55q-114 0 -160 85q-104 -85 -190 -85q-56 0 -90 31.5t-34 89.5q0 170 307 196l3 17q15 89 -72 89q-62 0 -151 -42v78q92 38 163 38q106 0 132 -64q59 64 135 64t118.5 -49
t42.5 -135zM613 294q5 128 -80 128q-39 0 -72.5 -34.5t-49.5 -93.5h202zM314 136q-4 20 -4 47q0 35 4 62q-118 -14 -162.5 -47t-44.5 -81q0 -54 60 -54q55 0 147 73z" />
    <glyph glyph-name="ccedilla" unicode="&#xe7;" horiz-adv-x="426" 
d="M420 446l-27 -81q-60 45 -117 45q-61 0 -107.5 -64.5t-46.5 -151.5q0 -61 30 -94.5t83 -33.5q59 0 124 45v-81q-63 -40 -135 -40q-87 0 -138 52.5t-51 145.5q0 123 70.5 211t173.5 88q79 0 141 -41zM249 -89l-140 -108h-60l97 133z" />
    <glyph glyph-name="egrave" unicode="&#xe8;" horiz-adv-x="456" 
d="M232 63q72 0 157 62v-80q-80 -55 -171 -55q-84 0 -134 49.5t-50 143.5q0 134 68.5 219t158.5 85q76 0 118.5 -49t42.5 -135q0 -39 -7 -74h-292q-2 -14 -2 -41q0 -125 111 -125zM257 422q-41 0 -73.5 -35t-48.5 -93h202q5 128 -80 128zM310 547h-56l-114 127l107 24z" />
    <glyph glyph-name="eacute" unicode="&#xe9;" horiz-adv-x="456" 
d="M232 63q72 0 157 62v-80q-80 -55 -171 -55q-84 0 -134 49.5t-50 143.5q0 134 68.5 219t158.5 85q76 0 118.5 -49t42.5 -135q0 -39 -7 -74h-292q-2 -14 -2 -41q0 -125 111 -125zM257 422q-41 0 -73.5 -35t-48.5 -93h202q5 128 -80 128zM460 674l-152 -127h-68l108 151z
" />
    <glyph glyph-name="ecircumflex" unicode="&#xea;" horiz-adv-x="456" 
d="M232 63q72 0 157 62v-80q-80 -55 -171 -55q-84 0 -134 49.5t-50 143.5q0 134 68.5 219t158.5 85q76 0 118.5 -49t42.5 -135q0 -39 -7 -74h-292q-2 -14 -2 -41q0 -125 111 -125zM257 422q-41 0 -73.5 -35t-48.5 -93h202q5 128 -80 128zM419 547h-54l-72 71l-99 -71h-58
l123 141h84z" />
    <glyph glyph-name="edieresis" unicode="&#xeb;" horiz-adv-x="456" 
d="M232 63q72 0 157 62v-80q-80 -55 -171 -55q-84 0 -134 49.5t-50 143.5q0 134 68.5 219t158.5 85q76 0 118.5 -49t42.5 -135q0 -39 -7 -74h-292q-2 -14 -2 -41q0 -125 111 -125zM257 422q-41 0 -73.5 -35t-48.5 -93h202q5 128 -80 128zM420 551h-99l16 101h99zM241 551
h-99l16 101h99z" />
    <glyph glyph-name="igrave" unicode="&#xec;" horiz-adv-x="230" 
d="M195 477l-75 -477h-86l75 477h86zM192 547h-56l-114 127l107 24z" />
    <glyph glyph-name="iacute" unicode="&#xed;" horiz-adv-x="230" 
d="M195 477l-75 -477h-86l75 477h86zM342 674l-152 -127h-68l108 151z" />
    <glyph glyph-name="icircumflex" unicode="&#xee;" horiz-adv-x="230" 
d="M195 477l-75 -477h-86l75 477h86zM301 547h-54l-72 71l-99 -71h-58l123 141h84z" />
    <glyph glyph-name="idieresis" unicode="&#xef;" horiz-adv-x="230" 
d="M195 477l-75 -477h-86l75 477h86zM302 551h-99l16 101h99zM123 551h-99l16 101h99z" />
    <glyph glyph-name="eth" unicode="&#xf0;" horiz-adv-x="508" 
d="M302 507h-76l70 89q-37 28 -98 51l12 76q81 -27 133 -66l51 65l70 -14l-75 -93q86 -92 86 -245q0 -95 -30.5 -180t-83.5 -138q-62 -62 -144 -62q-78 0 -128 52.5t-50 148.5q0 106 62 182t155 76q72 0 137 -60q-3 102 -53 165zM225 57q59 0 105 72.5t59 178.5
q-35 38 -65.5 55t-69.5 17q-57 0 -92.5 -56t-35.5 -135q0 -64 26 -98t73 -34z" />
    <glyph glyph-name="ntilde" unicode="&#xf1;" horiz-adv-x="495" 
d="M455 380q0 -18 -2 -36l-55 -344h-86l52 325q2 18 2 27q0 58 -49 58q-27 0 -69.5 -33t-84.5 -86l-45 -291h-86l57 363v114h77l5 -95q96 105 172 105q54 0 83 -28t29 -79zM470 664q-32 -114 -101 -114q-29 0 -67 23q-44 25 -61 25q-22 0 -40 -51l-57 12q32 114 101 114
q29 0 67 -23q44 -25 61 -25q22 0 40 51z" />
    <glyph glyph-name="ograve" unicode="&#xf2;" horiz-adv-x="489" 
d="M454 283q0 -122 -67.5 -207.5t-170.5 -85.5q-83 0 -132 53.5t-49 149.5q0 122 67.5 208t169.5 86q84 0 133 -54t49 -150zM367 281q0 69 -27.5 103t-72.5 34q-66 0 -105.5 -68t-39.5 -154q0 -70 27 -104t73 -34q66 0 105.5 68.5t39.5 154.5zM322 547h-56l-114 127l107 24z
" />
    <glyph glyph-name="oacute" unicode="&#xf3;" horiz-adv-x="489" 
d="M454 283q0 -122 -67.5 -207.5t-170.5 -85.5q-83 0 -132 53.5t-49 149.5q0 122 67.5 208t169.5 86q84 0 133 -54t49 -150zM367 281q0 69 -27.5 103t-72.5 34q-66 0 -105.5 -68t-39.5 -154q0 -70 27 -104t73 -34q66 0 105.5 68.5t39.5 154.5zM472 674l-152 -127h-68
l108 151z" />
    <glyph glyph-name="ocircumflex" unicode="&#xf4;" horiz-adv-x="489" 
d="M454 283q0 -122 -67.5 -207.5t-170.5 -85.5q-83 0 -132 53.5t-49 149.5q0 122 67.5 208t169.5 86q84 0 133 -54t49 -150zM367 281q0 69 -27.5 103t-72.5 34q-66 0 -105.5 -68t-39.5 -154q0 -70 27 -104t73 -34q66 0 105.5 68.5t39.5 154.5zM431 547h-54l-72 71l-99 -71
h-58l123 141h84z" />
    <glyph glyph-name="otilde" unicode="&#xf5;" horiz-adv-x="489" 
d="M454 283q0 -122 -67.5 -207.5t-170.5 -85.5q-83 0 -132 53.5t-49 149.5q0 122 67.5 208t169.5 86q84 0 133 -54t49 -150zM367 281q0 69 -27.5 103t-72.5 34q-66 0 -105.5 -68t-39.5 -154q0 -70 27 -104t73 -34q66 0 105.5 68.5t39.5 154.5zM468 664q-31 -114 -101 -114
q-29 0 -67 23q-44 25 -61 25q-22 0 -40 -51l-57 12q32 114 101 114q29 0 67 -23q44 -25 61 -25q22 0 40 51z" />
    <glyph glyph-name="odieresis" unicode="&#xf6;" horiz-adv-x="489" 
d="M454 283q0 -122 -67.5 -207.5t-170.5 -85.5q-83 0 -132 53.5t-49 149.5q0 122 67.5 208t169.5 86q84 0 133 -54t49 -150zM367 281q0 69 -27.5 103t-72.5 34q-66 0 -105.5 -68t-39.5 -154q0 -70 27 -104t73 -34q66 0 105.5 68.5t39.5 154.5zM432 551h-99l16 101h99z
M253 551h-99l16 101h99z" />
    <glyph glyph-name="divide" unicode="&#xf7;" horiz-adv-x="572" 
d="M371 467h-98l17 107h98zM528 301h-464l12 74h464zM314 102h-98l17 107h98z" />
    <glyph glyph-name="oslash" unicode="&#xf8;" horiz-adv-x="489" 
d="M454 283q0 -122 -67.5 -207.5t-170.5 -85.5q-71 0 -117 38l-32 -36l-71 16l63 71q-24 47 -24 114q0 122 67.5 208t169.5 86q70 0 116 -38l33 36l71 -16l-63 -71q25 -48 25 -115zM371 277q0 29 -5 54l-217 -247q26 -29 69 -29q70 0 111.5 68.5t41.5 153.5zM271 421
q-70 0 -111.5 -67.5t-41.5 -149.5q0 -34 4 -57l216 246q-25 28 -67 28z" />
    <glyph glyph-name="ugrave" unicode="&#xf9;" horiz-adv-x="495" 
d="M463 477l-57 -363v-114h-77l-5 95q-96 -105 -172 -105q-54 0 -83 28t-29 79q0 18 2 36l55 344h86l-52 -325q-2 -18 -2 -27q0 -58 49 -58q27 0 69.5 33t84.5 86l45 291h86zM320 547h-56l-114 127l107 24z" />
    <glyph glyph-name="uacute" unicode="&#xfa;" horiz-adv-x="495" 
d="M463 477l-57 -363v-114h-77l-5 95q-96 -105 -172 -105q-54 0 -83 28t-29 79q0 18 2 36l55 344h86l-52 -325q-2 -18 -2 -27q0 -58 49 -58q27 0 69.5 33t84.5 86l45 291h86zM470 674l-152 -127h-68l108 151z" />
    <glyph glyph-name="ucircumflex" unicode="&#xfb;" horiz-adv-x="495" 
d="M463 477l-57 -363v-114h-77l-5 95q-96 -105 -172 -105q-54 0 -83 28t-29 79q0 18 2 36l55 344h86l-52 -325q-2 -18 -2 -27q0 -58 49 -58q27 0 69.5 33t84.5 86l45 291h86zM429 547h-54l-72 71l-99 -71h-58l123 141h84z" />
    <glyph glyph-name="udieresis" unicode="&#xfc;" horiz-adv-x="495" 
d="M463 477l-57 -363v-114h-77l-5 95q-96 -105 -172 -105q-54 0 -83 28t-29 79q0 18 2 36l55 344h86l-52 -325q-2 -18 -2 -27q0 -58 49 -58q27 0 69.5 33t84.5 86l45 291h86zM430 551h-99l16 101h99zM251 551h-99l16 101h99z" />
    <glyph glyph-name="yacute" unicode="&#xfd;" horiz-adv-x="450" 
d="M466 477l-264 -528q-37 -74 -78.5 -102.5t-103.5 -28.5q-13 0 -31 4v76q25 -5 46 -5q49 0 79 54l34 62l-89 461l87 14l61 -374l170 367h89zM455 674l-152 -127h-68l108 151z" />
    <glyph glyph-name="thorn" unicode="&#xfe;" horiz-adv-x="504" 
d="M472 318q0 -145 -81 -234.5t-190 -89.5q-42 0 -82 11l-28 -178l-88 -13l140 894l89 14l-48 -303q72 68 145 68q64 0 103.5 -44t39.5 -125zM385 304q0 108 -77 108q-56 0 -138 -84l-39 -248q32 -14 77 -14q70 0 123.5 64t53.5 174z" />
    <glyph glyph-name="ydieresis" unicode="&#xff;" horiz-adv-x="450" 
d="M466 477l-264 -528q-37 -74 -78.5 -102.5t-103.5 -28.5q-13 0 -31 4v76q25 -5 46 -5q49 0 79 54l34 62l-89 461l87 14l61 -374l170 367h89zM415 551h-99l16 101h99zM236 551h-99l16 101h99z" />
    <glyph glyph-name="Amacron" unicode="&#x100;" horiz-adv-x="639" 
d="M489 -7l-40 214h-257l-103 -207h-97l358 693h93l136 -680zM380 583l-147 -295h201zM545 785h-266l11 72h266z" />
    <glyph glyph-name="amacron" unicode="&#x101;" horiz-adv-x="493" 
d="M326 79q-89 -89 -160 -89q-60 0 -96.5 42t-36.5 120q0 147 82 239t194 92q66 0 150 -29l-52 -328v-126h-76zM327 161l37 240q-31 11 -66 11q-71 0 -124.5 -71.5t-53.5 -177.5q0 -98 66 -98q54 0 141 96zM444 570h-266l11 72h266z" />
    <glyph glyph-name="Abreve" unicode="&#x102;" horiz-adv-x="639" 
d="M489 -7l-40 214h-257l-103 -207h-97l358 693h93l136 -680zM380 583l-147 -295h201zM560 881q-28 -118 -146 -118q-60 0 -92 30.5t-32 86.5l63 13q9 -59 64 -59q58 0 84 59z" />
    <glyph glyph-name="abreve" unicode="&#x103;" horiz-adv-x="493" 
d="M326 79q-89 -89 -160 -89q-60 0 -96.5 42t-36.5 120q0 147 82 239t194 92q66 0 150 -29l-52 -328v-126h-76zM327 161l37 240q-31 11 -66 11q-71 0 -124.5 -71.5t-53.5 -177.5q0 -98 66 -98q54 0 141 96zM459 666q-28 -118 -146 -118q-60 0 -92 30.5t-32 86.5l63 13
q9 -59 64 -59q58 0 84 59z" />
    <glyph glyph-name="Aogonek" unicode="&#x104;" horiz-adv-x="639" 
d="M579 13l-10 -2l-29 -34q-45 -52 -45 -75q0 -24 33 -24q17 0 44 5l-9 -54q-38 -14 -74 -14q-70 0 -70 58q0 50 70 121l-40 213h-257l-103 -207h-97l358 693h93zM380 583l-147 -295h201z" />
    <glyph glyph-name="aogonek" unicode="&#x105;" horiz-adv-x="493" 
d="M326 79q-89 -89 -160 -89q-60 0 -96.5 42t-36.5 120q0 147 82 239t194 92q66 0 150 -29l-52 -328v-126h-18l-19 -23q-45 -52 -45 -75q0 -24 33 -24q17 0 44 5l-9 -54q-39 -14 -74 -14q-70 0 -70 58q0 28 17.5 57t62.5 74l1 1zM327 161l37 240q-31 11 -66 11
q-71 0 -124.5 -71.5t-53.5 -177.5q0 -98 66 -98q54 0 141 96z" />
    <glyph glyph-name="Cacute" unicode="&#x106;" horiz-adv-x="599" 
d="M597 636l-28 -91q-75 75 -166 75q-110 0 -179.5 -98.5t-69.5 -230.5q0 -109 48 -165t131 -56q91 0 181 63v-89q-87 -56 -186 -56q-125 0 -196.5 77.5t-71.5 215.5q0 170 98.5 295.5t249.5 125.5q114 0 189 -66zM601 889l-152 -127h-68l108 151z" />
    <glyph glyph-name="cacute" unicode="&#x107;" horiz-adv-x="426" 
d="M420 446l-27 -81q-60 45 -117 45q-61 0 -107.5 -64.5t-46.5 -151.5q0 -61 30 -94.5t83 -33.5q59 0 124 45v-81q-63 -40 -135 -40q-87 0 -138 52.5t-51 145.5q0 123 70.5 211t173.5 88q79 0 141 -41zM473 674l-152 -127h-68l108 151z" />
    <glyph glyph-name="Cdotaccent" unicode="&#x10a;" horiz-adv-x="599" 
d="M597 636l-28 -91q-75 75 -166 75q-110 0 -179.5 -98.5t-69.5 -230.5q0 -109 48 -165t131 -56q91 0 181 63v-89q-87 -56 -186 -56q-125 0 -196.5 77.5t-71.5 215.5q0 170 98.5 295.5t249.5 125.5q114 0 189 -66zM473 766h-100l16 101h100z" />
    <glyph glyph-name="cdotaccent" unicode="&#x10b;" horiz-adv-x="426" 
d="M420 446l-27 -81q-60 45 -117 45q-61 0 -107.5 -64.5t-46.5 -151.5q0 -61 30 -94.5t83 -33.5q59 0 124 45v-81q-63 -40 -135 -40q-87 0 -138 52.5t-51 145.5q0 123 70.5 211t173.5 88q79 0 141 -41zM344 551h-100l16 101h100z" />
    <glyph glyph-name="Ccaron" unicode="&#x10c;" horiz-adv-x="599" 
d="M597 636l-28 -91q-75 75 -166 75q-110 0 -179.5 -98.5t-69.5 -230.5q0 -109 48 -165t131 -56q91 0 181 63v-89q-87 -56 -186 -56q-125 0 -196.5 77.5t-71.5 215.5q0 170 98.5 295.5t249.5 125.5q114 0 189 -66zM303 903h54l72 -71l99 71h58l-123 -141h-84z" />
    <glyph glyph-name="ccaron" unicode="&#x10d;" horiz-adv-x="426" 
d="M420 446l-27 -81q-60 45 -117 45q-61 0 -107.5 -64.5t-46.5 -151.5q0 -61 30 -94.5t83 -33.5q59 0 124 45v-81q-63 -40 -135 -40q-87 0 -138 52.5t-51 145.5q0 123 70.5 211t173.5 88q79 0 141 -41zM175 688h54l72 -71l99 71h58l-123 -141h-84z" />
    <glyph glyph-name="Dcaron" unicode="&#x10e;" horiz-adv-x="654" 
d="M623 409q0 -184 -112 -296q-113 -113 -301 -113h-171l109 690h173q142 0 222 -73.5t80 -207.5zM528 399q0 104 -55.5 157t-161.5 53h-84l-84 -528h78q140 0 221 81q86 86 86 237zM260 893h54l72 -71l99 71h58l-123 -141h-84z" />
    <glyph glyph-name="dcaron" unicode="&#x10f;" horiz-adv-x="500" 
d="M507 722l-95 -608v-114h-77l-5 69q-77 -79 -155 -79q-62 0 -102 44t-40 125q0 144 80 234t188 90q42 0 81 -12l37 237zM370 397q-33 14 -77 14q-69 0 -121 -66t-52 -176q0 -104 74 -104q57 0 136 81zM628 722q11 -27 11 -52q0 -73 -88 -142l-44 10q50 58 50 108
q0 27 -14 63z" />
    <glyph glyph-name="Dcroat" unicode="&#x110;" horiz-adv-x="670" 
d="M639 409q0 -184 -112 -296q-113 -113 -301 -113h-171l50 319h-75v84h88l46 287h173q142 0 222 -73.5t80 -207.5zM363 319h-166l-38 -238h78q140 0 221 81q86 86 86 237q0 104 -55.5 157t-161.5 53h-84l-33 -206h167z" />
    <glyph glyph-name="dcroat" unicode="&#x111;" horiz-adv-x="505" 
d="M551 562h-69l-70 -448v-114h-77l-5 69q-77 -79 -155 -79q-62 0 -102 44t-40 125q0 144 80 234t188 90q42 0 81 -12l14 91h-100v72h111l12 74l88 14l-14 -88h69zM370 397q-33 14 -77 14q-69 0 -121 -66t-52 -176q0 -104 74 -104q57 0 136 81z" />
    <glyph glyph-name="Emacron" unicode="&#x112;" horiz-adv-x="467" 
d="M494 690l-13 -82h-254l-32 -205h196v-84h-209l-38 -237h263l-13 -82h-355l109 690h346zM475 775h-266l11 72h266z" />
    <glyph glyph-name="emacron" unicode="&#x113;" horiz-adv-x="456" 
d="M232 63q72 0 157 62v-80q-80 -55 -171 -55q-84 0 -134 49.5t-50 143.5q0 134 68.5 219t158.5 85q76 0 118.5 -49t42.5 -135q0 -39 -7 -74h-292q-2 -14 -2 -41q0 -125 111 -125zM257 422q-41 0 -73.5 -35t-48.5 -93h202q5 128 -80 128zM418 570h-266l11 72h266z" />
    <glyph glyph-name="Ebreve" unicode="&#x114;" horiz-adv-x="467" 
d="M494 690l-13 -82h-254l-32 -205h196v-84h-209l-38 -237h263l-13 -82h-355l109 690h346zM490 871q-28 -118 -146 -118q-60 0 -92 30.5t-32 86.5l63 13q9 -59 64 -59q58 0 84 59z" />
    <glyph glyph-name="ebreve" unicode="&#x115;" horiz-adv-x="456" 
d="M232 63q72 0 157 62v-80q-80 -55 -171 -55q-84 0 -134 49.5t-50 143.5q0 134 68.5 219t158.5 85q76 0 118.5 -49t42.5 -135q0 -39 -7 -74h-292q-2 -14 -2 -41q0 -125 111 -125zM433 666q-28 -118 -146 -118q-60 0 -92 30.5t-32 86.5l63 13q9 -59 64 -59q58 0 84 59z
M257 422q-41 0 -73.5 -35t-48.5 -93h202q5 128 -80 128z" />
    <glyph glyph-name="Edotaccent" unicode="&#x116;" horiz-adv-x="467" 
d="M494 690l-13 -82h-254l-32 -205h196v-84h-209l-38 -237h263l-13 -82h-355l109 690h346zM388 756h-100l16 101h100z" />
    <glyph glyph-name="edotaccent" unicode="&#x117;" horiz-adv-x="456" 
d="M232 63q72 0 157 62v-80q-80 -55 -171 -55q-84 0 -134 49.5t-50 143.5q0 134 68.5 219t158.5 85q76 0 118.5 -49t42.5 -135q0 -39 -7 -74h-292q-2 -14 -2 -41q0 -125 111 -125zM257 422q-41 0 -73.5 -35t-48.5 -93h202q5 128 -80 128zM331 551h-100l16 101h100z" />
    <glyph glyph-name="Eogonek" unicode="&#x118;" horiz-adv-x="467" 
d="M494 690l-13 -82h-254l-32 -205h196v-84h-209l-38 -237h263l-13 -82h-24l-19 -23q-45 -52 -45 -75q0 -24 33 -24q17 0 44 5l-9 -54q-38 -14 -74 -14q-70 0 -70 58q0 51 76 127h-267l109 690h346z" />
    <glyph glyph-name="eogonek" unicode="&#x119;" horiz-adv-x="456" 
d="M232 63q72 0 157 62v-70l-67 -78q-45 -52 -45 -75q0 -24 33 -24q17 0 44 5l-9 -54q-38 -14 -74 -14q-70 0 -70 58q0 50 70 121q-23 -4 -53 -4q-84 0 -134 49.5t-50 143.5q0 134 68.5 219t158.5 85q76 0 118.5 -49t42.5 -135q0 -39 -7 -74h-293q-1 -13 -1 -41
q0 -125 111 -125zM257 422q-39 0 -72 -34t-51 -94h203q5 128 -80 128z" />
    <glyph glyph-name="Ecaron" unicode="&#x11a;" horiz-adv-x="467" 
d="M494 690l-13 -82h-254l-32 -205h196v-84h-209l-38 -237h263l-13 -82h-355l109 690h346zM219 893h54l72 -71l99 71h58l-123 -141h-84z" />
    <glyph glyph-name="ecaron" unicode="&#x11b;" horiz-adv-x="456" 
d="M232 63q72 0 157 62v-80q-80 -55 -171 -55q-84 0 -134 49.5t-50 143.5q0 134 68.5 219t158.5 85q76 0 118.5 -49t42.5 -135q0 -39 -7 -74h-292q-2 -14 -2 -41q0 -125 111 -125zM257 422q-41 0 -73.5 -35t-48.5 -93h202q5 128 -80 128zM162 688h54l72 -71l99 71h58
l-123 -141h-84z" />
    <glyph glyph-name="Gbreve" unicode="&#x11e;" horiz-adv-x="660" 
d="M610 377l-51 -325q-108 -64 -222 -64q-125 0 -202 78.5t-77 214.5q0 109 45.5 205.5t129 156t184.5 59.5q128 0 205 -58l-27 -91q-77 67 -187 67q-108 0 -181.5 -97.5t-73.5 -231.5q0 -108 52.5 -164.5t136.5 -56.5q78 0 136 34l29 189h-147v84h250zM581 881
q-28 -118 -146 -118q-60 0 -92 30.5t-32 86.5l63 13q9 -59 64 -59q58 0 84 59z" />
    <glyph glyph-name="gbreve" unicode="&#x11f;" horiz-adv-x="499" 
d="M465 453l-66 -420q-17 -110 -73 -162.5t-156 -52.5q-90 0 -167 37l25 75q75 -40 148 -40q111 0 134 125l9 51q-73 -67 -145 -67q-62 0 -101.5 42t-39.5 115q0 145 80.5 236t191.5 91q73 0 160 -30zM370 397q-33 14 -77 14q-69 0 -121 -68t-52 -177q0 -92 75 -92
q61 0 136 80zM472 666q-28 -118 -146 -118q-60 0 -92 30.5t-32 86.5l63 13q9 -59 64 -59q58 0 84 59z" />
    <glyph glyph-name="Gdotaccent" unicode="&#x120;" horiz-adv-x="660" 
d="M610 377l-51 -325q-108 -64 -222 -64q-125 0 -202 78.5t-77 214.5q0 109 45.5 205.5t129 156t184.5 59.5q128 0 205 -58l-27 -91q-77 67 -187 67q-108 0 -181.5 -97.5t-73.5 -231.5q0 -108 52.5 -164.5t136.5 -56.5q78 0 136 34l29 189h-147v84h250zM480 766h-100l16 101
h100z" />
    <glyph glyph-name="gdotaccent" unicode="&#x121;" horiz-adv-x="499" 
d="M465 453l-66 -420q-17 -110 -73 -162.5t-156 -52.5q-90 0 -167 37l25 75q75 -40 148 -40q111 0 134 125l9 51q-73 -67 -145 -67q-62 0 -101.5 42t-39.5 115q0 145 80.5 236t191.5 91q73 0 160 -30zM370 397q-33 14 -77 14q-69 0 -121 -68t-52 -177q0 -92 75 -92
q61 0 136 80zM370 551h-100l16 101h100z" />
    <glyph glyph-name="Gcommaaccent" unicode="&#x122;" horiz-adv-x="660" 
d="M610 377l-51 -325q-108 -64 -222 -64q-125 0 -202 78.5t-77 214.5q0 109 45.5 205.5t129 156t184.5 59.5q128 0 205 -58l-27 -91q-77 67 -187 67q-108 0 -181.5 -97.5t-73.5 -231.5q0 -108 52.5 -164.5t136.5 -56.5q78 0 136 34l29 189h-147v84h250zM232 -95l82 26
q29 -37 29 -70q0 -65 -92 -144l-53 14q63 70 63 112q0 27 -29 62z" />
    <glyph glyph-name="gcommaaccent" unicode="&#x123;" horiz-adv-x="499" 
d="M465 453l-66 -420q-17 -110 -73 -162.5t-156 -52.5q-90 0 -167 37l25 75q75 -40 148 -40q111 0 134 125l9 51q-73 -67 -145 -67q-62 0 -101.5 42t-39.5 115q0 145 80.5 236t191.5 91q73 0 160 -30zM370 397q-33 14 -77 14q-69 0 -121 -68t-52 -177q0 -92 75 -92
q61 0 136 80zM379 569l-82 -26q-29 37 -29 70q0 65 92 144l53 -14q-63 -70 -63 -112q0 -27 29 -62z" />
    <glyph glyph-name="Hbar" unicode="&#x126;" horiz-adv-x="668" 
d="M655 690l-17 -103h84l-13 -79h-83l-80 -508h-92l49 313h-316l-50 -313h-92l80 508h-76v79h88l17 103h92l-17 -103h317l17 103h92zM200 397h317l17 113h-317z" />
    <glyph glyph-name="hbar" unicode="&#x127;" horiz-adv-x="501" 
d="M322 562h-110l-28 -173q94 98 165 98q54 0 83 -28t29 -79q0 -18 -2 -36l-55 -344h-86l52 325q2 16 2 27q0 58 -49 58q-27 0 -69.5 -33t-84.5 -86l-45 -291h-86l89 562h-60v72h71l12 74l88 14l-15 -88h110z" />
    <glyph glyph-name="Imacron" unicode="&#x12a;" horiz-adv-x="258" 
d="M245 690l-109 -690h-92l109 690h92zM346 775h-266l11 72h266z" />
    <glyph glyph-name="imacron" unicode="&#x12b;" horiz-adv-x="230" 
d="M195 477l-75 -477h-86l75 477h86zM300 570h-266l11 72h266z" />
    <glyph glyph-name="Ibreve" unicode="&#x12c;" horiz-adv-x="258" 
d="M245 690l-109 -690h-92l109 690h92zM361 871q-28 -118 -146 -118q-60 0 -92 30.5t-32 86.5l63 13q9 -59 64 -59q58 0 84 59z" />
    <glyph glyph-name="ibreve" unicode="&#x12d;" horiz-adv-x="230" 
d="M195 477l-75 -477h-86l75 477h86zM315 666q-28 -118 -146 -118q-60 0 -92 30.5t-32 86.5l63 13q9 -59 64 -59q58 0 84 59z" />
    <glyph glyph-name="Iogonek" unicode="&#x12e;" horiz-adv-x="258" 
d="M245 690l-109 -690h-13l-19 -23q-45 -52 -45 -75q0 -24 33 -24q17 0 44 5l-9 -54q-38 -14 -74 -14q-70 0 -70 58q0 51 76 127h-15l109 690h92z" />
    <glyph glyph-name="iogonek" unicode="&#x12f;" horiz-adv-x="230" 
d="M195 477l-75 -477h-10l-19 -23q-45 -52 -45 -75q0 -24 33 -24q17 0 44 5l-9 -54q-39 -14 -74 -14q-70 0 -70 58q0 51 76 127h-12l75 477h86zM234 630q0 -24 -16.5 -40.5t-40.5 -16.5t-40.5 16.5t-16.5 40.5t16.5 40.5t40.5 16.5t40.5 -16.5t16.5 -40.5z" />
    <glyph glyph-name="Idotaccent" unicode="&#x130;" horiz-adv-x="258" 
d="M245 690l-109 -690h-92l109 690h92zM259 756h-100l16 101h100z" />
    <glyph glyph-name="dotlessi" unicode="&#x131;" horiz-adv-x="230" 
d="M195 477l-75 -477h-86l75 477h86z" />
    <glyph glyph-name="Kcommaaccent" unicode="&#x136;" horiz-adv-x="573" 
d="M608 690l-328 -325l240 -351l-94 -21l-240 357l-55 -350h-92l109 690h92l-49 -308l306 308h111zM183 -85l82 26q29 -37 29 -70q0 -65 -92 -144l-53 14q63 70 63 112q0 27 -29 62z" />
    <glyph glyph-name="kcommaaccent" unicode="&#x137;" horiz-adv-x="455" 
d="M118 0h-86l112 708l88 14l-70 -444l196 199h110l-222 -215l164 -254l-92 -15l-161 256zM125 -90l82 26q29 -37 29 -70q0 -65 -92 -144l-53 14q63 70 63 112q0 27 -29 62z" />
    <glyph glyph-name="Lacute" unicode="&#x139;" horiz-adv-x="435" 
d="M370 0h-331l109 690h92l-97 -608h227v-82zM393 874l-152 -127h-68l108 151z" />
    <glyph glyph-name="lacute" unicode="&#x13a;" horiz-adv-x="230" 
d="M234 722l-114 -722h-86l111 708zM381 884l-152 -127h-68l108 151z" />
    <glyph glyph-name="Lcommaaccent" unicode="&#x13b;" horiz-adv-x="435" 
d="M370 0h-331l109 690h92l-97 -608h227v-82zM126 -90l82 26q29 -37 29 -70q0 -65 -92 -144l-53 14q63 70 63 112q0 27 -29 62z" />
    <glyph glyph-name="lcommaaccent" unicode="&#x13c;" horiz-adv-x="230" 
d="M234 722l-114 -722h-86l111 708zM2 -90l82 26q29 -37 29 -70q0 -65 -92 -144l-53 14q63 70 63 112q0 27 -29 62z" />
    <glyph glyph-name="Lcaron" unicode="&#x13d;" horiz-adv-x="435" 
d="M370 0h-331l109 690h92l-97 -608h227v-82zM395 696q11 -27 11 -52q0 -73 -88 -142l-44 10q50 58 50 108q0 27 -14 63z" />
    <glyph glyph-name="lcaron" unicode="&#x13e;" horiz-adv-x="250" 
d="M234 722l-114 -722h-86l111 708zM361 728q11 -27 11 -52q0 -73 -88 -142l-44 10q50 58 50 108q0 27 -14 63z" />
    <glyph glyph-name="Ldot" unicode="&#x13f;" horiz-adv-x="435" 
d="M400 300h-100l16 101h100zM370 0h-331l109 690h92l-97 -608h227v-82z" />
    <glyph glyph-name="ldot" unicode="&#x140;" horiz-adv-x="291" 
d="M312 304h-81l16 101h81zM234 722l-114 -722h-86l111 708z" />
    <glyph glyph-name="Lslash" unicode="&#x141;" horiz-adv-x="451" 
d="M386 0h-331l41 259l-66 -34v85l80 41l54 339h92l-46 -288l155 80l-15 -93l-155 -79l-36 -228h227v-82z" />
    <glyph glyph-name="lslash" unicode="&#x142;" horiz-adv-x="289" 
d="M264 722l-49 -307l90 47l-14 -92l-90 -45l-51 -325h-86l43 277l-83 -43v84l97 49l54 341z" />
    <glyph glyph-name="Nacute" unicode="&#x143;" horiz-adv-x="654" 
d="M647 690l-109 -690h-57l-271 558l-88 -558h-83l109 690h91l246 -506l79 506h83zM588 869l-152 -127h-68l108 151z" />
    <glyph glyph-name="nacute" unicode="&#x144;" horiz-adv-x="495" 
d="M455 380q0 -18 -2 -36l-55 -344h-86l52 325q2 18 2 27q0 58 -49 58q-27 0 -69.5 -33t-84.5 -86l-45 -291h-86l57 363v114h77l5 -95q96 105 172 105q54 0 83 -28t29 -79zM474 674l-152 -127h-68l108 151z" />
    <glyph glyph-name="Ncommaaccent" unicode="&#x145;" horiz-adv-x="654" 
d="M647 690l-109 -690h-57l-271 558l-88 -558h-83l109 690h91l246 -506l79 506h83zM217 -85l82 26q29 -37 29 -70q0 -65 -92 -144l-53 14q63 70 63 112q0 27 -29 62z" />
    <glyph glyph-name="ncommaaccent" unicode="&#x146;" horiz-adv-x="495" 
d="M455 380q0 -18 -2 -36l-55 -344h-86l52 325q2 18 2 27q0 58 -49 58q-27 0 -69.5 -33t-84.5 -86l-45 -291h-86l57 363v114h77l5 -95q96 105 172 105q54 0 83 -28t29 -79zM133 -90l82 26q29 -37 29 -70q0 -65 -92 -144l-53 14q63 70 63 112q0 27 -29 62z" />
    <glyph glyph-name="Ncaron" unicode="&#x147;" horiz-adv-x="654" 
d="M647 690l-109 -690h-57l-271 558l-88 -558h-83l109 690h91l246 -506l79 506h83zM290 883h54l72 -71l99 71h58l-123 -141h-84z" />
    <glyph glyph-name="ncaron" unicode="&#x148;" horiz-adv-x="495" 
d="M455 380q0 -18 -2 -36l-55 -344h-86l52 325q2 18 2 27q0 58 -49 58q-27 0 -69.5 -33t-84.5 -86l-45 -291h-86l57 363v114h77l5 -95q96 105 172 105q54 0 83 -28t29 -79zM177 688h54l72 -71l99 71h58l-123 -141h-84z" />
    <glyph glyph-name="Omacron" unicode="&#x14c;" horiz-adv-x="696" 
d="M663 407q0 -180 -97.5 -300t-241.5 -120q-128 0 -196 81.5t-68 214.5q0 180 97.5 300t241.5 120q128 0 196 -81.5t68 -214.5zM569 402q0 105 -45.5 163.5t-129.5 58.5q-104 0 -172 -96t-68 -240q0 -105 45.5 -163.5t128.5 -58.5q105 0 173 96t68 240zM564 785h-266l11 72
h266z" />
    <glyph glyph-name="omacron" unicode="&#x14d;" horiz-adv-x="489" 
d="M454 283q0 -122 -67.5 -207.5t-170.5 -85.5q-83 0 -132 53.5t-49 149.5q0 122 67.5 208t169.5 86q84 0 133 -54t49 -150zM367 281q0 69 -27.5 103t-72.5 34q-66 0 -105.5 -68t-39.5 -154q0 -70 27 -104t73 -34q66 0 105.5 68.5t39.5 154.5zM430 570h-266l11 72h266z" />
    <glyph glyph-name="Obreve" unicode="&#x14e;" horiz-adv-x="696" 
d="M663 407q0 -180 -97.5 -300t-241.5 -120q-128 0 -196 81.5t-68 214.5q0 180 97.5 300t241.5 120q128 0 196 -81.5t68 -214.5zM569 402q0 105 -45.5 163.5t-129.5 58.5q-104 0 -172 -96t-68 -240q0 -105 45.5 -163.5t128.5 -58.5q105 0 173 96t68 240zM579 881
q-28 -118 -146 -118q-60 0 -92 30.5t-32 86.5l63 13q9 -59 64 -59q58 0 84 59z" />
    <glyph glyph-name="obreve" unicode="&#x14f;" horiz-adv-x="489" 
d="M454 283q0 -122 -67.5 -207.5t-170.5 -85.5q-83 0 -132 53.5t-49 149.5q0 122 67.5 208t169.5 86q84 0 133 -54t49 -150zM367 281q0 69 -27.5 103t-72.5 34q-66 0 -105.5 -68t-39.5 -154q0 -70 27 -104t73 -34q66 0 105.5 68.5t39.5 154.5zM445 666q-28 -118 -146 -118
q-60 0 -92 30.5t-32 86.5l63 13q9 -59 64 -59q58 0 84 59z" />
    <glyph glyph-name="Ohungarumlaut" unicode="&#x150;" horiz-adv-x="696" 
d="M663 407q0 -180 -97.5 -300t-241.5 -120q-128 0 -196 81.5t-68 214.5q0 180 97.5 300t241.5 120q128 0 196 -81.5t68 -214.5zM569 402q0 105 -45.5 163.5t-129.5 58.5q-104 0 -172 -96t-68 -240q0 -105 45.5 -163.5t128.5 -58.5q105 0 173 96t68 240zM667 891l-149 -125
h-56l108 147zM511 891l-149 -125h-55l107 147z" />
    <glyph glyph-name="ohungarumlaut" unicode="&#x151;" horiz-adv-x="489" 
d="M454 283q0 -122 -67.5 -207.5t-170.5 -85.5q-83 0 -132 53.5t-49 149.5q0 122 67.5 208t169.5 86q84 0 133 -54t49 -150zM367 281q0 69 -27.5 103t-72.5 34q-66 0 -105.5 -68t-39.5 -154q0 -70 27 -104t73 -34q66 0 105.5 68.5t39.5 154.5zM533 676l-149 -125h-56
l108 147zM377 676l-149 -125h-55l107 147z" />
    <glyph glyph-name="OE" unicode="&#x152;" horiz-adv-x="820" 
d="M159 291q0 -104 55.5 -157t161.5 -53h30l84 528h-24q-140 0 -221 -81q-86 -86 -86 -237zM477 690h370l-13 -82h-254l-32 -205h196v-84h-209l-38 -237h263l-13 -82h-381q-142 0 -222 73.5t-80 207.5q0 184 112 296q113 113 301 113z" />
    <glyph glyph-name="oe" unicode="&#x153;" horiz-adv-x="782" 
d="M748 303q0 -39 -7 -74h-292q-2 -26 -2 -41q0 -125 111 -125q72 0 157 62v-80q-80 -55 -171 -55q-116 0 -157 91q-65 -91 -171 -91q-83 0 -132 53.5t-49 149.5q0 122 67.5 208t169.5 86q113 0 154 -95q64 95 161 95q76 0 118.5 -49t42.5 -135zM367 286q0 66 -27.5 99
t-72.5 33q-67 0 -106 -69t-39 -158q0 -66 27 -99.5t73 -33.5q67 0 106 68.5t39 159.5zM583 422q-39 0 -72 -34t-50 -94h202q5 128 -80 128z" />
    <glyph glyph-name="Racute" unicode="&#x154;" horiz-adv-x="548" 
d="M517 518q0 -83 -48.5 -138t-137.5 -74l160 -292l-95 -21l-165 305h-53l-47 -298h-92l109 690h138q109 0 170 -42.5t61 -129.5zM424 507q0 102 -134 102h-63l-36 -233h66q83 0 125 34t42 97zM510 879l-152 -127h-68l108 151z" />
    <glyph glyph-name="racute" unicode="&#x155;" horiz-adv-x="332" 
d="M344 400q-57 -6 -105 -39t-77 -82l-44 -279h-86l57 363v114h77l5 -107q33 49 79 82.5t94 34.5v-87zM389 674l-152 -127h-68l108 151z" />
    <glyph glyph-name="Rcommaaccent" unicode="&#x156;" horiz-adv-x="548" 
d="M517 518q0 -83 -48.5 -138t-137.5 -74l160 -292l-95 -21l-165 305h-53l-47 -298h-92l109 690h138q109 0 170 -42.5t61 -129.5zM424 507q0 102 -134 102h-63l-36 -233h66q83 0 125 34t42 97zM173 -85l82 26q29 -37 29 -70q0 -65 -92 -144l-53 14q63 70 63 112q0 27 -29 62
z" />
    <glyph glyph-name="rcommaaccent" unicode="&#x157;" horiz-adv-x="332" 
d="M344 400q-57 -6 -105 -39t-77 -82l-44 -279h-86l57 363v114h77l5 -107q33 49 79 82.5t94 34.5v-87zM13 -90l82 26q29 -37 29 -70q0 -65 -92 -144l-53 14q63 70 63 112q0 27 -29 62z" />
    <glyph glyph-name="Rcaron" unicode="&#x158;" horiz-adv-x="548" 
d="M517 518q0 -83 -48.5 -138t-137.5 -74l160 -292l-95 -21l-165 305h-53l-47 -298h-92l109 690h138q109 0 170 -42.5t61 -129.5zM424 507q0 102 -134 102h-63l-36 -233h66q83 0 125 34t42 97zM212 893h54l72 -71l99 71h58l-123 -141h-84z" />
    <glyph glyph-name="rcaron" unicode="&#x159;" horiz-adv-x="332" 
d="M344 400q-57 -6 -105 -39t-77 -82l-44 -279h-86l57 363v114h77l5 -107q33 49 79 82.5t94 34.5v-87zM92 688h54l72 -71l99 71h58l-123 -141h-84z" />
    <glyph glyph-name="Sacute" unicode="&#x15a;" horiz-adv-x="503" 
d="M486 652l-26 -86q-78 55 -151 55q-55 0 -83.5 -29.5t-28.5 -72.5q0 -34 23 -60t84 -62q83 -49 115 -94t32 -105q0 -98 -65.5 -153t-160.5 -55q-110 0 -202 58l26 87q90 -66 181 -66q56 0 92 31.5t36 85.5q0 38 -20.5 63t-77.5 60q-85 52 -120.5 93.5t-35.5 102.5
q0 85 59.5 140t155.5 55q98 0 167 -48zM521 889l-152 -127h-68l108 151z" />
    <glyph glyph-name="sacute" unicode="&#x15b;" horiz-adv-x="388" 
d="M367 449l-26 -80q-63 42 -127 42q-33 0 -52 -16t-19 -38q0 -23 14.5 -37t56.5 -32q73 -32 104 -63.5t31 -83.5q0 -72 -48.5 -111.5t-126.5 -39.5q-92 0 -169 55l26 78q76 -58 156 -58q36 0 58 17.5t22 46.5q0 24 -17 40.5t-59 35.5q-72 33 -101 62t-29 78q0 64 44.5 103
t119.5 39q70 0 142 -38zM427 674l-152 -127h-68l108 151z" />
    <glyph glyph-name="Scedilla" unicode="&#x15e;" horiz-adv-x="503" 
d="M486 652l-26 -86q-78 55 -151 55q-55 0 -83.5 -29.5t-28.5 -72.5q0 -34 23 -60t84 -62q83 -49 115 -94t32 -105q0 -98 -65.5 -153t-160.5 -55q-110 0 -202 58l26 87q90 -66 181 -66q56 0 92 31.5t36 85.5q0 38 -20.5 63t-77.5 60q-85 52 -120.5 93.5t-35.5 102.5
q0 85 59.5 140t155.5 55q98 0 167 -48zM262 -94l-140 -108h-60l97 133z" />
    <glyph glyph-name="scedilla" unicode="&#x15f;" horiz-adv-x="388" 
d="M367 449l-26 -80q-63 42 -127 42q-33 0 -52 -16t-19 -38q0 -23 14.5 -37t56.5 -32q73 -32 104 -63.5t31 -83.5q0 -72 -48.5 -111.5t-126.5 -39.5q-92 0 -169 55l26 78q76 -58 156 -58q36 0 58 17.5t22 46.5q0 24 -17 40.5t-59 35.5q-72 33 -101 62t-29 78q0 64 44.5 103
t119.5 39q70 0 142 -38zM203 -89l-140 -108h-60l97 133z" />
    <glyph glyph-name="Scaron" unicode="&#x160;" horiz-adv-x="503" 
d="M486 652l-26 -86q-78 55 -151 55q-55 0 -83.5 -29.5t-28.5 -72.5q0 -34 23 -60t84 -62q83 -49 115 -94t32 -105q0 -98 -65.5 -153t-160.5 -55q-110 0 -202 58l26 87q90 -66 181 -66q56 0 92 31.5t36 85.5q0 38 -20.5 63t-77.5 60q-85 52 -120.5 93.5t-35.5 102.5
q0 85 59.5 140t155.5 55q98 0 167 -48zM223 903h54l72 -71l99 71h58l-123 -141h-84z" />
    <glyph glyph-name="scaron" unicode="&#x161;" horiz-adv-x="388" 
d="M367 449l-26 -80q-63 42 -127 42q-33 0 -52 -16t-19 -38q0 -23 14.5 -37t56.5 -32q73 -32 104 -63.5t31 -83.5q0 -72 -48.5 -111.5t-126.5 -39.5q-92 0 -169 55l26 78q76 -58 156 -58q36 0 58 17.5t22 46.5q0 24 -17 40.5t-59 35.5q-72 33 -101 62t-29 78q0 64 44.5 103
t119.5 39q70 0 142 -38zM129 688h54l72 -71l99 71h58l-123 -141h-84z" />
    <glyph glyph-name="Tcommaaccent" unicode="&#x162;" horiz-adv-x="561" 
d="M596 608h-210l-96 -608h-92l96 608h-205l13 82h494v-82zM169 -90l82 26q29 -37 29 -70q0 -65 -92 -144l-53 14q63 70 63 112q0 27 -29 62z" />
    <glyph glyph-name="tcommaaccent" unicode="&#x163;" horiz-adv-x="321" 
d="M313 405h-114l-42 -271q-2 -14 -2 -26q0 -42 51 -42q25 0 45 5v-72q-30 -7 -74 -7q-112 0 -112 93q0 18 4 42l44 278h-68l12 72h67l25 159l89 13l-27 -172h102v-72zM82 -90l82 26q29 -37 29 -70q0 -65 -92 -144l-53 14q63 70 63 112q0 27 -29 62z" />
    <glyph glyph-name="Tcaron" unicode="&#x164;" horiz-adv-x="561" 
d="M596 608h-210l-96 -608h-92l96 608h-205l13 82h494v-82zM245 893h54l72 -71l99 71h58l-123 -141h-84z" />
    <glyph glyph-name="tcaron" unicode="&#x165;" horiz-adv-x="333" 
d="M313 405h-114l-42 -271q-2 -14 -2 -26q0 -42 51 -42q25 0 45 5v-72q-30 -7 -74 -7q-112 0 -112 93q0 18 4 42l44 278h-68l12 72h67l25 159l89 13l-27 -172h102v-72zM387 732q11 -27 11 -52q0 -73 -88 -142l-44 10q50 58 50 108q0 27 -14 63z" />
    <glyph glyph-name="Umacron" unicode="&#x16a;" horiz-adv-x="637" 
d="M642 690l-73 -460q-20 -122 -92 -182.5t-180 -60.5q-107 0 -168.5 55.5t-61.5 161.5q0 31 7 75l65 411h92l-66 -416q-4 -27 -4 -61q0 -68 36.5 -105.5t106.5 -37.5q148 0 176 179l70 441h92zM538 765h-266l11 72h266z" />
    <glyph glyph-name="umacron" unicode="&#x16b;" horiz-adv-x="495" 
d="M463 477l-57 -363v-114h-77l-5 95q-96 -105 -172 -105q-54 0 -83 28t-29 79q0 18 2 36l55 344h86l-52 -325q-2 -18 -2 -27q0 -58 49 -58q27 0 69.5 33t84.5 86l45 291h86zM428 570h-266l11 72h266z" />
    <glyph glyph-name="Ubreve" unicode="&#x16c;" horiz-adv-x="637" 
d="M642 690l-73 -460q-20 -122 -92 -182.5t-180 -60.5q-107 0 -168.5 55.5t-61.5 161.5q0 31 7 75l65 411h92l-66 -416q-4 -27 -4 -61q0 -68 36.5 -105.5t106.5 -37.5q148 0 176 179l70 441h92zM552 856q-28 -118 -146 -118q-60 0 -92 30.5t-32 86.5l63 13q9 -59 64 -59
q58 0 84 59z" />
    <glyph glyph-name="ubreve" unicode="&#x16d;" horiz-adv-x="495" 
d="M463 477l-57 -363v-114h-77l-5 95q-96 -105 -172 -105q-54 0 -83 28t-29 79q0 18 2 36l55 344h86l-52 -325q-2 -18 -2 -27q0 -58 49 -58q27 0 69.5 33t84.5 86l45 291h86zM442 661q-28 -118 -146 -118q-60 0 -92 30.5t-32 86.5l63 13q9 -59 64 -59q58 0 84 59z" />
    <glyph glyph-name="Uring" unicode="&#x16e;" horiz-adv-x="637" 
d="M642 690l-73 -460q-20 -122 -92 -182.5t-180 -60.5q-107 0 -168.5 55.5t-61.5 161.5q0 31 7 75l65 411h92l-66 -416q-4 -27 -4 -61q0 -68 36.5 -105.5t106.5 -37.5q148 0 176 179l70 441h92zM415 773q25 0 41 16.5t16 42.5t-16 43t-41 17t-41 -17t-16 -43t16 -42.5
t41 -16.5zM415 729q-45 0 -74.5 29t-29.5 74q0 44 29.5 74t74.5 30t74.5 -30t29.5 -74q0 -45 -29.5 -74t-74.5 -29z" />
    <glyph glyph-name="uring" unicode="&#x16f;" horiz-adv-x="495" 
d="M463 477l-57 -363v-114h-77l-5 95q-96 -105 -172 -105q-54 0 -83 28t-29 79q0 18 2 36l55 344h86l-52 -325q-2 -18 -2 -27q0 -58 49 -58q27 0 69.5 33t84.5 86l45 291h86zM305 578q25 0 41 16.5t16 42.5t-16 43t-41 17t-41 -17t-16 -43t16 -42.5t41 -16.5zM305 534
q-45 0 -74.5 29t-29.5 74q0 44 29.5 74t74.5 30t74.5 -30t29.5 -74q0 -45 -29.5 -74t-74.5 -29z" />
    <glyph glyph-name="Uhungarumlaut" unicode="&#x170;" horiz-adv-x="637" 
d="M642 690l-73 -460q-20 -122 -92 -182.5t-180 -60.5q-107 0 -168.5 55.5t-61.5 161.5q0 31 7 75l65 411h92l-66 -416q-4 -27 -4 -61q0 -68 36.5 -105.5t106.5 -37.5q148 0 176 179l70 441h92zM641 871l-149 -125h-56l108 147zM485 871l-149 -125h-55l107 147z" />
    <glyph glyph-name="uhungarumlaut" unicode="&#x171;" horiz-adv-x="495" 
d="M463 477l-57 -363v-114h-77l-5 95q-96 -105 -172 -105q-54 0 -83 28t-29 79q0 18 2 36l55 344h86l-52 -325q-2 -18 -2 -27q0 -58 49 -58q27 0 69.5 33t84.5 86l45 291h86zM531 676l-149 -125h-56l108 147zM375 676l-149 -125h-55l107 147z" />
    <glyph glyph-name="Uogonek" unicode="&#x172;" horiz-adv-x="637" 
d="M642 690l-73 -460q-19 -117 -86.5 -177t-168.5 -65l-9 -11q-45 -52 -45 -75q0 -24 33 -24q17 0 44 5l-9 -54q-38 -14 -74 -14q-70 0 -70 58q0 48 66 117q-87 11 -135 66t-48 148q0 31 7 75l65 411h92l-66 -416q-4 -27 -4 -61q0 -68 36.5 -105.5t106.5 -37.5
q148 0 176 179l70 441h92z" />
    <glyph glyph-name="uogonek" unicode="&#x173;" horiz-adv-x="495" 
d="M463 477l-57 -363v-114h-18l-19 -23q-45 -52 -45 -75q0 -24 33 -24q17 0 44 5l-9 -54q-38 -14 -74 -14q-70 0 -70 58q0 28 17.5 57t62.5 74l-4 91q-96 -105 -172 -105q-54 0 -83 28t-29 79q0 18 2 36l55 344h86l-52 -325q-2 -18 -2 -27q0 -58 49 -58q27 0 69.5 33
t84.5 86l45 291h86z" />
    <glyph glyph-name="Wcircumflex" unicode="&#x174;" horiz-adv-x="981" 
d="M1017 690l-309 -690h-79l-89 555l-267 -555h-77l-88 677l96 20l59 -545l254 538h93l81 -538l229 538h97zM711 752h-54l-72 71l-99 -71h-58l123 141h84z" />
    <glyph glyph-name="wcircumflex" unicode="&#x175;" horiz-adv-x="700" 
d="M711 477l-224 -477h-70l-49 361l-162 -361h-69l-75 470l86 14l43 -358l157 351h79l46 -351l152 351h86zM536 547h-54l-72 71l-99 -71h-58l123 141h84z" />
    <glyph glyph-name="Ycircumflex" unicode="&#x176;" horiz-adv-x="606" 
d="M655 690l-303 -416l-43 -274h-92l44 274l-167 403l95 20l130 -337l232 330h104zM517 742h-54l-72 71l-99 -71h-58l123 141h84z" />
    <glyph glyph-name="ycircumflex" unicode="&#x177;" horiz-adv-x="450" 
d="M466 477l-264 -528q-37 -74 -78.5 -102.5t-103.5 -28.5q-13 0 -31 4v76q25 -5 46 -5q49 0 79 54l34 62l-89 461l87 14l61 -374l170 367h89zM414 547h-54l-72 71l-99 -71h-58l123 141h84z" />
    <glyph glyph-name="Ydieresis" unicode="&#x178;" horiz-adv-x="606" 
d="M655 690l-303 -416l-43 -274h-92l44 274l-167 403l95 20l130 -337l232 330h104zM519 746h-99l16 101h99zM340 746h-99l16 101h99z" />
    <glyph glyph-name="Zacute" unicode="&#x179;" horiz-adv-x="577" 
d="M598 690l-11 -67l-451 -544h362v-79h-487l11 67l451 544h-336v79h461zM551 879l-152 -127h-68l108 151z" />
    <glyph glyph-name="zacute" unicode="&#x17a;" horiz-adv-x="434" 
d="M424 477l-12 -67l-301 -339h249v-71h-363l11 67l302 339h-225v71h339zM444 674l-152 -127h-68l108 151z" />
    <glyph glyph-name="Zdotaccent" unicode="&#x17b;" horiz-adv-x="577" 
d="M598 690l-11 -67l-451 -544h362v-79h-487l11 67l451 544h-336v79h461zM423 756h-100l16 101h100z" />
    <glyph glyph-name="zdotaccent" unicode="&#x17c;" horiz-adv-x="434" 
d="M424 477l-12 -67l-301 -339h249v-71h-363l11 67l302 339h-225v71h339zM315 551h-100l16 101h100z" />
    <glyph glyph-name="Zcaron" unicode="&#x17d;" horiz-adv-x="577" 
d="M598 690l-11 -67l-451 -544h362v-79h-487l11 67l451 544h-336v79h461zM254 893h54l72 -71l99 71h58l-123 -141h-84z" />
    <glyph glyph-name="zcaron" unicode="&#x17e;" horiz-adv-x="434" 
d="M424 477l-12 -67l-301 -339h249v-71h-363l11 67l302 339h-225v71h339zM146 688h54l72 -71l99 71h58l-123 -141h-84z" />
    <glyph glyph-name="florin" unicode="&#x192;" horiz-adv-x="359" 
d="M78 453h69l15 90q11 74 50 107.5t113 33.5q24 0 44 -2v-79q-22 3 -46 3q-61 0 -73 -70l-13 -83h90v-74h-102l-61 -379h-89l60 379h-69z" />
    <glyph glyph-name="Aringacute" unicode="&#x1fa;" horiz-adv-x="639" 
d="M489 -7l-40 214h-257l-103 -207h-97l335 649q-32 30 -32 77q0 44 29.5 74t74.5 30t74.5 -30t29.5 -74q0 -61 -49 -89l125 -624zM380 583l-147 -295h201zM605 985l-152 -127h-68l108 151zM399 667q25 0 41 16.5t16 42.5t-16 43t-41 17t-41 -17t-16 -43t16 -42.5t41 -16.5z
" />
    <glyph glyph-name="aringacute" unicode="&#x1fb;" horiz-adv-x="493" 
d="M326 79q-89 -89 -160 -89q-60 0 -96.5 42t-36.5 120q0 147 82 239t194 92q66 0 150 -29l-52 -328v-126h-76zM327 161l37 240q-31 11 -66 11q-71 0 -124.5 -71.5t-53.5 -177.5q0 -98 66 -98q54 0 141 96zM342 588q25 0 41 16.5t16 42.5t-16 43t-41 17t-41 -17t-16 -43
t16 -42.5t41 -16.5zM342 544q-45 0 -74.5 29t-29.5 74q0 44 29.5 74t74.5 30t74.5 -30t29.5 -74q0 -45 -29.5 -74t-74.5 -29zM538 928l-152 -127h-68l108 151z" />
    <glyph glyph-name="AEacute" unicode="&#x1fc;" horiz-adv-x="850" 
d="M64 0h-99l508 690h404l-13 -82h-254l-32 -205h196v-84h-209l-38 -237h263l-13 -82h-355l32 207h-239zM275 288h192l53 335zM796 879l-152 -127h-68l108 151z" />
    <glyph glyph-name="aeacute" unicode="&#x1fd;" horiz-adv-x="732" 
d="M698 303q0 -39 -7 -74h-292q-2 -24 -2 -37q0 -129 111 -129q72 0 157 62v-80q-80 -55 -171 -55q-114 0 -160 85q-104 -85 -190 -85q-56 0 -90 31.5t-34 89.5q0 170 307 196l3 17q15 89 -72 89q-62 0 -151 -42v78q92 38 163 38q106 0 132 -64q59 64 135 64t118.5 -49
t42.5 -135zM613 294q5 128 -80 128q-39 0 -72.5 -34.5t-49.5 -93.5h202zM314 136q-4 20 -4 47q0 35 4 62q-118 -14 -162.5 -47t-44.5 -81q0 -54 60 -54q55 0 147 73zM596 674l-152 -127h-68l108 151z" />
    <glyph glyph-name="Oslashacute" unicode="&#x1fe;" horiz-adv-x="696" 
d="M717 681l-93 -102q39 -72 39 -172q0 -180 -96.5 -300t-237.5 -120q-117 0 -186 66l-56 -62l-80 18l92 101q-39 72 -39 173q0 180 96.5 300t237.5 120q116 0 186 -67l57 63zM390 626q-102 0 -170 -97.5t-68 -245.5q0 -57 14 -102l355 391q-48 54 -131 54zM571 407
q0 57 -15 100l-354 -390q47 -53 130 -53q103 0 171 98t68 245zM606 889l-152 -127h-68l108 151z" />
    <glyph glyph-name="oslashacute" unicode="&#x1ff;" horiz-adv-x="489" 
d="M454 283q0 -122 -67.5 -207.5t-170.5 -85.5q-71 0 -117 38l-32 -36l-71 16l63 71q-24 47 -24 114q0 122 67.5 208t169.5 86q70 0 116 -38l33 36l71 -16l-63 -71q25 -48 25 -115zM371 277q0 29 -5 54l-217 -247q26 -29 69 -29q70 0 111.5 68.5t41.5 153.5zM271 421
q-70 0 -111.5 -67.5t-41.5 -149.5q0 -34 4 -57l216 246q-25 28 -67 28zM472 674l-152 -127h-68l108 151z" />
    <glyph glyph-name="Scommaaccent" unicode="&#x218;" horiz-adv-x="503" 
d="M486 652l-26 -86q-78 55 -151 55q-55 0 -83.5 -29.5t-28.5 -72.5q0 -34 23 -60t84 -62q83 -49 115 -94t32 -105q0 -98 -65.5 -153t-160.5 -55q-110 0 -202 58l26 87q90 -66 181 -66q56 0 92 31.5t36 85.5q0 38 -20.5 63t-77.5 60q-85 52 -120.5 93.5t-35.5 102.5
q0 85 59.5 140t155.5 55q98 0 167 -48zM145 -95l82 26q29 -37 29 -70q0 -65 -92 -144l-53 14q63 70 63 112q0 27 -29 62z" />
    <glyph glyph-name="scommaaccent" unicode="&#x219;" horiz-adv-x="388" 
d="M367 449l-26 -80q-63 42 -127 42q-33 0 -52 -16t-19 -38q0 -23 14.5 -37t56.5 -32q73 -32 104 -63.5t31 -83.5q0 -72 -48.5 -111.5t-126.5 -39.5q-92 0 -169 55l26 78q76 -58 156 -58q36 0 58 17.5t22 46.5q0 24 -17 40.5t-59 35.5q-72 33 -101 62t-29 78q0 64 44.5 103
t119.5 39q70 0 142 -38zM86 -90l82 26q29 -37 29 -70q0 -65 -92 -144l-53 14q63 70 63 112q0 27 -29 62z" />
    <glyph glyph-name="schwa" unicode="&#x259;" horiz-adv-x="456" 
d="M224 414q-72 0 -157 -62v80q80 55 171 55q84 0 134 -49.5t50 -143.5q0 -134 -68.5 -219t-158.5 -85q-76 0 -118.5 49t-42.5 135q0 39 7 74h292q2 26 2 41q0 125 -111 125zM199 55q40 0 72.5 35t49.5 93h-202q-5 -128 80 -128z" />
    <glyph glyph-name="circumflex" unicode="&#x2c6;" 
d="M417 547h-54l-72 71l-99 -71h-58l123 141h84z" />
    <glyph glyph-name="caron" unicode="&#x2c7;" 
d="M158 688h54l72 -71l99 71h58l-123 -141h-84z" />
    <glyph glyph-name="breve" unicode="&#x2d8;" 
d="M430 666q-28 -118 -146 -118q-60 0 -92 30.5t-32 86.5l63 13q9 -59 64 -59q58 0 84 59z" />
    <glyph glyph-name="dotaccent" unicode="&#x2d9;" 
d="M327 551h-100l16 101h100z" />
    <glyph glyph-name="ring" unicode="&#x2da;" 
d="M290 588q25 0 41 16.5t16 42.5t-16 43t-41 17t-41 -17t-16 -43t16 -42.5t41 -16.5zM290 544q-45 0 -74.5 29t-29.5 74q0 44 29.5 74t74.5 30t74.5 -30t29.5 -74q0 -45 -29.5 -74t-74.5 -29z" />
    <glyph glyph-name="ogonek" unicode="&#x2db;" 
d="M242 38l37 -26l-30 -35q-45 -52 -45 -75q0 -24 33 -24q17 0 44 5l-9 -54q-39 -14 -74 -14q-70 0 -70 58q0 28 17.5 57t62.5 74z" />
    <glyph glyph-name="tilde" unicode="&#x2dc;" 
d="M449 664q-31 -114 -101 -114q-29 0 -67 23q-44 25 -61 25q-22 0 -40 -51l-57 12q31 114 101 114q29 0 67 -23q44 -25 61 -25q22 0 40 51z" />
    <glyph glyph-name="hungarumlaut" unicode="&#x2dd;" 
d="M465 676l-149 -125h-56l108 147zM309 676l-149 -125h-55l107 147z" />
    <glyph glyph-name="Wgrave" unicode="&#x1e80;" horiz-adv-x="981" 
d="M1017 690l-309 -690h-79l-89 555l-267 -555h-77l-88 677l96 20l59 -545l254 538h93l81 -538l229 538h97zM602 752h-56l-114 127l107 24z" />
    <glyph glyph-name="wgrave" unicode="&#x1e81;" horiz-adv-x="700" 
d="M711 477l-224 -477h-70l-49 361l-162 -361h-69l-75 470l86 14l43 -358l157 351h79l46 -351l152 351h86zM427 547h-56l-114 127l107 24z" />
    <glyph glyph-name="Wacute" unicode="&#x1e82;" horiz-adv-x="981" 
d="M1017 690l-309 -690h-79l-89 555l-267 -555h-77l-88 677l96 20l59 -545l254 538h93l81 -538l229 538h97zM752 879l-152 -127h-68l108 151z" />
    <glyph glyph-name="wacute" unicode="&#x1e83;" horiz-adv-x="700" 
d="M711 477l-224 -477h-70l-49 361l-162 -361h-69l-75 470l86 14l43 -358l157 351h79l46 -351l152 351h86zM577 674l-152 -127h-68l108 151z" />
    <glyph glyph-name="Wdieresis" unicode="&#x1e84;" horiz-adv-x="981" 
d="M1017 690l-309 -690h-79l-89 555l-267 -555h-77l-88 677l96 20l59 -545l254 538h93l81 -538l229 538h97zM713 756h-99l16 101h99zM534 756h-99l16 101h99z" />
    <glyph glyph-name="wdieresis" unicode="&#x1e85;" horiz-adv-x="700" 
d="M711 477l-224 -477h-70l-49 361l-162 -361h-69l-75 470l86 14l43 -358l157 351h79l46 -351l152 351h86zM538 551h-99l16 101h99zM359 551h-99l16 101h99z" />
    <glyph glyph-name="Ygrave" unicode="&#x1ef2;" horiz-adv-x="606" 
d="M655 690l-303 -416l-43 -274h-92l44 274l-167 403l95 20l130 -337l232 330h104zM408 742h-56l-114 127l107 24z" />
    <glyph glyph-name="ygrave" unicode="&#x1ef3;" horiz-adv-x="450" 
d="M466 477l-264 -528q-37 -74 -78.5 -102.5t-103.5 -28.5q-13 0 -31 4v76q25 -5 46 -5q49 0 79 54l34 62l-89 461l87 14l61 -374l170 367h89zM305 547h-56l-114 127l107 24z" />
    <glyph glyph-name="enspace" unicode="&#x2002;" horiz-adv-x="500" 
 />
    <glyph glyph-name="emspace" unicode="&#x2003;" horiz-adv-x="1000" 
 />
    <glyph glyph-name="threeperemspace" unicode="&#x2004;" horiz-adv-x="333" 
 />
    <glyph glyph-name="fourperemspace" unicode="&#x2005;" horiz-adv-x="250" 
 />
    <glyph glyph-name="thinspace" unicode="&#x2009;" horiz-adv-x="133" 
 />
    <glyph glyph-name="hairspace" unicode="&#x200a;" horiz-adv-x="75" 
 />
    <glyph glyph-name="endash" unicode="&#x2013;" 
d="M400 242h-345l13 84h345z" />
    <glyph glyph-name="emdash" unicode="&#x2014;" horiz-adv-x="908" 
d="M854 243h-799l13 82h799z" />
    <glyph glyph-name="quoteleft" unicode="&#x2018;" horiz-adv-x="227" 
d="M82 465l119 233l48 -12l-64 -221h-103z" />
    <glyph glyph-name="quoteright" unicode="&#x2019;" horiz-adv-x="227" 
d="M251 690l-119 -233l-48 12l64 221h103z" />
    <glyph glyph-name="quotesinglbase" unicode="&#x201a;" horiz-adv-x="227" 
d="M158 119l-119 -233l-48 12l64 221h103z" />
    <glyph glyph-name="quotedblleft" unicode="&#x201c;" horiz-adv-x="409" 
d="M82 465l119 233l48 -12l-64 -221h-103zM264 465l119 233l48 -12l-64 -221h-103z" />
    <glyph glyph-name="quotedblright" unicode="&#x201d;" horiz-adv-x="409" 
d="M251 690l-119 -233l-48 12l64 221h103zM433 690l-119 -233l-48 12l64 221h103z" />
    <glyph glyph-name="quotedblbase" unicode="&#x201e;" horiz-adv-x="409" 
d="M158 119l-119 -233l-48 12l64 221h103zM340 119l-119 -233l-48 12l64 221h103z" />
    <glyph glyph-name="dagger" unicode="&#x2020;" horiz-adv-x="499" 
d="M348 611l-44 -135h-34v135l12 79h78zM479 399h-29l-131 21l4 33l139 22h29zM239 420l-139 -21h-29l12 76h29l131 -22zM251 17l-42 -131h-31v131l42 262l38 119h34v-119z" />
    <glyph glyph-name="daggerdbl" unicode="&#x2021;" horiz-adv-x="518" 
d="M356 611l-43 -135h-34v135l12 79h78zM488 399h-29l-132 21l5 33l138 22h29zM247 420l-139 -21h-29l12 76h29l132 -22zM293 230l-38 -119h-34v119l7 49l38 119h35v-119zM430 34h-29l-132 21l5 33l139 22h29zM189 55l-138 -21h-29l12 76h29l131 -22zM231 -182h-78l12 79
l43 136h34v-136z" />
    <glyph glyph-name="bullet" unicode="&#x2022;" horiz-adv-x="421" 
d="M360 345l-19 -123l-113 -18l-113 18l-20 123l20 124l113 17l113 -17z" />
    <glyph glyph-name="ellipsis" unicode="&#x2026;" horiz-adv-x="726" 
d="M617 0h-100l19 119h100zM376 0h-100l19 119h100zM135 0h-100l19 119h100z" />
    <glyph glyph-name="guilsinglleft" unicode="&#x2039;" horiz-adv-x="321" 
d="M315 477l-185 -243l100 -224l-67 -15l-128 244l195 238h85z" />
    <glyph glyph-name="guilsinglright" unicode="&#x203a;" horiz-adv-x="321" 
d="M6 0l185 243l-103 224l67 15l130 -244l-194 -238h-85z" />
    <glyph glyph-name="fraction" unicode="&#x2044;" horiz-adv-x="270" 
d="M170 324l-242 -332l-60 18l258 342l244 332l60 -18z" />
    <glyph glyph-name="Euro" unicode="&#x20ac;" horiz-adv-x="565" 
d="M430 291l-11 -68h-205q10 -79 47.5 -119.5t97.5 -40.5q72 0 148 56v-83q-71 -49 -157 -49q-99 0 -155.5 62.5t-68.5 173.5h-95v68h92q0 47 11 99h-83l11 68h90q35 103 105.5 167t165.5 64q96 0 165 -60l-25 -81q-71 65 -146 65q-57 0 -103 -42t-73 -113h209v-68h-229
q-10 -53 -10 -99h219z" />
    <glyph glyph-name="servicemark" unicode="&#x2120;" horiz-adv-x="800" 
d="M777 345h-60l-18 245l-99 -246h-47l-99 246l-19 -245h-58l27 345h71l103 -258l102 258h69zM200 340q-57 0 -99 25l7 58q52 -32 93 -32q24 0 39.5 11.5t15.5 31.5q0 21 -12.5 34t-44.5 27q-54 24 -74.5 45.5t-20.5 61.5q0 41 30.5 67t79.5 26q50 0 84 -21l-10 -57
q-40 27 -76 27q-24 0 -38 -10.5t-14 -26.5q0 -20 12 -31.5t45 -26.5q54 -24 74.5 -46.5t20.5 -64.5q0 -45 -30.5 -71.5t-81.5 -26.5z" />
    <glyph glyph-name="trademark" unicode="&#x2122;" horiz-adv-x="800" 
d="M793 345h-60l-18 245l-99 -246h-47l-99 246l-19 -245h-58l27 345h71l103 -258l102 258h69zM361 636h-113v-291h-60v291h-108v54h272z" />
    <glyph glyph-name="minus" unicode="&#x2212;" horiz-adv-x="572" 
d="M528 301h-464l12 74h464z" />
    <glyph glyph-name="M.alt" horiz-adv-x="834" 
d="M718 0h-85l86 549l-309 -552h-70l-133 552l-86 -549h-82l109 690h115l135 -566l314 566h115z" />
    <glyph glyph-name="Q.alt" horiz-adv-x="696" 
d="M663 407q0 -168 -88 -286l57 -49l-31 -86l-83 73q-86 -72 -194 -72q-128 0 -196 81.5t-68 214.5q0 180 97.5 300t241.5 120q128 0 196 -81.5t68 -214.5zM569 402q0 105 -45.5 163.5t-129.5 58.5q-104 0 -172 -96t-68 -240q0 -105 45.5 -163.5t128.5 -58.5q71 0 127 47
l-147 127l110 22l93 -84q58 95 58 224z" />
    <glyph glyph-name="U.alt" horiz-adv-x="656" 
d="M645 690l-109 -690h-73v79q-61 -43 -111.5 -65t-106.5 -22q-178 0 -178 158q0 23 5 60l76 480h92l-74 -468q-4 -23 -4 -48q0 -52 25 -76t78 -24q88 0 205 94l83 522h92z" />
    <glyph glyph-name="W.alt" horiz-adv-x="982" 
d="M551 697l114 -570l263 563h99l-342 -693h-79l-86 391l-206 -391h-79l-138 680l95 20l105 -570l197 378l-38 172z" />
    <glyph glyph-name="a.alt" horiz-adv-x="466" 
d="M335 324q14 89 -72 89q-67 0 -156 -42v78q92 38 168 38q172 0 145 -169l-36 -219v-99h-77l-5 67q-89 -77 -163 -77q-53 0 -86 31.5t-33 89.5q0 81 72 131.5t240 64.5zM164 62q50 0 138 70l19 113q-121 -13 -167.5 -46.5t-46.5 -81.5q0 -55 57 -55z" />
    <glyph glyph-name="g.alt" horiz-adv-x="489" 
d="M415 -35q0 -67 -61 -107t-163 -40q-100 0 -161.5 31.5t-61.5 85.5q0 41 27.5 73t91.5 62q-20 19 -20 42q0 38 58 72q-65 39 -65 118q0 78 55 130.5t137 52.5q75 0 122 -41l128 40v-80l-92 -10q11 -27 11 -56q0 -78 -58 -128.5t-139 -50.5q-23 0 -42 4q-24 -17 -24 -33
q0 -12 16 -19.5t62 -18.5l41 -10q71 -17 104.5 -44.5t33.5 -72.5zM192 24q-28 7 -46 13q-44 -18 -68 -41.5t-24 -45.5q0 -32 36.5 -49.5t104.5 -17.5q64 0 100.5 20t36.5 49q0 20 -17 33t-62 24zM337 336q0 40 -24 63.5t-65 23.5q-48 0 -76 -34.5t-28 -82.5q0 -38 23 -61.5
t64 -23.5q49 0 77.5 33.5t28.5 81.5z" />
    <glyph glyph-name="aacute.alt" horiz-adv-x="466" 
d="M335 324q14 89 -72 89q-67 0 -156 -42v78q92 38 168 38q172 0 145 -169l-36 -219v-99h-77l-5 67q-89 -77 -163 -77q-53 0 -86 31.5t-33 89.5q0 81 72 131.5t240 64.5zM164 62q50 0 138 70l19 113q-121 -13 -167.5 -46.5t-46.5 -81.5q0 -55 57 -55zM468 674l-152 -127h-68
l108 151z" />
    <glyph glyph-name="abreve.alt" horiz-adv-x="466" 
d="M335 324q14 89 -72 89q-67 0 -156 -42v78q92 38 168 38q172 0 145 -169l-36 -219v-99h-77l-5 67q-89 -77 -163 -77q-53 0 -86 31.5t-33 89.5q0 81 72 131.5t240 64.5zM164 62q50 0 138 70l19 113q-121 -13 -167.5 -46.5t-46.5 -81.5q0 -55 57 -55zM441 666
q-28 -118 -146 -118q-60 0 -92 30.5t-32 86.5l63 13q9 -59 64 -59q58 0 84 59z" />
    <glyph glyph-name="acircumflex.alt" horiz-adv-x="466" 
d="M335 324q14 89 -72 89q-67 0 -156 -42v78q92 38 168 38q172 0 145 -169l-36 -219v-99h-77l-5 67q-89 -77 -163 -77q-53 0 -86 31.5t-33 89.5q0 81 72 131.5t240 64.5zM164 62q50 0 138 70l19 113q-121 -13 -167.5 -46.5t-46.5 -81.5q0 -55 57 -55zM427 547h-54l-72 71
l-99 -71h-58l123 141h84z" />
    <glyph glyph-name="adieresis.alt" horiz-adv-x="466" 
d="M335 324q14 89 -72 89q-67 0 -156 -42v78q92 38 168 38q172 0 145 -169l-36 -219v-99h-77l-5 67q-89 -77 -163 -77q-53 0 -86 31.5t-33 89.5q0 81 72 131.5t240 64.5zM164 62q50 0 138 70l19 113q-121 -13 -167.5 -46.5t-46.5 -81.5q0 -55 57 -55zM428 551h-99l16 101h99
zM249 551h-99l16 101h99z" />
    <glyph glyph-name="agrave.alt" horiz-adv-x="466" 
d="M335 324q14 89 -72 89q-67 0 -156 -42v78q92 38 168 38q172 0 145 -169l-36 -219v-99h-77l-5 67q-89 -77 -163 -77q-53 0 -86 31.5t-33 89.5q0 81 72 131.5t240 64.5zM164 62q50 0 138 70l19 113q-121 -13 -167.5 -46.5t-46.5 -81.5q0 -55 57 -55zM318 547h-56l-114 127
l107 24z" />
    <glyph glyph-name="amacron.alt" horiz-adv-x="466" 
d="M335 324q14 89 -72 89q-67 0 -156 -42v78q92 38 168 38q172 0 145 -169l-36 -219v-99h-77l-5 67q-89 -77 -163 -77q-53 0 -86 31.5t-33 89.5q0 81 72 131.5t240 64.5zM164 62q50 0 138 70l19 113q-121 -13 -167.5 -46.5t-46.5 -81.5q0 -55 57 -55zM426 570h-266l11 72
h266z" />
    <glyph glyph-name="aogonek.alt" horiz-adv-x="466" 
d="M335 324q14 89 -72 89q-67 0 -156 -42v78q92 38 168 38q172 0 145 -169l-36 -219v-99h-18l-19 -23q-45 -52 -45 -75q0 -24 33 -24q17 0 44 5l-9 -54q-38 -14 -74 -14q-70 0 -70 58q0 28 17.5 57t62.5 74l-4 63q-89 -77 -163 -77q-53 0 -86 31.5t-33 89.5q0 81 72 131.5
t240 64.5zM164 62q50 0 138 70l19 113q-121 -13 -167.5 -46.5t-46.5 -81.5q0 -55 57 -55z" />
    <glyph glyph-name="aring.alt" horiz-adv-x="466" 
d="M335 324q14 89 -72 89q-67 0 -156 -42v78q92 38 168 38q172 0 145 -169l-36 -219v-99h-77l-5 67q-89 -77 -163 -77q-53 0 -86 31.5t-33 89.5q0 81 72 131.5t240 64.5zM164 62q50 0 138 70l19 113q-121 -13 -167.5 -46.5t-46.5 -81.5q0 -55 57 -55zM305 588q25 0 41 16.5
t16 42.5t-16 43t-41 17t-41 -17t-16 -43t16 -42.5t41 -16.5zM305 544q-45 0 -74.5 29t-29.5 74q0 44 29.5 74t74.5 30t74.5 -30t29.5 -74q0 -45 -29.5 -74t-74.5 -29z" />
    <glyph glyph-name="aringacute.alt" horiz-adv-x="493" 
d="M335 324q14 89 -72 89q-67 0 -156 -42v78q92 38 168 38q172 0 145 -169l-36 -219v-99h-77l-5 67q-89 -77 -163 -77q-53 0 -86 31.5t-33 89.5q0 81 72 131.5t240 64.5zM164 62q50 0 138 70l19 113q-121 -13 -167.5 -46.5t-46.5 -81.5q0 -55 57 -55zM308 588q25 0 41 16.5
t16 42.5t-16 43t-41 17t-41 -17t-16 -43t16 -42.5t41 -16.5zM308 544q-45 0 -74.5 29t-29.5 74q0 44 29.5 74t74.5 30t74.5 -30t29.5 -74q0 -45 -29.5 -74t-74.5 -29zM496 920l-152 -127h-68l108 151z" />
    <glyph glyph-name="atilde.alt" horiz-adv-x="466" 
d="M335 324q14 89 -72 89q-67 0 -156 -42v78q92 38 168 38q172 0 145 -169l-36 -219v-99h-77l-5 67q-89 -77 -163 -77q-53 0 -86 31.5t-33 89.5q0 81 72 131.5t240 64.5zM164 62q50 0 138 70l19 113q-121 -13 -167.5 -46.5t-46.5 -81.5q0 -55 57 -55zM464 664
q-32 -114 -101 -114q-29 0 -67 23q-44 25 -61 25q-22 0 -40 -51l-57 12q32 114 101 114q29 0 67 -23q44 -25 61 -25q22 0 40 51z" />
    <glyph glyph-name="gbreve.alt" horiz-adv-x="489" 
d="M415 -35q0 -67 -61 -107t-163 -40q-100 0 -161.5 31.5t-61.5 85.5q0 41 27.5 73t91.5 62q-20 19 -20 42q0 38 58 72q-65 39 -65 118q0 78 55 130.5t137 52.5q75 0 122 -41l128 40v-80l-92 -10q11 -27 11 -56q0 -78 -58 -128.5t-139 -50.5q-23 0 -42 4q-24 -17 -24 -33
q0 -12 16 -19.5t62 -18.5l41 -10q71 -17 104.5 -44.5t33.5 -72.5zM192 24q-28 7 -46 13q-44 -18 -68 -41.5t-24 -45.5q0 -32 36.5 -49.5t104.5 -17.5q64 0 100.5 20t36.5 49q0 20 -17 33t-62 24zM337 336q0 40 -24 63.5t-65 23.5q-48 0 -76 -34.5t-28 -82.5q0 -38 23 -61.5
t64 -23.5q49 0 77.5 33.5t28.5 81.5zM433 666q-28 -118 -146 -118q-60 0 -92 30.5t-32 86.5l63 13q9 -59 64 -59q58 0 84 59z" />
    <glyph glyph-name="gcommaaccent.alt" horiz-adv-x="489" 
d="M415 -35q0 -67 -61 -107t-163 -40q-100 0 -161.5 31.5t-61.5 85.5q0 41 27.5 73t91.5 62q-20 19 -20 42q0 38 58 72q-65 39 -65 118q0 78 55 130.5t137 52.5q75 0 122 -41l128 40v-80l-92 -10q11 -27 11 -56q0 -78 -58 -128.5t-139 -50.5q-23 0 -42 4q-24 -17 -24 -33
q0 -12 16 -19.5t62 -18.5l41 -10q71 -17 104.5 -44.5t33.5 -72.5zM192 24q-28 7 -46 13q-44 -18 -68 -41.5t-24 -45.5q0 -32 36.5 -49.5t104.5 -17.5q64 0 100.5 20t36.5 49q0 20 -17 33t-62 24zM337 336q0 40 -24 63.5t-65 23.5q-48 0 -76 -34.5t-28 -82.5q0 -38 23 -61.5
t64 -23.5q49 0 77.5 33.5t28.5 81.5zM343 569l-82 -26q-29 37 -29 70q0 65 92 144l53 -14q-63 -70 -63 -112q0 -27 29 -62z" />
    <glyph glyph-name="gdotaccent.alt" horiz-adv-x="489" 
d="M415 -35q0 -67 -61 -107t-163 -40q-100 0 -161.5 31.5t-61.5 85.5q0 41 27.5 73t91.5 62q-20 19 -20 42q0 38 58 72q-65 39 -65 118q0 78 55 130.5t137 52.5q75 0 122 -41l128 40v-80l-92 -10q11 -27 11 -56q0 -78 -58 -128.5t-139 -50.5q-23 0 -42 4q-24 -17 -24 -33
q0 -12 16 -19.5t62 -18.5l41 -10q71 -17 104.5 -44.5t33.5 -72.5zM192 24q-28 7 -46 13q-44 -18 -68 -41.5t-24 -45.5q0 -32 36.5 -49.5t104.5 -17.5q64 0 100.5 20t36.5 49q0 20 -17 33t-62 24zM337 336q0 40 -24 63.5t-65 23.5q-48 0 -76 -34.5t-28 -82.5q0 -38 23 -61.5
t64 -23.5q49 0 77.5 33.5t28.5 81.5zM331 551h-100l16 101h100z" />
    <glyph glyph-name="Uacute.alt" horiz-adv-x="656" 
d="M645 690l-109 -690h-73v79q-61 -43 -111.5 -65t-106.5 -22q-178 0 -178 158q0 23 5 60l76 480h92l-74 -468q-4 -23 -4 -48q0 -52 25 -76t78 -24q88 0 205 94l83 522h92zM580 869l-152 -127h-68l108 151z" />
    <glyph glyph-name="Ubreve.alt" horiz-adv-x="656" 
d="M645 690l-109 -690h-73v79q-61 -43 -111.5 -65t-106.5 -22q-178 0 -178 158q0 23 5 60l76 480h92l-74 -468q-4 -23 -4 -48q0 -52 25 -76t78 -24q88 0 205 94l83 522h92zM553 856q-28 -118 -146 -118q-60 0 -92 30.5t-32 86.5l63 13q9 -59 64 -59q58 0 84 59z" />
    <glyph glyph-name="Ucircumflex.alt" horiz-adv-x="656" 
d="M645 690l-109 -690h-73v79q-61 -43 -111.5 -65t-106.5 -22q-178 0 -178 158q0 23 5 60l76 480h92l-74 -468q-4 -23 -4 -48q0 -52 25 -76t78 -24q88 0 205 94l83 522h92zM539 742h-54l-72 71l-99 -71h-58l123 141h84z" />
    <glyph glyph-name="Udieresis.alt" horiz-adv-x="656" 
d="M645 690l-109 -690h-73v79q-61 -43 -111.5 -65t-106.5 -22q-178 0 -178 158q0 23 5 60l76 480h92l-74 -468q-4 -23 -4 -48q0 -52 25 -76t78 -24q88 0 205 94l83 522h92zM541 746h-99l16 101h99zM362 746h-99l16 101h99z" />
    <glyph glyph-name="Ugrave.alt" horiz-adv-x="656" 
d="M645 690l-109 -690h-73v79q-61 -43 -111.5 -65t-106.5 -22q-178 0 -178 158q0 23 5 60l76 480h92l-74 -468q-4 -23 -4 -48q0 -52 25 -76t78 -24q88 0 205 94l83 522h92zM430 742h-56l-114 127l107 24z" />
    <glyph glyph-name="Uhungarumlaut.alt" horiz-adv-x="656" 
d="M645 690l-109 -690h-73v79q-61 -43 -111.5 -65t-106.5 -22q-178 0 -178 158q0 23 5 60l76 480h92l-74 -468q-4 -23 -4 -48q0 -52 25 -76t78 -24q88 0 205 94l83 522h92zM642 871l-149 -125h-56l108 147zM486 871l-149 -125h-55l107 147z" />
    <glyph glyph-name="Umacron.alt" horiz-adv-x="656" 
d="M645 690l-109 -690h-73v79q-61 -43 -111.5 -65t-106.5 -22q-178 0 -178 158q0 23 5 60l76 480h92l-74 -468q-4 -23 -4 -48q0 -52 25 -76t78 -24q88 0 205 94l83 522h92zM539 765h-266l11 72h266z" />
    <glyph glyph-name="Uogonek.alt" horiz-adv-x="656" 
d="M645 690l-109 -690h-14l-19 -23q-45 -52 -45 -75q0 -24 33 -24q17 0 44 5l-9 -54q-38 -14 -74 -14q-70 0 -70 58q0 28 17.5 57t62.5 74l1 1v74q-61 -43 -111.5 -65t-106.5 -22q-178 0 -178 158q0 23 5 60l76 480h92l-74 -468q-4 -23 -4 -48q0 -52 25 -76t78 -24
q88 0 205 94l83 522h92z" />
    <glyph glyph-name="Uring.alt" horiz-adv-x="656" 
d="M645 690l-109 -690h-73v79q-61 -43 -111.5 -65t-106.5 -22q-178 0 -178 158q0 23 5 60l76 480h92l-74 -468q-4 -23 -4 -48q0 -52 25 -76t78 -24q88 0 205 94l83 522h92zM415 773q25 0 41 16.5t16 42.5t-16 43t-41 17t-41 -17t-16 -43t16 -42.5t41 -16.5zM415 729
q-45 0 -74.5 29t-29.5 74q0 44 29.5 74t74.5 30t74.5 -30t29.5 -74q0 -45 -29.5 -74t-74.5 -29z" />
    <glyph glyph-name="Wacute.alt" horiz-adv-x="982" 
d="M551 697l114 -570l263 563h99l-342 -693h-79l-86 391l-206 -391h-79l-138 680l95 20l105 -570l197 378l-38 172zM727 879l-152 -127h-68l108 151z" />
    <glyph glyph-name="Wcircumflex.alt" horiz-adv-x="982" 
d="M551 697l114 -570l263 563h99l-342 -693h-79l-86 391l-206 -391h-79l-138 680l95 20l105 -570l197 378l-38 172zM686 752h-54l-72 71l-99 -71h-58l123 141h84z" />
    <glyph glyph-name="Wdieresis.alt" horiz-adv-x="982" 
d="M551 697l114 -570l263 563h99l-342 -693h-79l-86 391l-206 -391h-79l-138 680l95 20l105 -570l197 378l-38 172zM509 756h-99l16 101h99zM688 756h-99l16 101h99z" />
    <glyph glyph-name="Wgrave.alt" horiz-adv-x="982" 
d="M551 697l114 -570l263 563h99l-342 -693h-79l-86 391l-206 -391h-79l-138 680l95 20l105 -570l197 378l-38 172zM577 752h-56l-114 127l107 24z" />
    <glyph glyph-name="three.alt" horiz-adv-x="494" 
d="M441 210q0 -103 -68 -163t-178 -60q-99 0 -194 56l27 80q88 -58 174 -58q68 0 109.5 39t41.5 101q0 118 -161 118h-30v63l216 211h-268v79h396l-11 -68l-227 -219q173 -21 173 -179z" />
    <glyph glyph-name="four.alt" horiz-adv-x="569" 
d="M532 155h-110l-24 -155h-80l25 155h-319l9 65l371 461l80 -20l-352 -433h222l28 173l83 18l-31 -191h110z" />
    <glyph glyph-name="comma.alt" horiz-adv-x="227" 
d="M55 119h93q1 -13 1 -32q-3 -115 -132 -225l-46 30q86 100 86 198q0 11 -2 29z" />
    <glyph glyph-name="semicolon.alt" horiz-adv-x="236" 
d="M12 -138l-46 30q86 100 86 198q0 11 -2 29h93q1 -13 1 -32q-3 -115 -132 -225zM92 358l18 119h100l-18 -119h-100z" />
    <glyph glyph-name="quotedblleft.alt" horiz-adv-x="409" 
d="M208 703l47 -28q-61 -81 -61 -179q0 -11 2 -31h-93q-2 10 -2 29q0 117 107 209zM390 703l47 -28q-61 -81 -61 -179q0 -11 2 -31h-93q-2 10 -2 29q0 117 107 209z" />
    <glyph glyph-name="quotedblright.alt" horiz-adv-x="409" 
d="M125 452l-47 28q61 81 61 179q0 11 -2 31h93q2 -10 2 -29q0 -117 -107 -209zM307 452l-47 28q61 81 61 179q0 11 -2 31h93q2 -10 2 -29q0 -117 -107 -209z" />
    <glyph glyph-name="quoteleft.alt" horiz-adv-x="227" 
d="M208 703l47 -28q-61 -81 -61 -179q0 -11 2 -31h-93q-2 10 -2 29q0 117 107 209z" />
    <glyph glyph-name="quoteright.alt" horiz-adv-x="227" 
d="M125 452l-47 28q61 81 61 179q0 11 -2 31h93q2 -10 2 -29q0 -117 -107 -209z" />
    <glyph glyph-name="quotedblbase.alt" horiz-adv-x="409" 
d="M32 -119l-47 28q61 81 61 179q0 11 -2 31h93q2 -10 2 -29q0 -117 -107 -209zM214 -119l-47 28q61 81 61 179q0 11 -2 31h93q2 -10 2 -29q0 -117 -107 -209z" />
    <glyph glyph-name="quotesinglbase.alt" horiz-adv-x="227" 
d="M32 -119l-47 28q61 81 61 179q0 11 -2 31h93q2 -10 2 -29q0 -117 -107 -209z" />
    <glyph glyph-name="published" horiz-adv-x="799" 
d="M761 346q0 -160 -96.5 -259.5t-249.5 -99.5q-154 0 -249.5 98.5t-95.5 258.5t96.5 259.5t249.5 99.5q154 0 249.5 -98.5t95.5 -258.5zM717 345q0 151 -85 236.5t-216 85.5q-133 0 -217.5 -85.5t-84.5 -236.5t85 -236.5t217 -85.5t216.5 85.5t84.5 236.5zM561 426
q0 -60 -38.5 -91t-106.5 -31h-42v-154h-67v394h116q64 0 101 -31t37 -87zM494 424q0 60 -74 60h-46v-120h44q76 0 76 60z" />
    <glyph glyph-name="registered.alt" horiz-adv-x="799" 
d="M761 346q0 -160 -96.5 -259.5t-249.5 -99.5q-154 0 -249.5 98.5t-95.5 258.5t96.5 259.5t249.5 99.5q154 0 249.5 -98.5t95.5 -258.5zM717 345q0 151 -85 236.5t-216 85.5q-133 0 -217.5 -85.5t-84.5 -236.5t85 -236.5t217 -85.5t216.5 85.5t84.5 236.5zM550 428
q0 -81 -77 -111l114 -151l-71 -16l-114 156h-41v-151h-67v394h115q64 0 102.5 -32.5t38.5 -88.5zM407 490h-46v-127h44q36 0 56.5 16.5t20.5 46.5t-19.5 47t-55.5 17z" />
    <glyph glyph-name="servicemark.alt" horiz-adv-x="800" 
d="M200 340q-57 0 -99 25l7 58q52 -32 93 -32q24 0 39.5 11.5t15.5 31.5q0 21 -12.5 34t-44.5 27q-54 24 -74.5 45.5t-20.5 61.5q0 41 30.5 67t79.5 26q50 0 84 -21l-10 -57q-40 27 -76 27q-24 0 -38 -10.5t-14 -26.5q0 -20 12 -31.5t45 -26.5q54 -24 74.5 -46.5t20.5 -64.5
q0 -45 -30.5 -71.5t-81.5 -26.5zM549 343l-104 261v-259h-56v345h81l108 -271l108 271h81v-345h-57v259l-105 -261h-56z" />
    <glyph glyph-name="trademark.alt" horiz-adv-x="800" 
d="M789 345h-56v259l-105 -261h-56l-104 261v-259h-56v345h81l108 -271l107 271h81v-345zM361 636h-113v-291h-60v291h-108v54h272z" />
    <glyph glyph-name="one.sup" horiz-adv-x="360" 
d="M339 411h-238l9 60h86l37 238l-88 -36v61l118 49h51l-49 -312h74v-60z" />
    <glyph glyph-name="two.sup" horiz-adv-x="360" 
d="M347 411h-255l9 58l150 133q50 45 50 78q0 18 -12.5 29t-33.5 11q-45 0 -100 -34v65q56 33 113 33q51 0 79 -27.5t28 -65.5q0 -37 -17.5 -64t-62.5 -65l-101 -87h153v-64z" />
    <glyph glyph-name="three.sup" horiz-adv-x="360" 
d="M336 515q0 -53 -38.5 -82.5t-98.5 -29.5q-56 0 -114 30l21 59q54 -28 92 -28q33 0 50 14.5t17 38.5q0 55 -86 55h-9v57h24q44 0 69.5 16.5t25.5 41.5q0 36 -46 36q-45 0 -88 -21v61q47 21 100 21q45 0 74.5 -22.5t29.5 -64.5q0 -39 -25 -64t-64 -35q66 -21 66 -83z" />
    <glyph glyph-name="NUL" horiz-adv-x="0" 
 />
    <glyph glyph-name="hfjslug" horiz-adv-x="694" 
d="M644 -200h-208l-8 14h-163l-8 -14h-207v303q14 0 23 9.5t9 22.5t-9.5 22.5t-22.5 9.5v554h100l30 79h334l29 -79h101v-921zM400 563v-172h15v78h38v14h-38v66h43v14h-58zM184 563v-172h15v79h47v-79h15v172h-15v-79h-47v79h-15zM460 394q10 -4 21 -4q31 0 31 36v137h-16
v-137q0 -22 -16 -22q-8 0 -20 5v-15zM371 465l-13 3q-4 -18 -8 -30h-1l-16 31q23 21 23 42q0 31 -27 31q-12 0 -20 -9t-8 -22t14 -39q-23 -18 -23 -47q0 -16 8 -26.5t21 -10.5q19 0 29 24h1l12 -24l12 6l-17 32q6 14 13 39zM523 323v-46h8v12l8 8l15 -20h10l-20 26l18 20
h-10l-20 -24h-1v24h-8zM488 292l10 -15h9l-12 17q10 4 10 14q0 15 -17 15h-20v-46h8v15h12zM426 276q10 0 17 7t7 17q0 9 -7 16.5t-17 7.5t-17 -7.5t-7 -16.5q0 -10 7 -17t17 -7zM370 301l-13 22h-9l18 -29v-17h8v17l18 29h-9zM193 323v-46h34v7h-26v13h23v7h-23v12h26v7
h-34zM132 323v-46h8v32l25 -32h7v46h-8v-32l-25 32h-7zM241 323l14 -47h8l11 34h1l11 -34h8l14 47h-8l-10 -35h-1l-11 35h-7l-11 -35h-1l-10 35h-8zM327 479q-12 22 -12 32q0 19 14 19q13 0 13 -19q0 -15 -15 -32zM342 423q-8 -21 -20 -21q-16 0 -16 25q0 19 16 35zM487 299
h-11v17h11q10 0 10 -8q0 -9 -10 -9zM426 283q-16 0 -16 17q0 6 4.5 11.5t11.5 5.5t11.5 -5.5t4.5 -11.5q0 -17 -16 -17z" />
    <glyph glyph-name="i.dot" horiz-adv-x="230" 
d="M234 630q0 -24 -16.5 -40.5t-40.5 -16.5t-40.5 16.5t-16.5 40.5t16.5 40.5t40.5 16.5t40.5 -16.5t16.5 -40.5zM195 477l-75 -477h-86l75 477h86z" />
    <glyph glyph-name="caron.alt" 
d="M349 720q11 -27 11 -52q0 -73 -88 -142l-44 10q50 58 50 108q0 27 -14 63z" />
    <glyph glyph-name="commaaccent" 
d="M156 -90l82 26q29 -37 29 -70q0 -65 -92 -144l-53 14q63 70 63 112q0 27 -29 62z" />
    </font>
</defs>
</svg>
