<?xml version="1.0" standalone="no"?>
<!DOCTYPE svg PUBLIC "-//W3C//DTD SVG 1.1//EN" "http://www.w3.org/Graphics/SVG/1.1/DTD/svg11.dtd" >
<svg>
<metadata>
Created by FontForge 20120731 at Fri Aug 12 09:10:15 2016
 By ,,,
Copyright (C) 1996, 2007 Hoefler &#38; Frere-Jones. http://www.typography.com
</metadata>
<defs>
<font id="Whitney-BoldItalic" horiz-adv-x="515" >
  <font-face 
    font-family="Whitney Bold"
    font-weight="400"
    font-style="italic"
    font-stretch="normal"
    units-per-em="1000"
    panose-1="0 0 0 0 0 0 0 0 0 0"
    ascent="800"
    descent="-200"
    x-height="490"
    cap-height="690"
    bbox="-140 -275 1039 1018"
    underline-thickness="50"
    underline-position="-50"
    slope="-9"
    unicode-range="U+0020-FB04"
  />
<missing-glyph horiz-adv-x="500" 
d="M0 -200v1000h500v-1000h-500zM71 750l179 -390l179 390h-358zM50 -76l172 376l-172 376v-752zM450 676l-172 -376l172 -376v752zM250 240l-179 -390h358z" />
    <glyph glyph-name="f_f" unicode="ff" horiz-adv-x="665" 
d="M385 595q-25 6 -50 6q-28 0 -43 -14t-21 -49l-8 -48h82v-121h-101l-83 -529l-150 -26l87 555h-68l19 121h68l11 66q13 75 55 116t125 41q45 0 77 -5v-113zM720 595q-26 6 -50 6q-28 0 -43 -14t-21 -49l-8 -48h82v-121h-101l-83 -529l-150 -26l87 555h-68l19 121h68l11 66
q13 75 55 116t125 41q45 0 77 -5v-113z" />
    <glyph glyph-name="fi" unicode="fi" horiz-adv-x="589" 
d="M608 636q0 -37 -25 -59.5t-62 -22.5t-61.5 22.5t-24.5 59.5t24.5 59.5t61.5 22.5t62 -22.5t25 -59.5zM572 490l-80 -490h-146l79 490h147zM385 595q-25 6 -50 6q-28 0 -43 -14t-21 -49l-8 -48h82v-121h-101l-83 -529l-150 -26l87 555h-68l19 121h68l11 66q13 75 55 116
t125 41q45 0 77 -5v-113z" />
    <glyph glyph-name="fl" unicode="fl" horiz-adv-x="589" 
d="M608 722l-115 -722h-147l111 696zM385 595q-25 6 -50 6q-28 0 -43 -14t-21 -49l-8 -48h82v-121h-101l-83 -529l-150 -26l87 555h-68l19 121h68l11 66q13 75 55 116t125 41q45 0 77 -5v-113z" />
    <glyph glyph-name="f_f_i" unicode="ffi" horiz-adv-x="924" 
d="M944 636q0 -37 -25 -59.5t-62 -22.5t-61.5 22.5t-24.5 59.5t24.5 59.5t61.5 22.5t62 -22.5t25 -59.5zM908 490l-80 -490h-146l79 490h147zM385 595q-25 6 -50 6q-28 0 -43 -14t-21 -49l-8 -48h82v-121h-101l-83 -529l-150 -26l87 555h-68l19 121h68l11 66q13 75 55 116
t125 41q45 0 77 -5v-113zM720 595q-26 6 -50 6q-28 0 -43 -14t-21 -49l-8 -48h82v-121h-101l-83 -529l-150 -26l87 555h-68l19 121h68l11 66q13 75 55 116t125 41q45 0 77 -5v-113z" />
    <glyph glyph-name="f_f_l" unicode="ffl" horiz-adv-x="924" 
d="M944 722l-115 -722h-147l111 696zM385 595q-25 6 -50 6q-28 0 -43 -14t-21 -49l-8 -48h82v-121h-101l-83 -529l-150 -26l87 555h-68l19 121h68l11 66q13 75 55 116t125 41q45 0 77 -5v-113zM720 595q-26 6 -50 6q-28 0 -43 -14t-21 -49l-8 -48h82v-121h-101l-83 -529
l-150 -26l87 555h-68l19 121h68l11 66q13 75 55 116t125 41q45 0 77 -5v-113z" />
    <glyph glyph-name=".notdef" horiz-adv-x="500" 
d="M0 -200v1000h500v-1000h-500zM71 750l179 -390l179 390h-358zM50 -76l172 376l-172 376v-752zM450 676l-172 -376l172 -376v752zM250 240l-179 -390h358z" />
    <glyph glyph-name=".null" horiz-adv-x="0" 
 />
    <glyph glyph-name="nonmarkingreturn" horiz-adv-x="333" 
 />
    <glyph glyph-name="space" unicode=" " horiz-adv-x="199" 
 />
    <glyph glyph-name="exclam" unicode="!" horiz-adv-x="293" 
d="M310 690l-115 -434l-94 -22l24 456h185zM215 170l-27 -170h-162l28 170h161z" />
    <glyph glyph-name="quotedbl" unicode="&#x22;" horiz-adv-x="480" 
d="M504 676l-84 -281l-85 21l3 260h166zM278 676l-85 -281l-84 21l3 260h166z" />
    <glyph glyph-name="numbersign" unicode="#" horiz-adv-x="627" 
d="M531 664l-21 -129h95v-127h-115l-22 -140h100l20 -127h-140l-23 -143h-89l23 143h-133l-24 -150l-86 21l20 129h-94v127h114l23 140h-100l-20 127h140l23 143h89l-23 -143h133l24 150zM267 412l-24 -148h137l24 148h-137z" />
    <glyph glyph-name="dollar" unicode="$" horiz-adv-x="522" 
d="M437 737l-22 -69q64 -16 117 -51l-41 -120q-51 38 -117 58l-44 -146q86 -37 123 -80t37 -109q0 -108 -66.5 -166.5t-171.5 -58.5q-15 0 -43 2l-35 -119l-69 17l35 113q-77 19 -144 61l41 119q75 -52 144 -68l52 172q-81 37 -116 76.5t-35 102.5q0 97 63 153.5t168 56.5
q5 0 15.5 -0.5t15.5 -0.5l23 75zM356 192q0 24 -14.5 40.5t-54.5 35.5l-48 -157h16q47 0 74 22.5t27 58.5zM216 499q0 -20 12.5 -34.5t46.5 -31.5l40 132q-5 1 -16 1q-40 0 -61.5 -18.5t-21.5 -48.5z" />
    <glyph glyph-name="percent" unicode="%" horiz-adv-x="828" 
d="M373 522q0 -99 -51 -173t-126 -74q-65 0 -98.5 43t-33.5 118q0 101 50.5 174.5t126.5 73.5q65 0 98.5 -43t33.5 -119zM722 661l-257 -340l-244 -328l-85 22l268 354l233 314zM234 596q-33 0 -53 -50.5t-20 -111.5q0 -72 42 -72q32 0 52.5 51t20.5 112q0 71 -42 71z
M794 240q0 -101 -50.5 -174.5t-126.5 -73.5q-65 0 -99 43t-34 119q0 99 51 173t126 74q65 0 99 -43t34 -118zM697 242q0 72 -43 72q-32 0 -52.5 -51t-20.5 -112q0 -71 43 -71q32 0 52.5 50.5t20.5 111.5z" />
    <glyph glyph-name="ampersand" unicode="&#x26;" horiz-adv-x="639" 
d="M207 -13q-91 0 -142 46.5t-51 121.5q0 156 175 231q-38 67 -38 128q0 83 54.5 136t149.5 53q102 0 186 -43l-41 -130q-77 41 -135 41q-30 0 -46.5 -15t-16.5 -40q0 -30 30 -76l105 -161q26 58 45 134l118 -30q-33 -115 -94 -208l104 -158l-163 -23l-44 67
q-93 -74 -196 -74zM249 104q49 0 97 42l-102 154q-76 -49 -76 -118q0 -35 20.5 -56.5t60.5 -21.5z" />
    <glyph glyph-name="quotesingle" unicode="'" horiz-adv-x="257" 
d="M281 676l-85 -281l-87 21l3 260h169z" />
    <glyph glyph-name="parenleft" unicode="(" horiz-adv-x="381" 
d="M398 623q-98 -80 -145 -169.5t-48 -210.5q-1 -151 111 -309l-114 -28q-160 157 -159 350q2 160 96 280.5t259 189.5v-103z" />
    <glyph glyph-name="parenright" unicode=")" horiz-adv-x="381" 
d="M3 4q98 80 145 169.5t48 210.5q1 151 -111 309l114 28q160 -157 159 -350q-1 -159 -95.5 -280t-259.5 -190v103z" />
    <glyph glyph-name="asterisk" unicode="*" horiz-adv-x="438" 
d="M451 546l-107 -69l48 -119l-31 -20l-98 80l-98 -80l-30 20l47 119l-107 69l12 35l127 -7l30 122h38l31 -122l127 7z" />
    <glyph glyph-name="plus" unicode="+" horiz-adv-x="572" 
d="M523 279h-171l-27 -177h-123l28 177h-171l19 118h171l27 177h123l-28 -177h171z" />
    <glyph glyph-name="comma" unicode="," horiz-adv-x="257" 
d="M223 172l-175 -320l-87 21l92 299h170z" />
    <glyph glyph-name="hyphen" unicode="-" horiz-adv-x="330" 
d="M308 363l-23 -144h-251l23 144h251z" />
    <glyph glyph-name="period" unicode="." horiz-adv-x="257" 
d="M199 183l-29 -183h-161l28 183h162z" />
    <glyph glyph-name="slash" unicode="/" horiz-adv-x="530" 
d="M590 669l-553 -796l-126 30l553 796z" />
    <glyph glyph-name="zero" unicode="0" horiz-adv-x="598" 
d="M580 429q0 -200 -85 -321.5t-217 -121.5q-110 0 -169.5 69t-59.5 191q0 201 84.5 322.5t217.5 121.5q110 0 169.5 -69.5t59.5 -191.5zM419 451q0 115 -74 115q-39 0 -71 -53.5t-48 -131.5t-16 -157q0 -115 73 -115q39 0 71 54t48.5 131.5t16.5 156.5z" />
    <glyph glyph-name="one" unicode="1" horiz-adv-x="387" 
d="M384 677l-107 -677h-160l82 522l-132 -53v128l174 80h143z" />
    <glyph glyph-name="two" unicode="2" horiz-adv-x="539" 
d="M527 512q0 -74 -36.5 -125.5t-123.5 -122.5l-158 -135h251v-129h-461l20 124l258 230q49 43 69 70.5t20 59.5t-21.5 50t-61.5 18q-73 0 -173 -68v137q99 68 213 68q93 0 148.5 -47.5t55.5 -129.5z" />
    <glyph glyph-name="three" unicode="3" horiz-adv-x="522" 
d="M515 525q0 -70 -37 -110.5t-105 -63.5q103 -43 103 -148q0 -103 -69.5 -159.5t-185.5 -56.5q-117 0 -223 57l38 124q95 -49 172 -49q51 0 82 23.5t31 67.5q0 82 -119 82h-46v117h67q63 0 97.5 22.5t34.5 63.5q0 63 -82 63q-78 0 -175 -55v131q107 55 211 55
q97 0 151.5 -42.5t54.5 -121.5z" />
    <glyph glyph-name="four" unicode="4" horiz-adv-x="591" 
d="M577 245l-18 -110h-96l-21 -135h-150l22 135h-305l16 102l342 439h182l-68 -431h96zM331 245l45 277l-213 -277h168z" />
    <glyph glyph-name="five" unicode="5" horiz-adv-x="529" 
d="M526 544h-272l-27 -115q131 -15 195 -64.5t64 -141.5q0 -113 -71.5 -174.5t-188.5 -61.5q-110 0 -224 49l41 132q92 -45 183 -45q52 0 79.5 23.5t27.5 63.5q0 49 -58 75t-201 37l79 354h373v-132z" />
    <glyph glyph-name="six" unicode="6" horiz-adv-x="548" 
d="M480 559q-225 -42 -276 -177q78 48 159 48q75 0 118 -48.5t43 -133.5q0 -114 -73.5 -187t-190.5 -73q-105 0 -165 66t-60 183q0 184 120.5 303t324.5 151v-132zM294 318q-54 0 -112 -40q-2 -32 -2 -44q0 -60 23 -94t66 -34q45 0 74.5 33.5t29.5 90.5q0 88 -79 88z" />
    <glyph glyph-name="seven" unicode="7" horiz-adv-x="533" 
d="M563 676l-20 -129l-335 -554l-152 28l317 516h-278v139h468z" />
    <glyph glyph-name="eight" unicode="8" horiz-adv-x="566" 
d="M25 168q0 125 144 189q-72 56 -72 136q0 86 63.5 141t174.5 55q99 0 158.5 -44.5t59.5 -116.5q0 -110 -123 -169q94 -61 94 -160q0 -92 -70 -152t-186 -60q-118 0 -180.5 51t-62.5 130zM175 180q0 -37 26 -60t68 -23q47 0 75.5 26t28.5 68q0 33 -22.5 59.5t-86.5 55.5
q-89 -49 -89 -126zM241 508q0 -31 21.5 -53.5t71.5 -46.5q76 45 76 107q0 32 -21 49.5t-60 17.5q-40 0 -64 -21.5t-24 -52.5z" />
    <glyph glyph-name="nine" unicode="9" horiz-adv-x="548" 
d="M90 118q222 36 280 167q-75 -41 -147 -41q-80 0 -124.5 48.5t-44.5 134.5q0 115 74 188.5t190 73.5q104 0 164.5 -66.5t60.5 -182.5q0 -187 -124 -306t-329 -148v132zM284 354q54 0 110 36q4 25 4 53q0 59 -23.5 93t-66.5 34q-45 0 -74 -34.5t-29 -93.5q0 -88 79 -88z
" />
    <glyph glyph-name="colon" unicode=":" horiz-adv-x="265" 
d="M251 490l-27 -177h-161l27 177h161zM202 176l-28 -176h-161l28 176h161z" />
    <glyph glyph-name="semicolon" unicode=";" horiz-adv-x="265" 
d="M255 490l-27 -177h-162l28 177h161zM219 172l-175 -320l-87 21l91 299h171z" />
    <glyph glyph-name="less" unicode="&#x3c;" horiz-adv-x="572" 
d="M475 63l-412 222l17 106l482 222l-22 -135l-320 -144l274 -144z" />
    <glyph glyph-name="equal" unicode="=" horiz-adv-x="590" 
d="M542 399h-445l19 120h445zM504 158h-445l19 119h445z" />
    <glyph glyph-name="greater" unicode="&#x3e;" horiz-adv-x="572" 
d="M126 613l412 -222l-17 -106l-482 -222l22 135l320 144l-275 144z" />
    <glyph glyph-name="question" unicode="?" horiz-adv-x="483" 
d="M262 170l-28 -170h-161l27 170h162zM268 291l-9 -39l-104 -24l18 165l17 7q99 41 118 54q28 21 28 49q0 56 -74 56q-78 0 -184 -69v145q108 68 232 68q94 0 142.5 -47.5t48.5 -127.5q0 -89 -57 -145t-176 -92z" />
    <glyph glyph-name="at" unicode="@" horiz-adv-x="832" 
d="M596 43q-51 0 -88 23t-51 63q-76 -86 -145 -86q-48 0 -78 33.5t-30 95.5q0 126 74 211.5t174 85.5q83 0 167 -35l-40 -220q-6 -28 -6 -55q0 -54 61 -54q52 0 84 55.5t32 150.5q0 145 -79.5 219.5t-213.5 74.5q-153 0 -264.5 -120.5t-111.5 -293.5q0 -152 79.5 -224
t216.5 -72q118 0 214 48l6 -36q-96 -47 -224 -47q-159 0 -247.5 84t-88.5 246q0 182 125 316.5t299 134.5q152 0 242.5 -87t90.5 -242q0 -122 -52.5 -195.5t-145.5 -73.5zM365 145q31 0 91 68l29 153q-16 6 -40 6q-46 0 -81.5 -52.5t-35.5 -122.5q0 -52 37 -52z" />
    <glyph glyph-name="A" unicode="A" horiz-adv-x="663" 
d="M444 -7l-22 150h-217l-65 -143h-165l346 693h173l121 -670zM372 514l-109 -238h142z" />
    <glyph glyph-name="B" unicode="B" horiz-adv-x="581" 
d="M566 529q0 -115 -120 -165q99 -44 99 -144q0 -105 -77 -162.5t-210 -57.5h-233l109 690h211q107 0 164 -42.5t57 -118.5zM408 502q0 70 -87 70h-44l-25 -161h46q48 0 79 24t31 67zM382 218q0 84 -108 84h-39l-30 -185h52q56 0 90.5 26.5t34.5 74.5z" />
    <glyph glyph-name="C" unicode="C" horiz-adv-x="575" 
d="M592 647l-45 -144q-66 55 -136 55q-84 0 -138.5 -77.5t-54.5 -186.5q0 -83 39 -124t107 -41q63 0 142 42v-142q-78 -40 -170 -40q-131 0 -211 75.5t-80 216.5q0 184 104.5 302.5t257.5 118.5q105 0 185 -55z" />
    <glyph glyph-name="D" unicode="D" horiz-adv-x="668" 
d="M649 401q0 -178 -107 -283q-117 -118 -333 -118h-184l109 690h172q343 0 343 -289zM478 393q0 167 -170 167h-26l-69 -430h25q104 0 166 62q74 74 74 201z" />
    <glyph glyph-name="E" unicode="E" 
d="M544 690l-21 -137h-243l-20 -128h182v-137h-204l-24 -151h251l-22 -137h-418l109 690h410z" />
    <glyph glyph-name="F" unicode="F" horiz-adv-x="494" 
d="M535 690l-22 -142h-234l-22 -143h174v-142h-196l-42 -263h-168l109 690h401z" />
    <glyph glyph-name="G" unicode="G" horiz-adv-x="652" 
d="M627 396l-58 -344q-107 -65 -237 -65q-132 0 -209.5 78t-77.5 213q0 182 107 303.5t268 121.5q119 0 212 -51l-45 -144q-76 54 -164 54q-92 0 -148.5 -78.5t-56.5 -197.5q0 -82 36 -123t98 -41q47 0 88 18l19 130h-107v126h275z" />
    <glyph glyph-name="H" unicode="H" horiz-adv-x="675" 
d="M680 690l-109 -690h-169l45 283h-208l-44 -283h-170l109 690h170l-42 -258h209l40 258h169z" />
    <glyph glyph-name="I" unicode="I" horiz-adv-x="301" 
d="M305 690l-109 -690h-169l109 690h169z" />
    <glyph glyph-name="J" unicode="J" horiz-adv-x="423" 
d="M434 690l-75 -477q-19 -118 -81.5 -168.5t-173.5 -50.5q-57 0 -103 8v144q45 -9 84 -9q45 0 72.5 23t36.5 82l71 448h169z" />
    <glyph glyph-name="K" unicode="K" horiz-adv-x="622" 
d="M673 690l-267 -328l177 -339l-181 -30l-157 327l-50 -320h-170l109 690h170l-47 -295l231 295h185z" />
    <glyph glyph-name="L" unicode="L" horiz-adv-x="480" 
d="M425 0h-400l109 690h170l-87 -544h208v-146z" />
    <glyph glyph-name="M" unicode="M" horiz-adv-x="864" 
d="M839 690l-59 -690h-172l42 452l-194 -455h-154l-49 455l-101 -452h-146l160 690h215l51 -465l200 465h207z" />
    <glyph glyph-name="N" unicode="N" horiz-adv-x="674" 
d="M678 690l-109 -690h-134l-189 417l-66 -417h-155l109 690h160l170 -381l59 381h155z" />
    <glyph glyph-name="O" unicode="O" horiz-adv-x="690" 
d="M671 413q0 -184 -99 -305t-254 -121q-128 0 -199.5 75.5t-71.5 214.5q0 184 99 305t254 121q128 0 199.5 -75.5t71.5 -214.5zM498 422q0 152 -109 152q-74 0 -121.5 -92t-47.5 -214q0 -152 109 -152q74 0 121.5 92t47.5 214z" />
    <glyph glyph-name="P" unicode="P" horiz-adv-x="563" 
d="M574 491q-1 -124 -82 -192t-216 -68h-48l-36 -231h-167l109 690h195q123 0 184.5 -52t60.5 -147zM413 475q1 45 -25 68t-76 23h-33l-33 -210h35q63 0 97 31t35 88z" />
    <glyph glyph-name="Q" unicode="Q" horiz-adv-x="697" 
d="M645 1l-51 -144l-302 119q-91 36 -141 71t-77 90.5t-27 139.5q0 184 98.5 305t251.5 121q129 0 201.5 -75.5t72.5 -211.5q0 -132 -49.5 -225t-126.5 -140zM498 422q0 152 -109 152q-74 0 -121.5 -92t-47.5 -214q0 -153 109 -153q74 0 121.5 92.5t47.5 214.5z" />
    <glyph glyph-name="R" unicode="R" horiz-adv-x="597" 
d="M584 496q0 -158 -149 -215l116 -259l-176 -29l-106 250h-39l-38 -243h-167l109 690h198q120 0 186 -48.5t66 -145.5zM420 482q0 84 -103 84h-38l-31 -203h34q66 0 102 30.5t36 88.5z" />
    <glyph glyph-name="S" unicode="S" horiz-adv-x="536" 
d="M536 642l-46 -135q-99 65 -168 65q-37 0 -56 -18t-19 -45q0 -23 15 -38.5t60 -40.5q104 -55 140.5 -101.5t36.5 -113.5q0 -104 -69 -165t-176 -61q-134 0 -253 68l47 135q111 -74 202 -74q39 0 62.5 20.5t23.5 52.5q0 25 -13.5 41t-53.5 38q-107 57 -146 101t-39 111
q0 97 65.5 158t168.5 61q119 0 218 -59z" />
    <glyph glyph-name="T" unicode="T" horiz-adv-x="585" 
d="M620 551h-194l-87 -551h-169l86 551h-189l22 139h531v-139z" />
    <glyph glyph-name="U" unicode="U" horiz-adv-x="664" 
d="M678 690l-67 -422q-23 -147 -99.5 -214t-204.5 -67q-121 0 -185.5 56t-64.5 166q0 35 8 91l61 390h169l-62 -400q-7 -38 -7 -73q0 -43 23.5 -67.5t68.5 -24.5q101 0 123 138l67 427h170z" />
    <glyph glyph-name="V" unicode="V" horiz-adv-x="647" 
d="M706 690l-346 -693h-160l-121 670l178 30l67 -480l214 473h168z" />
    <glyph glyph-name="W" unicode="W" horiz-adv-x="971" 
d="M1025 690l-297 -690h-160l-57 434l-197 -434h-154l-76 667l188 30l27 -432l187 425h165l50 -425l162 425h162z" />
    <glyph glyph-name="X" unicode="X" horiz-adv-x="621" 
d="M666 690l-240 -329l153 -339l-177 -29l-94 234l-155 -227h-185l265 361l-138 307l177 29l78 -201l131 194h185z" />
    <glyph glyph-name="Y" unicode="Y" horiz-adv-x="630" 
d="M703 690l-306 -437l-40 -253h-170l40 250l-160 419l177 28l97 -282l180 275h182z" />
    <glyph glyph-name="Z" unicode="Z" horiz-adv-x="576" 
d="M609 690l-19 -123l-366 -432h287v-135h-517l20 123l365 432h-262v135h492z" />
    <glyph glyph-name="bracketleft" unicode="[" horiz-adv-x="406" 
d="M445 690l-14 -93h-162l-96 -608h153v-93h-312l126 794h305z" />
    <glyph glyph-name="backslash" unicode="\" horiz-adv-x="509" 
d="M516 -98l-123 -29l-343 797l123 29z" />
    <glyph glyph-name="bracketright" unicode="]" horiz-adv-x="406" 
d="M406 690l-125 -794h-306l15 93h161l96 608h-153v93h312z" />
    <glyph glyph-name="asciicircum" unicode="^" horiz-adv-x="423" 
d="M421 547h-92l-58 58l-79 -58h-89l117 147h127z" />
    <glyph glyph-name="underscore" unicode="_" horiz-adv-x="423" 
d="M379 -34l-11 -70h-424l11 70h424z" />
    <glyph glyph-name="grave" unicode="`" horiz-adv-x="423" 
d="M369 547h-93l-128 121l183 30z" />
    <glyph glyph-name="a" unicode="a" 
d="M299 76q-75 -86 -146 -86q-59 0 -94 45t-35 124q0 159 86 248t207 89q87 0 178 -35l-54 -338v-123h-137zM304 173l32 201q-17 7 -35 7q-52 0 -90.5 -54.5t-38.5 -138.5q0 -68 47 -68q35 0 85 53z" />
    <glyph glyph-name="b" unicode="b" horiz-adv-x="518" 
d="M19 29l106 667l150 26l-46 -292q70 70 131 70q60 0 96.5 -47t36.5 -129q0 -154 -82 -242t-200 -88q-89 0 -192 35zM178 116q20 -7 42 -7q52 0 88 50t36 138q0 73 -51 73q-33 0 -82 -49z" />
    <glyph glyph-name="c" unicode="c" horiz-adv-x="422" 
d="M426 464l-38 -122q-46 30 -94 30q-49 0 -84.5 -46.5t-35.5 -113.5q0 -49 25 -73.5t68 -24.5q41 0 95 26v-120q-58 -29 -125 -29q-91 0 -151 51.5t-60 157.5q0 129 74.5 214.5t184.5 85.5q79 0 141 -36z" />
    <glyph glyph-name="d" unicode="d" horiz-adv-x="518" 
d="M540 722l-96 -602v-120h-138l-5 72q-79 -82 -144 -82q-60 0 -96.5 46.5t-36.5 129.5q0 153 80 240t193 87q32 0 60 -7l32 210zM339 373q-17 7 -42 7q-53 0 -89 -49.5t-36 -137.5q0 -73 51 -73q35 0 83 48z" />
    <glyph glyph-name="e" unicode="e" horiz-adv-x="478" 
d="M263 96q71 0 154 44v-103q-89 -47 -182 -47q-94 0 -152 52t-58 152q0 133 73 219.5t180 86.5q83 0 129 -52.5t46 -142.5q0 -50 -12 -95h-279v-2q0 -112 101 -112zM264 402q-32 0 -56.5 -28.5t-36.5 -76.5h149q11 105 -56 105z" />
    <glyph glyph-name="f" unicode="f" horiz-adv-x="330" 
d="M385 595q-25 6 -50 6q-28 0 -43 -14t-21 -49l-8 -48h82v-121h-101l-83 -529l-150 -26l87 555h-68l19 121h68l11 66q13 75 55 116t125 41q45 0 77 -5v-113z" />
    <glyph glyph-name="g" unicode="g" horiz-adv-x="518" 
d="M498 461l-66 -423q-19 -121 -83 -170.5t-164 -49.5q-114 0 -204 44l37 113q80 -41 155 -41q92 0 110 98l9 44q-69 -69 -130 -69q-63 0 -100 44.5t-37 126.5q0 147 82.5 232.5t198.5 85.5q89 0 192 -35zM339 373q-17 7 -43 7q-51 0 -87 -48.5t-36 -129.5q0 -71 52 -71
q35 0 82 50z" />
    <glyph glyph-name="h" unicode="h" horiz-adv-x="520" 
d="M491 391q0 -24 -3 -42l-56 -349h-147l49 305q3 21 3 26q0 38 -35 38q-37 0 -92 -64l-49 -305h-146l110 696l150 26l-49 -313q44 43 82 67t81 24q50 0 76 -29.5t26 -79.5z" />
    <glyph glyph-name="i" unicode="i" horiz-adv-x="259" 
d="M279 636q0 -37 -25 -59.5t-62 -22.5t-61.5 22.5t-24.5 59.5t24.5 59.5t61.5 22.5t62 -22.5t25 -59.5zM243 490l-80 -490h-146l79 490h147z" />
    <glyph glyph-name="j" unicode="j" horiz-adv-x="259" 
d="M279 636q0 -37 -25 -59.5t-62 -22.5t-61.5 22.5t-24.5 59.5t24.5 59.5t61.5 22.5t62 -22.5t25 -59.5zM242 490l-79 -499q-15 -94 -57.5 -133.5t-122.5 -39.5q-46 0 -66 6v124q14 -5 40 -5q28 0 42.5 16t19.5 51l76 480h147z" />
    <glyph glyph-name="k" unicode="k" horiz-adv-x="493" 
d="M161 0h-146l110 696l150 26l-68 -427l149 195h161l-182 -225l118 -247l-151 -25l-105 235z" />
    <glyph glyph-name="l" unicode="l" horiz-adv-x="259" 
d="M279 722l-115 -722h-147l111 696z" />
    <glyph glyph-name="m" unicode="m" horiz-adv-x="783" 
d="M754 390q0 -15 -4 -41l-55 -349h-147l48 305q3 12 3 28q0 36 -33 36q-14 0 -39.5 -17.5t-49.5 -46.5l-49 -305h-147l48 305q3 12 3 27q0 37 -31 37q-15 0 -41.5 -18t-50.5 -47l-48 -304h-146l58 370v120h139l5 -90q98 100 171 100q47 0 71.5 -26.5t26.5 -69.5
q96 96 167 96q49 0 75 -29.5t26 -80.5z" />
    <glyph glyph-name="n" unicode="n" horiz-adv-x="518" 
d="M489 391q0 -24 -3 -42l-56 -349h-147l49 305q3 21 3 26q0 38 -35 38q-37 0 -92 -64l-49 -305h-147l59 370v120h136l8 -90q98 100 172 100q50 0 76 -29.5t26 -79.5z" />
    <glyph glyph-name="o" unicode="o" horiz-adv-x="506" 
d="M479 285q0 -125 -69.5 -210t-182.5 -85q-93 0 -146.5 58.5t-53.5 155.5q0 126 69.5 211t182.5 85q93 0 146.5 -58.5t53.5 -156.5zM333 288q0 95 -64 95q-43 0 -69.5 -54t-26.5 -127q0 -96 64 -96q43 0 69.5 54t26.5 128z" />
    <glyph glyph-name="p" unicode="p" horiz-adv-x="518" 
d="M-14 -186l87 556v120h138l5 -73q40 41 73 62t71 21q61 0 97 -47t36 -129q0 -154 -80 -241t-193 -87q-25 0 -60 7l-24 -163zM179 116q20 -7 41 -7q53 0 89 50t36 138q0 73 -51 73q-34 0 -82 -49z" />
    <glyph glyph-name="q" unicode="q" horiz-adv-x="518" 
d="M498 461l-98 -621l-150 -26l37 245q-69 -69 -130 -69q-60 0 -96.5 46.5t-36.5 129.5q0 154 82.5 242t199.5 88q89 0 192 -35zM339 373q-17 7 -42 7q-53 0 -89 -49.5t-36 -137.5q0 -73 51 -73q35 0 83 48z" />
    <glyph glyph-name="r" unicode="r" horiz-adv-x="372" 
d="M380 348q-104 -9 -176 -79l-43 -269h-146l58 370v120h137l7 -109q73 118 163 119v-152z" />
    <glyph glyph-name="s" unicode="s" horiz-adv-x="421" 
d="M404 457l-31 -111q-82 45 -146 45q-22 0 -32.5 -9t-10.5 -22q0 -14 8.5 -23t36.5 -21q87 -39 121.5 -72.5t34.5 -89.5q0 -75 -50 -119.5t-139 -44.5q-106 0 -201 56l33 111q92 -59 172 -59q52 0 52 37q0 15 -11.5 25t-42.5 25q-83 38 -115 69.5t-32 87.5q0 70 49 114
t125 44q90 0 179 -43z" />
    <glyph glyph-name="t" unicode="t" horiz-adv-x="358" 
d="M351 369h-110l-28 -176q-3 -18 -3 -34q0 -43 46 -43q24 0 41 5v-120q-44 -10 -98 -10q-140 0 -140 120q0 21 4 59l32 199h-61l19 121h61l23 147l150 25l-27 -172h91v-121z" />
    <glyph glyph-name="u" unicode="u" horiz-adv-x="519" 
d="M506 490l-59 -370v-120h-139l-5 89q-97 -99 -172 -99q-50 0 -76 29t-26 79q0 7 3 43l56 349h147l-49 -306q-2 -14 -2 -25q0 -39 34 -39q37 0 92 65l49 305h147z" />
    <glyph glyph-name="v" unicode="v" horiz-adv-x="474" 
d="M503 490l-238 -492h-137l-83 478l153 21l35 -309l127 302h143z" />
    <glyph glyph-name="w" unicode="w" horiz-adv-x="707" 
d="M731 490l-210 -490h-139l-25 296l-117 -296h-136l-55 478l149 19l16 -302l114 295h135l21 -295l109 295h138z" />
    <glyph glyph-name="x" unicode="x" horiz-adv-x="479" 
d="M497 490l-173 -240l105 -238l-144 -19l-60 155l-97 -148h-155l182 251l-97 227l144 19l52 -144l89 137h154z" />
    <glyph glyph-name="y" unicode="y" horiz-adv-x="483" 
d="M511 490l-245 -504q-46 -96 -93.5 -132t-130.5 -36q-31 0 -55 6v120q30 -7 57 -7q49 0 80 46l10 19l-87 474l153 21l38 -309l131 302h142z" />
    <glyph glyph-name="z" unicode="z" horiz-adv-x="456" 
d="M455 490l-17 -114l-244 -259h197v-117h-403l18 113l245 259h-175v118h379z" />
    <glyph glyph-name="braceleft" unicode="{" horiz-adv-x="477" 
d="M511 690l-15 -93h-84q-73 0 -74 -80v-68q-1 -68 -33 -104.5t-97 -51.5v-2q49 -11 69.5 -34.5t19.5 -65.5q-1 -28 -18 -84t-17 -74q-1 -21 13.5 -32.5t43.5 -11.5h74v-93h-155q-62 0 -94.5 27t-31.5 78q0 29 18.5 91.5t18.5 86.5q0 36 -21 52.5t-68 16.5h-22v91h38
q60 0 88 28.5t29 95.5v65q1 75 44 118.5t126 43.5h148z" />
    <glyph glyph-name="bar" unicode="|" horiz-adv-x="304" 
d="M212 -166l-126 -20v888l126 20v-888z" />
    <glyph glyph-name="braceright" unicode="}" horiz-adv-x="473" 
d="M-24 -104l15 93h84q74 0 74 80v68q1 69 33 105t97 51v2q-48 11 -68.5 34.5t-20.5 65.5q1 28 18.5 84t17.5 74q0 44 -57 44h-74v93h155q62 0 94.5 -27t31.5 -78q-1 -28 -19 -90.5t-18 -87.5q-1 -36 20 -52.5t68 -16.5h23v-91h-39q-60 0 -88 -28.5t-29 -95.5v-65
q0 -75 -43 -118.5t-126 -43.5h-149z" />
    <glyph glyph-name="asciitilde" unicode="~" horiz-adv-x="380" 
d="M362 354q-18 -76 -42.5 -107.5t-62.5 -31.5q-23 0 -63 20q-42 21 -57 21q-11 0 -19 -9t-18 -35l-68 15q18 77 43 108.5t63 31.5q28 0 63 -20q42 -21 57 -21q20 0 37 45z" />
    <glyph glyph-name="uni00A0" unicode="&#xa0;" horiz-adv-x="99" 
 />
    <glyph glyph-name="exclamdown" unicode="&#xa1;" horiz-adv-x="293" 
d="M301 690l-28 -170h-161l27 170h162zM227 456l-25 -456h-185l115 434z" />
    <glyph glyph-name="cent" unicode="&#xa2;" horiz-adv-x="447" 
d="M427 668l-29 -93q29 -10 63 -31l-40 -114q-38 25 -64 32l-78 -258q54 0 110 31v-112q-64 -35 -140 -35l-29 -98l-68 18l27 89q-61 18 -97.5 67.5t-36.5 126.5q0 126 76 211t193 85q2 0 6.5 -0.5t6.5 -0.5l31 99zM183 301q0 -63 39 -85l75 252q-50 -5 -82 -52t-32 -115z
" />
    <glyph glyph-name="sterling" unicode="&#xa3;" horiz-adv-x="553" 
d="M61 396h89l56 131q35 83 85.5 122.5t133.5 39.5q76 0 130 -18l-32 -130q-39 14 -79 14q-65 0 -97 -76l-35 -83h128v-124h-180l-60 -143h283v-129h-471l18 116l67 156h-56z" />
    <glyph glyph-name="yen" unicode="&#xa5;" horiz-adv-x="633" 
d="M72 219l12 76h134l-139 363l172 25l91 -282l175 275h174l-271 -381h130v-76h-162l-10 -62h157l-12 -75h-157l-12 -82h-160l13 82h-150v75h162l9 62h-156z" />
    <glyph glyph-name="section" unicode="&#xa7;" horiz-adv-x="557" 
d="M541 370q0 -54 -48 -111l-96 24q19 31 19 50t-14.5 29.5t-53.5 21.5l-64 18q-73 20 -106.5 50t-33.5 84q0 65 50 106.5t134 41.5q90 0 171 -37l-32 -100q-76 38 -147 38q-47 0 -47 -30q0 -16 16 -24.5t62 -21.5l42 -11q83 -23 115.5 -51t32.5 -77zM42 305q0 54 47 112
l96 -25q-19 -31 -19 -50t14.5 -30t53.5 -21l64 -17q73 -20 106.5 -50.5t33.5 -84.5q0 -64 -49.5 -105.5t-134.5 -41.5q-89 0 -171 36l33 100q76 -37 147 -37q46 0 46 29q0 16 -16.5 25t-61.5 21l-42 12q-82 22 -114.5 50.5t-32.5 76.5z" />
    <glyph glyph-name="dieresis" unicode="&#xa8;" horiz-adv-x="423" 
d="M411 548h-121l21 131h121zM227 548h-120l20 131h122z" />
    <glyph glyph-name="copyright" unicode="&#xa9;" horiz-adv-x="799" 
d="M764 346q0 -160 -96.5 -259.5t-249.5 -99.5q-154 0 -249.5 98.5t-95.5 258.5t96.5 259.5t249.5 99.5q154 0 249.5 -98.5t95.5 -258.5zM720 345q0 151 -85 236.5t-216 85.5q-133 0 -217.5 -85.5t-84.5 -236.5t85 -236.5t217 -85.5t216.5 85.5t84.5 236.5zM564 177
q-57 -32 -125 -32q-94 0 -149.5 55.5t-55.5 147.5q0 91 56.5 147t146.5 56q65 0 120 -26l-15 -98q-50 32 -98 32q-43 0 -68 -30.5t-25 -79.5q0 -51 27 -81.5t73 -30.5t99 30z" />
    <glyph glyph-name="ordfeminine" unicode="&#xaa;" horiz-adv-x="372" 
d="M327 222h-288l11 73h277v-73zM253 447l10 61q-92 -13 -92 -66q0 -24 23 -24q25 0 59 29zM271 556l1 6q1 25 -9.5 35t-39.5 10q-41 0 -101 -25l1 73q62 26 137 26q132 0 113 -114l-24 -148v-64h-97l-1 41q-53 -48 -108 -48q-36 0 -55.5 20t-19.5 54q0 114 203 134z" />
    <glyph glyph-name="guillemotleft" unicode="&#xab;" horiz-adv-x="530" 
d="M542 490l-146 -249l63 -226l-98 -23l-122 253l188 245h115zM320 490l-146 -249l64 -226l-98 -23l-122 253l188 245h114z" />
    <glyph glyph-name="registered" unicode="&#xae;" horiz-adv-x="563" 
d="M545 470q0 -103 -63.5 -167.5t-163.5 -64.5q-101 0 -163.5 64t-62.5 168q0 103 63.5 168t163.5 65t163 -64.5t63 -168.5zM513 470q0 96 -55.5 151t-138.5 55q-85 0 -140 -55t-55 -151q0 -95 55.5 -150t138.5 -55q85 0 140 55t55 150zM442 359l-75 -12l-59 92h-13v-89h-70
v256h98q48 0 74 -20.5t26 -59.5q0 -52 -46 -71zM355 521q0 35 -40 35h-20v-71h20q40 0 40 36z" />
    <glyph glyph-name="macron" unicode="&#xaf;" horiz-adv-x="423" 
d="M410 557h-301l17 105h301z" />
    <glyph glyph-name="degree" unicode="&#xb0;" horiz-adv-x="446" 
d="M441 505q0 -77 -50 -126.5t-127 -49.5t-127 49.5t-50 126.5t50 127t127 50t127 -50t50 -127zM351 505q0 40 -24.5 67t-62.5 27t-62.5 -27t-24.5 -67q0 -41 24 -67t63 -26t63 26t24 67z" />
    <glyph glyph-name="plusminus" unicode="&#xb1;" horiz-adv-x="540" 
d="M347 358l-23 -141h-120l23 141h-135l18 114h135l22 140h120l-22 -140h134l-18 -114h-134zM461 57h-444l18 116h444z" />
    <glyph glyph-name="acute" unicode="&#xb4;" horiz-adv-x="423" 
d="M402 668l-156 -121h-94l81 151z" />
    <glyph glyph-name="paragraph" unicode="&#xb6;" horiz-adv-x="521" 
d="M414 0h-86l97 607h-60l-26 -164l-68 -220q-97 5 -151.5 53.5t-54.5 140.5q0 118 77.5 188.5t212.5 70.5h166z" />
    <glyph glyph-name="periodcentered" unicode="&#xb7;" horiz-adv-x="257" 
d="M202 200h-162l29 182h161z" />
    <glyph glyph-name="cedilla" unicode="&#xb8;" horiz-adv-x="423" 
d="M263 -81l-146 -106h-92l73 137z" />
    <glyph glyph-name="ordmasculine" unicode="&#xba;" horiz-adv-x="373" 
d="M208 349q-60 0 -97.5 36.5t-37.5 100.5q0 82 49.5 138t129.5 56q61 0 98.5 -36.5t37.5 -100.5q0 -82 -50 -138t-130 -56zM333 222h-297l12 73h285v-73zM243 598q-30 0 -50 -33t-20 -75q0 -59 45 -59q30 0 50 33t20 75q0 59 -45 59z" />
    <glyph glyph-name="guillemotright" unicode="&#xbb;" horiz-adv-x="530" 
d="M208 0l146 249l-63 226l97 23l123 -254l-188 -244h-115zM-13 0l146 249l-63 226l97 23l122 -254l-188 -244h-114z" />
    <glyph glyph-name="onequarter" unicode="&#xbc;" horiz-adv-x="810" 
d="M328 305h-253l13 86h76l30 185l-81 -32v91l129 53h77l-49 -297h58v-86zM755 70h-45l-11 -73h-100l11 73h-148l10 71l164 237h124l-38 -234h45zM631 142l13 74l20 84h-4l-45 -74l-28 -40l-36 -45l1 -2l56 3h23zM470 319l-248 -333l-65 18l270 347l250 333l65 -18z" />
    <glyph glyph-name="onehalf" unicode="&#xbd;" horiz-adv-x="810" 
d="M328 305h-253l13 86h76l30 185l-81 -32v91l129 53h77l-49 -297h58v-86zM734 0h-273l13 85l146 128q36 31 36 52q0 28 -34 28q-36 0 -100 -35v90q62 35 127 35q53 0 84 -27t31 -69q0 -38 -18.5 -64.5t-69.5 -69.5l-75 -63h133v-90zM449 319l-248 -333l-65 18l270 347
l250 333l65 -18z" />
    <glyph glyph-name="threequarters" unicode="&#xbe;" horiz-adv-x="810" 
d="M341 417q0 -55 -43 -87t-107 -32q-62 0 -131 33l26 78q55 -26 97 -26q24 0 38 10.5t14 29.5q0 37 -61 37h-25v71h24q38 0 60.5 12t22.5 32q0 28 -37 28q-38 0 -92 -28v84q60 30 124 30q51 0 82.5 -23.5t31.5 -65.5q0 -76 -88 -102q64 -22 64 -81zM755 70h-45l-11 -73
h-100l11 73h-148l10 71l164 237h124l-38 -234h45zM631 142l13 74l20 84h-4l-45 -74l-28 -40l-36 -45l1 -2l56 3h23zM463 319l-248 -333l-65 18l270 347l250 333l65 -18z" />
    <glyph glyph-name="questiondown" unicode="&#xbf;" horiz-adv-x="483" 
d="M251 520l28 170h161l-27 -170h-162zM245 399l9 39l104 24l-18 -165l-17 -7q-100 -41 -120 -56q-26 -19 -26 -47q0 -56 74 -56q78 0 184 69v-145q-108 -68 -232 -68q-94 0 -142.5 47.5t-48.5 127.5q0 89 57 145t176 92z" />
    <glyph glyph-name="Agrave" unicode="&#xc0;" horiz-adv-x="663" 
d="M444 -7l-22 150h-217l-65 -143h-165l346 693h173l121 -670zM465 751h-93l-128 121l183 30zM372 514l-109 -238h142z" />
    <glyph glyph-name="Aacute" unicode="&#xc1;" horiz-adv-x="663" 
d="M444 -7l-22 150h-217l-65 -143h-165l346 693h173l121 -670zM610 872l-156 -121h-94l81 151zM372 514l-109 -238h142z" />
    <glyph glyph-name="Acircumflex" unicode="&#xc2;" horiz-adv-x="663" 
d="M444 -7l-22 150h-217l-65 -143h-165l346 693h173l121 -670zM572 749h-92l-58 58l-79 -58h-89l117 147h127zM372 514l-109 -238h142z" />
    <glyph glyph-name="Atilde" unicode="&#xc3;" horiz-adv-x="663" 
d="M444 -7l-22 150h-217l-65 -143h-165l346 693h173l121 -670zM593 890q-18 -76 -42.5 -107.5t-62.5 -31.5q-23 0 -63 20q-42 21 -57 21q-21 0 -37 -44l-68 15q18 77 43 108.5t63 31.5q28 0 63 -20q41 -21 57 -21q11 0 19 9.5t18 35.5zM372 514l-109 -238h142z" />
    <glyph glyph-name="Adieresis" unicode="&#xc4;" horiz-adv-x="663" 
d="M444 -7l-22 150h-217l-65 -143h-165l346 693h173l121 -670zM372 514l-109 -238h142zM565 752h-121l21 131h121zM381 752h-120l20 131h122z" />
    <glyph glyph-name="Aring" unicode="&#xc5;" horiz-adv-x="663" 
d="M444 -7l-22 150h-217l-65 -143h-165l330 661q-27 29 -27 70q0 48 36 78.5t95 30.5q53 0 89 -30.5t36 -77.5q0 -48 -34 -77l115 -632zM372 514l-109 -238h142zM404 675q21 0 36 17t15 43q0 25 -13.5 39.5t-33.5 14.5q-21 0 -36 -17.5t-15 -43.5q0 -25 13.5 -39t33.5 -14z
" />
    <glyph glyph-name="AE" unicode="&#xc6;" horiz-adv-x="867" 
d="M126 0h-167l443 690h494l-21 -137h-232l-20 -128h171v-137h-193l-24 -151h240l-22 -137h-407l22 143h-194zM294 276h137l48 300z" />
    <glyph glyph-name="Ccedilla" unicode="&#xc7;" horiz-adv-x="575" 
d="M592 647l-45 -144q-66 55 -136 55q-84 0 -138.5 -77.5t-54.5 -186.5q0 -83 39 -124t107 -41q63 0 142 42v-142q-78 -40 -170 -40q-131 0 -211 75.5t-80 216.5q0 184 104.5 302.5t257.5 118.5q105 0 185 -55zM366 -89l-146 -106h-92l73 137z" />
    <glyph glyph-name="Egrave" unicode="&#xc8;" 
d="M544 690l-21 -137h-243l-20 -128h182v-137h-204l-24 -151h251l-22 -137h-418l109 690h410zM400 741h-93l-128 121l183 30z" />
    <glyph glyph-name="Eacute" unicode="&#xc9;" 
d="M545 862l-156 -121h-94l81 151zM544 690l-21 -137h-243l-20 -128h182v-137h-204l-24 -151h251l-22 -137h-418l109 690h410z" />
    <glyph glyph-name="Ecircumflex" unicode="&#xca;" 
d="M507 741h-92l-58 58l-79 -58h-89l117 147h127zM544 690l-21 -137h-243l-20 -128h182v-137h-204l-24 -151h251l-22 -137h-418l109 690h410z" />
    <glyph glyph-name="Edieresis" unicode="&#xcb;" 
d="M500 742h-121l21 131h121zM316 742h-120l20 131h122zM544 690l-21 -137h-243l-20 -128h182v-137h-204l-24 -151h251l-22 -137h-418l109 690h410z" />
    <glyph glyph-name="Igrave" unicode="&#xcc;" horiz-adv-x="301" 
d="M305 690l-109 -690h-169l109 690h169zM280 741h-93l-128 121l183 30z" />
    <glyph glyph-name="Iacute" unicode="&#xcd;" horiz-adv-x="301" 
d="M305 690l-109 -690h-169l109 690h169zM424 862l-156 -121h-94l81 151z" />
    <glyph glyph-name="Icircumflex" unicode="&#xce;" horiz-adv-x="301" 
d="M305 690l-109 -690h-169l109 690h169zM388 741h-92l-58 58l-79 -58h-89l117 147h127z" />
    <glyph glyph-name="Idieresis" unicode="&#xcf;" horiz-adv-x="301" 
d="M305 690l-109 -690h-169l109 690h169zM381 742h-121l21 131h121zM197 742h-120l20 131h122z" />
    <glyph glyph-name="Eth" unicode="&#xd0;" horiz-adv-x="694" 
d="M675 401q0 -176 -107 -283q-117 -118 -334 -118h-183l44 283h-67v143h90l42 264h172q343 0 343 -289zM369 285h-107l-25 -155h27q105 0 165 62q74 74 74 201q0 89 -43.5 128t-125.5 39h-28l-22 -137h108z" />
    <glyph glyph-name="Ntilde" unicode="&#xd1;" horiz-adv-x="674" 
d="M678 690l-109 -690h-134l-189 417l-66 -417h-155l109 690h160l170 -381l59 381h155zM594 877q-18 -76 -42.5 -107.5t-62.5 -31.5q-23 0 -63 20q-42 21 -57 21q-21 0 -37 -44l-68 15q18 77 43 108.5t63 31.5q28 0 63 -20q41 -21 57 -21q11 0 19 9.5t18 35.5z" />
    <glyph glyph-name="Ograve" unicode="&#xd2;" horiz-adv-x="690" 
d="M671 413q0 -184 -99 -305t-254 -121q-128 0 -199.5 75.5t-71.5 214.5q0 184 99 305t254 121q128 0 199.5 -75.5t71.5 -214.5zM498 422q0 152 -109 152q-74 0 -121.5 -92t-47.5 -214q0 -152 109 -152q74 0 121.5 92t47.5 214zM475 751h-93l-128 121l183 30z" />
    <glyph glyph-name="Oacute" unicode="&#xd3;" horiz-adv-x="690" 
d="M619 872l-156 -121h-94l81 151zM671 413q0 -184 -99 -305t-254 -121q-128 0 -199.5 75.5t-71.5 214.5q0 184 99 305t254 121q128 0 199.5 -75.5t71.5 -214.5zM498 422q0 152 -109 152q-74 0 -121.5 -92t-47.5 -214q0 -152 109 -152q74 0 121.5 92t47.5 214z" />
    <glyph glyph-name="Ocircumflex" unicode="&#xd4;" horiz-adv-x="690" 
d="M582 751h-92l-58 58l-79 -58h-89l117 147h127zM671 413q0 -184 -99 -305t-254 -121q-128 0 -199.5 75.5t-71.5 214.5q0 184 99 305t254 121q128 0 199.5 -75.5t71.5 -214.5zM498 422q0 152 -109 152q-74 0 -121.5 -92t-47.5 -214q0 -152 109 -152q74 0 121.5 92t47.5 214
z" />
    <glyph glyph-name="Otilde" unicode="&#xd5;" horiz-adv-x="690" 
d="M671 413q0 -184 -99 -305t-254 -121q-128 0 -199.5 75.5t-71.5 214.5q0 184 99 305t254 121q128 0 199.5 -75.5t71.5 -214.5zM498 422q0 152 -109 152q-74 0 -121.5 -92t-47.5 -214q0 -152 109 -152q74 0 121.5 92t47.5 214zM602 890q-18 -76 -42.5 -107.5t-62.5 -31.5
q-23 0 -63 20q-42 21 -57 21q-21 0 -37 -44l-68 15q18 77 43 108.5t63 31.5q28 0 63 -20q41 -21 57 -21q11 0 19 9.5t18 35.5z" />
    <glyph glyph-name="Odieresis" unicode="&#xd6;" horiz-adv-x="690" 
d="M575 752h-121l21 131h121zM391 752h-120l20 131h122zM671 413q0 -184 -99 -305t-254 -121q-128 0 -199.5 75.5t-71.5 214.5q0 184 99 305t254 121q128 0 199.5 -75.5t71.5 -214.5zM498 422q0 152 -109 152q-74 0 -121.5 -92t-47.5 -214q0 -152 109 -152q74 0 121.5 92
t47.5 214z" />
    <glyph glyph-name="multiply" unicode="&#xd7;" horiz-adv-x="572" 
d="M408 113l-118 142l-162 -141l-75 87l164 140l-119 140l96 82l117 -142l162 142l74 -88l-163 -139l120 -140z" />
    <glyph glyph-name="Oslash" unicode="&#xd8;" horiz-adv-x="690" 
d="M746 674l-106 -109q31 -63 31 -155q0 -186 -100.5 -304.5t-249.5 -118.5q-116 0 -185 60l-55 -56l-110 25l106 109q-30 65 -30 155q0 186 100.5 304.5t249.5 118.5q115 0 184 -60l55 56zM503 424q0 5 -0.5 13t-0.5 12l-264 -288q29 -48 92 -48q75 0 124 93t49 218z
M388 577q-75 0 -124 -92.5t-49 -218.5q0 -17 1 -25l264 287q-29 49 -92 49z" />
    <glyph glyph-name="Ugrave" unicode="&#xd9;" horiz-adv-x="664" 
d="M678 690l-67 -422q-23 -147 -99.5 -214t-204.5 -67q-121 0 -185.5 56t-64.5 166q0 35 8 91l61 390h169l-62 -400q-7 -38 -7 -73q0 -43 23.5 -67.5t68.5 -24.5q101 0 123 138l67 427h170zM460 738h-93l-128 121l183 30z" />
    <glyph glyph-name="Uacute" unicode="&#xda;" horiz-adv-x="664" 
d="M604 859l-156 -121h-94l81 151zM678 690l-67 -422q-23 -147 -99.5 -214t-204.5 -67q-121 0 -185.5 56t-64.5 166q0 35 8 91l61 390h169l-62 -400q-7 -38 -7 -73q0 -43 23.5 -67.5t68.5 -24.5q101 0 123 138l67 427h170z" />
    <glyph glyph-name="Ucircumflex" unicode="&#xdb;" horiz-adv-x="664" 
d="M568 738h-92l-58 58l-79 -58h-89l117 147h127zM678 690l-67 -422q-23 -147 -99.5 -214t-204.5 -67q-121 0 -185.5 56t-64.5 166q0 35 8 91l61 390h169l-62 -400q-7 -38 -7 -73q0 -43 23.5 -67.5t68.5 -24.5q101 0 123 138l67 427h170z" />
    <glyph glyph-name="Udieresis" unicode="&#xdc;" horiz-adv-x="664" 
d="M560 739h-121l21 131h121zM376 739h-120l20 131h122zM678 690l-67 -422q-23 -147 -99.5 -214t-204.5 -67q-121 0 -185.5 56t-64.5 166q0 35 8 91l61 390h169l-62 -400q-7 -38 -7 -73q0 -43 23.5 -67.5t68.5 -24.5q101 0 123 138l67 427h170z" />
    <glyph glyph-name="Yacute" unicode="&#xdd;" horiz-adv-x="630" 
d="M703 690l-306 -437l-40 -253h-170l40 250l-160 419l177 28l97 -282l180 275h182zM584 859l-156 -121h-94l81 151z" />
    <glyph glyph-name="Thorn" unicode="&#xde;" horiz-adv-x="607" 
d="M599 383q0 -123 -86.5 -191.5t-232.5 -68.5h-52l-19 -123h-182l109 690h182l-17 -108h31q133 0 200 -52t67 -147zM422 367q0 91 -108 91h-35l-33 -210h37q66 0 102.5 31.5t36.5 87.5z" />
    <glyph glyph-name="germandbls" unicode="&#xdf;" horiz-adv-x="591" 
d="M561 173q0 -85 -49.5 -132.5t-128.5 -47.5t-150 33l34 108q55 -29 99 -29q24 0 39 14.5t15 40.5q0 29 -28.5 51.5t-95.5 44.5v99q81 109 81 184q0 60 -46 60q-29 0 -44 -22.5t-23 -78.5l-103 -658l-150 -26l87 555h-65l19 121h65l3 17q35 205 229 205q87 0 133 -41
t46 -113q0 -58 -28 -106.5t-82 -103.5q69 -31 106 -72t37 -103z" />
    <glyph glyph-name="agrave" unicode="&#xe0;" 
d="M299 76q-75 -86 -146 -86q-59 0 -94 45t-35 124q0 159 86 248t207 89q87 0 178 -35l-54 -338v-123h-137zM304 173l32 201q-17 7 -35 7q-52 0 -90.5 -54.5t-38.5 -138.5q0 -68 47 -68q35 0 85 53zM372 547h-93l-128 121l183 30z" />
    <glyph glyph-name="aacute" unicode="&#xe1;" 
d="M299 76q-75 -86 -146 -86q-59 0 -94 45t-35 124q0 159 86 248t207 89q87 0 178 -35l-54 -338v-123h-137zM304 173l32 201q-17 7 -35 7q-52 0 -90.5 -54.5t-38.5 -138.5q0 -68 47 -68q35 0 85 53zM516 668l-156 -121h-94l81 151z" />
    <glyph glyph-name="acircumflex" unicode="&#xe2;" 
d="M299 76q-75 -86 -146 -86q-59 0 -94 45t-35 124q0 159 86 248t207 89q87 0 178 -35l-54 -338v-123h-137zM304 173l32 201q-17 7 -35 7q-52 0 -90.5 -54.5t-38.5 -138.5q0 -68 47 -68q35 0 85 53zM479 547h-92l-58 58l-79 -58h-89l117 147h127z" />
    <glyph glyph-name="atilde" unicode="&#xe3;" 
d="M299 76q-75 -86 -146 -86q-59 0 -94 45t-35 124q0 159 86 248t207 89q87 0 178 -35l-54 -338v-123h-137zM304 173l32 201q-17 7 -35 7q-52 0 -90.5 -54.5t-38.5 -138.5q0 -68 47 -68q35 0 85 53zM500 686q-18 -76 -42.5 -107.5t-62.5 -31.5q-23 0 -63 20q-42 21 -57 21
q-21 0 -37 -44l-68 15q18 77 43 108.5t63 31.5q28 0 63 -20q41 -21 57 -21q11 0 19 9.5t18 35.5z" />
    <glyph glyph-name="adieresis" unicode="&#xe4;" 
d="M299 76q-75 -86 -146 -86q-59 0 -94 45t-35 124q0 159 86 248t207 89q87 0 178 -35l-54 -338v-123h-137zM304 173l32 201q-17 7 -35 7q-52 0 -90.5 -54.5t-38.5 -138.5q0 -68 47 -68q35 0 85 53zM472 548h-121l21 131h121zM288 548h-120l20 131h122z" />
    <glyph glyph-name="aring" unicode="&#xe5;" 
d="M299 76q-75 -86 -146 -86q-59 0 -94 45t-35 124q0 159 86 248t207 89q87 0 178 -35l-54 -338v-123h-137zM304 173l32 201q-17 7 -35 7q-52 0 -90.5 -54.5t-38.5 -138.5q0 -68 47 -68q35 0 85 53zM334 596q22 0 37 17.5t15 43.5q0 25 -13 39t-33 14q-22 0 -37 -18t-15 -44
q0 -25 13 -38.5t33 -13.5zM334 545q-53 0 -89 29.5t-36 76.5q0 48 36 79t95 31q53 0 89 -30t36 -77q0 -48 -36 -78.5t-95 -30.5z" />
    <glyph glyph-name="ae" unicode="&#xe6;" horiz-adv-x="749" 
d="M723 312q0 -57 -12 -102h-278v-11q2 -54 27 -78.5t74 -24.5q72 0 153 44v-103q-89 -47 -182 -47q-117 0 -171 75q-102 -75 -193 -75q-57 0 -92.5 32t-35.5 92q0 172 294 187l3 16q7 38 -8.5 54t-56.5 16q-61 0 -151 -37v112q101 38 186 38q102 0 134 -55q60 55 138 55
q81 0 126 -52t45 -136zM301 138q-6 23 -6 60q0 21 1 30q-73 -8 -105 -32t-32 -57q0 -43 45 -43q39 0 97 42zM591 297q11 105 -57 105q-31 0 -56 -29t-36 -76h149z" />
    <glyph glyph-name="ccedilla" unicode="&#xe7;" horiz-adv-x="422" 
d="M426 464l-38 -122q-46 30 -94 30q-49 0 -84.5 -46.5t-35.5 -113.5q0 -49 25 -73.5t68 -24.5q41 0 95 26v-120q-58 -29 -125 -29q-91 0 -151 51.5t-60 157.5q0 129 74.5 214.5t184.5 85.5q79 0 141 -36zM272 -81l-146 -106h-92l73 137z" />
    <glyph glyph-name="egrave" unicode="&#xe8;" horiz-adv-x="478" 
d="M263 96q71 0 154 44v-103q-89 -47 -182 -47q-94 0 -152 52t-58 152q0 133 73 219.5t180 86.5q83 0 129 -52.5t46 -142.5q0 -50 -12 -95h-279v-2q0 -112 101 -112zM341 547h-93l-128 121l183 30zM264 402q-32 0 -56.5 -28.5t-36.5 -76.5h149q11 105 -56 105z" />
    <glyph glyph-name="eacute" unicode="&#xe9;" horiz-adv-x="478" 
d="M263 96q71 0 154 44v-103q-89 -47 -182 -47q-94 0 -152 52t-58 152q0 133 73 219.5t180 86.5q83 0 129 -52.5t46 -142.5q0 -50 -12 -95h-279v-2q0 -112 101 -112zM485 668l-156 -121h-94l81 151zM264 402q-32 0 -56.5 -28.5t-36.5 -76.5h149q11 105 -56 105z" />
    <glyph glyph-name="ecircumflex" unicode="&#xea;" horiz-adv-x="478" 
d="M263 96q71 0 154 44v-103q-89 -47 -182 -47q-94 0 -152 52t-58 152q0 133 73 219.5t180 86.5q83 0 129 -52.5t46 -142.5q0 -50 -12 -95h-279v-2q0 -112 101 -112zM448 547h-92l-58 58l-79 -58h-89l117 147h127zM264 402q-32 0 -56.5 -28.5t-36.5 -76.5h149
q11 105 -56 105z" />
    <glyph glyph-name="edieresis" unicode="&#xeb;" horiz-adv-x="478" 
d="M263 96q71 0 154 44v-103q-89 -47 -182 -47q-94 0 -152 52t-58 152q0 133 73 219.5t180 86.5q83 0 129 -52.5t46 -142.5q0 -50 -12 -95h-279v-2q0 -112 101 -112zM257 548h-120l20 131h122zM441 548h-121l21 131h121zM264 402q-32 0 -56.5 -28.5t-36.5 -76.5h149
q11 105 -56 105z" />
    <glyph glyph-name="igrave" unicode="&#xec;" horiz-adv-x="259" 
d="M243 490l-80 -490h-146l79 490h147zM229 547h-93l-128 121l183 30z" />
    <glyph glyph-name="iacute" unicode="&#xed;" horiz-adv-x="259" 
d="M374 668l-156 -121h-94l81 151zM243 490l-80 -490h-146l79 490h147z" />
    <glyph glyph-name="icircumflex" unicode="&#xee;" horiz-adv-x="259" 
d="M337 547h-92l-58 58l-79 -58h-89l117 147h127zM243 490l-80 -490h-146l79 490h147z" />
    <glyph glyph-name="idieresis" unicode="&#xef;" horiz-adv-x="259" 
d="M330 548h-121l21 131h121zM146 548h-120l20 131h122zM243 490l-80 -490h-146l79 490h147z" />
    <glyph glyph-name="eth" unicode="&#xf0;" horiz-adv-x="516" 
d="M274 503h-84l61 71q-39 19 -75 31l33 117q75 -21 126 -50l40 50l80 -18l-63 -72q106 -90 106 -248q0 -100 -33 -187t-87 -139q-69 -69 -159 -69q-85 0 -141 51t-56 152q0 111 60 189t145 78q75 0 136 -66v7q0 84 -58 137zM229 104q43 0 74.5 49.5t45.5 139.5
q-45 50 -95 50q-40 0 -65 -43t-25 -108q0 -88 65 -88z" />
    <glyph glyph-name="ntilde" unicode="&#xf1;" horiz-adv-x="518" 
d="M489 391q0 -24 -3 -42l-56 -349h-147l49 305q3 21 3 26q0 38 -35 38q-37 0 -92 -64l-49 -305h-147l59 370v120h136l8 -90q98 100 172 100q50 0 76 -29.5t26 -79.5zM484 686q-18 -76 -42.5 -107.5t-62.5 -31.5q-23 0 -63 20q-42 21 -57 21q-21 0 -37 -44l-68 15
q18 77 43 108.5t63 31.5q28 0 63 -20q41 -21 57 -21q11 0 19 9.5t18 35.5z" />
    <glyph glyph-name="ograve" unicode="&#xf2;" horiz-adv-x="506" 
d="M479 285q0 -125 -69.5 -210t-182.5 -85q-93 0 -146.5 58.5t-53.5 155.5q0 126 69.5 211t182.5 85q93 0 146.5 -58.5t53.5 -156.5zM333 288q0 95 -64 95q-43 0 -69.5 -54t-26.5 -127q0 -96 64 -96q43 0 69.5 54t26.5 128zM353 547h-93l-128 121l183 30z" />
    <glyph glyph-name="oacute" unicode="&#xf3;" horiz-adv-x="506" 
d="M496 668l-156 -121h-94l81 151zM479 285q0 -125 -69.5 -210t-182.5 -85q-93 0 -146.5 58.5t-53.5 155.5q0 126 69.5 211t182.5 85q93 0 146.5 -58.5t53.5 -156.5zM333 288q0 95 -64 95q-43 0 -69.5 -54t-26.5 -127q0 -96 64 -96q43 0 69.5 54t26.5 128z" />
    <glyph glyph-name="ocircumflex" unicode="&#xf4;" horiz-adv-x="506" 
d="M460 547h-92l-58 58l-79 -58h-89l117 147h127zM479 285q0 -125 -69.5 -210t-182.5 -85q-93 0 -146.5 58.5t-53.5 155.5q0 126 69.5 211t182.5 85q93 0 146.5 -58.5t53.5 -156.5zM333 288q0 95 -64 95q-43 0 -69.5 -54t-26.5 -127q0 -96 64 -96q43 0 69.5 54t26.5 128z
" />
    <glyph glyph-name="otilde" unicode="&#xf5;" horiz-adv-x="506" 
d="M479 285q0 -125 -69.5 -210t-182.5 -85q-93 0 -146.5 58.5t-53.5 155.5q0 126 69.5 211t182.5 85q93 0 146.5 -58.5t53.5 -156.5zM333 288q0 95 -64 95q-43 0 -69.5 -54t-26.5 -127q0 -96 64 -96q43 0 69.5 54t26.5 128zM480 686q-18 -76 -42.5 -107.5t-62.5 -31.5
q-23 0 -63 20q-42 21 -57 21q-21 0 -37 -44l-68 15q18 77 43 108.5t63 31.5q28 0 63 -20q41 -21 57 -21q11 0 19 9.5t18 35.5z" />
    <glyph glyph-name="odieresis" unicode="&#xf6;" horiz-adv-x="506" 
d="M452 548h-121l21 131h121zM268 548h-120l20 131h122zM479 285q0 -125 -69.5 -210t-182.5 -85q-93 0 -146.5 58.5t-53.5 155.5q0 126 69.5 211t182.5 85q93 0 146.5 -58.5t53.5 -156.5zM333 288q0 95 -64 95q-43 0 -69.5 -54t-26.5 -127q0 -96 64 -96q43 0 69.5 54
t26.5 128z" />
    <glyph glyph-name="divide" unicode="&#xf7;" horiz-adv-x="572" 
d="M389 472h-134l20 130h135zM523 280h-464l19 116h464zM326 74h-134l20 130h134z" />
    <glyph glyph-name="oslash" unicode="&#xf8;" horiz-adv-x="506" 
d="M479 278q0 -119 -69 -203.5t-176 -84.5q-82 0 -136 45l-39 -43l-80 19l76 78q-28 50 -28 122q0 119 69.5 204t175.5 85q80 0 136 -46l40 44l79 -20l-77 -77q29 -52 29 -123zM341 281q0 4 -0.5 11.5t-0.5 10.5l-157 -174q17 -29 53 -29q46 0 75.5 54.5t29.5 126.5z
M270 390q-45 0 -74.5 -54.5t-29.5 -125.5q0 -15 1 -22l156 173q-19 29 -53 29z" />
    <glyph glyph-name="ugrave" unicode="&#xf9;" horiz-adv-x="519" 
d="M506 490l-59 -370v-120h-139l-5 89q-97 -99 -172 -99q-50 0 -76 29t-26 79q0 7 3 43l56 349h147l-49 -306q-2 -14 -2 -25q0 -39 34 -39q37 0 92 65l49 305h147zM356 547h-93l-128 121l183 30z" />
    <glyph glyph-name="uacute" unicode="&#xfa;" horiz-adv-x="519" 
d="M500 668l-156 -121h-94l81 151zM506 490l-59 -370v-120h-139l-5 89q-97 -99 -172 -99q-50 0 -76 29t-26 79q0 7 3 43l56 349h147l-49 -306q-2 -14 -2 -25q0 -39 34 -39q37 0 92 65l49 305h147z" />
    <glyph glyph-name="ucircumflex" unicode="&#xfb;" horiz-adv-x="519" 
d="M463 547h-92l-58 58l-79 -58h-89l117 147h127zM506 490l-59 -370v-120h-139l-5 89q-97 -99 -172 -99q-50 0 -76 29t-26 79q0 7 3 43l56 349h147l-49 -306q-2 -14 -2 -25q0 -39 34 -39q37 0 92 65l49 305h147z" />
    <glyph glyph-name="udieresis" unicode="&#xfc;" horiz-adv-x="519" 
d="M456 548h-121l21 131h121zM272 548h-120l20 131h122zM506 490l-59 -370v-120h-139l-5 89q-97 -99 -172 -99q-50 0 -76 29t-26 79q0 7 3 43l56 349h147l-49 -306q-2 -14 -2 -25q0 -39 34 -39q37 0 92 65l49 305h147z" />
    <glyph glyph-name="yacute" unicode="&#xfd;" horiz-adv-x="483" 
d="M511 490l-245 -504q-46 -96 -93.5 -132t-130.5 -36q-31 0 -55 6v120q30 -7 57 -7q49 0 80 46l10 19l-87 474l153 21l38 -309l131 302h142zM489 668l-156 -121h-94l81 151z" />
    <glyph glyph-name="thorn" unicode="&#xfe;" horiz-adv-x="561" 
d="M531 315q0 -150 -85.5 -235t-202.5 -85q-40 0 -67 8l-26 -163l-164 -26l140 882l164 26l-46 -292q72 70 137 70q69 0 109.5 -48.5t40.5 -136.5zM368 288q0 82 -56 82q-35 0 -85 -50l-33 -204q20 -7 44 -7q55 0 92.5 47.5t37.5 131.5z" />
    <glyph glyph-name="ydieresis" unicode="&#xff;" horiz-adv-x="483" 
d="M511 490l-245 -504q-46 -96 -93.5 -132t-130.5 -36q-31 0 -55 6v120q30 -7 57 -7q49 0 80 46l10 19l-87 474l153 21l38 -309l131 302h142zM445 548h-121l21 131h121zM261 548h-120l20 131h122z" />
    <glyph glyph-name="Amacron" unicode="&#x100;" horiz-adv-x="663" 
d="M444 -7l-22 150h-217l-65 -143h-165l346 693h173l121 -670zM566 761h-301l17 105h301zM372 514l-109 -238h142z" />
    <glyph glyph-name="amacron" unicode="&#x101;" 
d="M299 76q-75 -86 -146 -86q-59 0 -94 45t-35 124q0 159 86 248t207 89q87 0 178 -35l-54 -338v-123h-137zM304 173l32 201q-17 7 -35 7q-52 0 -90.5 -54.5t-38.5 -138.5q0 -68 47 -68q35 0 85 53zM473 557h-301l17 105h301z" />
    <glyph glyph-name="Abreve" unicode="&#x102;" horiz-adv-x="663" 
d="M444 -7l-22 150h-217l-65 -143h-165l346 693h173l121 -670zM582 886q-34 -136 -161 -136q-65 0 -98 35.5t-32 100.5l79 13q9 -56 59 -56q47 0 76 56zM372 514l-109 -238h142z" />
    <glyph glyph-name="abreve" unicode="&#x103;" 
d="M299 76q-75 -86 -146 -86q-59 0 -94 45t-35 124q0 159 86 248t207 89q87 0 178 -35l-54 -338v-123h-137zM304 173l32 201q-17 7 -35 7q-52 0 -90.5 -54.5t-38.5 -138.5q0 -68 47 -68q35 0 85 53zM489 682q-34 -136 -161 -136q-65 0 -98 35.5t-32 100.5l79 13
q9 -56 59 -56q47 0 76 56z" />
    <glyph glyph-name="Aogonek" unicode="&#x104;" horiz-adv-x="663" 
d="M444 -7l-22 150h-217l-65 -143h-165l346 693h173l121 -670l-24 -4l-34 -45q-32 -42 -32 -62q0 -24 29 -24q22 0 44 7l-12 -73q-53 -20 -99 -20q-39 0 -59 17t-20 46q0 30 15.5 59.5t56.5 75.5zM372 514l-109 -238h142z" />
    <glyph glyph-name="aogonek" unicode="&#x105;" 
d="M299 76q-75 -86 -146 -86q-59 0 -94 45t-35 124q0 159 86 248t207 89q87 0 178 -35l-54 -338v-123h-30l-19 -26q-32 -42 -32 -62q0 -24 29 -24q22 0 44 7l-12 -73q-53 -20 -99 -20q-39 0 -59 17t-20 46q0 30 16 59t57 76h-12zM304 173l32 201q-17 7 -35 7
q-52 0 -90.5 -54.5t-38.5 -138.5q0 -68 47 -68q35 0 85 53z" />
    <glyph glyph-name="Cacute" unicode="&#x106;" horiz-adv-x="575" 
d="M618 872l-156 -121h-94l81 151zM592 647l-45 -144q-66 55 -136 55q-84 0 -138.5 -77.5t-54.5 -186.5q0 -83 39 -124t107 -41q63 0 142 42v-142q-78 -40 -170 -40q-131 0 -211 75.5t-80 216.5q0 184 104.5 302.5t257.5 118.5q105 0 185 -55z" />
    <glyph glyph-name="cacute" unicode="&#x107;" horiz-adv-x="422" 
d="M490 668l-156 -121h-94l81 151zM426 464l-38 -122q-46 30 -94 30q-49 0 -84.5 -46.5t-35.5 -113.5q0 -49 25 -73.5t68 -24.5q41 0 95 26v-120q-58 -29 -125 -29q-91 0 -151 51.5t-60 157.5q0 129 74.5 214.5t184.5 85.5q79 0 141 -36z" />
    <glyph glyph-name="Cdotaccent" unicode="&#x10a;" horiz-adv-x="575" 
d="M592 647l-45 -144q-66 55 -136 55q-84 0 -138.5 -77.5t-54.5 -186.5q0 -83 39 -124t107 -41q63 0 142 42v-142q-78 -40 -170 -40q-131 0 -211 75.5t-80 216.5q0 184 104.5 302.5t257.5 118.5q105 0 185 -55zM485 752h-125l21 131h125z" />
    <glyph glyph-name="cdotaccent" unicode="&#x10b;" horiz-adv-x="422" 
d="M426 464l-38 -122q-46 30 -94 30q-49 0 -84.5 -46.5t-35.5 -113.5q0 -49 25 -73.5t68 -24.5q41 0 95 26v-120q-58 -29 -125 -29q-91 0 -151 51.5t-60 157.5q0 129 74.5 214.5t184.5 85.5q79 0 141 -36zM357 548h-125l21 131h125z" />
    <glyph glyph-name="Ccaron" unicode="&#x10c;" horiz-adv-x="575" 
d="M285 898h92l57 -58l80 58h89l-117 -147h-128zM592 647l-45 -144q-66 55 -136 55q-84 0 -138.5 -77.5t-54.5 -186.5q0 -83 39 -124t107 -41q63 0 142 42v-142q-78 -40 -170 -40q-131 0 -211 75.5t-80 216.5q0 184 104.5 302.5t257.5 118.5q105 0 185 -55z" />
    <glyph glyph-name="ccaron" unicode="&#x10d;" horiz-adv-x="422" 
d="M158 694h92l57 -58l80 58h89l-117 -147h-128zM426 464l-38 -122q-46 30 -94 30q-49 0 -84.5 -46.5t-35.5 -113.5q0 -49 25 -73.5t68 -24.5q41 0 95 26v-120q-58 -29 -125 -29q-91 0 -151 51.5t-60 157.5q0 129 74.5 214.5t184.5 85.5q79 0 141 -36z" />
    <glyph glyph-name="Dcaron" unicode="&#x10e;" horiz-adv-x="668" 
d="M251 888h92l57 -58l80 58h89l-117 -147h-128zM649 401q0 -178 -107 -283q-117 -118 -333 -118h-184l109 690h172q343 0 343 -289zM478 393q0 167 -170 167h-26l-69 -430h25q104 0 166 62q74 74 74 201z" />
    <glyph glyph-name="dcaron" unicode="&#x10f;" horiz-adv-x="518" 
d="M696 722q6 -16 6 -36q0 -97 -93 -174l-69 15q43 65 43 122q0 30 -8 57zM540 722l-96 -602v-120h-138l-5 72q-79 -82 -144 -82q-60 0 -96.5 46.5t-36.5 129.5q0 153 80 240t193 87q32 0 60 -7l32 210zM339 373q-17 7 -42 7q-53 0 -89 -49.5t-36 -137.5q0 -73 51 -73
q35 0 83 48z" />
    <glyph glyph-name="Dcroat" unicode="&#x110;" horiz-adv-x="694" 
d="M675 401q0 -176 -107 -283q-117 -118 -334 -118h-183l44 283h-67v143h90l42 264h172q343 0 343 -289zM369 285h-107l-25 -155h27q105 0 165 62q74 74 74 201q0 89 -43.5 128t-125.5 39h-28l-22 -137h108z" />
    <glyph glyph-name="dcroat" unicode="&#x111;" horiz-adv-x="520" 
d="M578 549h-66l-68 -429v-120h-138l-5 72q-79 -82 -144 -82q-60 0 -96.5 46.5t-36.5 129.5q0 153 80 240t193 87q32 0 60 -7l9 63h-95v93h109l9 54l151 26l-13 -80h66zM339 373q-17 7 -42 7q-53 0 -89 -49.5t-36 -137.5q0 -73 51 -73q35 0 83 48z" />
    <glyph glyph-name="Emacron" unicode="&#x112;" 
d="M544 690l-21 -137h-243l-20 -128h182v-137h-204l-24 -151h251l-22 -137h-418l109 690h410zM501 751h-301l17 105h301z" />
    <glyph glyph-name="emacron" unicode="&#x113;" horiz-adv-x="478" 
d="M263 96q71 0 154 44v-103q-89 -47 -182 -47q-94 0 -152 52t-58 152q0 133 73 219.5t180 86.5q83 0 129 -52.5t46 -142.5q0 -50 -12 -95h-279v-2q0 -112 101 -112zM442 557h-301l17 105h301zM264 402q-32 0 -56.5 -28.5t-36.5 -76.5h149q11 105 -56 105z" />
    <glyph glyph-name="Ebreve" unicode="&#x114;" 
d="M544 690l-21 -137h-243l-20 -128h182v-137h-204l-24 -151h251l-22 -137h-418l109 690h410zM517 876q-34 -136 -161 -136q-65 0 -98 35.5t-32 100.5l79 13q9 -56 59 -56q47 0 76 56z" />
    <glyph glyph-name="ebreve" unicode="&#x115;" horiz-adv-x="478" 
d="M263 96q71 0 154 44v-103q-89 -47 -182 -47q-94 0 -152 52t-58 152q0 133 73 219.5t180 86.5q83 0 129 -52.5t46 -142.5q0 -50 -12 -95h-279v-2q0 -112 101 -112zM458 682q-34 -136 -161 -136q-65 0 -98 35.5t-32 100.5l79 13q9 -56 59 -56q47 0 76 56zM264 402
q-32 0 -56.5 -28.5t-36.5 -76.5h149q11 105 -56 105z" />
    <glyph glyph-name="Edotaccent" unicode="&#x116;" 
d="M544 690l-21 -137h-243l-20 -128h182v-137h-204l-24 -151h251l-22 -137h-418l109 690h410zM411 742h-125l21 131h125z" />
    <glyph glyph-name="edotaccent" unicode="&#x117;" horiz-adv-x="478" 
d="M263 96q71 0 154 44v-103q-89 -47 -182 -47q-94 0 -152 52t-58 152q0 133 73 219.5t180 86.5q83 0 129 -52.5t46 -142.5q0 -50 -12 -95h-279v-2q0 -112 101 -112zM352 548h-125l21 131h125zM264 402q-32 0 -56.5 -28.5t-36.5 -76.5h149q11 105 -56 105z" />
    <glyph glyph-name="Eogonek" unicode="&#x118;" 
d="M544 690l-21 -137h-243l-20 -128h182v-137h-204l-24 -151h251l-22 -137h-31l-19 -26q-32 -42 -32 -62q0 -24 29 -24q22 0 44 7l-12 -73q-53 -20 -99 -20q-39 0 -59 17t-20 46q0 30 16 59t57 76h-292l109 690h410z" />
    <glyph glyph-name="eogonek" unicode="&#x119;" horiz-adv-x="478" 
d="M263 96q71 0 154 44v-92l-61 -70q-36 -42 -36 -66t29 -24q22 0 44 7l-12 -73q-52 -20 -98 -20q-79 0 -79 63q0 29 14 57t51 70q-12 -2 -34 -2q-94 0 -152 52t-58 152q0 133 73 219.5t180 86.5q83 0 129 -52.5t46 -142.5q0 -50 -12 -95h-278q-1 -4 -1 -12q6 -102 101 -102
zM264 402q-32 0 -56.5 -28.5t-36.5 -76.5h149q11 105 -56 105z" />
    <glyph glyph-name="Ecaron" unicode="&#x11a;" 
d="M211 888h92l57 -58l80 58h89l-117 -147h-128zM544 690l-21 -137h-243l-20 -128h182v-137h-204l-24 -151h251l-22 -137h-418l109 690h410z" />
    <glyph glyph-name="ecaron" unicode="&#x11b;" horiz-adv-x="478" 
d="M263 96q71 0 154 44v-103q-89 -47 -182 -47q-94 0 -152 52t-58 152q0 133 73 219.5t180 86.5q83 0 129 -52.5t46 -142.5q0 -50 -12 -95h-279v-2q0 -112 101 -112zM152 694h92l57 -58l80 58h89l-117 -147h-128zM264 402q-32 0 -56.5 -28.5t-36.5 -76.5h149q11 105 -56 105
z" />
    <glyph glyph-name="Gbreve" unicode="&#x11e;" horiz-adv-x="652" 
d="M627 396l-58 -344q-107 -65 -237 -65q-132 0 -209.5 78t-77.5 213q0 182 107 303.5t268 121.5q119 0 212 -51l-45 -144q-76 54 -164 54q-92 0 -148.5 -78.5t-56.5 -197.5q0 -82 36 -123t98 -41q47 0 88 18l19 130h-107v126h275zM601 886q-34 -136 -161 -136
q-65 0 -98 35.5t-32 100.5l79 13q9 -56 59 -56q47 0 76 56z" />
    <glyph glyph-name="gbreve" unicode="&#x11f;" horiz-adv-x="518" 
d="M498 461l-66 -423q-19 -121 -83 -170.5t-164 -49.5q-114 0 -204 44l37 113q80 -41 155 -41q92 0 110 98l9 44q-69 -69 -130 -69q-63 0 -100 44.5t-37 126.5q0 147 82.5 232.5t198.5 85.5q89 0 192 -35zM339 373q-17 7 -43 7q-51 0 -87 -48.5t-36 -129.5q0 -71 52 -71
q35 0 82 50zM493 682q-34 -136 -161 -136q-65 0 -98 35.5t-32 100.5l79 13q9 -56 59 -56q47 0 76 56z" />
    <glyph glyph-name="Gdotaccent" unicode="&#x120;" horiz-adv-x="652" 
d="M627 396l-58 -344q-107 -65 -237 -65q-132 0 -209.5 78t-77.5 213q0 182 107 303.5t268 121.5q119 0 212 -51l-45 -144q-76 54 -164 54q-92 0 -148.5 -78.5t-56.5 -197.5q0 -82 36 -123t98 -41q47 0 88 18l19 130h-107v126h275zM495 752h-125l21 131h125z" />
    <glyph glyph-name="gdotaccent" unicode="&#x121;" horiz-adv-x="518" 
d="M498 461l-66 -423q-19 -121 -83 -170.5t-164 -49.5q-114 0 -204 44l37 113q80 -41 155 -41q92 0 110 98l9 44q-69 -69 -130 -69q-63 0 -100 44.5t-37 126.5q0 147 82.5 232.5t198.5 85.5q89 0 192 -35zM339 373q-17 7 -43 7q-51 0 -87 -48.5t-36 -129.5q0 -71 52 -71
q35 0 82 50zM387 548h-125l21 131h125z" />
    <glyph glyph-name="Gcommaaccent" unicode="&#x122;" horiz-adv-x="652" 
d="M217 -81l126 23q31 -34 31 -71q0 -78 -111 -146l-90 19q70 67 70 114q0 30 -26 61zM627 396l-58 -344q-107 -65 -237 -65q-132 0 -209.5 78t-77.5 213q0 182 107 303.5t268 121.5q119 0 212 -51l-45 -144q-76 54 -164 54q-92 0 -148.5 -78.5t-56.5 -197.5q0 -82 36 -123
t98 -41q47 0 88 18l19 130h-107v126h275z" />
    <glyph glyph-name="gcommaaccent" unicode="&#x123;" horiz-adv-x="518" 
d="M411 562l-126 -23q-31 34 -31 71q0 78 111 146l90 -19q-70 -67 -70 -114q0 -30 26 -61zM498 461l-66 -423q-19 -121 -83 -170.5t-164 -49.5q-114 0 -204 44l37 113q80 -41 155 -41q92 0 110 98l9 44q-69 -69 -130 -69q-63 0 -100 44.5t-37 126.5q0 147 82.5 232.5
t198.5 85.5q89 0 192 -35zM339 373q-17 7 -43 7q-51 0 -87 -48.5t-36 -129.5q0 -71 52 -71q35 0 82 50z" />
    <glyph glyph-name="Hbar" unicode="&#x126;" horiz-adv-x="720" 
d="M703 690l-13 -79h81l-16 -102h-81l-80 -509h-169l44 279h-208l-44 -279h-169l80 509h-71v102h87l13 79h167l-13 -79h212l13 79h167zM281 419h213l14 94h-212z" />
    <glyph glyph-name="hbar" unicode="&#x127;" horiz-adv-x="522" 
d="M361 549h-112l-22 -140q45 43 83 67t81 24q50 0 76 -29.5t26 -79.5q0 -6 -3 -42l-56 -349h-147l49 305q2 14 2 26q0 38 -34 38q-37 0 -92 -64l-49 -305h-147l87 549h-55v93h70l9 54l150 26l-13 -80h112z" />
    <glyph glyph-name="Imacron" unicode="&#x12a;" horiz-adv-x="301" 
d="M305 690l-109 -690h-169l109 690h169zM381 751h-301l17 105h301z" />
    <glyph glyph-name="imacron" unicode="&#x12b;" horiz-adv-x="259" 
d="M243 490l-80 -490h-146l79 490h147zM330 557h-301l17 105h301z" />
    <glyph glyph-name="Ibreve" unicode="&#x12c;" horiz-adv-x="301" 
d="M305 690l-109 -690h-169l109 690h169zM397 876q-34 -136 -161 -136q-65 0 -98 35.5t-32 100.5l79 13q9 -56 59 -56q47 0 76 56z" />
    <glyph glyph-name="ibreve" unicode="&#x12d;" horiz-adv-x="259" 
d="M243 490l-80 -490h-146l79 490h147zM346 682q-34 -136 -161 -136q-65 0 -98 35.5t-32 100.5l79 13q9 -56 59 -56q47 0 76 56z" />
    <glyph glyph-name="Iogonek" unicode="&#x12e;" horiz-adv-x="301" 
d="M305 690l-109 -690h-29l-19 -26q-32 -42 -32 -62q0 -24 29 -24q22 0 44 7l-12 -73q-53 -20 -99 -20q-39 0 -59 17t-20 46q0 30 16 59t57 76h-45l109 690h169z" />
    <glyph glyph-name="iogonek" unicode="&#x12f;" horiz-adv-x="259" 
d="M243 490l-80 -490h-17l-19 -26q-32 -42 -32 -62q0 -24 29 -24q22 0 44 7l-12 -73q-53 -20 -99 -20q-39 0 -59 17t-20 46q0 30 16 59t57 76h-34l79 490h147zM279 636q0 -37 -25 -59.5t-62 -22.5t-61.5 22.5t-24.5 59.5t24.5 59.5t61.5 22.5t62 -22.5t25 -59.5z" />
    <glyph glyph-name="Idotaccent" unicode="&#x130;" horiz-adv-x="301" 
d="M305 690l-109 -690h-169l109 690h169zM291 742h-125l21 131h125z" />
    <glyph glyph-name="dotlessi" unicode="&#x131;" horiz-adv-x="259" 
d="M243 490l-80 -490h-146l79 490h147z" />
    <glyph glyph-name="Kcommaaccent" unicode="&#x136;" horiz-adv-x="622" 
d="M190 -65l126 23q31 -34 31 -71q0 -78 -111 -146l-90 19q70 67 70 114q0 30 -26 61zM673 690l-267 -328l177 -339l-181 -30l-157 327l-50 -320h-170l109 690h170l-47 -295l231 295h185z" />
    <glyph glyph-name="kcommaaccent" unicode="&#x137;" horiz-adv-x="493" 
d="M123 -73l126 23q31 -34 31 -71q0 -78 -111 -146l-90 19q70 67 70 114q0 30 -26 61zM161 0h-146l110 696l150 26l-68 -427l149 195h161l-182 -225l118 -247l-151 -25l-105 235z" />
    <glyph glyph-name="Lacute" unicode="&#x139;" horiz-adv-x="480" 
d="M436 861l-156 -121h-94l81 151zM425 0h-400l109 690h170l-87 -544h208v-146z" />
    <glyph glyph-name="lacute" unicode="&#x13a;" horiz-adv-x="259" 
d="M408 871l-156 -121h-94l81 151zM279 722l-115 -722h-147l111 696z" />
    <glyph glyph-name="Lcommaaccent" unicode="&#x13b;" horiz-adv-x="480" 
d="M124 -73l126 23q31 -34 31 -71q0 -78 -111 -146l-90 19q70 67 70 114q0 30 -26 61zM425 0h-400l109 690h170l-87 -544h208v-146z" />
    <glyph glyph-name="lcommaaccent" unicode="&#x13c;" horiz-adv-x="259" 
d="M-3 -73l126 23q31 -34 31 -71q0 -78 -111 -146l-90 19q70 67 70 114q0 30 -26 61zM279 722l-115 -722h-147l111 696z" />
    <glyph glyph-name="Lcaron" unicode="&#x13d;" horiz-adv-x="480" 
d="M468 693q6 -17 6 -36q0 -97 -93 -174l-69 15q43 64 43 122q0 30 -8 57zM425 0h-400l109 690h170l-87 -544h208v-146z" />
    <glyph glyph-name="lcaron" unicode="&#x13e;" horiz-adv-x="265" 
d="M436 724q6 -16 6 -36q0 -97 -93 -174l-69 15q43 65 43 122q0 30 -8 57zM279 722l-115 -722h-147l111 696z" />
    <glyph glyph-name="Ldot" unicode="&#x13f;" horiz-adv-x="480" 
d="M459 301h-127l20 131h127zM425 0h-400l109 690h170l-87 -544h208v-146z" />
    <glyph glyph-name="ldot" unicode="&#x140;" horiz-adv-x="336" 
d="M357 284h-108l24 151h108zM279 722l-115 -722h-147l111 696z" />
    <glyph glyph-name="Lslash" unicode="&#x141;" horiz-adv-x="506" 
d="M450 0h-399l35 226l-65 -33v132l88 43l51 322h169l-37 -230l134 67l-23 -144l-133 -65l-27 -172h207v-146z" />
    <glyph glyph-name="lslash" unicode="&#x142;" horiz-adv-x="331" 
d="M312 722l-42 -263l80 39l-23 -144l-79 -38l-50 -316h-147l37 237l-65 -32v133l88 43l50 315z" />
    <glyph glyph-name="Nacute" unicode="&#x143;" horiz-adv-x="674" 
d="M610 859l-156 -121h-94l81 151zM678 690l-109 -690h-134l-189 417l-66 -417h-155l109 690h160l170 -381l59 381h155z" />
    <glyph glyph-name="nacute" unicode="&#x144;" horiz-adv-x="518" 
d="M500 668l-156 -121h-94l81 151zM489 391q0 -24 -3 -42l-56 -349h-147l49 305q3 21 3 26q0 38 -35 38q-37 0 -92 -64l-49 -305h-147l59 370v120h136l8 -90q98 100 172 100q50 0 76 -29.5t26 -79.5z" />
    <glyph glyph-name="Ncommaaccent" unicode="&#x145;" horiz-adv-x="674" 
d="M204 -65l126 23q31 -34 31 -71q0 -78 -111 -146l-90 19q70 67 70 114q0 30 -26 61zM678 690l-109 -690h-134l-189 417l-66 -417h-155l109 690h160l170 -381l59 381h155z" />
    <glyph glyph-name="ncommaaccent" unicode="&#x146;" horiz-adv-x="518" 
d="M123 -73l126 23q31 -34 31 -71q0 -78 -111 -146l-90 19q70 67 70 114q0 30 -26 61zM489 391q0 -24 -3 -42l-56 -349h-147l49 305q3 21 3 26q0 38 -35 38q-37 0 -92 -64l-49 -305h-147l59 370v120h136l8 -90q98 100 172 100q50 0 76 -29.5t26 -79.5z" />
    <glyph glyph-name="Ncaron" unicode="&#x147;" horiz-adv-x="674" 
d="M277 885h92l57 -58l80 58h89l-117 -147h-128zM678 690l-109 -690h-134l-189 417l-66 -417h-155l109 690h160l170 -381l59 381h155z" />
    <glyph glyph-name="ncaron" unicode="&#x148;" horiz-adv-x="518" 
d="M167 694h92l57 -58l80 58h89l-117 -147h-128zM489 391q0 -24 -3 -42l-56 -349h-147l49 305q3 21 3 26q0 38 -35 38q-37 0 -92 -64l-49 -305h-147l59 370v120h136l8 -90q98 100 172 100q50 0 76 -29.5t26 -79.5z" />
    <glyph glyph-name="Omacron" unicode="&#x14c;" horiz-adv-x="690" 
d="M575 761h-301l17 105h301zM671 413q0 -184 -99 -305t-254 -121q-128 0 -199.5 75.5t-71.5 214.5q0 184 99 305t254 121q128 0 199.5 -75.5t71.5 -214.5zM498 422q0 152 -109 152q-74 0 -121.5 -92t-47.5 -214q0 -152 109 -152q74 0 121.5 92t47.5 214z" />
    <glyph glyph-name="omacron" unicode="&#x14d;" horiz-adv-x="506" 
d="M453 557h-301l17 105h301zM479 285q0 -125 -69.5 -210t-182.5 -85q-93 0 -146.5 58.5t-53.5 155.5q0 126 69.5 211t182.5 85q93 0 146.5 -58.5t53.5 -156.5zM333 288q0 95 -64 95q-43 0 -69.5 -54t-26.5 -127q0 -96 64 -96q43 0 69.5 54t26.5 128z" />
    <glyph glyph-name="Obreve" unicode="&#x14e;" horiz-adv-x="690" 
d="M671 413q0 -184 -99 -305t-254 -121q-128 0 -199.5 75.5t-71.5 214.5q0 184 99 305t254 121q128 0 199.5 -75.5t71.5 -214.5zM498 422q0 152 -109 152q-74 0 -121.5 -92t-47.5 -214q0 -152 109 -152q74 0 121.5 92t47.5 214zM591 886q-34 -136 -161 -136q-65 0 -98 35.5
t-32 100.5l79 13q9 -56 59 -56q47 0 76 56z" />
    <glyph glyph-name="obreve" unicode="&#x14f;" horiz-adv-x="506" 
d="M479 285q0 -125 -69.5 -210t-182.5 -85q-93 0 -146.5 58.5t-53.5 155.5q0 126 69.5 211t182.5 85q93 0 146.5 -58.5t53.5 -156.5zM333 288q0 95 -64 95q-43 0 -69.5 -54t-26.5 -127q0 -96 64 -96q43 0 69.5 54t26.5 128zM469 682q-34 -136 -161 -136q-65 0 -98 35.5
t-32 100.5l79 13q9 -56 59 -56q47 0 76 56z" />
    <glyph glyph-name="Ohungarumlaut" unicode="&#x150;" horiz-adv-x="690" 
d="M671 413q0 -184 -99 -305t-254 -121q-128 0 -199.5 75.5t-71.5 214.5q0 184 99 305t254 121q128 0 199.5 -75.5t71.5 -214.5zM498 422q0 152 -109 152q-74 0 -121.5 -92t-47.5 -214q0 -152 109 -152q74 0 121.5 92t47.5 214zM696 872l-152 -120h-95l65 112l-142 -112h-95
l87 150l155 -29l17 29z" />
    <glyph glyph-name="ohungarumlaut" unicode="&#x151;" horiz-adv-x="506" 
d="M479 285q0 -125 -69.5 -210t-182.5 -85q-93 0 -146.5 58.5t-53.5 155.5q0 126 69.5 211t182.5 85q93 0 146.5 -58.5t53.5 -156.5zM573 668l-152 -120h-95l65 112l-142 -112h-95l87 150l155 -29l17 29zM333 288q0 95 -64 95q-43 0 -69.5 -54t-26.5 -127q0 -96 64 -96
q43 0 69.5 54t26.5 128z" />
    <glyph glyph-name="OE" unicode="&#x152;" horiz-adv-x="852" 
d="M214 297q0 -167 170 -167h10l69 430h-9q-104 0 -166 -62q-74 -74 -74 -201zM483 690h398l-20 -137h-233l-20 -128h172v-137h-194l-24 -151h241l-22 -137h-395q-343 0 -343 289q0 177 106 283q118 118 334 118z" />
    <glyph glyph-name="oe" unicode="&#x153;" horiz-adv-x="784" 
d="M759 305q0 -50 -12 -95h-278v-12q4 -102 101 -102q72 0 153 44v-103q-89 -47 -186 -47q-99 0 -150 76q-63 -76 -163 -76q-91 0 -144 58.5t-53 155.5q0 125 69 210.5t176 85.5q102 0 151 -80q67 80 164 80q82 0 127 -52.5t45 -142.5zM333 289q0 94 -64 94q-43 0 -69.5 -54
t-26.5 -129q0 -94 64 -94q43 0 69.5 54t26.5 129zM570 402q-31 0 -55.5 -28.5t-36.5 -76.5h149q11 105 -57 105z" />
    <glyph glyph-name="Racute" unicode="&#x154;" horiz-adv-x="597" 
d="M560 862l-156 -121h-94l81 151zM584 496q0 -158 -149 -215l116 -259l-176 -29l-106 250h-39l-38 -243h-167l109 690h198q120 0 186 -48.5t66 -145.5zM420 482q0 84 -103 84h-38l-31 -203h34q66 0 102 30.5t36 88.5z" />
    <glyph glyph-name="racute" unicode="&#x155;" horiz-adv-x="372" 
d="M420 668l-156 -121h-94l81 151zM380 348q-104 -9 -176 -79l-43 -269h-146l58 370v120h137l7 -109q73 118 163 119v-152z" />
    <glyph glyph-name="Rcommaaccent" unicode="&#x156;" horiz-adv-x="597" 
d="M176 -65l126 23q31 -34 31 -71q0 -78 -111 -146l-90 19q70 67 70 114q0 30 -26 61zM584 496q0 -158 -149 -215l116 -259l-176 -29l-106 250h-39l-38 -243h-167l109 690h198q120 0 186 -48.5t66 -145.5zM420 482q0 84 -103 84h-38l-31 -203h34q66 0 102 30.5t36 88.5z" />
    <glyph glyph-name="rcommaaccent" unicode="&#x157;" horiz-adv-x="372" 
d="M3 -73l126 23q31 -34 31 -71q0 -78 -111 -146l-90 19q70 67 70 114q0 30 -26 61zM380 348q-104 -9 -176 -79l-43 -269h-146l58 370v120h137l7 -109q73 118 163 119v-152z" />
    <glyph glyph-name="Rcaron" unicode="&#x158;" horiz-adv-x="597" 
d="M227 888h92l57 -58l80 58h89l-117 -147h-128zM584 496q0 -158 -149 -215l116 -259l-176 -29l-106 250h-39l-38 -243h-167l109 690h198q120 0 186 -48.5t66 -145.5zM420 482q0 84 -103 84h-38l-31 -203h34q66 0 102 30.5t36 88.5z" />
    <glyph glyph-name="rcaron" unicode="&#x159;" horiz-adv-x="372" 
d="M88 694h92l57 -58l80 58h89l-117 -147h-128zM380 348q-104 -9 -176 -79l-43 -269h-146l58 370v120h137l7 -109q73 118 163 119v-152z" />
    <glyph glyph-name="Sacute" unicode="&#x15a;" horiz-adv-x="536" 
d="M548 872l-156 -121h-94l81 151zM536 642l-46 -135q-99 65 -168 65q-37 0 -56 -18t-19 -45q0 -23 15 -38.5t60 -40.5q104 -55 140.5 -101.5t36.5 -113.5q0 -104 -69 -165t-176 -61q-134 0 -253 68l47 135q111 -74 202 -74q39 0 62.5 20.5t23.5 52.5q0 25 -13.5 41
t-53.5 38q-107 57 -146 101t-39 111q0 97 65.5 158t168.5 61q119 0 218 -59z" />
    <glyph glyph-name="sacute" unicode="&#x15b;" horiz-adv-x="421" 
d="M456 668l-156 -121h-94l81 151zM404 457l-31 -111q-82 45 -146 45q-22 0 -32.5 -9t-10.5 -22q0 -14 8.5 -23t36.5 -21q87 -39 121.5 -72.5t34.5 -89.5q0 -75 -50 -119.5t-139 -44.5q-106 0 -201 56l33 111q92 -59 172 -59q52 0 52 37q0 15 -11.5 25t-42.5 25
q-83 38 -115 69.5t-32 87.5q0 70 49 114t125 44q90 0 179 -43z" />
    <glyph glyph-name="Scedilla" unicode="&#x15e;" horiz-adv-x="536" 
d="M536 642l-46 -135q-99 65 -168 65q-37 0 -56 -18t-19 -45q0 -23 15 -38.5t60 -40.5q104 -55 140.5 -101.5t36.5 -113.5q0 -104 -69 -165t-176 -61q-134 0 -253 68l47 135q111 -74 202 -74q39 0 62.5 20.5t23.5 52.5q0 25 -13.5 41t-53.5 38q-107 57 -146 101t-39 111
q0 97 65.5 158t168.5 61q119 0 218 -59zM295 -89l-146 -106h-92l73 137z" />
    <glyph glyph-name="scedilla" unicode="&#x15f;" horiz-adv-x="421" 
d="M404 457l-31 -111q-82 45 -146 45q-22 0 -32.5 -9t-10.5 -22q0 -14 8.5 -23t36.5 -21q87 -39 121.5 -72.5t34.5 -89.5q0 -75 -50 -119.5t-139 -44.5q-106 0 -201 56l33 111q92 -59 172 -59q52 0 52 37q0 15 -11.5 25t-42.5 25q-83 38 -115 69.5t-32 87.5q0 70 49 114
t125 44q90 0 179 -43zM238 -81l-146 -106h-92l73 137z" />
    <glyph glyph-name="Scaron" unicode="&#x160;" horiz-adv-x="536" 
d="M214 898h92l57 -58l80 58h89l-117 -147h-128zM536 642l-46 -135q-99 65 -168 65q-37 0 -56 -18t-19 -45q0 -23 15 -38.5t60 -40.5q104 -55 140.5 -101.5t36.5 -113.5q0 -104 -69 -165t-176 -61q-134 0 -253 68l47 135q111 -74 202 -74q39 0 62.5 20.5t23.5 52.5
q0 25 -13.5 41t-53.5 38q-107 57 -146 101t-39 111q0 97 65.5 158t168.5 61q119 0 218 -59z" />
    <glyph glyph-name="scaron" unicode="&#x161;" horiz-adv-x="421" 
d="M123 694h92l57 -58l80 58h89l-117 -147h-128zM404 457l-31 -111q-82 45 -146 45q-22 0 -32.5 -9t-10.5 -22q0 -14 8.5 -23t36.5 -21q87 -39 121.5 -72.5t34.5 -89.5q0 -75 -50 -119.5t-139 -44.5q-106 0 -201 56l33 111q92 -59 172 -59q52 0 52 37q0 15 -11.5 25
t-42.5 25q-83 38 -115 69.5t-32 87.5q0 70 49 114t125 44q90 0 179 -43z" />
    <glyph glyph-name="Tcommaaccent" unicode="&#x162;" horiz-adv-x="585" 
d="M159 -73l126 23q31 -34 31 -71q0 -78 -111 -146l-90 19q70 67 70 114q0 30 -26 61zM620 551h-194l-87 -551h-169l86 551h-189l22 139h531v-139z" />
    <glyph glyph-name="tcommaaccent" unicode="&#x163;" horiz-adv-x="358" 
d="M72 -73l126 23q31 -34 31 -71q0 -78 -111 -146l-90 19q70 67 70 114q0 30 -26 61zM351 369h-110l-28 -176q-3 -18 -3 -34q0 -43 46 -43q24 0 41 5v-120q-44 -10 -98 -10q-140 0 -140 120q0 21 4 59l32 199h-61l19 121h61l23 147l150 25l-27 -172h91v-121z" />
    <glyph glyph-name="Tcaron" unicode="&#x164;" horiz-adv-x="585" 
d="M234 888h92l57 -58l80 58h89l-117 -147h-128zM620 551h-194l-87 -551h-169l86 551h-189l22 139h531v-139z" />
    <glyph glyph-name="tcaron" unicode="&#x165;" horiz-adv-x="362" 
d="M459 717q6 -17 6 -36q0 -97 -93 -174l-69 15q43 64 43 122q0 30 -8 57zM351 369h-110l-28 -176q-3 -18 -3 -34q0 -43 46 -43q24 0 41 5v-120q-44 -10 -98 -10q-140 0 -140 120q0 21 4 59l32 199h-61l19 121h61l23 147l150 25l-27 -172h91v-121z" />
    <glyph glyph-name="Umacron" unicode="&#x16a;" horiz-adv-x="664" 
d="M678 690l-67 -422q-23 -147 -99.5 -214t-204.5 -67q-121 0 -185.5 56t-64.5 166q0 35 8 91l61 390h169l-62 -400q-7 -38 -7 -73q0 -43 23.5 -67.5t68.5 -24.5q101 0 123 138l67 427h170zM560 748h-301l17 105h301z" />
    <glyph glyph-name="umacron" unicode="&#x16b;" horiz-adv-x="519" 
d="M506 490l-59 -370v-120h-139l-5 89q-97 -99 -172 -99q-50 0 -76 29t-26 79q0 7 3 43l56 349h147l-49 -306q-2 -14 -2 -25q0 -39 34 -39q37 0 92 65l49 305h147zM456 557h-301l17 105h301z" />
    <glyph glyph-name="Ubreve" unicode="&#x16c;" horiz-adv-x="664" 
d="M678 690l-67 -422q-23 -147 -99.5 -214t-204.5 -67q-121 0 -185.5 56t-64.5 166q0 35 8 91l61 390h169l-62 -400q-7 -38 -7 -73q0 -43 23.5 -67.5t68.5 -24.5q101 0 123 138l67 427h170zM576 868q-34 -136 -161 -136q-65 0 -98 35.5t-32 100.5l79 13q9 -56 59 -56
q47 0 76 56z" />
    <glyph glyph-name="ubreve" unicode="&#x16d;" horiz-adv-x="519" 
d="M506 490l-59 -370v-120h-139l-5 89q-97 -99 -172 -99q-50 0 -76 29t-26 79q0 7 3 43l56 349h147l-49 -306q-2 -14 -2 -25q0 -39 34 -39q37 0 92 65l49 305h147zM472 677q-34 -136 -161 -136q-65 0 -98 35.5t-32 100.5l79 13q9 -56 59 -56q47 0 76 56z" />
    <glyph glyph-name="Uring" unicode="&#x16e;" horiz-adv-x="664" 
d="M421 777q22 0 37 17.5t15 43.5q0 25 -13 39t-33 14q-22 0 -37 -18t-15 -44q0 -25 13 -38.5t33 -13.5zM421 726q-53 0 -89 29.5t-36 76.5q0 48 36 79t95 31q53 0 89 -30t36 -77q0 -48 -36 -78.5t-95 -30.5zM678 690l-67 -422q-23 -147 -99.5 -214t-204.5 -67
q-121 0 -185.5 56t-64.5 166q0 35 8 91l61 390h169l-62 -400q-7 -38 -7 -73q0 -43 23.5 -67.5t68.5 -24.5q101 0 123 138l67 427h170z" />
    <glyph glyph-name="uring" unicode="&#x16f;" horiz-adv-x="519" 
d="M316 586q22 0 37 17.5t15 43.5q0 25 -13 39t-33 14q-22 0 -37 -18t-15 -44q0 -25 13 -38.5t33 -13.5zM316 535q-53 0 -89 29.5t-36 76.5q0 48 36 79t95 31q53 0 89 -30t36 -77q0 -48 -36 -78.5t-95 -30.5zM506 490l-59 -370v-120h-139l-5 89q-97 -99 -172 -99
q-50 0 -76 29t-26 79q0 7 3 43l56 349h147l-49 -306q-2 -14 -2 -25q0 -39 34 -39q37 0 92 65l49 305h147z" />
    <glyph glyph-name="Uhungarumlaut" unicode="&#x170;" horiz-adv-x="664" 
d="M678 690l-67 -422q-23 -147 -99.5 -214t-204.5 -67q-121 0 -185.5 56t-64.5 166q0 35 8 91l61 390h169l-62 -400q-7 -38 -7 -73q0 -43 23.5 -67.5t68.5 -24.5q101 0 123 138l67 427h170zM681 859l-152 -120h-95l65 112l-142 -112h-95l87 150l155 -29l17 29z" />
    <glyph glyph-name="uhungarumlaut" unicode="&#x171;" horiz-adv-x="519" 
d="M506 490l-59 -370v-120h-139l-5 89q-97 -99 -172 -99q-50 0 -76 29t-26 79q0 7 3 43l56 349h147l-49 -306q-2 -14 -2 -25q0 -39 34 -39q37 0 92 65l49 305h147zM576 668l-152 -120h-95l65 112l-142 -112h-95l87 150l155 -29l17 29z" />
    <glyph glyph-name="Uogonek" unicode="&#x172;" horiz-adv-x="664" 
d="M678 690l-67 -422q-42 -263 -270 -279l-11 -15q-32 -42 -32 -62q0 -24 29 -24q22 0 44 7l-12 -73q-53 -20 -99 -20q-39 0 -59 17t-20 46q0 52 65 126q-189 26 -189 218q0 35 8 91l61 390h169l-62 -400q-7 -38 -7 -73q0 -43 23.5 -67.5t68.5 -24.5q101 0 123 138l67 427
h170z" />
    <glyph glyph-name="uogonek" unicode="&#x173;" horiz-adv-x="520" 
d="M506 490l-59 -370v-120h-30l-19 -26q-32 -42 -32 -62q0 -24 29 -24q22 0 44 7l-12 -73q-53 -20 -99 -20q-39 0 -59 17t-20 46q0 30 16 59t57 76h-14l-5 89q-97 -99 -172 -99q-50 0 -76 29t-26 79q0 7 3 43l56 349h147l-49 -306q-2 -14 -2 -25q0 -39 34 -39q37 0 92 65
l49 305h147z" />
    <glyph glyph-name="Wcircumflex" unicode="&#x174;" horiz-adv-x="971" 
d="M735 741h-92l-58 58l-79 -58h-89l117 147h127zM1025 690l-297 -690h-160l-57 434l-197 -434h-154l-76 667l188 30l27 -432l187 425h165l50 -425l162 425h162z" />
    <glyph glyph-name="wcircumflex" unicode="&#x175;" horiz-adv-x="707" 
d="M564 547h-92l-58 58l-79 -58h-89l117 147h127zM731 490l-210 -490h-139l-25 296l-117 -296h-136l-55 478l149 19l16 -302l114 295h135l21 -295l109 295h138z" />
    <glyph glyph-name="Ycircumflex" unicode="&#x176;" horiz-adv-x="630" 
d="M703 690l-306 -437l-40 -253h-170l40 250l-160 419l177 28l97 -282l180 275h182zM547 738h-92l-58 58l-79 -58h-89l117 147h127z" />
    <glyph glyph-name="ycircumflex" unicode="&#x177;" horiz-adv-x="483" 
d="M511 490l-245 -504q-46 -96 -93.5 -132t-130.5 -36q-31 0 -55 6v120q30 -7 57 -7q49 0 80 46l10 19l-87 474l153 21l38 -309l131 302h142zM452 547h-92l-58 58l-79 -58h-89l117 147h127z" />
    <glyph glyph-name="Ydieresis" unicode="&#x178;" horiz-adv-x="630" 
d="M703 690l-306 -437l-40 -253h-170l40 250l-160 419l177 28l97 -282l180 275h182zM540 739h-121l21 131h121zM356 739h-120l20 131h122z" />
    <glyph glyph-name="Zacute" unicode="&#x179;" horiz-adv-x="576" 
d="M565 862l-156 -121h-94l81 151zM609 690l-19 -123l-366 -432h287v-135h-517l20 123l365 432h-262v135h492z" />
    <glyph glyph-name="zacute" unicode="&#x17a;" horiz-adv-x="456" 
d="M471 668l-156 -121h-94l81 151zM455 490l-17 -114l-244 -259h197v-117h-403l18 113l245 259h-175v118h379z" />
    <glyph glyph-name="Zdotaccent" unicode="&#x17b;" horiz-adv-x="576" 
d="M609 690l-19 -123l-366 -432h287v-135h-517l20 123l365 432h-262v135h492zM431 742h-125l21 131h125z" />
    <glyph glyph-name="zdotaccent" unicode="&#x17c;" horiz-adv-x="456" 
d="M455 490l-17 -114l-244 -259h197v-117h-403l18 113l245 259h-175v118h379zM338 548h-125l21 131h125z" />
    <glyph glyph-name="Zcaron" unicode="&#x17d;" horiz-adv-x="576" 
d="M232 888h92l57 -58l80 58h89l-117 -147h-128zM609 690l-19 -123l-366 -432h287v-135h-517l20 123l365 432h-262v135h492z" />
    <glyph glyph-name="zcaron" unicode="&#x17e;" horiz-adv-x="456" 
d="M138 694h92l57 -58l80 58h89l-117 -147h-128zM455 490l-17 -114l-244 -259h197v-117h-403l18 113l245 259h-175v118h379z" />
    <glyph glyph-name="florin" unicode="&#x192;" horiz-adv-x="385" 
d="M69 465h69l9 54q13 84 56.5 124.5t127.5 40.5q45 0 73 -5v-114q-28 4 -47 4q-58 0 -67 -65l-6 -39h80v-123h-100l-53 -342h-147l54 342h-68z" />
    <glyph glyph-name="Aringacute" unicode="&#x1fa;" horiz-adv-x="663" 
d="M444 -7l-22 150h-217l-65 -143h-165l330 661q-27 29 -27 70q0 48 36 78.5t95 30.5q53 0 89 -30.5t36 -77.5q0 -48 -34 -77l115 -632zM629 988l-156 -121h-94l81 151zM372 514l-109 -238h142zM404 675q21 0 36 17t15 43q0 25 -13.5 39.5t-33.5 14.5q-21 0 -36 -17.5
t-15 -43.5q0 -25 13.5 -39t33.5 -14z" />
    <glyph glyph-name="aringacute" unicode="&#x1fb;" 
d="M299 76q-75 -86 -146 -86q-59 0 -94 45t-35 124q0 159 86 248t207 89q87 0 178 -35l-54 -338v-123h-137zM304 173l32 201q-17 7 -35 7q-52 0 -90.5 -54.5t-38.5 -138.5q0 -68 47 -68q35 0 85 53zM546 921l-156 -121h-94l81 151zM336 596q22 0 37 17.5t15 43.5
q0 25 -13 39t-33 14q-22 0 -37 -18t-15 -44q0 -25 13 -38.5t33 -13.5zM336 545q-53 0 -89 29.5t-36 76.5q0 48 36 79t95 31q53 0 89 -30t36 -77q0 -48 -36 -78.5t-95 -30.5z" />
    <glyph glyph-name="AEacute" unicode="&#x1fc;" horiz-adv-x="867" 
d="M126 0h-167l443 690h494l-21 -137h-232l-20 -128h171v-137h-193l-24 -151h240l-22 -137h-407l22 143h-194zM294 276h137l48 300zM785 862l-156 -121h-94l81 151z" />
    <glyph glyph-name="aeacute" unicode="&#x1fd;" horiz-adv-x="749" 
d="M723 312q0 -57 -12 -102h-278v-11q2 -54 27 -78.5t74 -24.5q72 0 153 44v-103q-89 -47 -182 -47q-117 0 -171 75q-102 -75 -193 -75q-57 0 -92.5 32t-35.5 92q0 172 294 187l3 16q7 38 -8.5 54t-56.5 16q-61 0 -151 -37v112q101 38 186 38q102 0 134 -55q60 55 138 55
q81 0 126 -52t45 -136zM617 668l-156 -121h-94l81 151zM301 138q-6 23 -6 60q0 21 1 30q-73 -8 -105 -32t-32 -57q0 -43 45 -43q39 0 97 42zM591 297q11 105 -57 105q-31 0 -56 -29t-36 -76h149z" />
    <glyph glyph-name="Oslashacute" unicode="&#x1fe;" horiz-adv-x="690" 
d="M746 674l-106 -109q31 -63 31 -155q0 -186 -100.5 -304.5t-249.5 -118.5q-116 0 -185 60l-55 -56l-110 25l106 109q-30 65 -30 155q0 186 100.5 304.5t249.5 118.5q115 0 184 -60l55 56zM503 424q0 5 -0.5 13t-0.5 12l-264 -288q29 -48 92 -48q75 0 124 93t49 218z
M388 577q-75 0 -124 -92.5t-49 -218.5q0 -17 1 -25l264 287q-29 49 -92 49zM619 872l-156 -121h-94l81 151z" />
    <glyph glyph-name="oslashacute" unicode="&#x1ff;" horiz-adv-x="506" 
d="M479 278q0 -119 -69 -203.5t-176 -84.5q-82 0 -136 45l-39 -43l-80 19l76 78q-28 50 -28 122q0 119 69.5 204t175.5 85q80 0 136 -46l40 44l79 -20l-77 -77q29 -52 29 -123zM496 668l-156 -121h-94l81 151zM341 281q0 4 -0.5 11.5t-0.5 10.5l-157 -174q17 -29 53 -29
q46 0 75.5 54.5t29.5 126.5zM270 390q-45 0 -74.5 -54.5t-29.5 -125.5q0 -15 1 -22l156 173q-19 29 -53 29z" />
    <glyph glyph-name="Scommaaccent" unicode="&#x218;" horiz-adv-x="536" 
d="M136 -81l126 23q31 -34 31 -71q0 -78 -111 -146l-90 19q70 67 70 114q0 30 -26 61zM536 642l-46 -135q-99 65 -168 65q-37 0 -56 -18t-19 -45q0 -23 15 -38.5t60 -40.5q104 -55 140.5 -101.5t36.5 -113.5q0 -104 -69 -165t-176 -61q-134 0 -253 68l47 135
q111 -74 202 -74q39 0 62.5 20.5t23.5 52.5q0 25 -13.5 41t-53.5 38q-107 57 -146 101t-39 111q0 97 65.5 158t168.5 61q119 0 218 -59z" />
    <glyph glyph-name="scommaaccent" unicode="&#x219;" horiz-adv-x="421" 
d="M79 -73l126 23q31 -34 31 -71q0 -78 -111 -146l-90 19q70 67 70 114q0 30 -26 61zM404 457l-31 -111q-82 45 -146 45q-22 0 -32.5 -9t-10.5 -22q0 -14 8.5 -23t36.5 -21q87 -39 121.5 -72.5t34.5 -89.5q0 -75 -50 -119.5t-139 -44.5q-106 0 -201 56l33 111
q92 -59 172 -59q52 0 52 37q0 15 -11.5 25t-42.5 25q-83 38 -115 69.5t-32 87.5q0 70 49 114t125 44q90 0 179 -43z" />
    <glyph glyph-name="schwa" unicode="&#x259;" horiz-adv-x="478" 
d="M215 393q-71 0 -154 -44v103q89 47 182 47q94 0 152 -52t58 -152q0 -133 -73 -219.5t-180 -86.5q-83 0 -129 52.5t-46 142.5q0 50 12 95h279v2q0 112 -101 112zM214 87q32 0 56 29t36 76h-148q-11 -105 56 -105z" />
    <glyph glyph-name="circumflex" unicode="&#x2c6;" horiz-adv-x="423" 
d="M421 547h-92l-58 58l-79 -58h-89l117 147h127z" />
    <glyph glyph-name="caron" unicode="&#x2c7;" horiz-adv-x="423" 
d="M120 694h92l57 -58l80 58h89l-117 -147h-128z" />
    <glyph glyph-name="breve" unicode="&#x2d8;" horiz-adv-x="423" 
d="M426 682q-34 -136 -161 -136q-65 0 -98 35.5t-32 100.5l79 13q9 -56 59 -56q47 0 76 56z" />
    <glyph glyph-name="dotaccent" unicode="&#x2d9;" horiz-adv-x="423" 
d="M321 548h-125l21 131h125z" />
    <glyph glyph-name="ring" unicode="&#x2da;" horiz-adv-x="423" 
d="M287 596q22 0 37 17.5t15 43.5q0 25 -13 39t-33 14q-22 0 -37 -18t-15 -44q0 -25 13 -38.5t33 -13.5zM287 545q-53 0 -89 29.5t-36 76.5q0 48 36 79t95 31q53 0 89 -30t36 -77q0 -48 -36 -78.5t-95 -30.5z" />
    <glyph glyph-name="ogonek" unicode="&#x2db;" horiz-adv-x="454" 
d="M246 42l76 -19l-37 -49q-32 -42 -32 -62q0 -24 29 -24q22 0 44 7l-12 -73q-53 -20 -99 -20q-39 0 -59 17t-20 46q0 30 16 59.5t58 76.5z" />
    <glyph glyph-name="tilde" unicode="&#x2dc;" horiz-adv-x="423" 
d="M435 686q-18 -76 -42.5 -107.5t-62.5 -31.5q-23 0 -63 20q-42 21 -57 21q-21 0 -37 -44l-68 15q18 77 43 108.5t63 31.5q28 0 63 -20q41 -21 57 -21q11 0 19 9.5t18 35.5z" />
    <glyph glyph-name="hungarumlaut" unicode="&#x2dd;" horiz-adv-x="423" 
d="M480 668l-152 -120h-95l65 112l-142 -112h-95l87 150l155 -29l17 29z" />
    <glyph glyph-name="Wgrave" unicode="&#x1e80;" horiz-adv-x="971" 
d="M1025 690l-297 -690h-160l-57 434l-197 -434h-154l-76 667l188 30l27 -432l187 425h165l50 -425l162 425h162zM627 741h-93l-128 121l183 30z" />
    <glyph glyph-name="wgrave" unicode="&#x1e81;" horiz-adv-x="707" 
d="M731 490l-210 -490h-139l-25 296l-117 -296h-136l-55 478l149 19l16 -302l114 295h135l21 -295l109 295h138zM457 547h-93l-128 121l183 30z" />
    <glyph glyph-name="Wacute" unicode="&#x1e82;" horiz-adv-x="971" 
d="M772 862l-156 -121h-94l81 151zM1025 690l-297 -690h-160l-57 434l-197 -434h-154l-76 667l188 30l27 -432l187 425h165l50 -425l162 425h162z" />
    <glyph glyph-name="wacute" unicode="&#x1e83;" horiz-adv-x="707" 
d="M601 668l-156 -121h-94l81 151zM731 490l-210 -490h-139l-25 296l-117 -296h-136l-55 478l149 19l16 -302l114 295h135l21 -295l109 295h138z" />
    <glyph glyph-name="Wdieresis" unicode="&#x1e84;" horiz-adv-x="971" 
d="M728 742h-121l21 131h121zM544 742h-120l20 131h122zM1025 690l-297 -690h-160l-57 434l-197 -434h-154l-76 667l188 30l27 -432l187 425h165l50 -425l162 425h162z" />
    <glyph glyph-name="wdieresis" unicode="&#x1e85;" horiz-adv-x="707" 
d="M557 548h-121l21 131h121zM373 548h-120l20 131h122zM731 490l-210 -490h-139l-25 296l-117 -296h-136l-55 478l149 19l16 -302l114 295h135l21 -295l109 295h138z" />
    <glyph glyph-name="Ygrave" unicode="&#x1ef2;" horiz-adv-x="630" 
d="M703 690l-306 -437l-40 -253h-170l40 250l-160 419l177 28l97 -282l180 275h182zM439 738h-93l-128 121l183 30z" />
    <glyph glyph-name="ygrave" unicode="&#x1ef3;" horiz-adv-x="483" 
d="M511 490l-245 -504q-46 -96 -93.5 -132t-130.5 -36q-31 0 -55 6v120q30 -7 57 -7q49 0 80 46l10 19l-87 474l153 21l38 -309l131 302h142zM345 547h-93l-128 121l183 30z" />
    <glyph glyph-name="enspace" unicode="&#x2002;" horiz-adv-x="500" 
 />
    <glyph glyph-name="emspace" unicode="&#x2003;" horiz-adv-x="1000" 
 />
    <glyph glyph-name="threeperemspace" unicode="&#x2004;" horiz-adv-x="333" 
 />
    <glyph glyph-name="fourperemspace" unicode="&#x2005;" horiz-adv-x="250" 
 />
    <glyph glyph-name="thinspace" unicode="&#x2009;" horiz-adv-x="133" 
 />
    <glyph glyph-name="hairspace" unicode="&#x200a;" horiz-adv-x="75" 
 />
    <glyph glyph-name="endash" unicode="&#x2013;" horiz-adv-x="423" 
d="M379 220h-344l22 141h343z" />
    <glyph glyph-name="emdash" unicode="&#x2014;" horiz-adv-x="844" 
d="M801 221h-766l22 139h766z" />
    <glyph glyph-name="quoteleft" unicode="&#x2018;" horiz-adv-x="251" 
d="M50 409l142 289l88 -22l-60 -267h-170z" />
    <glyph glyph-name="quoteright" unicode="&#x2019;" horiz-adv-x="251" 
d="M296 690l-142 -289l-87 22l59 267h170z" />
    <glyph glyph-name="quotesinglbase" unicode="&#x201a;" horiz-adv-x="257" 
d="M216 183l-142 -290l-88 22l60 268h170z" />
    <glyph glyph-name="quotedblleft" unicode="&#x201c;" horiz-adv-x="473" 
d="M50 409l142 289l85 -22l-60 -267h-167zM276 409l142 289l85 -22l-60 -267h-167z" />
    <glyph glyph-name="quotedblright" unicode="&#x201d;" horiz-adv-x="473" 
d="M293 690l-141 -289l-86 22l60 267h167zM519 690l-141 -289l-86 22l60 267h167z" />
    <glyph glyph-name="quotedblbase" unicode="&#x201e;" horiz-adv-x="480" 
d="M213 183l-142 -290l-85 22l60 268h167zM439 183l-141 -290l-86 22l60 268h167z" />
    <glyph glyph-name="dagger" unicode="&#x2020;" horiz-adv-x="476" 
d="M357 611l-68 -135h-32l-23 135l12 79h124zM459 379h-37l-120 41l6 33l132 41h38zM228 420l-132 -41h-39l18 115h38l120 -41zM257 11l-62 -125h-29l-22 125l42 268l60 119h31l22 -119z" />
    <glyph glyph-name="daggerdbl" unicode="&#x2021;" horiz-adv-x="493" 
d="M366 611l-68 -135h-31l-25 135l13 79h123zM468 379h-38l-120 41l6 33l132 41h38zM237 420l-133 -41h-39l18 115h39l120 -41zM300 230l-60 -119h-32l-21 119l7 49l60 119h32l22 -119zM410 14h-38l-120 41l6 33l132 41h39zM178 55l-132 -41h-38l18 115h38l120 -41z
M240 -182h-123l12 79l67 136h32l24 -136z" />
    <glyph glyph-name="bullet" unicode="&#x2022;" horiz-adv-x="482" 
d="M428 344l-25 -156l-146 -23l-146 23l-24 156l24 157l146 23l146 -23z" />
    <glyph glyph-name="ellipsis" unicode="&#x2026;" horiz-adv-x="784" 
d="M694 0h-155l28 178h156zM431 0h-156l28 178h156zM166 0h-155l28 178h156z" />
    <glyph glyph-name="guilsinglleft" unicode="&#x2039;" horiz-adv-x="308" 
d="M320 490l-146 -249l63 -226l-98 -23l-121 253l188 245h114z" />
    <glyph glyph-name="guilsinglright" unicode="&#x203a;" horiz-adv-x="308" 
d="M-13 0l146 249l-63 226l97 23l122 -254l-188 -244h-114z" />
    <glyph glyph-name="fraction" unicode="&#x2044;" horiz-adv-x="270" 
d="M173 319l-248 -333l-65 18l270 347l250 333l65 -18z" />
    <glyph glyph-name="Euro" unicode="&#x20ac;" horiz-adv-x="563" 
d="M454 304l-13 -77h-173q23 -112 130 -112q54 0 111 30v-124q-60 -33 -137 -33q-118 0 -184 61t-79 178h-84v77h81q2 40 9 77h-73l12 76h81q37 103 113 167.5t181 64.5q97 0 165 -50l-41 -125q-65 46 -123 46q-90 0 -136 -103h177v-76h-200q-6 -30 -8 -77h191z" />
    <glyph glyph-name="servicemark" unicode="&#x2120;" horiz-adv-x="812" 
d="M831 345h-96l-14 216l-64 -218h-87l-64 218l-14 -216h-82l26 345h120l67 -225l67 225h115zM236 340q-59 0 -115 28l14 78q58 -34 104 -34q36 0 36 27q0 14 -10.5 23t-38.5 20q-55 23 -76.5 45.5t-21.5 64.5q0 48 33 75.5t84 27.5q54 0 99 -24l-11 -78q-53 30 -90 30
q-32 0 -32 -24q0 -12 9 -20.5t35 -19.5q59 -24 82 -47.5t23 -65.5q0 -52 -34.5 -79t-89.5 -27z" />
    <glyph glyph-name="trademark" unicode="&#x2122;" horiz-adv-x="812" 
d="M836 345h-96l-15 216l-64 -218h-86l-64 218l-15 -216h-81l26 345h120l67 -225l67 225h115zM392 615h-109v-270h-94v270h-103v75h295z" />
    <glyph glyph-name="minus" unicode="&#x2212;" horiz-adv-x="572" 
d="M522 276h-464l21 124h464z" />
    <glyph glyph-name="M.alt" horiz-adv-x="884" 
d="M773 0h-165l70 441l-213 -444h-152l-73 444l-69 -441h-145l109 690h224l78 -472l227 472h218z" />
    <glyph glyph-name="Q.alt" horiz-adv-x="697" 
d="M671 413q0 -139 -59 -245l48 -37l-34 -145l-95 80q-88 -79 -213 -79q-128 0 -199.5 75.5t-71.5 214.5q0 184 99 305t254 121q128 0 199.5 -75.5t71.5 -214.5zM501 422q0 74 -28.5 113t-82.5 39q-75 0 -122.5 -92.5t-47.5 -215.5q0 -153 111 -153q50 0 90 46l-126 106
l155 35l30 -25q21 73 21 147z" />
    <glyph glyph-name="U.alt" horiz-adv-x="669" 
d="M672 690l-109 -690h-143v69q-100 -77 -199 -77q-81 0 -124.5 43t-42.5 125q0 43 5 76l72 454h169l-71 -448q-3 -19 -3 -37q-2 -69 66 -69q58 0 132 56l79 498h169z" />
    <glyph glyph-name="W.alt" horiz-adv-x="980" 
d="M607 697l66 -469l198 462h168l-325 -691h-157l-57 311l-150 -311h-158l-113 670l177 28l66 -480l141 292l-29 160z" />
    <glyph glyph-name="a.alt" horiz-adv-x="495" 
d="M312 317q6 39 -9 54.5t-57 15.5q-62 0 -152 -37v112q101 38 195 38q104 0 143.5 -45.5t24.5 -136.5l-36 -219v-99h-138l-5 61q-76 -71 -150 -71q-51 0 -83 32.5t-32 85.5q0 90 72.5 138t223.5 55zM195 94q35 0 87 45l15 89q-74 -7 -106 -33.5t-32 -62.5q0 -38 36 -38z
" />
    <glyph glyph-name="g.alt" horiz-adv-x="504" 
d="M449 -11q0 -73 -74.5 -122t-180.5 -49q-105 0 -170 32.5t-65 87.5q0 70 101 121q-22 18 -22 50q0 48 78 84q-69 39 -69 121q0 79 58.5 131.5t147.5 52.5t141 -46l125 45v-113l-80 -2q6 -20 6 -41q0 -76 -59 -126t-146 -50q-34 0 -63 6q-13 -12 -13 -24q0 -17 52 -26
l85 -14q74 -13 111 -40t37 -78zM133 13l-14 2q-37 -29 -37 -58q0 -27 31 -44t84 -17q50 0 82 17t32 40q0 29 -55 40zM315 346q0 31 -16 48.5t-44 17.5q-34 0 -55 -29t-21 -69q0 -29 16 -46.5t44 -17.5q34 0 55 28t21 68z" />
    <glyph glyph-name="aacute.alt" horiz-adv-x="495" 
d="M493 668l-156 -121h-94l81 151zM312 317q6 39 -9 54.5t-57 15.5q-62 0 -152 -37v112q101 38 195 38q104 0 143.5 -45.5t24.5 -136.5l-36 -219v-99h-138l-5 61q-76 -71 -150 -71q-51 0 -83 32.5t-32 85.5q0 90 72.5 138t223.5 55zM195 94q35 0 87 45l15 89
q-74 -7 -106 -33.5t-32 -62.5q0 -38 36 -38z" />
    <glyph glyph-name="abreve.alt" horiz-adv-x="495" 
d="M312 317q6 39 -9 54.5t-57 15.5q-62 0 -152 -37v112q101 38 195 38q104 0 143.5 -45.5t24.5 -136.5l-36 -219v-99h-138l-5 61q-76 -71 -150 -71q-51 0 -83 32.5t-32 85.5q0 90 72.5 138t223.5 55zM195 94q35 0 87 45l15 89q-74 -7 -106 -33.5t-32 -62.5q0 -38 36 -38z
M466 682q-34 -136 -161 -136q-65 0 -98 35.5t-32 100.5l79 13q9 -56 59 -56q47 0 76 56z" />
    <glyph glyph-name="acircumflex.alt" horiz-adv-x="495" 
d="M456 547h-92l-58 58l-79 -58h-89l117 147h127zM312 317q6 39 -9 54.5t-57 15.5q-62 0 -152 -37v112q101 38 195 38q104 0 143.5 -45.5t24.5 -136.5l-36 -219v-99h-138l-5 61q-76 -71 -150 -71q-51 0 -83 32.5t-32 85.5q0 90 72.5 138t223.5 55zM195 94q35 0 87 45l15 89
q-74 -7 -106 -33.5t-32 -62.5q0 -38 36 -38z" />
    <glyph glyph-name="adieresis.alt" horiz-adv-x="495" 
d="M449 548h-121l21 131h121zM265 548h-120l20 131h122zM312 317q6 39 -9 54.5t-57 15.5q-62 0 -152 -37v112q101 38 195 38q104 0 143.5 -45.5t24.5 -136.5l-36 -219v-99h-138l-5 61q-76 -71 -150 -71q-51 0 -83 32.5t-32 85.5q0 90 72.5 138t223.5 55zM195 94q35 0 87 45
l15 89q-74 -7 -106 -33.5t-32 -62.5q0 -38 36 -38z" />
    <glyph glyph-name="agrave.alt" horiz-adv-x="495" 
d="M312 317q6 39 -9 54.5t-57 15.5q-62 0 -152 -37v112q101 38 195 38q104 0 143.5 -45.5t24.5 -136.5l-36 -219v-99h-138l-5 61q-76 -71 -150 -71q-51 0 -83 32.5t-32 85.5q0 90 72.5 138t223.5 55zM195 94q35 0 87 45l15 89q-74 -7 -106 -33.5t-32 -62.5q0 -38 36 -38z
M349 547h-93l-128 121l183 30z" />
    <glyph glyph-name="amacron.alt" horiz-adv-x="495" 
d="M312 317q6 39 -9 54.5t-57 15.5q-62 0 -152 -37v112q101 38 195 38q104 0 143.5 -45.5t24.5 -136.5l-36 -219v-99h-138l-5 61q-76 -71 -150 -71q-51 0 -83 32.5t-32 85.5q0 90 72.5 138t223.5 55zM195 94q35 0 87 45l15 89q-74 -7 -106 -33.5t-32 -62.5q0 -38 36 -38z
M450 557h-301l17 105h301z" />
    <glyph glyph-name="aogonek.alt" horiz-adv-x="495" 
d="M312 317q6 39 -9 54.5t-57 15.5q-62 0 -152 -37v112q101 38 195 38q104 0 143.5 -45.5t24.5 -136.5l-36 -219v-99h-31l-19 -26q-32 -42 -32 -62q0 -24 29 -24q22 0 44 7l-12 -73q-53 -20 -99 -20q-39 0 -59 17t-20 46q0 30 16 59t57 76h-12l-5 61q-76 -71 -150 -71
q-51 0 -83 32.5t-32 85.5q0 90 72.5 138t223.5 55zM195 94q35 0 87 45l15 89q-74 -7 -106 -33.5t-32 -62.5q0 -38 36 -38z" />
    <glyph glyph-name="aring.alt" horiz-adv-x="495" 
d="M311 596q22 0 37 17.5t15 43.5q0 25 -13 39t-33 14q-22 0 -37 -18t-15 -44q0 -25 13 -38.5t33 -13.5zM311 545q-53 0 -89 29.5t-36 76.5q0 48 36 79t95 31q53 0 89 -30t36 -77q0 -48 -36 -78.5t-95 -30.5zM312 317q6 39 -9 54.5t-57 15.5q-62 0 -152 -37v112
q101 38 195 38q104 0 143.5 -45.5t24.5 -136.5l-36 -219v-99h-138l-5 61q-76 -71 -150 -71q-51 0 -83 32.5t-32 85.5q0 90 72.5 138t223.5 55zM195 94q35 0 87 45l15 89q-74 -7 -106 -33.5t-32 -62.5q0 -38 36 -38z" />
    <glyph glyph-name="aringacute.alt" horiz-adv-x="503" 
d="M534 918l-156 -121h-94l81 151zM326 596q22 0 37 17.5t15 43.5q0 25 -13 39t-33 14q-22 0 -37 -18t-15 -44q0 -25 13 -38.5t33 -13.5zM326 545q-53 0 -89 29.5t-36 76.5q0 48 36 79t95 31q53 0 89 -30t36 -77q0 -48 -36 -78.5t-95 -30.5zM312 317q6 39 -9 54.5t-57 15.5
q-62 0 -152 -37v112q101 38 195 38q104 0 143.5 -45.5t24.5 -136.5l-36 -219v-99h-138l-5 61q-76 -71 -150 -71q-51 0 -83 32.5t-32 85.5q0 90 72.5 138t223.5 55zM195 94q35 0 87 45l15 89q-74 -7 -106 -33.5t-32 -62.5q0 -38 36 -38z" />
    <glyph glyph-name="atilde.alt" horiz-adv-x="495" 
d="M312 317q6 39 -9 54.5t-57 15.5q-62 0 -152 -37v112q101 38 195 38q104 0 143.5 -45.5t24.5 -136.5l-36 -219v-99h-138l-5 61q-76 -71 -150 -71q-51 0 -83 32.5t-32 85.5q0 90 72.5 138t223.5 55zM195 94q35 0 87 45l15 89q-74 -7 -106 -33.5t-32 -62.5q0 -38 36 -38z
M477 686q-18 -76 -42.5 -107.5t-62.5 -31.5q-23 0 -63 20q-42 21 -57 21q-21 0 -37 -44l-68 15q18 77 43 108.5t63 31.5q28 0 63 -20q41 -21 57 -21q11 0 19 9.5t18 35.5z" />
    <glyph glyph-name="gbreve.alt" horiz-adv-x="504" 
d="M449 -11q0 -73 -74.5 -122t-180.5 -49q-105 0 -170 32.5t-65 87.5q0 70 101 121q-22 18 -22 50q0 48 78 84q-69 39 -69 121q0 79 58.5 131.5t147.5 52.5t141 -46l125 45v-113l-80 -2q6 -20 6 -41q0 -76 -59 -126t-146 -50q-33 0 -62 6q-14 -13 -14 -24q0 -17 52 -26
l85 -14q74 -13 111 -40t37 -78zM459 682q-34 -136 -161 -136q-65 0 -98 35.5t-32 100.5l79 13q9 -56 59 -56q47 0 76 56zM133 13l-14 2q-37 -29 -37 -58q0 -27 31 -44t84 -17q50 0 82 17t32 40q0 29 -55 40zM315 346q0 31 -16 48.5t-44 17.5q-34 0 -55 -29t-21 -69
q0 -29 16 -46.5t44 -17.5q34 0 55 28t21 68z" />
    <glyph glyph-name="gcommaaccent.alt" horiz-adv-x="504" 
d="M449 -11q0 -73 -74.5 -122t-180.5 -49q-105 0 -170 32.5t-65 87.5q0 70 101 121q-22 18 -22 50q0 48 78 84q-69 39 -69 121q0 79 58.5 131.5t147.5 52.5t141 -46l125 45v-113l-80 -2q6 -20 6 -41q0 -76 -59 -126t-146 -50q-34 0 -63 6q-13 -12 -13 -24q0 -17 52 -26
l85 -14q74 -13 111 -40t37 -78zM378 562l-126 -23q-31 34 -31 71q0 78 111 146l90 -19q-70 -67 -70 -114q0 -30 26 -61zM133 13l-14 2q-37 -29 -37 -58q0 -27 31 -44t84 -17q50 0 82 17t32 40q0 29 -55 40zM315 346q0 31 -16 48.5t-44 17.5q-34 0 -55 -29t-21 -69
q0 -29 16 -46.5t44 -17.5q34 0 55 28t21 68z" />
    <glyph glyph-name="gdotaccent.alt" horiz-adv-x="504" 
d="M449 -11q0 -73 -74.5 -122t-180.5 -49q-105 0 -170 32.5t-65 87.5q0 70 101 121q-22 18 -22 50q0 48 78 84q-69 39 -69 121q0 79 58.5 131.5t147.5 52.5t141 -46l125 45v-113l-80 -2q6 -20 6 -41q0 -76 -59 -126t-146 -50q-33 0 -62 6q-14 -13 -14 -24q0 -17 52 -26
l85 -14q74 -13 111 -40t37 -78zM133 13l-14 2q-37 -29 -37 -58q0 -27 31 -44t84 -17q50 0 82 17t32 40q0 29 -55 40zM315 346q0 31 -16 48.5t-44 17.5q-34 0 -55 -29t-21 -69q0 -29 16 -46.5t44 -17.5q34 0 55 28t21 68zM353 548h-125l21 131h125z" />
    <glyph glyph-name="Uacute.alt" horiz-adv-x="669" 
d="M604 859l-156 -121h-94l81 151zM672 690l-109 -690h-143v69q-100 -77 -199 -77q-81 0 -124.5 43t-42.5 125q0 43 5 76l72 454h169l-71 -448q-3 -19 -3 -37q-2 -69 66 -69q58 0 132 56l79 498h169z" />
    <glyph glyph-name="Ubreve.alt" horiz-adv-x="669" 
d="M672 690l-109 -690h-143v69q-100 -77 -199 -77q-81 0 -124.5 43t-42.5 125q0 43 5 76l72 454h169l-71 -448q-3 -19 -3 -37q-2 -69 66 -69q58 0 132 56l79 498h169zM576 868q-34 -136 -161 -136q-65 0 -98 35.5t-32 100.5l79 13q9 -56 59 -56q47 0 76 56z" />
    <glyph glyph-name="Ucircumflex.alt" horiz-adv-x="669" 
d="M567 738h-92l-58 58l-79 -58h-89l117 147h127zM672 690l-109 -690h-143v69q-100 -77 -199 -77q-81 0 -124.5 43t-42.5 125q0 43 5 76l72 454h169l-71 -448q-3 -19 -3 -37q-2 -69 66 -69q58 0 132 56l79 498h169z" />
    <glyph glyph-name="Udieresis.alt" horiz-adv-x="669" 
d="M560 739h-121l21 131h121zM376 739h-120l20 131h122zM672 690l-109 -690h-143v69q-100 -77 -199 -77q-81 0 -124.5 43t-42.5 125q0 43 5 76l72 454h169l-71 -448q-3 -19 -3 -37q-2 -69 66 -69q58 0 132 56l79 498h169z" />
    <glyph glyph-name="Ugrave.alt" horiz-adv-x="669" 
d="M460 738h-93l-128 121l183 30zM672 690l-109 -690h-143v69q-100 -77 -199 -77q-81 0 -124.5 43t-42.5 125q0 43 5 76l72 454h169l-71 -448q-3 -19 -3 -37q-2 -69 66 -69q58 0 132 56l79 498h169z" />
    <glyph glyph-name="Uhungarumlaut.alt" horiz-adv-x="669" 
d="M672 690l-109 -690h-143v69q-100 -77 -199 -77q-81 0 -124.5 43t-42.5 125q0 43 5 76l72 454h169l-71 -448q-3 -19 -3 -37q-2 -69 66 -69q58 0 132 56l79 498h169zM681 859l-152 -120h-95l65 112l-142 -112h-95l87 150l155 -29l17 29z" />
    <glyph glyph-name="Umacron.alt" horiz-adv-x="669" 
d="M561 748h-301l17 105h301zM672 690l-109 -690h-143v69q-100 -77 -199 -77q-81 0 -124.5 43t-42.5 125q0 43 5 76l72 454h169l-71 -448q-3 -19 -3 -37q-2 -69 66 -69q58 0 132 56l79 498h169z" />
    <glyph glyph-name="Uogonek.alt" horiz-adv-x="669" 
d="M672 690l-109 -690h-29l-19 -26q-32 -42 -32 -62q0 -24 29 -24q22 0 44 7l-12 -73q-53 -20 -99 -20q-39 0 -59 17t-20 46q0 30 16 59t57 76h-19v69q-100 -77 -199 -77q-81 0 -124.5 43t-42.5 125q0 43 5 76l72 454h169l-71 -448q-3 -19 -3 -37q-2 -69 66 -69q58 0 132 56
l79 498h169z" />
    <glyph glyph-name="Uring.alt" horiz-adv-x="669" 
d="M420 777q22 0 37 17.5t15 43.5q0 25 -13 39t-33 14q-22 0 -37 -18t-15 -44q0 -25 13 -38.5t33 -13.5zM420 726q-53 0 -89 29.5t-36 76.5q0 48 36 79t95 31q53 0 89 -30t36 -77q0 -48 -36 -78.5t-95 -30.5zM672 690l-109 -690h-143v69q-100 -77 -199 -77q-81 0 -124.5 43
t-42.5 125q0 43 5 76l72 454h169l-71 -448q-3 -19 -3 -37q-2 -69 66 -69q58 0 132 56l79 498h169z" />
    <glyph glyph-name="Wacute.alt" horiz-adv-x="980" 
d="M607 697l66 -469l198 462h168l-325 -691h-157l-57 311l-150 -311h-158l-113 670l177 28l66 -480l141 292l-29 160zM755 862l-156 -121h-94l81 151z" />
    <glyph glyph-name="Wcircumflex.alt" horiz-adv-x="980" 
d="M607 697l66 -469l198 462h168l-325 -691h-157l-57 311l-150 -311h-158l-113 670l177 28l66 -480l141 292l-29 160zM718 741h-92l-58 58l-79 -58h-89l117 147h127z" />
    <glyph glyph-name="Wdieresis.alt" horiz-adv-x="980" 
d="M607 697l66 -469l198 462h168l-325 -691h-157l-57 311l-150 -311h-158l-113 670l177 28l66 -480l141 292l-29 160zM527 742h-120l20 131h122zM711 742h-121l21 131h121z" />
    <glyph glyph-name="Wgrave.alt" horiz-adv-x="980" 
d="M607 697l66 -469l198 462h168l-325 -691h-157l-57 311l-150 -311h-158l-113 670l177 28l66 -480l141 292l-29 160zM610 741h-93l-128 121l183 30z" />
    <glyph glyph-name="three.alt" horiz-adv-x="533" 
d="M491 232q0 -110 -77.5 -177.5t-201.5 -67.5q-121 0 -214 56l40 130q88 -52 172 -52q53 0 85 27t32 71q0 77 -122 77h-55v98l185 151h-231v131h445l-18 -121l-192 -156q152 -24 152 -167z" />
    <glyph glyph-name="four.alt" horiz-adv-x="591" 
d="M559 135h-96l-21 -135h-139l23 135h-317l16 103l351 445l139 -37l-324 -399h152l25 155l144 36l-30 -191h96z" />
    <glyph glyph-name="comma.alt" horiz-adv-x="257" 
d="M42 172h155q3 -24 3 -44q-1 -71 -39.5 -138t-126.5 -141l-77 40q88 120 88 234q0 1 -3 49z" />
    <glyph glyph-name="semicolon.alt" horiz-adv-x="265" 
d="M30 -151l-77 40q88 121 88 234q0 17 -4 49h156q0 -4 1.5 -20t1.5 -24q-1 -71 -39.5 -138t-126.5 -141zM66 313l28 177h161l-27 -177h-162z" />
    <glyph glyph-name="quotedblleft.alt" horiz-adv-x="473" 
d="M202 707l78 -37q-54 -96 -54 -189q0 -30 5 -72h-155q-3 24 -3 46q0 128 129 252zM425 707l78 -37q-54 -96 -54 -189q0 -30 5 -72h-155q-3 24 -3 46q0 128 129 252z" />
    <glyph glyph-name="quotedblright.alt" horiz-adv-x="473" 
d="M144 392l-78 37q54 96 54 189q0 30 -5 72h155q3 -24 3 -46q0 -128 -129 -252zM369 392l-78 37q54 96 54 189q0 30 -5 72h155q3 -24 3 -46q0 -128 -129 -252z" />
    <glyph glyph-name="quoteleft.alt" horiz-adv-x="251" 
d="M202 707l78 -37q-54 -96 -54 -189q0 -30 5 -72h-155q-3 24 -3 46q0 128 129 252z" />
    <glyph glyph-name="quoteright.alt" horiz-adv-x="251" 
d="M144 392l-78 37q54 96 54 189q0 30 -5 72h155q3 -24 3 -46q0 -128 -129 -252z" />
    <glyph glyph-name="quotedblbase.alt" horiz-adv-x="480" 
d="M64 -115l-78 37q54 96 54 189q0 30 -5 72h155q3 -24 3 -46q0 -128 -129 -252zM289 -115l-78 37q54 96 54 189q0 30 -5 72h155q3 -24 3 -46q0 -128 -129 -252z" />
    <glyph glyph-name="quotesinglbase.alt" horiz-adv-x="257" 
d="M64 -115l-78 37q54 96 54 189q0 30 -5 72h155q3 -24 3 -46q0 -128 -129 -252z" />
    <glyph glyph-name="published" horiz-adv-x="799" 
d="M764 346q0 -160 -96.5 -259.5t-249.5 -99.5q-154 0 -249.5 98.5t-95.5 258.5t96.5 259.5t249.5 99.5q154 0 249.5 -98.5t95.5 -258.5zM720 345q0 151 -85 236.5t-216 85.5q-133 0 -217.5 -85.5t-84.5 -236.5t85 -236.5t217 -85.5t216.5 85.5t84.5 236.5zM592 413
q0 -66 -43 -101.5t-118 -35.5h-33v-126h-111v394h149q73 0 114.5 -34.5t41.5 -96.5zM486 411q0 54 -60 54h-30v-110h28q62 0 62 56z" />
    <glyph glyph-name="registered.alt" horiz-adv-x="799" 
d="M764 346q0 -160 -96.5 -259.5t-249.5 -99.5q-154 0 -249.5 98.5t-95.5 258.5t96.5 259.5t249.5 99.5q154 0 249.5 -98.5t95.5 -258.5zM720 345q0 151 -85 236.5t-216 85.5q-133 0 -217.5 -85.5t-84.5 -236.5t85 -236.5t217 -85.5t216.5 85.5t84.5 236.5zM577 420
q0 -75 -68 -111l99 -139l-113 -20l-89 133h-23v-128h-109v394h141q77 0 119.5 -33.5t42.5 -95.5zM409 470h-27v-113h27q64 0 64 57q0 56 -64 56z" />
    <glyph glyph-name="servicemark.alt" horiz-adv-x="820" 
d="M236 340q-59 0 -115 28l14 78q58 -34 104 -34q36 0 36 27q0 14 -10.5 23t-38.5 20q-55 23 -76.5 45.5t-21.5 64.5q0 48 33 75.5t84 27.5q54 0 99 -24l-11 -78q-53 30 -90 30q-32 0 -32 -24q0 -12 9 -20.5t35 -19.5q59 -24 82 -47.5t23 -65.5q0 -52 -34.5 -79t-89.5 -27z
M580 342l-77 225v-222h-86v345h124l82 -228l79 228h123v-345h-91v222l-77 -225h-77z" />
    <glyph glyph-name="trademark.alt" horiz-adv-x="827" 
d="M838 345h-90v222l-78 -225h-76l-78 225v-222h-86v345h124l83 -228l78 228h123v-345zM392 615h-109v-270h-94v270h-103v75h295z" />
    <glyph glyph-name="one.sup" horiz-adv-x="360" 
d="M343 405h-253l13 86h76l30 185l-81 -32v91l129 53h77l-49 -297h58v-86z" />
    <glyph glyph-name="two.sup" horiz-adv-x="360" 
d="M351 405h-274l14 86l146 127q35 30 35 52q0 28 -33 28q-36 0 -100 -35v91q65 35 127 35q53 0 84 -27.5t31 -69.5q0 -37 -19 -64.5t-69 -68.5l-75 -64h133v-90z" />
    <glyph glyph-name="three.sup" horiz-adv-x="360" 
d="M356 517q0 -55 -43 -87t-107 -32q-62 0 -131 33l26 78q55 -26 97 -26q24 0 38 10.5t14 29.5q0 37 -61 37h-25v71h24q38 0 60.5 12t22.5 32q0 28 -37 28q-38 0 -92 -28v84q60 30 124 30q51 0 82.5 -23.5t31.5 -65.5q0 -76 -88 -102q64 -22 64 -81z" />
    <glyph glyph-name="NUL" horiz-adv-x="0" 
 />
    <glyph glyph-name="hfjslug" horiz-adv-x="694" 
d="M644 -200h-208l-8 14h-163l-8 -14h-207v303q14 0 23 9.5t9 22.5t-9.5 22.5t-22.5 9.5v554h100l30 79h334l29 -79h101v-921zM400 563v-172h15v78h38v14h-38v66h43v14h-58zM184 563v-172h15v79h47v-79h15v172h-15v-79h-47v79h-15zM460 394q10 -4 21 -4q31 0 31 36v137h-16
v-137q0 -22 -16 -22q-8 0 -20 5v-15zM371 465l-13 3q-4 -18 -8 -30h-1l-16 31q23 21 23 42q0 31 -27 31q-12 0 -20 -9t-8 -22t14 -39q-23 -18 -23 -47q0 -16 8 -26.5t21 -10.5q19 0 29 24h1l12 -24l12 6l-17 32q6 14 13 39zM523 323v-46h8v12l8 8l15 -20h10l-20 26l18 20
h-10l-20 -24h-1v24h-8zM488 292l10 -15h9l-12 17q10 4 10 14q0 15 -17 15h-20v-46h8v15h12zM426 276q10 0 17 7t7 17q0 9 -7 16.5t-17 7.5t-17 -7.5t-7 -16.5q0 -10 7 -17t17 -7zM370 301l-13 22h-9l18 -29v-17h8v17l18 29h-9zM193 323v-46h34v7h-26v13h23v7h-23v12h26v7
h-34zM132 323v-46h8v32l25 -32h7v46h-8v-32l-25 32h-7zM241 323l14 -47h8l11 34h1l11 -34h8l14 47h-8l-10 -35h-1l-11 35h-7l-11 -35h-1l-10 35h-8zM327 479q-12 22 -12 32q0 19 14 19q13 0 13 -19q0 -15 -15 -32zM342 423q-8 -21 -20 -21q-16 0 -16 25q0 19 16 35zM487 299
h-11v17h11q10 0 10 -8q0 -9 -10 -9zM426 283q-16 0 -16 17q0 6 4.5 11.5t11.5 5.5t11.5 -5.5t4.5 -11.5q0 -17 -16 -17z" />
    <glyph glyph-name="i.dot" horiz-adv-x="259" 
d="M279 636q0 -37 -25 -59.5t-62 -22.5t-61.5 22.5t-24.5 59.5t24.5 59.5t61.5 22.5t62 -22.5t25 -59.5zM243 490l-80 -490h-146l79 490h147z" />
    <glyph glyph-name="caron.alt" horiz-adv-x="454" 
d="M350 707q6 -17 6 -36q0 -97 -93 -174l-69 15q43 64 43 122q0 30 -8 57z" />
    <glyph glyph-name="commaaccent" horiz-adv-x="454" 
d="M132 -73l126 23q31 -34 31 -71q0 -78 -111 -146l-90 19q70 67 70 114q0 30 -26 61z" />
    </font>
</defs>
</svg>
