<?xml version="1.0" encoding="utf-8"?>
<!-- Generator: Adobe Illustrator 18.0.0, SVG Export Plug-In . SVG Version: 6.00 Build 0)  -->
<svg version="1.1" xmlns="http://www.w3.org/2000/svg" xmlns:xlink="http://www.w3.org/1999/xlink" x="0px" y="0px"
	 viewBox="0 0 1468.1 143.3" style="enable-background:new 0 0 1468.1 143.3;" xml:space="preserve">
<g id="bg" style="display:none;">
</g>
<g id="Layer_1">
	<g>
		<polygon style="fill-rule:evenodd;clip-rule:evenodd;fill:none;" points="499,-16.7 687.1,-16.7 687.1,171.4 499,171.4 499,-16.7 
					"/>
		<path style="fill-rule:evenodd;clip-rule:evenodd;fill:#23C2E7;" d="M580.2,52.8L593,20.4l11.6,29.1l0,0c0,0-0.2,0-0.3,0
			c-8.4,0.2-16.6,1.2-24.1,3.1L580.2,52.8L580.2,52.8z M613.2,50.1L613.2,50.1L593,0.2l-22.6,55.5C554,62.1,540.8,72.8,533,86.1
			h10.3c11.9-18.4,34.8-31.6,61.9-34c0,0,0.2,0,0.3,0l0,0l0.7,1.6C582,57,561.4,69.2,550.1,85.9h10.7c9.8-14.3,26.4-25.2,46.4-29.8
			l0.7,1.7c-16.9,5.5-30.2,15.7-40.7,28.1h10.5c9-11.9,19.1-20.5,31-25.9l10.3,26h8.8l-11.7-29c5-1.7,10.3-2.9,16-3.6
			C626.1,51.8,619.7,50.6,613.2,50.1L613.2,50.1z"/>
		<path style="fill-rule:evenodd;clip-rule:evenodd;fill:#23C2E7;" d="M512.1,102l6,15.9h-5L512,114h-5l-1.6,3.8h-3.6l6.4-15.9
			H512.1L512.1,102z M511.1,111.5c-0.5-1.9-0.9-3.4-1.6-5.7l0,0c-0.7,2.2-1.2,3.8-1.7,5.7H511.1L511.1,111.5z"/>
		<path style="fill-rule:evenodd;clip-rule:evenodd;fill:#23C2E7;" d="M529.4,117.1c-1.2,0.7-2.4,0.9-3.6,0.9c-4,0-6.7-2.2-6.7-5.7
			c0-3.8,3.1-6.2,7.1-6.2c1,0,2.4,0.3,3.4,1l-1,2.2c-0.7-0.2-1.4-0.3-1.9-0.3c-1.6,0-2.8,0.9-2.8,3.1c0,2.2,1.6,2.9,2.6,2.9
			c0.7,0,1.4-0.2,1.9-0.3L529.4,117.1L529.4,117.1z"/>
		<path style="fill-rule:evenodd;clip-rule:evenodd;fill:#23C2E7;" d="M537.1,116.8c-0.9,0.5-1.9,1.2-2.9,1.2
			c-1.6,0-3.3-1.4-3.3-3.3c0-2.4,1.4-3.6,4.5-4.5l2.6-0.5c-0.3-0.7-1.2-1.2-1.9-1.2c-1.2,0-2.2,0.5-2.9,1.2l-1.4-2.1
			c1.9-1.2,3.6-1.6,5.2-1.6c2.6,0,5.3,0.9,5.3,4.8v4.1c0,0.9,0.2,1.9,0.3,2.8H538c-0.2-0.3-0.2-0.9-0.2-1.4L537.1,116.8L537.1,116.8
			z M536.6,111.8c-0.9,0.3-1.7,1.2-1.7,2.2c0,0.7,0.7,1.4,1.2,1.4c0.9,0,2.1-1,1.9-4.1L536.6,111.8L536.6,111.8z"/>
		<path style="fill-rule:evenodd;clip-rule:evenodd;fill:#23C2E7;" d="M552.7,116.5c-0.7,0.7-1.9,1.6-3.4,1.6c-3.6,0-5-3.1-5-6
			c0-2.2,1.4-5.9,5.2-5.9c1.4,0,2.6,0.7,3.3,1.6l0,0v-6.6h4.5v16.7h-4.5V116.5L552.7,116.5z M548.9,112.1c0,2.1,0.9,3.6,1.9,3.6
			c1.4,0,1.9-1.7,1.9-3.6c0-2.1-0.7-3.6-1.9-3.6C549.7,108.5,548.9,109.9,548.9,112.1L548.9,112.1z"/>
		<path style="fill-rule:evenodd;clip-rule:evenodd;fill:#23C2E7;" d="M564,112.7c0,1.9,1.2,2.6,2.6,2.6c1.2,0,2.2-0.3,2.9-0.7
			l1.2,2.2c-2.1,1-4,1.2-5.3,1.2c-3.3,0-6.2-2.8-6.2-6.2c0-2.8,2.1-5.7,6.4-5.7c3.6,0,5.7,2.6,5.2,6.6H564L564,112.7z M567,110.8
			c0.2-1.9-0.5-2.8-1.6-2.8c-0.9,0-1.6,0.9-1.4,2.8H567L567,110.8z"/>
		<path style="fill-rule:evenodd;clip-rule:evenodd;fill:#23C2E7;" d="M577.3,107.7L577.3,107.7c0.7-0.9,2.2-1.6,4-1.6
			c1,0,2.6,0.3,3.1,1.6c0.7-0.9,2.1-1.6,3.8-1.6c2.9,0,4.3,1.4,4.3,4.3v7.4H588v-7.2c0-0.9-0.5-1.6-1.4-1.6c-1.2,0-1.7,0.7-1.7,2.1
			v6.7h-4.5v-7.2c0-0.7-0.3-1.6-1.4-1.6c-1.2,0-1.7,0.5-1.7,2.1v6.7h-4.5v-11.4h4.5V107.7L577.3,107.7z"/>
		<path style="fill-rule:evenodd;clip-rule:evenodd;fill:#23C2E7;" d="M598.5,106.3c0.7,2.1,1.4,4.3,1.9,7.1h0.2
			c0.7-2.8,1.6-5,2.2-7.1l3.4,0.5l-5.3,12.4c-1,2.1-2.4,4.1-5.5,4.1h-1.7v-2.8h0.9c1,0,2.4,0,3.3-3.6l-3.8-10.2L598.5,106.3
			L598.5,106.3z"/>
		<path style="fill-rule:evenodd;clip-rule:evenodd;fill:#23C2E7;" d="M524.5,135.6c0-1.7,1-4,1.6-4.5c0.3-0.3,1-0.7,1.7-0.9
			c0.7-0.3,1.4-0.5,2.1-0.5c1.7,0,2.9,0.7,2.9,2.8c0,1.2-0.3,4.1-2.2,5.2c-0.3,0.2-0.9,0.5-1.7,0.9c-0.3,0.2-0.9,0.3-1.6,0.3
			C525.6,138.9,524.5,137.8,524.5,135.6L524.5,135.6z M528.7,137.8c0.3,0,0.7-0.2,0.9-0.3c0.5-0.2,1.2-2.9,1.2-4.3
			c0-2.2-0.9-2.6-2.1-2.6c-0.5,0-0.7,0-0.9,0.5c-0.7,0.9-1.2,3.1-1.2,4.1C526.6,137.3,527.8,137.8,528.7,137.8L528.7,137.8z"/>
		<path style="fill-rule:evenodd;clip-rule:evenodd;fill:#23C2E7;" d="M537.8,130.6c-0.2,1.6-1.7,9.8-2.2,11.6
			c-1,0.3-1.6,0.5-2.6,1.2c1.2-3.6,2.4-9.8,2.9-12.8c-0.3,0-0.9,0.2-1.6,0.2c0.3-0.3,0.3-0.5,0.5-0.9c0.2,0,0.3,0,0.5,0
			c0.3,0,0.5,0,0.7,0c0-0.7,0.2-2.1,0.5-2.9c0.7-0.2,2.1-1.2,2.9-1.6c0.5-0.2,0.7-0.3,1.2-0.3c0,0,0.2,0,0.3,0
			c-0.3,0.7-0.5,1-0.7,1.9c-0.5-0.2-0.9-0.3-1.6-0.5c-0.3,1-0.7,2.6-0.9,3.4c0.9,0,1.4,0,1.9,0c-0.3,0.2-0.3,0.5-0.5,0.9
			c-0.3,0-0.7-0.2-1.2-0.2H537.8L537.8,130.6z"/>
		<path style="fill-rule:evenodd;clip-rule:evenodd;fill:#23C2E7;" d="M556.3,130.2c0-0.2,0-0.3,0-0.5c0-1.4-2.4-2.1-4.1-2.1
			c-1.2,0-1.7,0.2-2.2,0.5c-1.4,1-2.1,3.4-2.1,5.2c0,3.6,2.1,4.8,4.1,4.8c0.7,0,1.2,0,1.7-0.2c0.2-0.5,0.5-3.1,0.5-4
			c0-0.5-0.2-0.7-0.5-0.9l0,0c0.5,0,1.2,0,1.7,0c0.7,0,1.4,0,1.9,0l0,0c-0.3,0.2-0.7,0.2-0.9,0.9c-0.2,0.9-0.5,3.4-0.5,4.3
			c0,0-3.3,0.5-4.8,0.5c-3.8,0-5.7-1.6-5.7-4.8c0-2.9,1.6-4.8,2.8-5.7c0.5-0.3,1.7-0.9,2.2-1.2c0.5-0.2,1.4-0.5,2.9-0.5
			c1.9,0,3.4,0.3,3.6,0.3c0.3,0,0.5,0,0.7-0.2c-0.5,1.4-0.9,2.1-1,3.4H556.3L556.3,130.2z"/>
		<path style="fill-rule:evenodd;clip-rule:evenodd;fill:#23C2E7;" d="M557.7,135.2c0-1.6,0.9-3.3,1.7-4.1c0.5-0.5,2.8-1.4,3.4-1.4
			c1,0,1.9,0.3,1.9,1.2c0,1.9-3.4,2.9-5,3.6c0,0.7,0,2.6,2.2,2.6c0.9,0,1.6-0.3,1.7-0.5c0,0,0.2,0.2,0.2,0.3c-0.9,0.5-1.7,1-2.6,1.9
			C559.9,138.9,557.7,138.5,557.7,135.2L557.7,135.2z M562.7,131.5c0-0.5-0.3-0.9-1-0.9c-0.2,0-0.7,0-0.9,0.3
			c-0.7,0.9-0.9,2.2-1,2.9C560.9,133.3,562.7,133,562.7,131.5L562.7,131.5z"/>
		<path style="fill-rule:evenodd;clip-rule:evenodd;fill:#23C2E7;" d="M573,138.7c-0.9,0-1.9,0-2.6,0.2c0.2-1.2,1.7-6.7,1.7-7.1
			c0-0.3,0-0.5-0.5-0.5c-0.3,0-1.7,1.6-2.4,2.4c-1.4,1.7-1.2,4.1-1.4,4.8c-0.9,0-1.6,0.2-2.4,0.3c0.5-1.4,1.7-6.4,1.7-8.1
			c0-0.7-0.2-0.7-0.5-0.9l0,0h0.3c0.2,0,0.3,0,0.5,0c1.2,0,1.6,0,2.2-0.2c-0.3,0.9-0.7,2.2-0.9,3.4l0,0c0.9-1.2,2.6-2.8,3.8-3.4
			c0.2,0,0.3,0,0.5,0c0.9,0,1.2,0.5,1.2,1c0,1.2-1.6,5.2-1.6,6.9c0,1,0.7,1,0.7,1l0,0H573L573,138.7z"/>
		<path style="fill-rule:evenodd;clip-rule:evenodd;fill:#23C2E7;" d="M575.9,135.2c0-1.6,0.7-3.3,1.7-4.1c0.3-0.5,2.8-1.4,3.4-1.4
			c0.9,0,1.7,0.3,1.7,1.2c0,1.9-3.3,2.9-4.8,3.6c0,0.7,0,2.6,2.2,2.6c0.7,0,1.4-0.3,1.7-0.5c0,0,0,0.2,0.2,0.3c-1,0.5-1.9,1-2.8,1.9
			C578,138.9,575.9,138.5,575.9,135.2L575.9,135.2z M580.9,131.5c0-0.5-0.3-0.9-1-0.9c-0.3,0-0.7,0-0.9,0.3c-0.9,0.9-0.9,2.2-1,2.9
			C579.2,133.3,580.9,133,580.9,131.5L580.9,131.5z"/>
		<path style="fill-rule:evenodd;clip-rule:evenodd;fill:#23C2E7;" d="M584.7,129.9c0.2,0,0.3,0,0.5,0s0.3,0,0.5,0
			c0.7,0,1.2,0,1.4-0.2c0.3,0,0.7,0,0.7,0c-0.2,0.2-0.5,1.9-0.7,2.2h0.2c0.2-0.3,0.9-1.2,1.6-1.9c0.2-0.2,0.5-0.3,1-0.3
			c0.2,0,0.5,0,0.7,0.2c-0.3,0.7-0.5,1.4-0.9,2.2c-0.2-0.2-0.7-0.2-1-0.2c-0.5,0-1.2,0.3-1.7,0.9c-0.2,0.3-0.9,4.5-0.9,5.7
			c-0.9,0-1.6,0.2-2.6,0.3c0.7-1.4,1.9-6.7,1.9-8.1C585.4,130.1,584.9,130.1,584.7,129.9L584.7,129.9L584.7,129.9z"/>
		<path style="fill-rule:evenodd;clip-rule:evenodd;fill:#23C2E7;" d="M598.3,138.7c-0.5,0-1.4,0.2-2.1,0.2c0-1.2,0.2-2.8,0.5-3.6
			h-0.2c-1.9,2.1-4.5,3.6-4.8,3.6c0,0-1-0.2-1-1.6c0-2.1,0.9-4.7,1.7-5.5c0.3-0.3,1.2-0.9,1.6-1.2c1-0.5,1.6-0.9,2.6-0.9
			c1,0,2.2,0.2,2.8,0.2c0.2,0,0.5,0,0.7-0.2c-0.5,1.4-1.6,4.7-1.6,7.6c0,0.9,0.3,1.2,0.7,1.4l0,0H598.3L598.3,138.7z M593.3,137.1
			c0.5,0,2.6-1.6,3.3-2.9c0.5-0.9,0.7-2.1,0.9-2.9c-0.7-0.3-1.4-0.5-1.9-0.5c-0.5,0-0.9,0.2-1,0.3c-0.9,0.7-1.6,3.6-1.6,5.2
			C593,136.8,593.2,137.1,593.3,137.1L593.3,137.1z"/>
		<path style="fill-rule:evenodd;clip-rule:evenodd;fill:#23C2E7;" d="M603.9,138.7c-0.3,0-1.9,0.2-2.4,0.2c0-2.6,1.9-10.5,1.9-12.6
			c0-0.9-0.3-0.9-0.7-0.9v-0.2h0.7c1.4,0,1.9,0,2.4-0.2c-0.5,1.9-2.1,10.5-2.1,12.1c0,0.9,0,1.4,0.7,1.6l0,0H603.9L603.9,138.7z"/>
		<path style="fill-rule:evenodd;clip-rule:evenodd;fill:#23C2E7;" d="M613.2,131.1c0.2-1.2,0.3-2.4,0.3-2.9c0-0.9-0.2-1.2-0.7-1.2
			v-0.2c0.2,0.2,0.3,0.2,0.7,0.2c0.3,0,0.7,0,1,0c0.5,0,1.4,0,2.1-0.2c0.7,0,1.9-0.2,2.4-0.2c4.3,0,4.7,2.8,4.7,4.3
			c0,4.5-3.8,7.9-8.3,7.9c-0.5,0-1,0-1.4,0c-0.3-0.2-0.9-0.2-1.4-0.2c-0.5,0-1,0-1.6,0l0,0c0.7,0,0.9-0.7,1.2-2.4
			C612.7,134.9,612.8,133.3,613.2,131.1L613.2,131.1z M621.4,131.5c0-2.8-1.6-4-3.6-4c-1,0-1.6,0.2-2.1,0.3
			c-0.3,2.1-1.2,7.4-1.4,9.5c0.5,0.3,1.4,0.5,2.4,0.5c0.9,0,1.7-0.2,2.2-0.5C621.1,135.9,621.4,132.3,621.4,131.5L621.4,131.5z"/>
		<path style="fill-rule:evenodd;clip-rule:evenodd;fill:#23C2E7;" d="M624.7,135.2c0-1.6,0.9-3.3,1.7-4.1c0.5-0.5,2.8-1.4,3.4-1.4
			c1,0,1.9,0.3,1.9,1.2c0,1.9-3.4,2.9-5,3.6c0,0.7,0,2.6,2.2,2.6c0.9,0,1.6-0.3,1.7-0.5c0,0,0.2,0.2,0.2,0.3c-0.9,0.5-1.7,1-2.6,1.9
			C627,138.9,624.7,138.5,624.7,135.2L624.7,135.2z M629.7,131.5c0-0.5-0.3-0.9-1-0.9c-0.2,0-0.7,0-0.9,0.3c-0.7,0.9-0.9,2.2-1,2.9
			C628,133.3,629.7,133,629.7,131.5L629.7,131.5z"/>
		<path style="fill-rule:evenodd;clip-rule:evenodd;fill:#23C2E7;" d="M639.9,138.7c-0.7,0-1.7,0-2.4,0.2c0.2-1.2,1.7-6.7,1.7-7.1
			c0-0.3,0-0.5-0.5-0.5c-0.3,0-1.7,1.6-2.4,2.4c-1.4,1.7-1.2,4.1-1.4,4.8c-0.9,0-1.6,0.2-2.4,0.3c0.5-1.4,1.7-6.4,1.7-8.1
			c0-0.7-0.2-0.7-0.5-0.9l0,0h0.3c0.2,0,0.3,0,0.5,0c1.2,0,1.6,0,2.2-0.2c-0.3,0.9-0.7,2.2-0.9,3.4l0,0c0.9-1.2,2.6-2.8,3.8-3.4
			c0.2,0,0.3,0,0.5,0c0.9,0,1.2,0.5,1.2,1c0,1.2-1.6,5.2-1.6,6.9c0,1,0.7,1,0.7,1l0,0H639.9L639.9,138.7z"/>
		<path style="fill-rule:evenodd;clip-rule:evenodd;fill:#23C2E7;" d="M646.4,130.6c0,0.5-0.9,4.3-0.9,5.9c0,0.5,0.2,1,0.7,1
			c0.3,0,0.5-0.2,0.7-0.2c0,0.2,0,0.3,0.2,0.3c-1.2,0.3-1.9,0.7-2.9,1.2c-0.3-0.2-0.9-0.7-0.9-1.7c0-1,0.7-3.8,1-5.9
			c0-0.2,0.2-0.3,0.2-0.7c-0.3,0.2-0.9,0.2-1.4,0.2c0.2-0.3,0.2-0.5,0.3-0.9c0.2,0,0.3,0,0.7,0c0.2,0,0.3,0,0.5,0
			c0-0.3,0.3-2.1,0.3-2.2c0.9,0,1.6-0.2,2.2-0.5c-0.2,0.7-0.5,2.2-0.7,2.8c0.9,0,1.4,0,1.9,0c-0.2,0.3-0.3,0.5-0.5,0.9
			c-0.3,0-0.7-0.2-1-0.2H646.4L646.4,130.6z"/>
		<path style="fill-rule:evenodd;clip-rule:evenodd;fill:#23C2E7;" d="M650.2,127.5c0.7-0.5,1-0.9,1.6-1.4c0.3,0.7,0.7,1,1.4,1.6
			c-0.5,0.3-1,0.9-1.6,1.2C651.1,128.3,650.8,127.8,650.2,127.5L650.2,127.5z M651.4,138.7c-1.4,0-1.7,0.2-2.6,0.2
			c0,0,0.2-1.4,0.3-2.8c0.3-2.4,1-4.7,1-5.3c0-0.5-0.3-0.7-0.7-0.9l0,0h0.3c0.2,0,0.3,0,0.5,0c0.9,0,1.7,0,2.2-0.2
			c-0.3,1.2-1.6,5.3-1.6,7.4c0,1.4,0.7,1.4,0.9,1.6l0,0H651.4L651.4,138.7z"/>
		<path style="fill-rule:evenodd;clip-rule:evenodd;fill:#23C2E7;" d="M659.9,132.3c-0.2-0.9-1.2-1.7-2.6-1.7c-0.2,0-0.3,0-0.5,0.2
			c-0.2,0.2-0.2,0.7-0.2,0.9c0,1.9,3.6,2.1,3.6,4.3c0,1-0.5,1.7-1.6,2.2c-0.3,0.2-1.4,0.7-2.9,0.7c-1.2,0-2.1-0.3-2.6-0.7
			c0.5-0.7,0.9-1.2,1-2.2l0,0c0.2,1,1.2,2.1,2.8,2.1c0.3,0,1-0.2,1-0.3c0.3-0.2,0.3-0.3,0.3-0.7c0-2.1-3.8-2.2-3.8-4.5
			c0-1,0.9-1.7,2.1-2.2c0.9-0.3,1.4-0.5,1.9-0.5c1.2,0,2.1,0.3,2.2,0.5c-0.3,0.7-0.7,1.2-0.7,2.1H659.9L659.9,132.3z"/>
		<path style="fill-rule:evenodd;clip-rule:evenodd;fill:#23C2E7;" d="M665.4,130.6c-0.2,0.5-1,4.3-1,5.9c0,0.5,0.2,1,0.9,1
			c0.3,0,0.5-0.2,0.7-0.2c0,0.2,0,0.3,0,0.3c-1,0.3-1.9,0.7-2.8,1.2c-0.3-0.2-0.9-0.7-0.9-1.7c0-1,0.7-3.8,1-5.9
			c0-0.2,0-0.3,0.2-0.7c-0.3,0.2-1,0.2-1.6,0.2c0.2-0.3,0.3-0.5,0.5-0.9c0.2,0,0.3,0,0.5,0c0.2,0,0.3,0,0.5,0
			c0.2-0.3,0.3-2.1,0.3-2.2c1,0,1.6-0.2,2.4-0.5c-0.2,0.7-0.5,2.2-0.7,2.8c0.9,0,1.4,0,1.9,0c-0.3,0.3-0.3,0.5-0.5,0.9
			c-0.3,0-0.7-0.2-1.2-0.2H665.4L665.4,130.6z"/>
		<path style="fill-rule:evenodd;clip-rule:evenodd;fill:#23C2E7;" d="M668.5,129.9c0.2,0,0.3,0,0.5,0c0.2,0,0.3,0,0.5,0
			c0.7,0,1.2,0,1.6-0.2c0.3,0,0.5,0,0.5,0c-0.2,0.2-0.5,1.9-0.5,2.2l0,0c0.2-0.3,0.9-1.2,1.6-1.9c0.2-0.2,0.5-0.3,1-0.3
			c0.3,0,0.5,0,0.9,0.2c-0.5,0.7-0.7,1.4-0.9,2.2c-0.3-0.2-0.7-0.2-1-0.2c-0.7,0-1.4,0.3-1.7,0.9c-0.3,0.3-0.9,4.5-1,5.7
			c-0.9,0-1.6,0.2-2.6,0.3c0.7-1.4,1.9-6.7,1.9-8.1C669.2,130.1,668.7,130.1,668.5,129.9L668.5,129.9L668.5,129.9z"/>
		<path style="fill-rule:evenodd;clip-rule:evenodd;fill:#23C2E7;" d="M681.5,129.9c0.2,0,0.2,0,0.3,0c0.2,0,0.3,0,0.7,0
			c1,0,1.4,0,1.9-0.2c-0.3,0.7-1.9,3.4-3.8,6.4c-2.6,4-4.5,7.2-7.8,7.2c0.2-0.7,0.3-1.6,0.3-2.2c0.3,0,0.7,0.2,1,0.2
			c1.9,0,3.3-1.6,3.8-2.4h-0.5c-0.2-1.2-0.7-4.1-1.2-6.6c-0.3-1.7-0.3-2.2-0.9-2.4l0,0c0,0,0.2,0,0.3,0c0.2,0,0.3,0,0.5,0
			c0.9,0,1.4,0,1.9-0.2c0,1.6,0.9,6.4,1,7.6c0.9-1.4,2.8-5.7,2.8-6.9C682,130.1,681.8,130.1,681.5,129.9L681.5,129.9L681.5,129.9z"
			/>
	</g>
	<g>
		<path style="fill:#23C2E7;" d="M914.9,1.1c0.7,0,1.3,0,2,0c6.6,0,13.2,0.1,19.8,0c3.2,0,6.3,0.5,9.3,1.6c1.4,0.5,3,1.1,4.1,2.3
			c0.6,0.6,1.4,1.1,2,1.7c1.8,1.7,3.2,3.8,4.1,6.1c0.6,1.6,1.1,3.2,1.5,4.8c1.1,4,0.6,8.1,0.7,12.1c0.1,4.6-1.2,8.9-3.5,12.9
			c-0.5,0.8-1,1.5-1.5,2.3c-0.4,0.6-0.8,1.2-1.2,1.6c-2.7,2.5-5.8,4.4-9.5,5.3c-2.3,0.5-4.6,0.7-6.9,0.7c-6.3,0-12.6,0-18.9,0
			c-0.6,0-1.3,0-2,0C914.9,35.4,914.9,18.3,914.9,1.1z M925.4,43.2c3.3,0,6.4,0,9.5,0c1.2,0,2.3,0,3.5-0.3c3.1-0.8,5.7-2.3,7.2-5.2
			c1.2-2.3,1.8-4.7,2-7.2c0.1-0.9-0.3-1.9,0.3-2.8c0.2-0.3,0.2-1.1-0.1-1.5c-0.4-0.5-0.3-1-0.3-1.5c0.2-2.5-0.5-4.9-1.2-7.3
			c-0.6-1.9-1.7-3.6-3.2-4.9c-0.8-0.7-1.8-1.2-2.8-1.6c-1.1-0.5-2.4-0.7-3.5-0.8c-3.8-0.2-7.6-0.1-11.5-0.1
			C925.4,21.1,925.4,32.1,925.4,43.2z"/>
		<path style="fill:#23C2E7;" d="M902.1,28.7c-3.6,0-7,0-10.5,0c-2-5.6-4.1-11.2-6.3-17.2c-2.7,7.5-5.3,14.6-7.9,21.8
			c0.4,0,0.8,0.1,1.1,0.1c7.4,0,14.8,0,22.2,0c2,0,3.1,0.9,4,2.5c1.1,1.8,1.5,3.8,2.3,5.7c0.9,2.1,1.7,4.2,2.4,6.4
			c0.4,1.2,1,2.4,1.5,3.7c0.1,0.2,0,0.5,0,0.8c-3.6,0-7.2,0-10.9,0c-1.5-3.2-2.3-6.8-3.6-10.4c-7.2,0-14.5,0-22,0
			c-1.1,3.4-2.3,6.9-3.5,10.4c-3.9,0-7.5,0-11.2,0c0.8-3,2.1-5.7,3.1-8.6c0.7-2.1,1.5-4.2,2.4-6.2c0.7-1.5,1.2-3.1,1.8-4.7
			c0.7-2,1.5-3.9,2.2-5.9c0.7-1.8,1.4-3.6,2-5.4c0.5-1.3,0.9-2.6,1.4-3.9c0.9-2.6,2-5.2,2.9-7.7c1.1-2.9,2.1-5.7,3.3-8.6
			c0-0.1,0.2-0.2,0.3-0.3c3.5,0,7,0,10.6,0c0.6,0.3,1.4,0.6,1.8,1.1c0.6,0.7,1.1,1.6,1.4,2.5c0.4,1.5,1.2,2.9,1.6,4.4
			c0.5,1.7,1.3,3.2,1.9,4.9c0.9,2.4,1.9,4.8,2.8,7.2c0.6,1.6,1.3,3.2,1.9,4.9C901.4,26.9,901.7,27.7,902.1,28.7z"/>
		<path style="fill:#23C2E7;" d="M999.8,28.7c-3.5,0-6.9,0-10.4,0c-2-5.6-4.1-11.3-6.2-17.2c-2.7,7.3-5.3,14.5-8,21.8
			c0.4,0,0.7,0.1,1.1,0.1c7.3,0,14.7,0,22,0c2.7,0,3.7,0.8,4.7,3.4c1,2.4,1.9,4.9,2.9,7.4c0.6,1.4,1,2.8,1.6,4.2
			c0.5,1.3,1,2.7,1.5,4.1c-3.7,0-7.4,0-11.2,0c-1.4-3.3-2.2-7-3.6-10.4c-7.3,0-14.5,0-22,0c-1.2,3.4-2.3,7-3.5,10.5
			c-3.8,0-7.5,0-11.4,0c1.6-3.5,2.9-7.1,4.2-10.7c1.2-3.3,2.5-6.6,3.7-10c0.9-2.5,2-5,2.9-7.5c1.2-3.3,2.7-6.6,3.7-10
			c0.6-2.1,1.6-4.1,2.5-6.2c0.6-1.6,1.2-3.1,1.8-4.7c0.3-0.7,0.5-1.5,0.9-2.3c3.4,0,6.8-0.1,10.2,0.1c1.4,0.1,2.8,1,3.3,2.6
			c1,3.4,2.6,6.6,3.7,9.9c1,3,2.4,5.9,3.4,8.9c0.6,1.9,1.4,3.7,2.2,5.5C999.8,28.3,999.7,28.5,999.8,28.7z"/>
		<path style="fill:#23C2E7;" d="M884,74c-1.6-0.3-2.8,0.3-4.2,0.8c0,3.5,0,7.1,0,10.7c-0.9,0-1.8,0-2.7,0c0,0-0.1-0.1-0.1-0.1
			c0-4.4,0-8.8,0-13.3c0.8,0,1.5,0,2.2,0c0.1,0.2,0.2,0.5,0.3,0.8c1.1-0.8,2.4-1.1,3.6-1.3c1.4-0.2,2.6,0.4,3.4,1.5
			c1.2-0.3,2.1-1.4,3.4-1.2c1.2-1.1,2.4,0.2,3.5,0c2.2,1.4,2.6,3.6,2.6,5.9c0,2.5,0,5,0,7.6c-0.9,0-1.7,0-2.7,0c0-0.4,0-0.9,0-1.4
			c0-2.5,0-5.1,0-7.6c0-1.8-1.5-3-3.2-2.6c-0.6,0.1-1.1,0.5-1.6,0.8c-1,0.5-1,0.5-0.7,1.6c0.1,0.4,0.1,0.9,0.1,1.3
			c0,2.6,0,5.2,0,7.9c-0.9,0.2-1.7,0-2.7,0.1c0-3.4,0-6.7,0-9.8c-0.3-0.5-0.5-0.9-0.8-1.3C884.4,74.4,884.1,74.1,884,74z"/>
		<path style="fill:#23C2E7;" d="M861.3,111.7c-0.1-0.1-0.2-0.2-0.2-0.3c0-6.1,0-12.2,0-18.4c2.3,0,4.5,0,6.8,0
			c0.5,0,0.9,0.3,1.4,0.4c0.5,0.1,1-0.1,1.4,0.4c2.3,0.2,4.4,3,5.1,4.8c0.3,0.7,0.5,1.4,0.5,2.1c0,1.5,0.1,3-0.3,4.5
			c-0.8,2.9-2.5,5.1-5.4,6.1c-0.9,0.3-1.8,0.4-2.8,0.4C865.6,111.7,863.4,111.7,861.3,111.7z M863.4,95.4c0,4.5,0,9,0,13.4
			c0,0.3,0.3,0.7,0.4,1c0.9,0,1.6,0.1,2.4,0c0.7-0.1,1.4-0.3,2.2-0.4c1.5-0.1,3.1-1.2,4-2.6c0.9-1.4,1.1-2.9,1.1-4.6
			c0-2.2-0.6-4-2.3-5.5c-1-0.9-2.1-1.3-3.3-1.4C866.5,95.3,865,95.4,863.4,95.4z"/>
		<path style="fill:#23C2E7;" d="M865.8,66.9c1,0,1.7,0,2.7,0c1.4,3,2.3,6.2,3.5,9.4c1.2,3.1,2.3,6.2,3.4,9.3c-0.9,0-1.9,0-2.9,0
			c-0.5-1.5-1-3-1.6-4.6c-2.5,0-4.9,0-7.5,0c-0.5,1.5-1.1,3-1.6,4.5c-0.9,0-1.7,0-2.7,0C861.3,79.3,863.5,73.2,865.8,66.9z
			 M867.1,70c-1,2.8-2,5.6-3,8.5c2.1,0,4,0,6,0C869.1,75.7,868.1,72.9,867.1,70z"/>
		<path style="fill:#23C2E7;" d="M875.1,137.4c-0.8,0-1.5,0-2.2,0c-1.3-1.4-1.1-3.4-2.1-5c-2.4,0-4.8,0-7.3,0
			c-0.6,1.6-1.3,3.2-2,4.9c-0.8,0-1.5,0-2.3,0c-0.5-0.8,0.2-1.5,0.4-2.2c0.8-1.6,1.1-3.3,1.8-4.9c0.8-1.9,1.5-3.8,2.2-5.7
			c0.6-1.7,1.2-3.4,1.8-5.1c0.1-0.2,0.3-0.4,0.5-0.7c0.9,0,1.9,0,3,0c0.3,1.8,1.1,3.5,1.7,5.2c1.2,3.2,2.5,6.4,3.5,9.7
			c0.2,0.7,0.6,1.4,0.9,2.2c0.1,0.2,0.2,0.5,0.2,0.7C875.2,136.8,875.1,137.1,875.1,137.4z M870.2,130.4c-1.1-3-2-5.8-3.1-8.8
			c-1,3-2,5.8-3,8.6c0.2,0.1,0.2,0.2,0.3,0.2C866.3,130.4,868.1,130.4,870.2,130.4z"/>
		<path style="fill:#23C2E7;" d="M880.6,105.8c0,2.4,1.4,3.9,3.5,4c0.8,0,1.7,0,2.3,0c0.8-0.4,1.4-0.6,1.9-0.9
			c0.3,0.2,0.4,0.2,0.5,0.3c0.6,1.6,0.4,2-1.2,2.5c-1.7,0.6-3.5,0.6-5.1,0.3c-1.4-0.3-2.7-1.3-3.5-2.8c-1.3-2.4-1.5-4.7-0.6-7.3
			c0.6-1.6,1.5-2.8,3-3.5c2.7-1.2,4.4-1.1,6.6,0.7c1.2,1,1.6,2.6,1.9,4.1c0.1,0.8,0,1.7,0,2.6C886.8,105.8,883.8,105.8,880.6,105.8z
			 M885.5,100.1c-2.8-0.4-4.6,0.8-4.8,3.4c2.2,0,4.3,0,6.5,0C887.4,101.9,886.4,101,885.5,100.1z"/>
		<path style="fill:#23C2E7;" d="M910.2,79.8c-3.2,0-6.2,0-9.4,0c0.5,1.6,0.7,3.2,2.9,3.8c1.5,0,3.3,0.2,5.1-0.9
			c0.4,0.6,0.7,1.1,1.2,1.8c-2.5,1.5-4.9,2-7.6,1.1c-1.3-0.4-2.3-1.1-2.9-2.4c-0.6-1.2-1.1-2.3-0.9-3.7c0.2-1.2-0.1-2.5,0.3-3.8
			c0.4-1.1,1-1.8,1.8-2.6c0.7-0.8,1.5-1.1,2.6-1.3c1.1-0.2,1.9-0.3,3,0c1.4,0.3,2.3,1.1,3,2.1c0.7,0.9,1.1,2.1,1,3.3
			C910.2,78.1,910.2,78.9,910.2,79.8z M907.8,77.5c-0.2-1.7-0.8-2.7-2.1-3.5c-1.1,0-2.3-0.2-3.3,0.5c-1,0.7-1.2,1.8-1.5,2.9
			c0.1,0,0.2,0.1,0.4,0.1C903.4,77.5,905.6,77.5,907.8,77.5z"/>
		<path style="fill:#23C2E7;" d="M943.3,136.8c-0.6,0.9-1.4,0.5-2.2,0.6c-0.1-0.3-0.3-0.5-0.4-0.9c-1.7,1.4-3.7,0.9-5.5,0.9
			c-0.8,0-1.5-0.7-2-1.5c-0.8-1.2-0.8-2.5-0.7-3.8c0.9-1.5,1.9-2.7,3.8-3.1c0.4-0.1,0.8-0.2,1.3-0.2c1,0,2,0,3.1,0
			c0-0.8,0-1.4,0-2.1c-1.4-1.9-2.8-1.6-4.9-0.9c-0.5,0.2-1,0.5-1.4,0.8c-0.3-0.7-0.6-1.3-1-1.9c1-0.8,2.3-1.4,3.7-1.3
			c1.2,0.1,2.3-0.3,3.6,0.3c1.7,0.8,2.8,1.9,2.9,3.7c0,2.6,0,5.2,0,7.8C943.3,135.8,943.3,136.4,943.3,136.8z M940.6,130.8
			c-0.8,0-1.5,0-2.1,0c-0.8,0.1-1.7,0.1-2.3,0.4c-0.6,0.4-1,1.2-1.5,1.8c0.7,0.8,0.4,2.2,1.3,2.2c2.1,0.4,3.4-0.2,4.7-0.8
			c0-0.9,0-1.8,0-2.7C940.6,131.6,940.6,131.3,940.6,130.8z"/>
		<path style="fill:#23C2E7;" d="M948.4,76.9c0-0.7,0-1.3,0-2c-1.3-1.2-2.8-1.2-4.3-0.7c-0.2,0.1-0.3,0.1-0.5,0.1
			c-1.6,0.5-1.6,0.5-2.6-1c1.4-1.4,3.2-1.6,4.9-1.7c1.8-0.1,2.8,0.5,4.8,2.5c0.9,3.8,0.2,7.6,0.5,11.5c-0.9-0.1-1.7,0.3-2.6-0.3
			c-0.7-0.4-1.4,0.3-2.1,0.5c-1.3,0.3-2.9,0.4-3.8-0.1c-2.6-1.4-3.1-3.5-2.1-5.8c0.6-1.4,1.9-2,3.2-2.3
			C945.2,77.1,946.7,77.1,948.4,76.9z M948.4,79c-0.8,0-1.4-0.1-1.9,0c-0.6,0.1-1.2,0.3-1.8,0.4c-1.3,0.3-2.4,1.7-2.1,2.9
			c0.1,0.3,0.4,0.6,0.6,0.9c0.1,0,0.2,0,0.3,0c0.4,0.2,0.8,0.7,1.2,0.7c0.5,0.1,1-0.2,1.6-0.3c0.7-0.2,1.4-0.3,2.1-0.5
			c0-1.1,0-2.1,0-3.1C948.4,79.8,948.4,79.5,948.4,79z"/>
		<path style="fill:#23C2E7;" d="M907.5,123.4c0.7,0.4,1.4,0.8,2,1.2c1,0.6,1.3,1.7,1.8,2.5c0.3,0.5,0.5,1.1,0.5,1.8
			c-0.1,1,0,2.1,0,3.1c-0.2,2.8-2.3,5.3-5,5.5c-0.4,0-0.9,0.5-1.2,0.3c-1.1-0.4-2.4-0.1-3.3-0.8c-1.2-1-2.5-2.1-2.8-3.7
			c-0.2-0.9-0.6-1.8-0.5-2.7c0.1-0.9,0.2-1.8,0.4-2.7c0.6-2.1,2.2-3.7,4.3-4.3c0.3-0.1,0.6-0.1,0.9-0.1
			C905.6,123.4,906.7,123.4,907.5,123.4z M904.6,135.5c0.2,0,0.5,0,0.7,0c1.8,0,3.1-1.1,3.8-2.7c0.7-1.9,0.3-3.6-0.5-5.3
			c-0.5-1.1-1.4-1.4-2.3-1.9c-0.7-0.4-1.3-0.1-1.9,0.2c-0.2,0.1-0.5,0-0.6,0C900.5,128.4,900.9,133.8,904.6,135.5z"/>
		<path style="fill:#23C2E7;" d="M968.1,123.4c2.9-0.5,5.7,2.3,6,5.5c0.1,1.8,0,3.2-0.4,4.8c-0.4,1.9-2.9,3.6-4.6,3.8
			c-0.8,0.1-1.6,0.1-2.4,0c-2.8-0.3-5-2.6-5.1-5.6c0-0.6,0.1-1.3,0-1.9c-0.2-1.3,0.3-2.4,0.8-3.6c0.8-1.7,2.8-2.9,4.8-2.9
			C967.5,123.4,967.8,123.4,968.1,123.4z M968.7,135.5c0.3-0.1,0.5-0.2,0.7-0.3c1-0.5,1.6-1.2,1.9-2.4c0.5-1.9,0.6-3.2-0.3-5
			c-1.3-2.7-4.5-3-6.3-0.6c-0.4,0.5-0.5,1.2-0.7,1.8c-0.6,1.8-0.2,3.5,0.8,5C965.7,135.2,967.2,135.8,968.7,135.5z"/>
		<path style="fill:#23C2E7;" d="M923.7,103c0.1-1.5,0-1.6-1.2-2.9c-1.9-0.4-3.7,0.1-5.5,0.8c-0.3-0.7-0.5-1.2-0.7-1.7
			c1.2-1.3,2.9-1.2,4.3-1.5c1.5-0.3,3.1,0.3,4.3,1.3c0.8,0.7,1.3,1.8,1.3,3c0,3.2,0,6.4,0,9.6c-0.7,0-1.5,0-2.3,0
			c0-0.2-0.1-0.3-0.1-0.6c-1.4,0.6-2.7,1.2-4.3,1.1c-1.9-0.1-3.2-1.1-3.9-2.9c-0.5-1.3-0.2-2.4,0.3-3.4c0.7-1.4,2-2,3.5-2.2
			C920.9,103.3,922.3,103.2,923.7,103z M923.7,108.9c0-1.2,0-2.4,0-3.7c-1.2-0.4-2.5,0-3.7,0.3c-0.3,0.1-0.7,0.2-1,0.4
			c-0.4,0.3-0.8,0.7-1.1,0.9c0,0.8,0,1.4,0,1.8c0.5,1.2,1.6,1.5,2.4,1.4C921.5,110,922.7,109.9,923.7,108.9z"/>
		<path style="fill:#23C2E7;" d="M954.3,72c0.8,0,1.5,0,2.1,0c0.1,0.3,0.2,0.5,0.3,0.7c2.9-0.9,2.3-1.2,6.4-0.7
			c0.4,0.4,0.9,0.8,1.2,1.2c0.3,0.4,0.7,0.9,0.8,1.4c0.2,1.2,0.4,2.5,0.4,3.7c0.1,2.4,0,4.8,0,7.2c-0.9,0-1.8,0-2.7,0
			c0-2.9,0-5.8,0-8.7c0-0.4,0-0.9-0.1-1.3c-0.4-1-1.1-1.6-2.2-1.6c-0.5,0-0.9,0-1,0c-1,0.4-1.7,0.7-2.4,1c0,3.4,0,7,0,10.6
			c-0.9,0.2-1.8,0-2.7,0.2C954.3,81.1,954.3,76.7,954.3,72z"/>
		<path style="fill:#23C2E7;" d="M985,136.9c0-2.9,0-5.8,0-8.7c0-0.6,0-1.1-0.4-1.6c-0.5-0.7-1.5-1.1-2.4-1
			c-1.1,0.2-2.1,0.6-3.1,1.2c0,3.5,0,7.1,0,10.6c-0.8,0-1.4,0-2.2,0c0-4.5,0-9,0-13.5c0.6,0,1.2,0,1.7,0c0.1,0.2,0.2,0.4,0.3,0.7
			c1.7-1.2,3.6-1.3,5.5-1.1c1.4,0.2,2.3,1.2,2.9,2.4c0.2,0.5,0.4,1,0.4,1.6c0,3.3,0,6.6,0,10.1C986.8,137.3,985.8,137.8,985,136.9z"
			/>
		<path style="fill:#23C2E7;" d="M892.3,98.1c0.8,0,1.5,0,2.2,0c0.1,0.3,0.2,0.5,0.3,0.8c1-0.4,1.9-0.8,2.9-1c2-0.5,4.5,0.6,5.3,2.5
			c0.1,0.2,0.2,0.5,0.2,0.7c0,3.5,0,7,0,10.5c-0.8,0-1.5,0-2.3,0c0-2.8,0-5.5,0-8.3c0-0.4,0-0.9-0.1-1.3c-0.3-0.9-0.4-1.9-1.7-2
			c-1.5-0.2-3,0.3-4.4,1.1c0,3.5,0,7,0,10.5c-0.8,0-1.5,0-2.3,0c0-2.3,0-4.5,0-6.8C892.3,102.7,892.3,100.5,892.3,98.1z"/>
		<path style="fill:#23C2E7;" d="M890.7,126.3c0,0.4,0,0.8,0,1.2c0.4,0.4,0.9,0.9,1.4,1.4c1.7,0.3,3.6,1.5,5.2,3.3
			c0,0.6,0,1.2,0,1.9c0.1,1-0.4,1.8-1.2,2.4c-0.8,0.6-1.6,1-2.6,1.2c-0.9,0.2-1.8,0.3-2.7-0.2c-0.4-0.2-1.1-0.3-1.6-0.3
			c-0.7-0.1-1.1-0.6-1.6-1c0.3-0.5,0.6-1,0.9-1.5c2,0.6,4,1.7,6,0c0-0.5,0-1,0-1.7c-0.3-0.2-0.7-0.6-1.2-0.9
			c-0.8-0.4-1.6-0.8-2.4-1.2c-0.4-0.2-0.9-0.3-1.3-0.6c-0.4-0.3-0.7-0.7-1.1-1.1c-0.1-1.1-1-2.1-0.1-3.3c0.7-1,1.5-1.8,2.6-2.4
			c2.2,0,4.5-0.3,6.3,1.3c-0.3,0.5-0.6,0.9-1,1.4c-0.6-0.1-1.2-0.2-1.8-0.4C892.5,125.1,892.3,125.2,890.7,126.3z"/>
		<path style="fill:#23C2E7;" d="M877.1,128.7c0-1.1,0-2.1,0-3.3c0.2-0.2,0.6-0.4,0.9-0.7c0.5-0.5,1.1-0.8,1.7-1
			c1.3-0.4,4.4-0.3,5.4,0.2c0.4,0.2,0.7,1.2,0.6,1.7c-0.2,0.5-0.9,0.8-1.4,0.5c-0.4-0.2-0.7-0.4-1.2-0.7c-0.7,0-1.5,0-2.3,0
			c-0.4,0.4-0.9,0.9-1.4,1.4c-0.2,0.9,0.5,1.3,1.2,1.7c1,0.5,2,1.1,3.1,1.5c1.1,0.4,1.9,1,2.4,2.5c0,0.2,0,0.7,0,1.2
			c0,2-1.2,3.3-3.2,3.8c-1.1,0.2-2.1,0.3-3.2,0.1c-1.1-0.2-1.9-0.7-3.1-1.1c0.2-0.6,0.4-1.2,0.6-1.8c0.7,0.2,1.5,0.2,2,0.5
			c0.9,0.6,1.8,0.4,2.6,0.2c0.8-0.1,1.6-0.6,1.7-2.2c-0.2-1-1.6-1.6-2.7-2c-1.2-0.3-2-0.9-2.8-1.7
			C877.7,129.3,877.4,129,877.1,128.7z"/>
		<path style="fill:#23C2E7;" d="M938.6,72.7c0,0.6,0,1,0,1.5c-0.4,0.5-0.8,0.7-1.5,0.4c-0.5-0.3-1.1-0.6-1.7-0.6
			c-2-0.2-3.6,0.5-4.4,2.3c-0.1,0.3-0.3,0.6-0.6,1.1c0,0.6,0,1.4,0,2.1c-0.1,2.4,1.9,4.2,4.1,4.2c1,0,1.9-0.3,2.9-0.6
			c0.3-0.1,0.6-0.2,0.8-0.3c0.2,0.1,0.3,0.1,0.4,0.2c0.7,1.6,0.6,1.6-1.1,2.3c-1.9,0.8-3.8,0.9-5.8,0.3c-2.1-0.7-3.9-2.8-4-5.3
			c-0.1-1.5-0.1-3.1,0.6-4.6c1-2.1,2.5-3.2,4.8-3.9C935.3,71.3,936.8,72.1,938.6,72.7z"/>
		<path style="fill:#23C2E7;" d="M914.5,111.6c-1.3,0.7-2.7,0.6-4.1,0.6c-1.9-0.1-2.9-1.2-2.9-2.9c-0.1-2.8,0-5.7,0-8.7
			c-0.7,0-1.5,0-2.3,0c0-0.8,0-1.5,0-2.4c0.7,0,1.4,0,2.2,0c0-1.2,0-2.3,0-3.5c0.8,0,1.5,0,2.4,0c0,1.1,0,2.2,0,3.4
			c1.4,0,2.7,0,4.2,0c0,0.8,0,1.5,0,2.3c-1.3,0-2.6,0-4.2,0c0,2.5-0.1,4.9,0,7.4c0,0.7,0.5,1.3,0.7,2c1.2,0,2.3,0,3.3,0
			C914.1,110.4,914.3,111,914.5,111.6z"/>
		<path style="fill:#23C2E7;" d="M924,134.4c0.3,0.3,0.6,0.6,1.1,1c-0.2,0.3-0.3,0.9-0.6,1c-0.9,0.4-1.6,1.1-2.7,1
			c-0.5-0.1-1,0.3-1.4,0.3c-0.8,0.1-1.7-0.3-2.5-0.5c-2.6-0.8-4.3-3.5-4.3-5.7c0-1.5,0.1-2.8,0.8-4.2c0.7-1.5,1.9-2.6,3.3-3.5
			c0.2-0.2,0.5-0.2,1-0.4c2,0,4.4-0.4,6.3,1.4c-0.4,0.6-0.7,1.1-1.1,1.7c-0.8-0.2-1.5-1.1-2.5-0.8c-0.8-0.9-1.6,0.4-2.6-0.2
			c-0.1,0.2-0.2,0.5-0.4,0.7c-2.7,2.6-2,2.6-2,5.4c0,1.3,0.7,2.4,2,3.1c1.1,0.6,2.2,1.2,3.4,0.4C922.7,135.3,923.4,134.7,924,134.4z
			"/>
		<path style="fill:#23C2E7;" d="M950.3,134.9c1.1,0.7,2.1,0.8,3.1,0.2c1,0.1,0.5,1.4,1.2,1.7c-1.6,0.9-2.2,0.7-5.3,0.6
			c-0.6-0.6-1.1-1.1-1.7-1.7c0-3.2,0-6.5,0-9.9c-0.8,0-1.5,0-2.3,0c0-0.7,0-1.3,0-1.9c0.7-0.4,1.7,0.3,2.3-0.8c0-0.9,0-2,0-3.1
			c0.8,0,1.5,0,2.3,0c0,1.2,0,2.5,0,3.8c1.5,0,2.8,0,4.2,0c0,0.7,0,1.3,0,2c-1.4,0-2.7,0-4.1,0C949.7,129.6,949.8,133.6,950.3,134.9
			z"/>
		<path style="fill:#23C2E7;" d="M929.7,91.5c0.7,0,1.4,0,2.2,0c0,6.7,0,13.4,0,20.2c-0.7,0-1.4,0-2.2,0
			C929.7,105,929.7,98.3,929.7,91.5z"/>
		<path style="fill:#23C2E7;" d="M913,72c0.6,0,1.2,0,1.8,0c0.2,0.3,0.4,0.7,0.6,1.1c1.5-0.8,2.9-1.7,4.7-1.5c0.8,1,0.8,1.3,0,2.3
			c-2-0.3-3.6,0.6-4.9,2.1c0,3.1,0,6.2,0,9.4c-0.7,0-1.5,0-2.3,0C913,81.1,913,76.6,913,72z"/>
		<path style="fill:#23C2E7;" d="M956.2,123.9c0.9,0,1.7,0,2.6,0c0,4.5,0,9,0,13.6c-0.9,0-1.7,0-2.6,0
			C956.2,132.9,956.2,128.4,956.2,123.9z"/>
		<path style="fill:#23C2E7;" d="M927.4,137.4c0-4.5,0-9,0-13.5c0.9,0,1.7,0,2.7,0c0,2.3,0.1,4.6,0,6.9c-0.1,2.2,0.4,4.4-0.3,6.6
			C928.8,137.4,928.1,137.4,927.4,137.4z"/>
		<path style="fill:#23C2E7;" d="M922.7,85.6c0-4.5,0-9,0-13.5c0.7,0,1.4,0,2.2,0c0,0,0,0,0.1,0.1c0,0,0.1,0.1,0.1,0.2
			c0,4.4,0,8.8,0,13.3C924.2,85.6,923.5,85.6,922.7,85.6z"/>
		<path style="fill:#23C2E7;" d="M997.4,123.7c-0.4,0.5-1,1.1-1.4,1.7c-0.5,0.8-1.4,0.9-2.1,1.1c-0.6,0.2-1.4-0.2-2.2-0.3
			c-2.8-2.3-2.4-4.1-1.7-5.5c0.8-1.5,3-2.4,4.8-1.8c0.8,0.3,1.5,0.9,2.1,1.6C997.7,121.4,997.4,122.5,997.4,123.7z M992.2,125.4
			c1.1-0.1,2.3,0.2,3.3-0.7c0.5-0.5,0.9-1,1.1-1.6c0.4-1.3-0.6-2.8-2-3.4c-1.2-0.5-3.2,0.1-3.8,1.2
			C990.2,122.2,989.9,123.3,992.2,125.4z"/>
		<path style="fill:#23C2E7;" d="M956.6,118c0.8,0.1,1.6-0.3,2.2,0.6c0,0.6,0,1.3,0,2.1c-0.7,0.2-1.4,0.4-2.1,0.6
			c-0.4-0.6-0.7-1.1-1-1.7C956,119.1,956.3,118.6,956.6,118z"/>
		<path style="fill:#23C2E7;" d="M927.9,118c0.3,0,0.6,0,1.1,0c0.2,0.3,0.5,0.7,1,1.4c0-0.1,0,0.3,0,0.7c-0.5,0.6-1.1,1.3-2.3,0.9
			c-0.1-0.2-0.4-0.5-0.9-1.2C926.7,119.2,927.2,118.5,927.9,118z"/>
		<path style="fill:#23C2E7;" d="M924.8,69.3c-0.8-0.2-1.8,0.4-2.5-0.6c0-0.5,0-1.1,0-1.6c0.7-1,1.7-0.4,2.5-0.6
			C925.5,67.5,925.5,68.4,924.8,69.3z"/>
		<path style="fill:#23C2E7;" d="M995.5,124.6c-0.3,0-0.6,0-1,0c-0.2-0.5-0.4-1-0.7-1.5c-0.3,0-0.6,0-1,0c0,0.5,0,1,0,1.5
			c-0.3,0-0.5,0-0.7,0c0-1.4,0-2.7,0-4.2c0.6,0,1.3,0,2.2,0c0.2,0.2,0.6,0.6,0.9,0.9C994.7,123.2,994.7,123.2,995.5,124.6z
			 M994.7,121c-1,0.1-1.5,0.1-2.3,0.2c0.5,0.5,0.7,0.8,1.1,1.3C993.9,122,994.2,121.7,994.7,121z"/>
	</g>
	<g>
		<path style="fill:#23C2E7;" d="M133.6,92.6c-4.9,7.3-11.3,13.1-19.1,17.2c-6,3.1-12.3,4.1-18.9,3c-5.2-0.9-9.6-3.1-12.8-7.3
			c-2.2-2.9-3.4-6.2-4-9.7c-0.7-4.3-0.7-8.5,0-12.7c0.2-0.9,0.1-1.9,0.1-2.9c0.3-0.1,0.5-0.1,0.8-0.2c0.1-0.9-0.1-1.9,0.3-2.6
			c1.3-2.5,1.7-5.3,3-7.8c0.4-0.8,1.4-1.3,1.1-2.4c1.8-2.7,3.5-5.4,5.3-8c5.5-8.1,12.5-14.8,20.5-20.5c6.9-5,14.3-9.3,22.2-12.4
			c3.3-1.3,6.7-2.4,10.4-1.1c2.3,0.8,2.9,1.2,4.4,3.4c0.9,3.8-0.6,7-2.7,10c-1.2,1.6-2.7,3-3.6,4.8c-0.8,0.1-1.5,0.2-2.3-0.1
			c0.4-0.7,0.7-1.4,1.3-1.9c1.2-1.3,2.3-2.6,3.4-4c1.3-1.8,2.4-3.6,2.6-5.9c0.2-2.7-1.4-4.6-4.1-4.8c-1-0.1-2.1,0-3.1,0.3
			c-2.5,0.7-4.9,1.8-7.2,3.2c-10.6,6.2-20.3,13.6-28.2,23.1c-4.1,4.9-8,10.1-11.7,15.8c1.3-0.2,2.4-0.3,3.3-0.6
			c8-2.5,15.6-5.9,22.8-10.2c1.6-1,3.4-1.8,4.8-3.2c2.5-1,4.5-3,6.7-4.4c1.2-0.8,2.8-1.3,3.5-2.8c1.6-0.7,2.7-2,3.9-3.3
			c0.8,0,1.6,0,2.3,0.1c0,0.5-0.3,0.7-0.6,1c-1.8,1.9-4.3,3.1-5.8,5.2c-3.6,1.9-6.8,4.5-10.3,6.7c-1.2,0.3-2,1.3-3.1,1.9
			c-6.5,3.7-13.2,7.1-20.3,9.5c-3,1-5.9,2.1-8.9,3.1c-0.7,1.4-1.4,2.8-1.8,4.3c-2.6,5.2-3.1,10.6-2.8,16.3c-1,1.6-0.1,3.2,0,4.8
			c0.6,6.2,4.1,10.2,9.8,12.4c4,1.5,8.1,1.2,12.1,0.4c5.1-1.1,9.7-3.5,13.8-6.6c4-3,7.8-6.4,10.6-10.7c0-0.8,1-0.8,1.1-1.5
			c2.6-3.2,4.1-6.9,5.1-10.7c0.9-3.2,1.4-6.6,0.2-10c-1-2.6-2.5-4.5-5.3-5.3c0-0.6,0-1.1,0-1.7c4.3,1.3,6.6,4.4,7.2,8.6
			c0.6,4.1-0.1,8.1-1.6,12.1c-1,2.6-2.7,4.9-3.6,7.5C134,91.9,133.4,91.9,133.6,92.6z"/>
		<path style="fill:#23C2E7;" d="M60,70.2c-0.6,2.7-1.8,5.2-2.9,7.7c-1.5,3.7-3.1,7.5-4.6,11.2c-0.2,0.5-0.4,1,0,1.6
			c1.5,0.6,3.5,0.1,5.4,1.4c-2.2,0.8-4.1,0.4-6,0.4c-1.9,0.1-3.8,0-5.8,0c-2,0-4,0-6,0c-1.9,0-3.7-0.1-6.1-0.1
			c1.7-1.7,3.4-0.5,4.6-1.2c0-2-6.9-17.7-8.5-19.4c-4.6,0-9.2,0-13.8,0c-0.4,0-0.8,0.4-1.2,0.6c-2.4,5.9-4.8,11.8-7.2,17.6
			c1.3,1.5,2.6,1.8,4,0.8c0.6,0.4,1.2,0.6,1.4,1.2C12.9,92.8,3.1,92.9,0,92.3c0.7-1.2,1.8-1.2,2.9-1.2c1,0,2.1,0.2,3.2-0.2
			c2.8-6.8,5.8-13.6,8.5-20.5c2.1-5.4,4.5-10.6,6.6-16c0.2-0.5,0.4-0.7,1-0.5c0.2,0.9,0,1.8-0.4,2.5c-2.3,4.5-3.7,9.4-5.9,14.1
			c4.7,0,9.3,0,13.8,0c0.1-1.1-0.1-2-0.4-2.7c-1.9-4-3.6-8-5.2-12.1c-0.3-0.8-0.7-1.8-1.9-1.8c-0.4-0.8,0-1.5,0.3-2.3
			c1.4-3.4,2.7-6.7,4.1-10c0.7-0.4,1.3-0.4,2.2-0.1c7,16,14,32.2,21.1,48.5c2.1-0.8,2.2-2.7,2.8-4.1c1.6-4.1,3.4-8.1,5-12.2
			c0.5-1.4,1.1-2.7,1.6-4.1C59.5,69.7,59.9,69.7,60,70.2z"/>
		<path style="fill:#23C2E7;" d="M138.5,44.5c-0.8,0-1.6,0-2.3-0.1c-1.3-0.2-2.5-0.2-3.9,0.1c0,1.1,0,2.1,0,3.1
			c-0.7,1.5-2.4,2-3.5,2.8c-2.2,1.5-4.2,3.4-6.7,4.4c-0.4-3.4,0.2-6.9-0.3-10.4c-2.1-0.3-4,0.2-6.3-0.4c1.9-0.8,15.6-1.2,22.8-0.9
			c0.7,0.3,1.5,0.2,2.3,0.1c6.1,0.1,11.7,2,16.8,5.3c4.7,3.1,7.5,7.5,8.6,13c0.4,2,0.9,4.1,0.9,6.2c-0.1,5.9-1.8,11.3-5.5,15.9
			c-2.1,2.5-4.9,4.3-7.9,5.7c-6.3,3-12.9,3.7-19.8,3.1c-0.2-0.7,0.4-0.7,0.8-0.9c2.6,0,5.2-0.2,7.7-0.8c5.6-1.3,9.2-4.7,11.2-10
			c1.4-3.8,1.8-7.8,2-11.8c0.2-4-0.4-8-1.1-12C152.6,49.1,147.2,44.3,138.5,44.5z"/>
		<path style="fill:#23C2E7;" d="M84,67.2c0.3,1.1-0.8,1.6-1.1,2.4c-1.2,2.5-1.6,5.3-3,7.8c-0.4,0.7-0.2,1.7-0.3,2.6
			c-0.3,0.1-0.6,0.1-0.8,0.2c-1.4-2.3-2.5-4.8-3.4-7.4c0.4-1-1.1-1.1-1-1.9c0.2-0.9-0.6-1.4-0.9-2.1c-1.8-4.3-3.6-8.5-5.4-12.8
			c-0.3-0.8-0.7-1.4-1.7-1.1c-0.9,2.2-1.6,4.5-2.7,6.6c-1,2-1.2,4.5-2.9,6.2c-0.3,0-0.6-0.1-0.9-0.1c0.1-2.2,1.5-3.8,2.3-5.7
			c2.6-6.8,5.5-13.5,8.4-20.2c0.8-0.4,1.5-0.4,2.2,0C76.6,50.2,80.3,58.7,84,67.2z"/>
		<path style="fill:#23C2E7;" d="M60.1,67.5c0.3,0,0.6,0.1,0.9,0.1c0,0.4,0.1,0.7,0.5,0.8c4.3,1,8.5,2.5,13.1,2.3
			c-0.1,0.9,1.4,0.9,1,1.9c-5,0.4-9.8-1-14.5-2.4c-0.3-0.1-0.7-0.1-1-0.1c-0.1-0.5-0.5-0.5-0.9-0.5c-4.2-1.8-8.1-3.9-10.7-7.9
			c-2.8-4.1-3.2-8.4-1.6-12.9c2.2-6.2,7.1-9.5,12.8-11.8c9.6-3.9,19.7-4.8,30-4.1c3.3,0.2,6.5,1.2,9.6,2.3c0.7,0.2,1.5,0.6,1.9,1.4
			c-0.2,0.7-0.6,0.7-1.2,0.6c-2.7-0.5-5.3-1.6-8.1-1.9c-6.8-0.8-13.6-0.9-20.3,0.3c-4.6,0.8-9.2,1.9-13.4,4.1
			c-2.8,1.5-5.3,3.3-7.3,5.7c-4.7,5.9-3.9,14,2.3,18.3C55.2,65.3,57.3,67.1,60.1,67.5z"/>
		<path style="fill:#23C2E7;" d="M203.4,54.9c-1.2-0.2-2.2-0.3-3.3,0.1c-0.9,0.8-1.3,2-1.2,3.2c0,1.7,0,3.5,0,5.2
			c0,0.7,0.1,1.4-0.8,1.7c-1.1-0.1-1-1-1-1.8c0-1.8,0-3.7,0-5.5c0-1.1,0-2.1-0.9-3c-1.1-0.3-2.3-0.3-3.5,0.2c-1.1,1.5-1.1,3.3-1.1,5
			c0,1.2,0,2.4,0,3.7c0,0.9-0.3,1.5-1.8,1.3c-0.1-3.9,0-7.9,0.1-11.9c1.2-0.5,1.3,0.7,1.9,0.7c3.1-1.4,3.2-1.4,6.6,0.1
			c0.9,0.1,1.5-0.5,2.2-0.8c2.6-1,5.1,0.2,5.5,2.9c0.5,2.8,0.2,5.6,0.1,8.3c0,0.3-0.3,0.6-0.8,0.7c-0.8-0.1-0.9-0.7-0.9-1.5
			c0-1.9,0-3.8,0-5.8C204.3,56.9,204.3,55.9,203.4,54.9z"/>
		<path style="fill:#23C2E7;" d="M348.5,55.2c-1.3-0.9-2.6-0.9-3.9-0.1c-2.4,2.9-0.6,6.7-1.4,10c-1.5,0.3-1.6-0.8-1.6-1.7
			c-0.1-1.7,0-3.3,0-5c0-1,0.1-2.1-0.2-3.1c-1.2-1.4-2.5-0.9-3.9-0.3c-2.5,2.9-0.7,6.7-1.5,9.9c-0.5,0.4-0.9,0.3-1.3-0.1
			c-0.2-3.7-0.9-7.6,0-11.3c0.7-0.2,1-0.2,1.3,0c0.2,0.1,0.4,0.3,0.8,0.5c2.1-1.6,4.3-1.4,6.5,0.1c1.7-0.6,3.2-1.8,5-1.2
			c1.1,0.4,1.8,1.2,2.5,2.3c0,3.2,0,6.5,0,9.8c-1.6,0.3-1.7-0.8-1.7-1.7c-0.1-1.7,0-3.3,0-5C348.7,57.4,348.9,56.4,348.5,55.2z"/>
		<path style="fill:#23C2E7;" d="M239.5,79.7c-0.5,2.5-0.2,4.9-0.3,7.4c0,1,0,1.9-1.9,1.9c0-3.9,0-7.8,0-11.5
			c1.1-0.8,1.4,0.2,2.1,0.6c1.2-1.2,2.8-1.3,4.7-1c0.5,0.3,1.2,0.7,1.7,1.1c1.1,0.1,1.6-0.9,2.6-1.1c0.9-0.2,1.9-0.1,2.9,0
			c1.8,0.8,2.4,2.3,2.5,4c0.1,2.1,0,4.2,0,6.3c0,1-0.3,1.7-1.8,1.6c0-3,0-6.1,0-8.8c-1.7-1.9-1.7-1.9-4.1-1.6
			c-1.2,0.6-1.5,1.6-1.5,2.8c0,1.9,0,3.8,0,5.8c0,1-0.1,1.9-1.7,1.7c0-3,0-5.9,0-8.6C243,77.9,242.3,77.8,239.5,79.7z"/>
		<path style="fill:#23C2E7;" d="M296.3,89c0-5.5,0-10.7,0-16.1c2.7-0.2,5.3-0.3,7.9,0c2.5,0.3,5.1,3.4,5.4,6.1
			c0.2,2.2-0.1,4.4-1,6.4c-1.1,2.2-3,3.4-5.4,3.5C300.9,89.1,298.7,89,296.3,89z M306.4,85.8c1.8-3,2.1-6.2,0.2-9.4
			c-1.3-2.1-4.8-2.7-8.5-1.6c0,2-0.1,4.1,0,6.2c0.1,2.1-0.3,4.3,0.3,6.5C301.2,87.6,303.9,88,306.4,85.8z"/>
		<path style="fill:#23C2E7;" d="M211.9,77.5c-0.5,0.5-0.9,0.4-1.5,0.3c-0.8-0.8-1-2.1-2.1-2.9c-3.5-2.5-7.7-0.1-8.7,3.3
			c-1.1,3.6,0.1,6.9,3.4,9.1c1.3,0.3,2.7,0.3,4.3,0c1.6-1,2.7-2.4,3-4.4c0.5-0.4,1-0.5,1.7,0c0.1,3.2-2,4.8-4.5,6.2
			c-3.3,0.6-6.1,0-8.2-2.7c-3-3.9-2.5-10.4,2-13.1C205,71.2,210.9,72.4,211.9,77.5z"/>
		<path style="fill:#23C2E7;" d="M177.8,60.2c-0.7,1.7-1.3,3.3-1.8,4.7c-0.7,0.5-1.2,0.6-1.8,0c0.2-1.8,1.2-3.3,1.8-5
			c1.2-3.1,2.5-6.1,3.7-9.2c0.5-1.3,1.1-2.2,2.8-1.7c2,5.2,4.1,10.5,6.2,15.9c-1.4,0.8-1.9,0.1-2.3-0.8c-0.5-1.2-0.8-2.5-1.7-3.7
			C182.5,60,180.2,60.2,177.8,60.2z M181.2,51c-1,2.7-1.9,5-2.9,7.5c2.1,0,3.9,0,5.8,0C183.3,56,182.6,53.6,181.2,51z"/>
		<path style="fill:#23C2E7;" d="M279.9,48.8c2.1,5.4,4.2,10.7,6.3,16.1c-1.8,0.1-1.8,0.1-4-4.7c-2.2,0-4.5,0-6.7,0
			c-1.5,1.3-0.9,4.2-3.3,5.1c-0.9-1-0.3-1.8-0.1-2.4c1.9-4.1,3.3-8.4,5.1-12.5C277.7,49.4,278.2,48.6,279.9,48.8z M279,51.4
			c-1.4,2.4-2.5,4.6-3.2,7.3c2-0.1,3.9,0.2,5.9-0.2C280.8,56,279.9,53.7,279,51.4z"/>
		<path style="fill:#23C2E7;" d="M309.9,56.6c0.8-1.7,1.9-2.9,3.2-3.4c2.2-0.8,4,0.1,5.8,0.9c0.7-1.8-0.1-3.6,0.6-5.2
			c0.9-0.1,1.2,0.4,1.2,1.1c0,4.8,0,9.6,0,14.4c0,0.4-0.3,0.6-0.6,0.8c-0.7,0.2-0.8-0.5-1.4-0.8c-1.1,0.5-2.3,1.2-3.8,1.2
			c-2.8-0.1-4.7-1.7-5-4.6C309.6,59.5,309.7,58.1,309.9,56.6z M317.7,55.3c-3-2-5.4-0.2-6.1,1.8c-1.1,3.3,0.3,6.2,3.5,7.1
			C319.3,63,320.3,59.8,317.7,55.3z"/>
		<path style="fill:#23C2E7;" d="M210.4,65.2c-2.8-2.4-3.7-5.7-2.5-8.9c1-2.6,3.8-4,6.4-3.2c2.5,0.7,4.2,3.7,3.5,6.6
			c-2.6,1-5.4,0-8.1,0.6c-0.1,2.1,0.4,2.9,1.9,3.5c1.5,0.6,2.8,0.2,3.9-1.1c0.8-0.9,0.8-0.9,2-1.3C217.7,64.6,215.5,65.8,210.4,65.2
			z M209.5,58.5c2.4-0.2,4.6,0.3,6.7-0.3c-0.3-2.7-1.4-3.9-3.4-3.8C210.7,54.4,209.7,55.6,209.5,58.5z"/>
		<path style="fill:#23C2E7;" d="M324.6,62.8c3,1.8,4.3,1.5,6.6-1.5c0.4-0.1,0.9-0.2,1.2,0.2c1,2.3-2.8,4.2-7.2,3.8
			c-3.3-2.5-4.2-5.7-2.5-9.4c0.8-1.9,2.2-2.8,4.2-3c2-0.2,3.6,0.6,4.7,2.3c0.8,1.3,1.6,2.7,0.8,4.5c-2.7,0.6-5.5-0.1-8.3,0.4
			C323.8,61.3,324.5,62,324.6,62.8z M324,58.4c2.5,0,4.8,0.3,7.1-0.1c-0.6-2.4-0.6-2.4-2.4-3.7C325.3,54.3,324.3,55,324,58.4z"/>
		<path style="fill:#23C2E7;" d="M265.5,83.7c-2.8,0-5.4,0-7.9,0c-0.6,2.8-0.1,3.4,3,4.2c2.5,0.6,2.5-2.9,4.8-2.9
			c-0.2,3.6-2,4.7-6.4,4.5c-3.7-1.8-4.2-5-3.6-8.8c2.1-3.6,2.8-4,7.1-3.5C265,78.5,266,80.6,265.5,83.7z M263.9,82.2
			c-0.5-3.2-1.1-3.8-4.1-4c-2.6,1.6-2.6,1.6-2.3,4C259.5,82.2,261.6,82.2,263.9,82.2z"/>
		<path style="fill:#23C2E7;" d="M313,83.8c-0.1,2.9,0.2,3.3,3.3,4.1c2.5,0.6,2.6-2.8,4.8-3c0.1,3.4-1.9,4.8-6.4,4.5
			c-4.1-2.1-4.4-5.3-3.5-8.6c0.8-2.9,2.5-4.5,7-3.7c2.5,1.3,3.5,3.4,3,6.4C318.5,84,315.8,83.5,313,83.8z M312.9,82.3
			c1.5,0,2.9,0,4.4,0c0.8,0,1.6,0.2,2.3-0.3c-0.4-2.9-1.2-3.6-4.2-3.8C314,79,312.7,79.8,312.9,82.3z"/>
		<path style="fill:#23C2E7;" d="M251.9,62.5c0.4,1,1.5,1.3,1.1,2.4c-1.2,1.1-1.9-0.1-2.8-1c-1.7,1.9-3.8,1.7-6,1.4
			c-2.4-1.9-2.6-2.8-1.3-5.5c1.9-1.6,4.4-1.4,6.6-1.8c0.8-0.9,0.4-1.7,0.4-2.5c-0.7-0.8-1.6-0.7-2.3-1.1c-0.8,0.2-1.6,0.5-1.9,0.6
			c-1.1,0.5-1,1.4-1.4,1.9c-0.5,0.3-1,0.3-1.4-0.1c-0.4-0.9,0.5-2.3,1.9-3.1c2.6-1.5,5-0.9,7.2,1.8
			C251.9,57.7,251.9,60.2,251.9,62.5z M243.6,61.9c0.5,1.7,1.7,2.2,3,2.4c1.1-0.3,2.2-0.7,3-1.5c0.7-1.8,0.7-1.8,0.5-3.7
			C247.7,59.8,244.9,59,243.6,61.9z"/>
		<path style="fill:#23C2E7;" d="M298.8,56.8c1.1-4.1,4.3-5,8.4-2.7c0.8,1.3,0.9,2.8,0.8,4.3c0,1.4,0,2.8,0,4.5
			c-0.1,0.6,1.1,0.8,1.1,1.8c-1.3,1.3-2.1,0-3-0.6c-2.4,1.6-2.5,1.6-5.9,1.2c-0.8-0.4-1.4-1-1.9-1.8c-0.3-0.9-0.2-1.9-0.1-2.9
			c1.7-2.7,4.6-2.2,7.1-2.6c0.9-0.8,0.9-1.6,0.5-2.5c-2.6-1.7-3.5-1.5-5.4,0.8C300.2,56.7,300.2,56.7,298.8,56.8z M301.8,64.2
			c1.7,0.1,2.8-0.6,4-1.5c0.2-1.1,1.2-2.1,0.4-3.6c-2.1,0.2-4.3,0.2-6,1.5C299.4,62.6,300.4,63.4,301.8,64.2z"/>
		<path style="fill:#23C2E7;" d="M351.3,89.4c-3.2,0.4-5.6-0.2-6.8-3.2c0.1-0.7,0.3-1.1,1.1-1.2c1,1,1.5,2.8,3.7,2.9
			c0.5-0.1,1.5-0.3,2.3-0.5c1-1,1-1.9,0.2-2.8c-2.2-1.2-5.2-0.7-6.7-3.2c-0.5-1.9,0.3-3.2,1.7-4.2c5.3-0.7,7.1,0.3,6.6,3.7
			c-1,0.1-1.3-0.7-1.7-1.3c-0.9-1.2-2.2-1.3-3.5-1c-1.2,0.2-1.5,1-1.3,2.2c1.7,2,4.7,1.1,6.7,3c0.2,0.5,0.4,1.2,0.6,1.7
			c0.1,1.1-0.4,1.7-0.7,2.5C352.8,88.4,352.1,88.9,351.3,89.4z"/>
		<path style="fill:#23C2E7;" d="M259.8,54.4c-0.8,0.2-1.4,0.4-2.1,0.5c-1.5,1.3-1.6,3.1-1.6,5c0,1.7,0.2,3.5-0.2,5.1
			c-0.7,0.3-1.1,0.2-1.6-0.4c0-3.6,0-7.3,0-10.9c0.9-0.7,1.6-0.1,2.4,0.3c1.4-1,2.9-1.4,4.8-1c2.1,0.9,2.9,2.6,2.9,4.9
			c0,2.3,0,4.5,0,6.5c-0.6,0.8-1,0.9-1.7,0.6c-0.4-2.3-0.2-4.6-0.1-6.9C262.6,56.2,262,54.9,259.8,54.4z"/>
		<path style="fill:#23C2E7;" d="M234.9,81.5c-1.9-1.4-2.5-3.7-4.9-3.1c-0.9,0.2-1.6,0.7-2,1.5c0.4,1.7,1.8,2.1,3.1,2.3
			c1.4,0.2,2.7,0.6,4,1.5c0.2,0.6,0.5,1.4,0.7,1.9c-0.1,2.2-1.5,3-3.1,3.7c-4.2,0.3-5.2-0.2-6.7-3.5c0.1-0.2,0.2-0.4,0.4-0.6
			c0.1-0.1,0.3-0.2,0.6-0.3c1.2,1,1.7,3.1,3.9,3c0.8-0.1,1.7-0.3,2.4-0.7c1.1-1.1,0.4-1.9,0-2.6c-2.3-1.3-5.1-0.8-6.6-3.1
			c-0.3-0.9-0.3-1.6-0.1-2.4c0.4-0.9,1.1-1.4,1.8-1.9c1.4-0.3,2.9-0.3,4.5-0.1C233.9,78.1,235.4,78.9,234.9,81.5z"/>
		<path style="fill:#23C2E7;" d="M330.9,79.5c-3.6-2-5.9-0.8-6.1,2.8c-0.1,1.6,0,3.1,0,4.7c0,0.8,0,1.6-0.8,2c-0.7,0-0.9-0.4-1-0.8
			c-0.4-1.8-0.1-9.5,0.4-10.8c0.8-0.5,1,0.4,1.8,0.7c1.1-0.9,2.6-1.2,4.2-1c1.9,0.2,3.1,1.3,3.2,3.2c0.1,2.9,0,5.7,0,8.6
			c-1.4,0.5-1.8-0.2-1.8-1.2c-0.1-1.4,0-2.8,0-4.2C330.9,82.1,330.9,80.8,330.9,79.5z"/>
		<path style="fill:#23C2E7;" d="M173.4,80.6c2.1-3.4,5.4-4.8,7.9-3.3c2.5,1.5,4,4.8,3,7.7c-1.2,3.3-3.8,5.1-6.7,4.4
			C174.5,88.8,173,85.7,173.4,80.6z M182.8,83.1c0-0.5,0-1.1-0.1-1.6c-0.4-1.7-1.5-2.8-3-3.3c-1.5-0.5-2.7,0.3-3.7,1.4
			c-1.7,2-1.4,5.1-0.1,6.8c1.8,2.3,4.9,1.9,6.3-0.6C182.7,85.1,182.8,84.1,182.8,83.1z"/>
		<path style="fill:#23C2E7;" d="M375.1,86.6c1.6-3.3,1.8-6.7,3.9-9.4c0.1-0.1,0.5,0,0.7,0c0.6,0.6,0.3,1.2,0.1,1.7
			c-1.5,3.9-3,7.8-4.5,11.7c-0.4,1-0.8,2-1.8,2.5c-1.1,0.6-2.1,0.8-2.8-0.6c0.2-0.2,0.3-0.5,0.5-0.6c2.6-0.7,3.3-2,2.3-4.6
			c-1.3-3.2-2.6-6.4-3.8-9.5c0.3-0.9,0.9-0.5,1.5-0.8C372.5,80.1,373.7,83.2,375.1,86.6z"/>
		<path style="fill:#23C2E7;" d="M237.9,53.1c0.6,0.4,1.4,0.9,2,1.3c0.8,1.9,0.8,1.9,0.1,2.9c-1.2-0.2-1.1-1.7-2.1-2.3
			c-1-0.4-2.2-0.3-3.4-0.1c-2.9,2.5-3.1,4.3-1.1,8c2.9,1.7,3.9,1.5,5.8-1.2c0.4-0.5,0.6-1.1,1.4-0.8c0.6,3-2.1,5.4-6.8,4.3
			c-3.3-2.6-4.1-5.2-2.8-8.8C231.8,54.1,234.2,52.3,237.9,53.1z"/>
		<path style="fill:#23C2E7;" d="M355.1,69.4c-1,0-2,0.5-2.5-0.7c0-0.6,0.5-0.6,0.9-0.7c0.4-0.1,0.8-0.3,1.2-0.5
			c0.4-0.8,1.1-1.4,1.3-2.4c-1.2-3.8-3.3-7.5-4.4-11.6c1.6-0.4,1.8,0.4,2.2,1.4c0.9,2.4,1.8,4.8,2.9,7.5c1.9-2.8,2.1-6.1,3.7-8.8
			c0.5-0.3,0.9-0.4,1.5,0.1c-1.7,4.8-3.4,9.6-5.5,14.3C356.2,68.5,355.7,69,355.1,69.4z"/>
		<path style="fill:#23C2E7;" d="M279.3,81.1c-0.4,4.9,0.2,5.9,3.8,6.8c1-0.2,1.8-0.7,2.4-1.5c0.5-0.7,0.7-1.6,1.7-1.9
			c1.1,3-1.3,5.1-5.6,4.8c-3.8-2.2-4.4-3.2-4.1-8.1c1.9-4.3,3.6-4.8,8-4.1c1,0.9,2.6,1.7,2.2,3.7c-2.1,0.5-1.8-2.3-3.3-2.3
			C281.2,78.3,281.1,78.4,279.3,81.1z"/>
		<path style="fill:#23C2E7;" d="M221.5,77.1c5.1,3.2,4.9,9.1-0.5,12.3c-1,0.2-2.1,0.1-3.1,0c-5.4-3.1-5.6-9-0.6-12.3
			C218.7,76.9,220.1,76.9,221.5,77.1z M222.1,87c0.6-0.4,0.5-1,0.8-1.5c1.2-1.7,0.7-3.5-0.1-5.2c-0.6-1.3-1.8-2.2-3.3-2.2
			c-1.5,0-2.5,0.8-3.3,2.1c-1.6,2.5-0.6,4.7,0.6,6.7C218.6,88.2,220.3,88.2,222.1,87z"/>
		<path style="fill:#23C2E7;" d="M292.2,54.4c-2.6,0.2-3.5,1.9-3.9,4c-0.3,1.9,0.2,3.7,1.8,4.9c1.4,1.1,3,0.8,4.4-0.2
			c0.9-0.5,0.4-2.7,2.3-2.2c-0.1,2.5-1.2,4-3.2,4.4c-3,0.7-4.7-0.2-6.8-3.6c-0.3-1.7-0.2-3.4,0-5.3c1.4-2.3,3.3-4.1,6.3-3.5
			c2,0.4,3.5,1.5,3.8,3.6c-0.4,0.5-0.8,0.6-1.5,0.4C294.9,55.8,294,54.6,292.2,54.4z"/>
		<path style="fill:#23C2E7;" d="M218.2,97.3c1.7,3.4,1.8,7.2,3.2,10.5c-0.5,0.7-0.9,0.6-1.4,0.5c-1.4-3.2-1.8-3.4-4.5-2.2
			c-0.2,0.6-0.4,1.4-0.6,2c-0.5,0.2-0.9,0.3-1.5-0.2c0.4-1.6,0.7-3.4,1.3-5.1c0.4-1.2,0.7-2.5,1-3.7C215.9,98.1,216.2,97,218.2,97.3
			z M218.4,104c0-1.4-0.1-2.7-1.1-3.9c-1.1,1.2-1.1,2.6-1.1,4C217,104.2,217.6,104.4,218.4,104z"/>
		<path style="fill:#23C2E7;" d="M176.6,105.5c-0.6,1-1.1,1.9-1.6,2.8c-0.5,0.1-0.9,0.1-1.3-0.2c0.8-3.6,1.9-7.1,3-10.6
			c0.8-0.4,1.5-0.3,2.3,0c0.4,3.6,2,7.1,2.5,10.5c-0.7,0.5-1.1,0.3-1.6,0.1c-0.2-0.8-0.5-1.6-0.7-2.4
			C178.5,105.3,177.6,105.5,176.6,105.5z M179.1,103.9c-0.9-1.2-0.2-2.7-1.4-3.9c-0.4,1.2-0.8,2.1-1.1,3.1c-0.1,0.3,0,0.6-0.1,1
			C177.3,104.4,178.1,104.4,179.1,103.9z"/>
		<path style="fill:#23C2E7;" d="M230,108.3c0-3.8,0-7.3,0-10.8c1.9-0.5,3.8-0.3,5.7-0.1c0,0.4,0.1,0.8,0.1,1.1
			c-1.2,0.8-2.6,0-4,0.7c-0.3,0.8-0.4,1.7,0.1,2.5c1.1,0.9,2.6-0.2,3.6,1.1c-1,1.2-2.6,0.1-3.7,1c-0.3,1-0.3,2.1,0,3.1
			c1.2,1.1,3.1-0.2,4.4,1.4C234,108.7,232,108.5,230,108.3z"/>
		<path style="fill:#23C2E7;" d="M191,73.5c-0.5,1.1-1.6,0.4-2.1,1c-0.6,0.6-0.6,1.3-0.5,2c0.5,0.9,1.8,0.1,2.2,1.1
			c-0.2,1.2-1.4,1-2.1,1.5c-0.6,3.3,0.4,6.6-0.6,9.8c0,0.2-0.4,0.2-0.7,0.3c-1.3-1.5-0.5-3.2-0.7-4.7c-0.1-1.6,0-3.3,0-4.4
			c-0.2-1.6-2.1-1-1.7-2.2c0.2-1.1,1.1-0.7,1.5-1.1C187.5,72.6,188.4,72,191,73.5z"/>
		<path style="fill:#23C2E7;" d="M356.2,74.3c0.6-0.5,1.1-0.5,1.5-0.4c0.7,0.9,0,2,0.6,2.9c0.6,0.6,1.8-0.1,2.2,1.1
			c-0.1,1.3-1.5,0.8-2.3,1.3c0,2.6,0,5.2,0,7.5c0.5,1.2,1.9,0.5,2.2,1.5c-0.9,1.4-0.9,1.4-3.1,0.5c-1.9-2.9-0.8-6.2-1.2-9.3
			c-0.3-0.7-1.5-0.7-1.5-1.5c0-1.2,1.1-0.7,1.6-1.5C356.1,75.9,356.2,75,356.2,74.3z"/>
		<path style="fill:#23C2E7;" d="M335,79.2c-0.5-0.9-1.6-0.4-1.9-1.4c0-1.1,1.3-0.5,1.8-1.3c0-0.6,0.1-1.5,0.1-2.2
			c0.6-0.6,1-0.5,1.5-0.2c0.5,0.8,0.1,1.7,0.4,2.6c0.4,0.7,1.3,0.2,1.8,0.7c0.3,0.4,0.2,0.8,0,1.2c-0.5,0.5-1.2,0.2-1.8,0.7
			c0,2.5,0,5.2,0,7.8c0.5,0.8,1.4,0.3,1.9,0.9c0.2,0.4,0.2,0.8-0.1,1.2c-0.8,0.7-2.3,0.1-3.8-1.7C335,84.7,335,81.9,335,79.2z"/>
		<path style="fill:#23C2E7;" d="M184.8,103.2c0,1.8,0,3.3,0,4.7c-0.7,0.7-1.1,0.5-1.7,0c0.2-3.4-0.3-6.9,0.3-10.5
			c1.9-0.5,3.6-0.1,5.2-0.2c0.4,0.6,0.4,1,0.1,1.4c-1.1,0.5-2.4,0-3.6,0.4c-0.5,0.9-0.3,1.8-0.1,2.7c1.2,0.8,2.8-0.3,3.9,0.9
			c-0.4,0.9-1.2,0.6-1.9,0.6C186.4,103.3,185.8,103.2,184.8,103.2z"/>
		<path style="fill:#23C2E7;" d="M269.4,73.8c0.8,1.1,0.1,2.2,0.6,3c0.6,0.6,1.6,0,2.2,0.7c0.3,1.8-1.6,1-2.3,1.9
			c-0.1,2.5-0.1,5.1,0,7.3c0.6,1.2,1.7,0.7,2.3,1.2c0.2,0.3,0.3,0.7,0,1c-1.5,1.2-3.5,0.4-3.8-1.7c-0.2-1.5-0.1-3-0.1-4.4
			c0-1.1,0-2.2,0-3.2c-0.6-0.8-2-0.5-2-1.7c0.1-1.1,1.4-0.4,1.8-1.1C268.8,75.9,267.5,74.2,269.4,73.8z"/>
		<path style="fill:#23C2E7;" d="M225.5,108.1c-0.6,0.3-1,0.3-1.5,0c0-2.9,0-5.9,0-8.3c-0.5-1-0.9-1-1.4-1c-0.3,0-0.7-0.1-0.9-0.1
			c-0.5-0.5-0.4-0.9-0.1-1.4c2.1,0,4.2,0,6.3,0c0.3,0.4,0.3,0.7,0.2,1.1c-0.5,0.8-1.5,0.1-2.3,0.8
			C225.3,102,225.7,105.1,225.5,108.1z"/>
		<path style="fill:#23C2E7;" d="M362.5,77.4c1.2-0.6,1.5,0.5,2.2,0.8c1.1-0.2,2-1.4,3.4-0.9c0.5,0.4,0.4,0.9,0.2,1.5
			c-0.2,0.1-0.4,0.2-0.7,0.3c-2.4,0.5-3.3,1.4-3.4,3.8c-0.1,2,0,4,0,5.7c-0.6,0.8-1.1,0.5-1.7,0.4C362.5,85,362.5,81.1,362.5,77.4z"
			/>
		<path style="fill:#23C2E7;" d="M220.9,65.3c-1-1.5-1.2-7.9-0.5-11.7c1.3-0.6,1,0.7,1.5,1.3c1.1-0.7,2.1-1.8,3.5-1.8
			c0.5,0.2,0.9,0.6,0.7,1.2c0,0.3-0.3,0.4-0.5,0.5c-2.9,0.8-3.6,1.6-3.7,4.5c0,1.4,0,2.8,0,4.2C222,64.2,222,64.9,220.9,65.3z"/>
		<path style="fill:#23C2E7;" d="M202.6,108.4c0.1-3.8-0.1-7.4,0.2-11.3c1.5,0.6,1.5,1.6,1.5,2.7c0,2.3-0.2,4.7,0.2,6.9
			c1.2,1.2,3,0,4.4,1.3C206.7,108.8,204.8,108.4,202.6,108.4z"/>
		<path style="fill:#23C2E7;" d="M192.4,103.6c-0.6,1.5,0.3,3.3-0.6,4.8c-1-1.3-1.2-7.8-0.5-11c2.7-0.4,3.2-0.3,5,0.2
			c-0.4,0.9-0.4,0.9-3.8,1.5c-0.4,1-0.3,1.9,0.5,2.8c1,0.5,2.3-0.1,3.4,0.6C195.4,103.9,193.8,102.8,192.4,103.6z"/>
		<path style="fill:#23C2E7;" d="M342.6,77.2c0,4,0,7.8,0,11.5c-0.5,0.5-0.9,0.5-1.3,0.3c-0.1-0.1-0.3-0.3-0.3-0.4
			c0-3.2-0.1-6.5-0.1-9.7C340.9,77.9,341.1,77.1,342.6,77.2z"/>
		<path style="fill:#23C2E7;" d="M198.7,97.2c0.5,0,0.9,0.1,1.4,0.1c0,3.6,0,7.1,0,10.7c-0.3,0.4-0.7,0.4-1.4,0.3
			C198.7,104.7,198.7,101.1,198.7,97.2z"/>
		<path style="fill:#23C2E7;" d="M211.8,97.5c0,3.6,0,7.1,0,10.6c-0.5,0.4-0.9,0.4-1.5,0.1c0-3.6,0-7.2,0-10.7
			C210.8,97.2,211.1,97.2,211.8,97.5z"/>
		<path style="fill:#23C2E7;" d="M275.6,89.2c-0.8-0.3-1.2-0.4-1.2-0.5c-0.6-3.8-0.1-7.6-0.3-11.2c0.7-0.5,1.2-0.5,1.5-0.3
			C275.6,81.2,275.6,85.1,275.6,89.2z"/>
		<path style="fill:#23C2E7;" d="M228.7,65.1c-0.6,0.2-1,0-1.1-0.3c-0.6-3.3-0.1-6.6-0.3-9.9c0-0.8-0.1-1.6,1.3-1.5
			C228.7,57.4,228.7,61.3,228.7,65.1z"/>
		<path style="fill:#23C2E7;" d="M274.6,75.3c-0.7-0.8-0.4-1.5-0.4-2.1c0.5-0.6,1-0.5,1.6-0.3C276.1,74.1,276.2,75,274.6,75.3z"/>
		<path style="fill:#23C2E7;" d="M342.5,72.8c0.4,0.9,0.4,1.7,0,2.3c-1,0.3-1.5-0.1-1.5-0.9C340.9,73.3,341.3,72.8,342.5,72.8z"/>
		<path style="fill:#23C2E7;" d="M228.5,51.5c-1.5-1.1-1.6-1.7-0.1-2.6C228.9,50.1,228.9,50.1,228.5,51.5z"/>
		<path style="fill:#23C2E7;" d="M132.1,50.7c0.4,3.3,0.1,6.6,0.2,9.9c0,1,0.1,1.9,0.1,2.9c0,0.6,0,1.1,0,1.7
			c-0.1,8.7-0.2,17.3,0,26c-0.1,0.7-1.1,0.8-1.1,1.5c-5.1-0.1-10.3-0.1-15.4-0.4c1.9-1,3.9-0.4,5.7-0.8c0.1-0.2,0.3-0.3,0.3-0.5
			c0.2-8.5,0.2-17.1,0-25.6c0-0.5,0-1,0-1.4c0.3-2.2,0.2-4.4,0.1-6.6C125.3,55.2,128.4,52.6,132.1,50.7z"/>
		<path style="fill:#23C2E7;" d="M87.7,76.2c2.3,5.1,4.6,10.1,6.9,15.3c1.9,0.4,3.9-0.2,5.7,0.7c-5.1,0.5-10.3,0.5-15.4,0.3
			C84.6,86.9,85.2,81.4,87.7,76.2z"/>
		<path style="fill:#23C2E7;" d="M121.7,64c0,0.5,0,1,0,1.4c-6.4,2.3-12.4,5.3-17.2,10.3c-0.8,0.2-1.5,0.4-2.5,0
			C107.8,70.3,114.1,66,121.7,64z"/>
	</g>
	<g>
		<path style="fill:#23C2E7;" d="M1327.9,105.9c-1.1-1.7-2.3-3.5-3.4-5.2c-10.3-16.6-20.7-33.2-31-49.7
			c-7.8-12.6-15.7-25.2-23.5-37.7c-0.4-0.7-0.5-1.1,0-1.8c0.6-0.9,1-1.8,1.4-2.8c0.2,0,0.3,0,0.5,0c0.1,0.2,0.1,0.5,0.2,0.7
			c7,12,13.9,24,20.9,36c8.9,15.3,17.7,30.6,26.6,45.9c2.6,4.4,5.1,8.8,7.7,13.2C1327.5,104.8,1327.7,105.4,1327.9,105.9
			L1327.9,105.9z"/>
		<path style="fill:#23C2E7;" d="M1268.3,115.4c-0.6,0.6-1.1,1.3-1.7,1.8c-5.3,4.4-11.2,7.5-17.8,9.4c-2.7,0.8-5.5,1.3-8.3,1.5
			c-0.2,0-0.3,0.1-0.5,0.2c-2.7,0-5.4,0-8.2,0c-0.8-0.1-1.5-0.3-2.3-0.4c-4.7-0.6-9.3-2-13.6-3.9c-3.9-1.8-7.5-4.1-10.7-6.9
			c-1.8-1.6-3.5-3.4-5.2-5.2c-0.8-0.8-0.8-0.9-0.2-1.9c0.3-0.6,0.6-1.1,0.9-1.7c1.3,1.5,2.6,3,3.9,4.3c6.5,6.4,14,10.7,22.9,12.8
			c4.1,0.9,8.2,1.2,12.4,0.9c8.3-0.6,16.1-3.2,23.2-7.5c1.6-1,3.2-2.1,4.8-3.2C1268,115.5,1268.1,115.5,1268.3,115.4L1268.3,115.4z"
			/>
		<path style="fill:#23C2E7;" d="M1175.3,114c0.2-0.3,0.5-0.6,0.7-1c11.2-18,22.3-36.1,33.5-54.1c0.2-0.3,0.4-0.6,0.5-0.9
			c0.1,0,0.1,0.1,0.1,0.2c-6.3,11.6-12.6,23.2-19,34.8c-3.7,6.8-7.4,13.6-11.1,20.4c-0.4,0.7-0.8,1-1.7,1c-1.1-0.1-2.1,0-3.2,0
			C1175.3,114.2,1175.3,114.1,1175.3,114z"/>
		<path style="fill:#23C2E7;" d="M1468.1,72.5c-1.5,1.7-3.4,2-5.5,1.7c-1-0.2-2.1-0.4-3.2-0.6c0.4-0.8,0.7-1.5,1-2.2
			c1,1.2,3.6,1.7,4.9,1.1c0.2-0.1,0.6-0.5,0.5-0.7c0-0.2-0.4-0.6-0.7-0.6c-0.9-0.1-1.9-0.1-2.8-0.3c-0.5-0.1-1-0.2-1.5-0.4
			c-1.4-0.6-1.5-2.3-0.2-3.2c1.1-0.7,2.3-0.9,3.6-0.8c1.2,0.1,2.4,0.4,3.7,0.6c-0.3,0.6-0.6,1.3-0.9,1.8c-1.1-1.1-2.5-1-3.8-1
			c-0.5,0-1.1,0.1-1.2,1c0.4,0.1,0.8,0.3,1.2,0.3c0.6,0.1,1.2,0,1.8,0.1c1.2,0.1,2.3,0.4,3.1,1.3
			C1468.1,71.3,1468.1,71.9,1468.1,72.5z"/>
		<path style="fill:#23C2E7;" d="M1318.5,107.7c-8.3-13.1-16.6-26.1-24.8-39.2c-9.1-14.3-18.1-28.6-27.2-42.9
			c-0.8-1.2-1.6-2.5-2.4-3.8c0.8-1.3,1.5-2.6,2.3-4.1c0.3,0.4,0.5,0.7,0.7,1c10.3,17.7,20.6,35.4,30.9,53.1
			c6.8,11.7,13.7,23.5,20.5,35.2c0.1,0.1,0.1,0.3,0.2,0.4C1318.6,107.5,1318.5,107.6,1318.5,107.7z"/>
		<path style="fill:#23C2E7;" d="M1314.1,109.3c-8.1-12.6-16.2-25.2-24.3-37.8c-9.6-14.9-19.1-29.8-28.7-44.7
			c-0.1-0.1-0.1-0.2-0.2-0.4c0.8-1.3,1.5-2.6,2.4-4.1c1.1,1.9,2.2,3.7,3.3,5.5c6.8,11.6,13.6,23.2,20.4,34.9
			c8.9,15.3,17.9,30.5,26.8,45.8c0.2,0.3,0.3,0.5,0.4,0.8C1314.3,109.3,1314.2,109.3,1314.1,109.3z"/>
		<path style="fill:#23C2E7;" d="M1323.2,107.7c-4.8-7.8-9.6-15.5-14.4-23.3c-12.1-19.7-24.2-39.3-36.3-59c-1.7-2.7-3.3-5.4-5-8.1
			c-0.3-0.6-0.4-1,0-1.5c0.6-0.9,1.1-1.8,1.7-2.9c0.2,0.3,0.4,0.6,0.6,0.9c10.8,18.9,21.7,37.8,32.5,56.8
			c7,12.2,13.9,24.3,20.9,36.5c0.1,0.2,0.2,0.4,0.3,0.6C1323.3,107.7,1323.3,107.7,1323.2,107.7z"/>
		<path style="fill:#23C2E7;" d="M1262.2,86c-0.3-0.3-0.5-0.6-0.8-1c-10.9-16.3-21.8-32.6-32.7-48.9c-1.8-2.7-3.6-5.5-5.5-8.2
			c0.8-1.3,1.5-2.6,2.3-4.1c0.2,0.4,0.4,0.6,0.6,0.9c11.8,20,23.6,40,35.4,60C1261.8,85.2,1262,85.5,1262.2,86L1262.2,86z"/>
		<path style="fill:#23C2E7;" d="M1227,51.9c-1.7,3.5-3.4,7-5.2,10.5c-6.3,12.7-12.6,25.5-18.9,38.2c-2.2,4.5-4.4,8.9-6.6,13.4
			c-0.1,0.2-0.2,0.4-0.3,0.6c-1.5,0-3,0-4.7,0c0.2-0.3,0.3-0.6,0.4-0.9c10.9-19.4,21.9-38.7,32.8-58.1c0.8-1.3,1.6-2.7,2.3-4
			C1227,51.7,1227,51.8,1227,51.9z"/>
		<path style="fill:#23C2E7;" d="M1186.5,91.9c-1.2-4.4-1.8-8.9-1.6-13.4c0.3-6,1.5-11.7,4-17.2c2.7-6.1,6.5-11.5,11.4-16
			c5.5-5,11.8-8.6,19-10.6c1.6-0.4,3.1-0.7,4.7-1.1c0.4-0.1,0.8-0.1,1.1,0.3c0.4,0.7,0.9,1.4,1.3,2.1c-2.2,0.5-4.4,1-6.5,1.5
			c-6.1,1.7-11.6,4.5-16.5,8.4c-5.6,4.4-9.8,9.8-12.7,16.2c-2,4.3-3.3,8.8-3.9,13.5c-0.5,3.4-0.7,6.9-0.6,10.4
			C1186.1,88,1186.3,89.9,1186.5,91.9z"/>
		<path style="fill:#23C2E7;" d="M1276.2,93.3c0.6-1.7,1.1-3.3,1.6-4.9c0.9-3,1.5-6.1,1.7-9.3c0.1-1.5,0.2-3,0.2-4.5
			c-0.1-7.5-1.9-14.6-5.6-21.2c-2.3-4.1-5.1-7.8-8.5-11c-5-4.8-10.8-8.5-17.2-11.3c-0.2-0.1-0.4-0.2-0.5-0.5
			c1.3,0.4,2.5,0.9,3.8,1.3c5.9,2.2,11.1,5.4,15.7,9.7c6.5,6,10.9,13.3,13.3,21.8c1.5,5.1,2,10.3,1.7,15.6
			c-0.3,4.6-1.2,9.1-2.9,13.4c-0.2,0.4-0.3,0.7-0.8,0.7C1277.9,93.3,1277.1,93.3,1276.2,93.3z"/>
		<path style="fill:#23C2E7;" d="M1331.3,68.3c-1.7,2.7-3.4,5.3-5.1,8.1c-1.7-2.7-3.3-5.4-5.1-8.3c-0.1,0.5-0.1,0.7-0.1,1
			c0,2,0,3.9,0,5.9c0,0.6,0,1.2,0.7,1.5c-1.7,0-3.4,0-5.1,0c0.7-0.7,0.7-0.7,0.7-1.7c0-2.7,0-5.4,0-8.2c0-0.6,0-1.2-0.8-1.5
			c2.6-0.1,5.1-0.1,7.9-0.1c-0.4,0.3-0.5,0.5-0.8,0.7c0.8,1.5,1.7,2.9,2.7,4.6c1.1-1.6,2-3,3.1-4.7c-0.3-0.1-0.6-0.3-0.8-0.4
			c0-0.1,0.1-0.1,0.1-0.2c2.6,0,5.1,0,7.8,0c-0.3,0.3-0.6,0.5-0.7,0.8c-0.1,0.3-0.1,0.7-0.1,1c0,2.6,0,5.2,0,7.8
			c0,0.7-0.2,1.5,0.7,1.9c-1.8,0-3.7,0-5.7,0c1-0.5,0.8-1.3,0.8-2.1c0-2,0-4.1,0-6.1C1331.5,68.3,1331.4,68.3,1331.3,68.3z"/>
		<path style="fill:#23C2E7;" d="M1274.7,93.8c-1,0-1.9,0-3,0c5-12.1,5.4-24.2,0.5-36.2c-4.9-12.1-13.7-20.5-25.6-25.7
			C1270.5,39,1285.9,67.5,1274.7,93.8z"/>
		<path style="fill:#23C2E7;" d="M1229,39.8c-6.4,0.8-12.3,2.6-17.8,5.7c-5.5,3.1-10.1,7.1-14,12c-3.9,5-6.6,10.5-8.2,16.6
			c-1.6,6-1.9,12.1-1.1,18.3c-0.1,0-0.3,0-0.4,0c-0.2-1.5-0.5-3.1-0.7-4.6c-0.2-1.6-0.3-3.2-0.2-4.9c0.1-8.7,2.4-16.8,7-24.2
			c5-8,11.8-14,20.4-17.9c4-1.8,8.1-3,12.4-3.6c0.6-0.1,1.1,0,1.4,0.6C1228.1,38.4,1228.5,39,1229,39.8z"/>
		<path style="fill:#23C2E7;" d="M1268.9,113.5c-1,0.8-1.9,1.6-3,2.4c-5.8,4.3-12.2,7.1-19.3,8.5c-3.9,0.8-8,1-11.9,0.7
			c-9.5-0.8-18.1-4-25.6-10c-2.9-2.3-5.4-4.9-7.6-7.7c-0.3-0.3-0.4-0.6-0.2-1c0.4-0.7,0.8-1.4,1.3-2.3c8,10.4,18.3,16.8,31.2,18.6
			c12.9,1.8,24.5-1.6,35-9.3C1268.8,113.4,1268.8,113.5,1268.9,113.5z"/>
		<path style="fill:#23C2E7;" d="M1213,99.8c2.7-0.2,5.4-0.3,8.1-0.5c3.5-0.2,7.1-0.5,10.6-0.7c2.4-0.2,4.9-0.3,7.3-0.5
			c3.4-0.2,6.8-0.4,10.1-0.7c3.3-0.2,6.7-0.5,10-0.7c3.7-0.2,7.4-0.5,11.1-0.7c3.4-0.2,6.8-0.4,10.1-0.7c0.9-0.1,1.9-0.2,2.8-0.2
			c0.3,0,0.8,0.2,1,0.4c0.7,1.1,1.4,2.3,2.1,3.7c-1.4,0-2.6,0-3.8,0c-3.4,0-6.7,0-10.1,0c-1.6,0-3.2,0.1-4.7,0.1
			c-8.2,0-16.4,0.1-24.6,0.1c-7.1,0-14.3,0.1-21.4,0.2c-2.6,0-5.1,0.1-7.7,0.2c-0.4,0-0.7,0-1.1,0C1212.9,99.9,1213,99.8,1213,99.8z
			"/>
		<path style="fill:#23C2E7;" d="M1262.4,78c-6.2-9.4-12.4-18.8-18.6-28.1c-5.6-8.5-11.3-17.1-16.9-25.6c-0.2-0.3-0.4-0.6-0.6-1
			c0.8-1.3,1.5-2.6,2.4-4.1c0.5,0.9,1,1.6,1.4,2.4c10.8,18.6,21.7,37.2,32.5,55.8c0.1,0.1,0.1,0.2,0.1,0.3
			C1262.6,77.8,1262.5,77.9,1262.4,78z"/>
		<path style="fill:#23C2E7;" d="M1267.1,94c0.7-1.7,1.3-3.3,1.9-5c1.4-3.9,2.2-8,2.5-12.2c0.6-8.6-1.2-16.7-5.2-24.3
			c-4.2-7.9-10.3-14.1-18.2-18.4c-0.4-0.2-0.7-0.5-1-0.8c0-0.1,0.1-0.2,0.1-0.2c0.3,0.1,0.5,0.1,0.8,0.2c4.1,1.9,7.9,4.4,11.3,7.5
			c6.2,5.6,10.4,12.3,13,20.2c1,3.1,1.6,6.3,1.9,9.6c0.3,3,0.3,6-0.1,9c-0.5,4.6-1.8,9.1-3.6,13.3c-0.3,0.7-0.8,1-1.4,1
			C1268.5,94,1267.8,94,1267.1,94z"/>
		<path style="fill:#23C2E7;" d="M1188.7,91.3c-1.2-3.9-0.7-14.5,3.4-23.5c3.5-7.5,8.4-13.7,15.2-18.5c6.7-4.8,14.2-7.5,22.5-8.2
			c0.2,0.2,0.4,0.5,0.5,0.7c0.4,0.6,0.7,1.2,1.1,1.9c-1.3,0.2-2.4,0.3-3.6,0.5c-5.6,0.8-10.8,2.6-15.7,5.4c-4.1,2.3-7.8,5.2-11,8.7
			c-4.7,5.1-8.1,10.9-10.1,17.6c-1,3.3-1.7,6.6-1.9,10.1c-0.1,1.5-0.1,2.9-0.2,4.4C1188.9,90.6,1188.8,90.9,1188.7,91.3z"/>
		<path style="fill:#23C2E7;" d="M1219.8,55.8c-3.6,7.3-7.3,14.6-10.9,21.9c-5.9,11.8-11.8,23.7-17.7,35.5c-0.2,0.4-0.4,0.7-0.6,1.1
			c-1.5,0-3,0-4.7,0c0.2-0.4,0.3-0.7,0.5-0.9c11.1-19.3,22.1-38.5,33.2-57.8C1219.6,55.6,1219.7,55.7,1219.8,55.8z"/>
		<path style="fill:#23C2E7;" d="M1204.7,99.9c0.9,1.2,1.8,2.3,2.6,3.4c4,4.9,8.8,8.8,14.4,11.7c4.5,2.3,9.2,3.9,14.2,4.6
			c3.4,0.5,6.7,0.6,10.1,0.3c3.9-0.3,7.7-1.1,11.3-2.3c3-1,5.9-2.4,8.7-4.1c0.4-0.2,0.8-0.4,1.3-0.5c0.1,0.1,0.1,0.2,0.2,0.3
			c-0.2,0.2-0.4,0.4-0.6,0.5c-5.7,4-11.9,6.5-18.8,7.7c-3.3,0.5-6.5,0.8-9.8,0.6c-8.3-0.5-15.9-3-22.9-7.5c-2.6-1.7-4.9-3.6-7.1-5.8
			c-1.7-1.7-3.1-3.7-4.7-5.5c-0.3-0.4-0.4-0.8-0.1-1.2C1204,101.4,1204.3,100.7,1204.7,99.9z"/>
		<path style="fill:#23C2E7;" d="M1288.8,104.2c-23.6,0.1-46.9,0.1-70.2,0c1.2-0.1,2.5-0.2,3.7-0.3c2-0.1,4-0.2,6-0.3
			c3.1-0.2,6.2-0.4,9.2-0.6c1.2-0.1,2.5-0.2,3.7-0.2c2-0.1,3.9-0.2,5.9-0.3c3-0.2,6.1-0.4,9.1-0.6c1.4-0.1,2.8-0.2,4.2-0.2
			c1.7-0.1,3.5-0.2,5.2-0.3c3.2-0.2,6.3-0.4,9.5-0.6c1.2-0.1,2.4-0.2,3.6-0.2c2.3-0.1,4.5-0.3,6.8-0.4c0.6,0,1.1,0.1,1.5,0.8
			C1287.4,101.9,1288,102.9,1288.8,104.2z"/>
		<path style="fill:#23C2E7;" d="M1234.2,48.2c-0.5,0-0.9,0.1-1.2,0.1c-7.1,0.3-13.7,2.3-19.9,5.8c-4,2.3-7.6,5.1-10.7,8.5
			c-4.6,5-8,10.8-10,17.4c-0.8,2.5-1.3,5.1-1.6,7.7c-0.1,0.6-0.5,1.1-0.8,1.7c-0.1,0-0.2,0-0.3-0.1c0-0.6,0-1.2,0-1.8
			c0.6-8.1,3-15.6,7.6-22.3c5.8-8.5,13.6-14.4,23.5-17.5c3.5-1.1,7.1-1.7,10.7-2c0.7-0.1,1.1,0.1,1.4,0.8
			C1233.4,46.9,1233.7,47.4,1234.2,48.2z"/>
		<path style="fill:#23C2E7;" d="M1205.8,98c0.4-0.8,0.9-1.6,1.4-2.6c0.2,0.3,0.4,0.5,0.6,0.7c2,3.2,4.4,6.1,7.2,8.7
			c5.2,4.8,11.1,8.2,17.9,10.2c4.9,1.4,10,2,15.1,1.7c5.1-0.3,10.1-1.4,14.9-3.5c0.7-0.3,1.4-0.4,2.1,0
			C1244.4,124.7,1218,117.8,1205.8,98z"/>
		<path style="fill:#23C2E7;" d="M1248.5,35.3c1.2,0.8,2.5,1.6,3.7,2.6c4.3,3.3,8,7.2,10.9,11.9c3,4.8,5,10.1,6.1,15.7
			c0.7,3.8,0.9,7.7,0.6,11.5c-0.4,5.7-1.9,11.2-4.5,16.3c-0.3,0.7-0.7,1-1.5,0.9c-0.6-0.1-1.2,0-1.9,0c0.1-0.4,0.2-0.6,0.3-0.9
			c1.9-3.7,3.3-7.6,4.1-11.7c0.8-3.7,1-7.4,0.8-11.1c-0.2-5-1.3-9.8-3.2-14.4c-2.6-6.4-6.4-11.8-11.5-16.4c-0.9-0.9-2-1.7-3-2.4
			C1248.7,36.5,1248.7,36.6,1248.5,35.3z"/>
		<path style="fill:#23C2E7;" d="M1327.4,94.3c0.6-0.4,0.6-0.9,0.6-1.5c0-2.8,0-5.6,0-8.4c0-0.6,0-1.2-0.7-1.6
			c0.2,0,0.3-0.1,0.5-0.1c3.2,0,6.4,0,9.6,0.1c1.3,0,2.6,0.3,3.9,0.7c2.4,0.8,3.8,2.8,3.8,5.1c0,2.4-1.4,4.2-3.8,5.1
			c-0.9,0.3-1.9,0.6-2.9,0.6C1334.7,94.3,1331,94.3,1327.4,94.3z M1332.5,85.4c0,2.2,0,4.2,0,6.3c1.1,0,2,0,3,0c0.4,0,0.8,0,1.2-0.1
			c0.7-0.1,1.4-0.2,2.1-0.5c1-0.4,1.5-1.2,1.5-2.3c0-1.6-0.8-2.8-2.5-3C1336.2,85.5,1334.4,85.5,1332.5,85.4z"/>
		<path style="fill:#23C2E7;" d="M1263.9,73.5c-3-4.8-6-9.6-9-14.4c-8.3-13.3-16.7-26.7-25-40c-0.2-0.3-0.4-0.6-0.6-1
			c0.7-1.2,1.4-2.4,2.1-3.7c2.1,3.8,4.1,7.4,6.2,11.1c8.6,15.4,17.1,30.8,25.7,46.2c0.3,0.6,0.6,1.2,1,1.8
			C1264.1,73.4,1264,73.5,1263.9,73.5z"/>
		<path style="fill:#23C2E7;" d="M1212,61.4c0.9-1.4,1.7-2.9,2.6-4.3c0.1,0.1,0.1,0.1,0.2,0.2c-2.2,4.1-4.3,8.2-6.5,12.3
			c-7.4,14-14.9,28-22.3,42.1c-0.5,0.9-0.9,1.7-1.4,2.6c-1.4,0-2.7,0-4.2,0c1.3-2.1,2.4-4.1,3.6-6.1c9.2-15.4,18.4-30.7,27.7-46.1
			c0-0.1,0.1-0.1,0.1-0.2C1211.9,61.7,1211.9,61.6,1212,61.4z"/>
		<path style="fill:#23C2E7;" d="M1265.1,68.2c-0.2-0.2-0.4-0.4-0.6-0.6c-10.8-17.7-21.6-35.5-32.5-53.2c-0.1-0.2-0.2-0.4-0.4-0.6
			c0.7-1.2,1.4-2.4,2.2-3.7c1.3,2.4,2.5,4.7,3.7,6.9c7.9,14.6,15.7,29.3,23.6,43.9C1262.6,63.3,1263.8,65.8,1265.1,68.2L1265.1,68.2
			z"/>
		<path style="fill:#23C2E7;" d="M1220.5,107.6c3,0,5.9-0.1,8.9-0.2c2.5-0.1,5.1-0.2,7.6-0.2c2.2-0.1,4.4-0.1,6.6-0.2
			c4.2-0.2,8.4-0.3,12.7-0.5c4-0.1,8-0.3,12-0.4c4.5-0.2,9-0.3,13.6-0.5c2.3-0.1,4.6-0.2,6.9-0.4c0.4,0,0.7,0,1,0.4
			c0.6,1,1.2,2,1.8,3.1c-0.6,0.1-1.1,0.2-1.6,0.2c-3.8,0-7.6-0.1-11.4-0.2c-4.2-0.1-8.5-0.1-12.7-0.2c-4.6-0.1-9.2-0.2-13.8-0.2
			c-4.6-0.1-9.1-0.1-13.7-0.2c-5.9-0.1-11.8-0.2-17.7-0.3C1220.4,107.7,1220.5,107.6,1220.5,107.6z"/>
		<path style="fill:#23C2E7;" d="M1226.1,111.1c1.1,0,2.1,0,3.2,0c3.8-0.1,7.5-0.1,11.3-0.2c3.7-0.1,7.5-0.2,11.2-0.3
			c3.3-0.1,6.6-0.1,9.8-0.2c3.1-0.1,6.2-0.2,9.3-0.2c3.2-0.1,6.4-0.1,9.6-0.2c2.5-0.1,4.9-0.1,7.4-0.2c1.1,0,2.1-0.1,3.2-0.2
			c0.5,0,0.9,0.1,1.2,0.6c0.5,1,1.1,2,1.8,3.2c-1,0-1.7,0-2.5,0c-1.5,0-2.9-0.1-4.4-0.2c-3.3-0.1-6.6-0.2-9.9-0.3
			c-4.4-0.1-8.9-0.3-13.3-0.4c-2.7-0.1-5.3-0.2-8-0.2c-2.9-0.1-5.7-0.2-8.6-0.2c-4.4-0.1-8.7-0.3-13.1-0.4c-2.7-0.1-5.3-0.2-8-0.3
			C1226.1,111.2,1226.1,111.1,1226.1,111.1z"/>
		<path style="fill:#23C2E7;" d="M1353.7,98.6c-0.6,0.9-1.2,2-1.9,3.1c-0.7-1.5-2.1-1.5-3.3-1.6c-1.4-0.2-2.9-0.1-4.4,0
			c-0.5,0-1,0.2-1.5,0.5c-0.2,0.1-0.6,0.5-0.5,0.6c0.1,0.3,0.4,0.6,0.7,0.6c0.8,0.2,1.6,0.2,2.4,0.3c1.9,0.2,3.8,0.3,5.7,0.5
			c0.7,0.1,1.4,0.4,2,0.7c1.6,0.9,2,2.9,0.6,4.2c-0.7,0.7-1.7,1.2-2.7,1.6c-1.8,0.6-3.6,0.7-5.5,0.6c-2.3-0.1-4.7-0.3-6.9-0.9
			c-0.4-0.1-0.8,0.1-1.4,0.2c0.8-1.3,1.5-2.5,2.4-3.8c0.4,1.1,1.2,1.4,2,1.6c2.1,0.6,4.3,0.7,6.5,0.5c0.3,0,0.5-0.1,0.8-0.2
			c1-0.2,1.5-0.7,1.4-1.2c0-0.5-0.6-0.9-1.6-1c-1.4-0.1-2.9-0.1-4.3-0.3c-1.3-0.1-2.6-0.4-3.9-0.7c-0.4-0.1-0.8-0.3-1.1-0.5
			c-1.5-0.9-1.7-2.7-0.3-3.8c0.5-0.5,1.2-0.9,1.9-1.1c2.5-0.9,5-0.8,7.6-0.6c1,0.1,2,0.4,3,0.5C1352.1,98.5,1352.9,98.5,1353.7,98.6
			z"/>
		<path style="fill:#23C2E7;" d="M1361.2,83.7c0.8,1.7,2.3,2.6,3.4,3.9c0.1,0,0.2-0.1,0.3-0.1c-0.1-1.2-0.1-2.5-0.2-3.8
			c0.7,0,1.5,0,2.2,0c-0.2,2.5-0.3,4.9,0,7.4c-0.7,0-1.5,0-2.2,0c-0.4-0.5-0.6-1-0.9-1.3c-1.1-1.1-2.2-2.2-3.4-3.4
			c0,1.6,0,3.1,0,4.7c-0.7,0-1.4,0-2.1,0c0-1.2,0-2.4,0-3.7c0-1.2,0.1-2.4-0.1-3.7C1359.1,83.7,1360.2,83.7,1361.2,83.7z"/>
		<path style="fill:#23C2E7;" d="M1360.3,108.1c-0.9-0.3-1.8-0.4-2.7-0.8c-1.5-0.7-2.2-2-2-3.7c0.2-1.5,1.1-2.5,2.4-3
			c1.9-0.7,3.7-0.7,5.4,0.4c2.2,1.5,2.2,4.5,0,6C1362.5,107.7,1361.8,107.9,1360.3,108.1z M1360.3,106.1c0.8,0,1.5-0.1,2-0.8
			c0.7-1.1,0.4-2.4-0.7-3c-1.2-0.7-2.9-0.2-3.5,0.9C1357.4,104.7,1358.4,106.1,1360.3,106.1z"/>
		<path style="fill:#23C2E7;" d="M1354.7,89.1c0,0.7,0,1.4,0,2.1c-2.6,0-5.2,0-7.8,0c0.6-1.3,0.3-2.6,0.3-3.8c0-1.2,0.2-2.5-0.1-3.7
			c2,0,4.2,0,6.3,0c0.4,0,0.9-0.1,1.3-0.1c0,0.6,0,1.3,0,2c-1.7,0-3.3,0-5.1,0c0,0.2,0,0.5-0.1,0.8c1.2,0,2.2,0,3.3,0
			c0,0.6,0,1.3,0,1.8c-1.1,0-2.1,0-3.3,0c0,0.3,0,0.7-0.1,1C1350.9,89.4,1354,89.3,1354.7,89.1z"/>
		<path style="fill:#23C2E7;" d="M1430.2,68.6c0,0.3,0,0.6,0,0.9c1.1-0.1,2.2,0.2,3.3-0.3c0,0.7,0,1.5,0,2c-1.1,0-2.1-0.1-3.3-0.1
			c0,0.5,0,0.8-0.1,1.3c1.8-0.1,3.5,0.2,5.2-0.2c0,0.7,0,1.4,0,2c-1,0-1.9-0.1-2.8-0.1c-1.7,0-3.3,0-4.9,0c0.3-2.4,0.2-4.8,0-7.3
			c2.4-0.2,5.1,0.2,7.6-0.2c0,0.7,0,1.4,0,2C1433.7,68.6,1432,68.6,1430.2,68.6z"/>
		<path style="fill:#23C2E7;" d="M1416.1,73.7c0.4-0.7,0.7-1.4,1-2.1c1.3,1.4,3,1.2,4.7,1.1c0.1,0,0.3-0.1,0.4-0.2
			c0.2-0.2,0.4-0.4,0.4-0.7c0-0.2-0.3-0.4-0.5-0.5c-0.5-0.1-1.1-0.1-1.7-0.2c-0.9-0.1-1.9-0.2-2.8-0.5c-0.7-0.2-1.2-0.7-1.2-1.5
			c0-0.8,0.3-1.5,1-1.9c1.3-0.8,2.8-0.9,4.3-0.6c0.9,0.2,1.8,0.4,2.8,0.6c-0.3,0.5-0.6,1.1-0.9,1.8c-1.2-1.3-2.6-0.9-4-0.9
			c-0.5,0-0.9,0.2-1.1,0.9c0.3,0.1,0.6,0.3,0.9,0.3c0.9,0.1,1.8,0.1,2.7,0.2c0.5,0.1,1,0.2,1.5,0.4c1.5,0.7,1.7,2.4,0.4,3.4
			c-0.8,0.6-1.7,0.9-2.7,1c-1.5,0.1-3,0-4.5-0.5C1416.7,73.8,1416.5,73.8,1416.1,73.7z"/>
		<path style="fill:#23C2E7;" d="M1392.3,102.3c-0.7-0.3-2.8-0.4-5.1-0.2c0,0.3,0,0.6,0,1.1c1.1,0,2.2-0.1,3.3-0.1c0,0.5,0,1.3,0,2
			c-1-0.5-2.1-0.1-3.3-0.3c0,0.5,0,0.8,0,1.3c1.7-0.1,3.4,0.2,5.1-0.3c0,0.7,0,1.5,0,2.1c-0.5-0.1-1-0.2-1.5-0.2c-2,0-4.1,0-6.1,0
			c0.3-1.3,0.2-2.5,0.1-3.7c0-1.2,0.3-2.5-0.4-3.8c2.6,0,5.2,0,7.9,0C1392.3,100.8,1392.3,101.6,1392.3,102.3z"/>
		<path style="fill:#23C2E7;" d="M1401.5,74.3c-1,0-1.9,0-2.7,0c0-1,0.1-2,0.1-3c-1.3,0-2.6,0-3.9,0c0,1,0,2,0,3c-0.8,0-1.7,0-2.5,0
			c0.2-2.5,0.3-4.9-0.1-7.4c0.9,0,1.8,0,2.6,0c0,0.8-0.1,1.7-0.1,2.6c1.3,0,2.5,0,3.8,0c0-0.9,0-1.7,0-2.6c0.8,0,1.7,0,2.7,0
			c-0.5,1.2-0.2,2.5-0.2,3.7C1401.3,71.8,1401,73.1,1401.5,74.3z"/>
		<path style="fill:#23C2E7;" d="M1357.2,67.5c-0.3,0.6-0.6,1.2-0.9,1.9c-1-1.1-2.2-1-3.4-1.1c-0.8,0-1.1,0.2-1.6,0.8
			c0.3,0.5,0.8,0.4,1.3,0.5c1.2,0.1,2.3,0.3,3.5,0.4c1.6,0.2,2.2,2.3,0.7,3.5c-0.8,0.7-1.8,1-2.8,1c-1.2,0-2.5-0.2-3.7-0.3
			c-0.5-0.1-0.9-0.2-1.5-0.3c0.3-0.6,0.6-1.3,1-2.1c1.4,1.4,3.1,1.3,4.7,1.1c0.3,0,0.8-0.4,0.8-0.7c0.1-0.6-0.5-0.7-0.9-0.7
			c-0.9-0.1-1.9-0.2-2.8-0.2c-0.2,0-0.4,0-0.6-0.1c-1.1-0.3-1.8-1-1.9-1.9c-0.1-0.8,0.5-1.5,1.6-2c1.3-0.6,2.7-0.5,4.1-0.3
			C1355.6,67.1,1356.4,67.3,1357.2,67.5z"/>
		<path style="fill:#23C2E7;" d="M1367.9,67.5c-0.3,0.6-0.6,1.2-0.9,1.9c-1.3-1.3-3.8-1.5-5.1-0.3c0.2,0.6,0.7,0.5,1.2,0.6
			c0.9,0.1,1.9,0.1,2.8,0.2c0.3,0,0.7,0.1,1,0.2c1.5,0.6,1.8,2.1,0.7,3.3c-0.8,0.9-2,1.2-3.1,1.2c-1.3,0-2.5-0.2-3.8-0.4
			c-0.4-0.1-0.8-0.2-1.4-0.3c0.3-0.7,0.6-1.3,1-2.1c1.2,1.2,2.7,1.2,4.1,1.2c0.1,0,0.2,0,0.2,0c0.5-0.2,1.1-0.1,1.2-0.8
			c0.1-0.5-0.4-0.7-1.3-0.8c-0.8-0.1-1.6-0.1-2.5-0.2c-0.1,0-0.2,0-0.3,0c-1.2-0.2-2.1-1-2.2-2c0-0.9,0.8-1.8,1.9-2.1
			c1.5-0.4,3-0.3,4.5,0C1366.7,67.2,1367.2,67.3,1367.9,67.5z"/>
		<path style="fill:#23C2E7;" d="M1376.1,100.9c-0.4,0.7-0.8,1.4-1.2,2.2c-1.2-1.4-3.7-1.2-4.6-0.5c-0.6,0.4-1,1-0.8,1.7
			c0.2,0.8,0.8,1.4,1.6,1.5c1.4,0.2,2.8,0.4,3.9-0.9c0.5,0.7,1,1.4,1.4,2.1c-1.7,0.7-3.4,1.1-5.2,0.9c-1.4-0.2-2.8-0.6-3.6-1.9
			c-1.4-2.2-0.3-4.9,2.4-5.6c1.6-0.4,3.1-0.4,4.7,0.1C1375.1,100.7,1375.5,100.8,1376.1,100.9z"/>
		<path style="fill:#23C2E7;" d="M1388.9,69.5c-1.3-1-3.3-1.2-4.6-0.5c-1,0.6-1.2,1.9-0.4,2.7c1.2,1.1,3.8,1,5-0.3
			c0.5,0.7,0.9,1.4,1.5,2.2c-1.1,0.3-2.2,0.6-3.2,0.8c-1.5,0.3-2.9,0-4.3-0.6c-2.5-1.2-2.6-4.6-0.3-6.1c1.7-1.1,3.6-1.2,5.5-0.7
			c0.6,0.2,1.2,0.2,1.9,0.4C1389.7,68,1389.3,68.8,1388.9,69.5z"/>
		<path style="fill:#23C2E7;" d="M1410.9,66.9c0.8,0,1.7,0,2.5,0c0,1.3,0,2.5,0,3.7c0,2.5-0.9,3.5-3.4,3.7c-1,0.1-1.9,0-2.9-0.2
			c-1.4-0.3-2.1-1.3-2.1-2.8c0-1.1,0-2.2,0-3.3c0-0.4-0.1-0.8-0.2-1.2c0.4,0,0.9,0,1.3,0c0.4,0,0.9,0,1.4,0
			c-0.1,0.3-0.2,0.6-0.2,0.8c0,1.1,0,2.1,0,3.2c0,1.1,0.8,1.7,2,1.7c1.3-0.1,1.8-0.6,1.7-1.8c0-0.8,0.1-1.6,0.1-2.4
			C1411.1,67.8,1411,67.4,1410.9,66.9z"/>
		<path style="fill:#23C2E7;" d="M1382.6,83.5c1,0,2.2,0,3.4,0c0.8,2.6,2,5,3.1,7.5c-0.9,0-1.8,0-2.7,0c-0.1-0.4-0.2-0.9-0.3-1.5
			c-1.2,0-2.3,0-3.3,0c-0.7,0-0.9,0.6-0.6,1.5c-0.8,0-1.6,0-2.5,0C1380.7,88.5,1381.6,86.1,1382.6,83.5z M1384.1,84.9
			c-0.4,1.2-0.8,2.1-1.1,3.1c0.9,0,1.6,0,2.5,0C1385,87,1384.6,86,1384.1,84.9z"/>
		<path style="fill:#23C2E7;" d="M1340.7,66.9c1.2,0,2.4,0,3.5,0c0.8,2.6,2,5,3.1,7.5c-0.9,0-1.8,0-2.6,0c-0.1-0.5-0.2-1-0.4-1.5
			c-1.2,0-2.2,0-3.3,0c-0.7,0-0.9,0.6-0.6,1.5c-0.9,0-1.8,0-2.7,0C1338.4,73.6,1340.6,68.1,1340.7,66.9z M1342.4,68.4
			c-0.5,1.2-0.8,2.1-1.2,3.1c0.9,0,1.6,0,2.5,0C1343.2,70.5,1342.8,69.5,1342.4,68.4z"/>
		<path style="fill:#23C2E7;" d="M1379.3,74.3c-0.9,0-1.8,0-2.5,0c-0.2-0.5-0.2-1-0.5-1.4c-0.2-0.2-0.8-0.2-1.2-0.2
			c-0.5,0-0.9,0-1.4,0c-1.3,0-1.5,0.2-1.3,1.5c-0.8,0-1.6,0-2.4,0c0.5-1.2,1-2.4,1.5-3.6c0.5-1.2,0.9-2.4,1.4-3.8c1.1,0,2.4,0,3.5,0
			c0.1,0.5,0.2,1,0.3,1.4C1377.6,70.3,1378.4,72.3,1379.3,74.3z M1373.2,71.5c0.9,0,1.7,0,2.6,0c-0.5-1.1-0.9-2-1.4-3.2
			C1373.9,69.5,1373.6,70.4,1373.2,71.5z"/>
		<path style="fill:#23C2E7;" d="M1443.9,74.2c-0.8,0-1.7,0-2.6,0c0-1.8,0-3.6,0-5.5c-1,0-1.9,0-3,0c0-0.7,0-1.4,0-2.2
			c2.8,0,5.5,0,8.4,0c0,0.7,0,1.5,0,2.2c-1,0-1.9,0-3.1,0C1443.7,70.5,1443.8,72.4,1443.9,74.2z"/>
		<path style="fill:#23C2E7;" d="M1378.3,83.5c0,0.7,0,1.4,0,2.2c-0.9-0.5-1.9-0.2-2.8-0.2c0,1.9,0,3.6,0,5.5c-0.8,0-1.7,0-2.6,0
			c0-1.8,0-3.6,0-5.5c-1-0.1-1.9-0.3-2.9,0.2c0-0.8,0-1.6,0-2.3c1.4,0,2.8,0,4.2,0C1375.5,83.5,1376.8,83.5,1378.3,83.5z"/>
		<path style="fill:#23C2E7;" d="M1454.3,74.2c-0.9,0-1.7,0-2.5,0c0-1.9,0-3.7,0-5.5c-1,0-1.9,0-2.9,0c0-0.7,0-1.5,0-2.1
			c2.8,0,5.5,0.1,8.3-0.1c0,0.6,0,1.4,0,2.1c-1,0-1.9,0-2.9,0C1454.3,70.4,1454.3,72.2,1454.3,74.2z"/>
		<path style="fill:#23C2E7;" d="M1395.3,102.3c0-0.7,0-1.5,0-2.3c0.7,0.3,6.9,0.4,8.3,0.1c0,0.7,0,1.5,0,2.2c-0.9,0-1.9,0-2.8,0
			c-0.3,1.5-0.2,4.7,0.2,5.4c-1,0-1.9,0-2.8,0c0-1.8,0-3.5,0-5.4C1397.2,102.3,1396.3,102.3,1395.3,102.3z"/>
		<path style="fill:#23C2E7;" d="M1399.5,89c0,0.7,0,1.5,0,2c-0.7,0-1.3,0-1.9,0c-2.1,0-4.1,0-6.2,0c0.2-2.5,0.2-5,0.1-7.5
			c0.8,0,1.7,0,2.6,0c0,1.8,0,3.6,0,5.5C1395.8,89,1397.6,89,1399.5,89z"/>
		<path style="fill:#23C2E7;" d="M1411.2,107.7c-0.9,0-1.8,0-2.7,0c0.3-1.4,0.5-2.7-0.6-3.9c-0.9-1-1.7-2.2-2.7-3.5
			c1.1,0,2.2,0,3.2,0c0,1.1,0.9,1.6,1.4,2.5c0.6-0.8,1.5-1.4,1.5-2.5c0.9,0,1.8,0,2.8,0c-0.9,1.2-1.7,2.4-2.6,3.4
			C1410.6,104.9,1411,106.3,1411.2,107.7z"/>
		<path style="fill:#23C2E7;" d="M1378.7,100.3c0.9,0,1.8-0.1,2.7-0.1c-0.5,1-0.5,6.5-0.1,7.5c-0.9,0-1.7,0-2.6,0
			C1378.7,105.3,1378.7,102.9,1378.7,100.3z"/>
		<path style="fill:#23C2E7;" d="M1262.4,78c0.1-0.1,0.2-0.2,0.2-0.2c0.7,1.1,1.3,2.3,2,3.4l0,0c-0.2-0.1-0.4-0.3-0.5-0.5
			C1263.5,79.8,1263,78.9,1262.4,78z"/>
		<path style="fill:#23C2E7;" d="M1263.9,73.5c0.1,0,0.2,0,0.2,0c0.5,0.9,1.1,1.8,1.6,2.7c-0.1,0-0.2,0.1-0.2,0.1
			C1265,75.3,1264.5,74.4,1263.9,73.5z"/>
		<path style="fill:#23C2E7;" d="M1219.8,55.8c-0.1-0.1-0.2-0.2-0.3-0.2c0.5-0.8,1-1.7,1.5-2.5l0.1,0.1
			C1220.7,53.9,1220.2,54.9,1219.8,55.8z"/>
		<path style="fill:#23C2E7;" d="M1318.5,107.7c0.1-0.1,0.1-0.1,0.2-0.2c0.5,0.8,0.9,1.7,1.4,2.5l0,0
			C1319.5,109.2,1319,108.4,1318.5,107.7z"/>
		<path style="fill:#23C2E7;" d="M1328.9,107.2c0.5,0.9,1,1.8,1.5,2.8l0,0c-0.5-0.9-1.1-1.8-1.6-2.7
			C1328.8,107.2,1328.8,107.2,1328.9,107.2z"/>
		<path style="fill:#23C2E7;" d="M1215.2,56.2c0.4-0.7,0.8-1.4,1.2-2.1c0.1,0,0.2,0.1,0.2,0.1c-0.4,0.7-0.8,1.4-1.3,2.2
			C1215.3,56.2,1215.2,56.2,1215.2,56.2z"/>
		<path style="fill:#23C2E7;" d="M1323.2,107.7c0.1,0,0.1,0,0.2,0c0.4,0.7,0.8,1.4,1.1,2l0,0C1324.1,109,1323.6,108.4,1323.2,107.7z
			"/>
		<path style="fill:#23C2E7;" d="M1210.2,58.2c0-0.1-0.1-0.1-0.1-0.2c0.3-0.5,0.6-1,0.9-1.5c0.1,0,0.1,0.1,0.2,0.1
			C1210.8,57.2,1210.5,57.7,1210.2,58.2z"/>
		<path style="fill:#23C2E7;" d="M1328.8,107.3c-0.3-0.4-0.5-0.8-0.8-1.2c0.1,0,0.2,0,0.2,0c0.2,0.4,0.4,0.7,0.7,1.1
			C1328.8,107.2,1328.8,107.2,1328.8,107.3z"/>
		<path style="fill:#23C2E7;" d="M1214.8,57.3c-0.1-0.1-0.1-0.1-0.2-0.2c0.2-0.3,0.4-0.6,0.6-1c0.1,0,0.1,0.1,0.2,0.1
			C1215.1,56.6,1215,57,1214.8,57.3z"/>
		<path style="fill:#23C2E7;" d="M1314.8,110.1c0.2,0.3,0.5,0.6,0.7,0.9c-0.1,0-0.1,0.1-0.2,0.1
			C1315.1,110.9,1314.9,110.5,1314.8,110.1L1314.8,110.1z"/>
		<path style="fill:#23C2E7;" d="M1324.5,109.7c0.2,0.3,0.5,0.6,0.7,0.9c-0.1,0-0.1,0.1-0.2,0.1
			C1324.9,110.4,1324.7,110.1,1324.5,109.7L1324.5,109.7z"/>
		<path style="fill:#23C2E7;" d="M1262.2,85.9c0.2,0.4,0.4,0.7,0.7,1.1l0,0C1262.6,86.7,1262.4,86.3,1262.2,85.9L1262.2,85.9z"/>
		<path style="fill:#23C2E7;" d="M1314.1,109.3c0.1,0,0.1,0,0.2,0c0.2,0.3,0.3,0.6,0.5,0.9l-0.1,0.1
			C1314.5,109.9,1314.3,109.6,1314.1,109.3z"/>
		<path style="fill:#23C2E7;" d="M1227,51.9c0-0.1,0-0.1,0-0.2c0.2-0.3,0.3-0.6,0.5-0.9l0,0C1227.3,51.1,1227.1,51.5,1227,51.9z"/>
		<path style="fill:#23C2E7;" d="M1320.2,110.2c0.1,0.3,0.3,0.6,0.4,0.9l0,0C1320.5,110.8,1320.4,110.5,1320.2,110.2L1320.2,110.2z"
			/>
		<path style="fill:#23C2E7;" d="M1264.6,81.1c0.1,0.2,0.3,0.5,0.4,0.7c-0.1,0-0.1,0.1-0.2,0.1C1264.8,81.7,1264.7,81.4,1264.6,81.1
			L1264.6,81.1z"/>
		<path style="fill:#23C2E7;" d="M1265.1,68.2c0.1,0.3,0.3,0.5,0.4,0.8l0,0C1265.4,68.7,1265.3,68.4,1265.1,68.2L1265.1,68.2z"/>
		<path style="fill:#23C2E7;" d="M1227.9,50.1c-0.2,0.2-0.3,0.5-0.5,0.7l0,0C1227.6,50.5,1227.8,50.3,1227.9,50.1L1227.9,50.1z"/>
		<path style="fill:#23C2E7;" d="M1268.3,115.4c0.2-0.2,0.5-0.3,0.7-0.5l0,0C1268.7,115.1,1268.5,115.2,1268.3,115.4L1268.3,115.4z"
			/>
		<path style="fill:#23C2E7;" d="M1212,61.4c-0.1,0.1-0.2,0.3-0.2,0.4C1211.9,61.7,1211.9,61.6,1212,61.4z"/>
		<path style="fill:#23C2E7;" d="M1265.8,69.4c0.1,0.2,0.1,0.5,0.2,0.7l0,0C1265.9,69.8,1265.9,69.6,1265.8,69.4L1265.8,69.4z"/>
		<path style="fill:#23C2E7;" d="M1227.9,50.1c0-0.1,0-0.2,0.1-0.3c0,0,0.1,0,0.1,0C1228,49.9,1228,50,1227.9,50.1L1227.9,50.1z"/>
		<path style="fill:#23C2E7;" d="M1221,53c0-0.1,0.1-0.2,0.1-0.4c0,0,0.1,0,0.1,0.1C1221.3,52.8,1221.2,52.9,1221,53L1221,53z"/>
		<path style="fill:#23C2E7;" d="M1320.9,111.3c0.1,0.1,0.1,0.2,0.2,0.3c0,0-0.1,0-0.1,0.1C1320.9,111.5,1320.9,111.4,1320.9,111.3
			L1320.9,111.3z"/>
		<path style="fill:#23C2E7;" d="M1247.3,30.7C1247.3,30.7,1247.3,30.7,1247.3,30.7c0,0.1-0.1,0.1-0.1,0.1
			C1247.2,30.7,1247.2,30.7,1247.3,30.7C1247.2,30.6,1247.2,30.6,1247.3,30.7z"/>
		<path style="fill:#23C2E7;" d="M1265.5,69L1265.5,69c0.1,0.1,0.2,0.2,0.3,0.4l0,0C1265.7,69.2,1265.6,69.1,1265.5,69z"/>
		<path style="fill:#23C2E7;" d="M1320.7,111.1c0.1,0.1,0.2,0.2,0.2,0.2l0,0C1320.8,111.2,1320.8,111.2,1320.7,111.1L1320.7,111.1z"
			/>
		<path style="fill:#23C2E7;" d="M1330.4,110C1330.5,110,1330.5,110,1330.4,110C1330.5,110,1330.5,110,1330.4,110L1330.4,110z"/>
		<path style="fill:#23C2E7;" d="M1320,109.9c0.1,0.1,0.1,0.2,0.2,0.2l0,0C1320.1,110.1,1320.1,110,1320,109.9L1320,109.9z"/>
		<path style="fill:#23C2E7;" d="M1262.8,87c0.1,0,0.1,0.1,0.2,0.1c0,0-0.1,0.1-0.1,0.1C1262.9,87.2,1262.9,87.1,1262.8,87
			L1262.8,87z"/>
		<path style="fill:#23C2E7;" d="M1328.2,106.1c-0.1,0-0.2,0-0.2,0c0-0.1-0.1-0.1,0-0.2l0,0C1328,106,1328.1,106,1328.2,106.1z"/>
		<polygon style="fill:#23C2E7;" points="1263.2,87.5 1263.2,87.6 1263.1,87.6 		"/>
		<path style="fill:#23C2E7;" d="M1269,114.9c0-0.1,0.1-0.1,0.1-0.2C1269,114.8,1269,114.9,1269,114.9L1269,114.9z"/>
		<path style="fill:#23C2E7;" d="M1266,70c0.1,0,0.1,0,0.2,0.1C1266.1,70.1,1266.1,70.1,1266,70L1266,70z"/>
	</g>
</g>
</svg>
