<?xml version="1.0" encoding="utf-8"?>
<!-- Generator: Adobe Illustrator 18.0.0, SVG Export Plug-In . SVG Version: 6.00 Build 0)  -->
<svg version="1.1" xmlns="http://www.w3.org/2000/svg" xmlns:xlink="http://www.w3.org/1999/xlink" x="0px" y="0px"
	 viewBox="0 0 669.4 338.8" style="enable-background:new 0 0 669.4 338.8;" xml:space="preserve">
<g id="bg" style="display:none;">
</g>
<g id="Layer_1">
	<g>
		<polygon style="fill-rule:evenodd;clip-rule:evenodd;fill:none;" points="484,-17 672.1,-17 672.1,171.2 484,171.2 484,-17 		"/>
		<path style="fill-rule:evenodd;clip-rule:evenodd;fill:#23C2E7;" d="M565.2,52.6L578,20.2l11.6,29.1l0,0c0,0-0.2,0-0.3,0
			c-8.4,0.2-16.6,1.2-24.1,3.1L565.2,52.6L565.2,52.6z M598.2,49.8L598.2,49.8L578,0l-22.6,55.5C539,61.9,525.8,72.6,518,85.9h10.3
			c11.9-18.4,34.8-31.6,61.9-34c0,0,0.2,0,0.3,0l0,0l0.7,1.6C567,56.7,546.4,69,535.1,85.7h10.7c9.8-14.3,26.4-25.2,46.4-29.8
			l0.7,1.7c-16.9,5.5-30.2,15.7-40.7,28.1h10.5c9-11.9,19.1-20.5,31-25.9l10.3,26h8.8l-11.7-29c5-1.7,10.3-2.9,16-3.6
			C611.1,51.6,604.7,50.3,598.2,49.8L598.2,49.8z"/>
		<path style="fill-rule:evenodd;clip-rule:evenodd;fill:#23C2E7;" d="M497.1,101.7l6,15.9h-5l-1.2-3.8h-5l-1.6,3.8h-3.6l6.4-15.9
			H497.1L497.1,101.7z M496.1,111.2c-0.5-1.9-0.9-3.4-1.6-5.7l0,0c-0.7,2.2-1.2,3.8-1.7,5.7H496.1L496.1,111.2z"/>
		<path style="fill-rule:evenodd;clip-rule:evenodd;fill:#23C2E7;" d="M514.4,116.9c-1.2,0.7-2.4,0.9-3.6,0.9c-4,0-6.7-2.2-6.7-5.7
			c0-3.8,3.1-6.2,7.1-6.2c1,0,2.4,0.3,3.4,1l-1,2.2c-0.7-0.2-1.4-0.3-1.9-0.3c-1.6,0-2.8,0.9-2.8,3.1c0,2.2,1.6,2.9,2.6,2.9
			c0.7,0,1.4-0.2,1.9-0.3L514.4,116.9L514.4,116.9z"/>
		<path style="fill-rule:evenodd;clip-rule:evenodd;fill:#23C2E7;" d="M522.1,116.6c-0.9,0.5-1.9,1.2-2.9,1.2
			c-1.6,0-3.3-1.4-3.3-3.3c0-2.4,1.4-3.6,4.5-4.5l2.6-0.5c-0.3-0.7-1.2-1.2-1.9-1.2c-1.2,0-2.2,0.5-2.9,1.2l-1.4-2.1
			c1.9-1.2,3.6-1.6,5.2-1.6c2.6,0,5.3,0.9,5.3,4.8v4.1c0,0.9,0.2,1.9,0.3,2.8H523c-0.2-0.3-0.2-0.9-0.2-1.4L522.1,116.6L522.1,116.6
			z M521.6,111.6c-0.9,0.3-1.7,1.2-1.7,2.2c0,0.7,0.7,1.4,1.2,1.4c0.9,0,2.1-1,1.9-4.1L521.6,111.6L521.6,111.6z"/>
		<path style="fill-rule:evenodd;clip-rule:evenodd;fill:#23C2E7;" d="M537.7,116.2c-0.7,0.7-1.9,1.6-3.4,1.6c-3.6,0-5-3.1-5-6
			c0-2.2,1.4-5.9,5.2-5.9c1.4,0,2.6,0.7,3.3,1.6l0,0v-6.6h4.5v16.7h-4.5V116.2L537.7,116.2z M533.9,111.9c0,2.1,0.9,3.6,1.9,3.6
			c1.4,0,1.9-1.7,1.9-3.6c0-2.1-0.7-3.6-1.9-3.6C534.7,108.3,533.9,109.7,533.9,111.9L533.9,111.9z"/>
		<path style="fill-rule:evenodd;clip-rule:evenodd;fill:#23C2E7;" d="M549,112.4c0,1.9,1.2,2.6,2.6,2.6c1.2,0,2.2-0.3,2.9-0.7
			l1.2,2.2c-2.1,1-4,1.2-5.3,1.2c-3.3,0-6.2-2.8-6.2-6.2c0-2.8,2.1-5.7,6.4-5.7c3.6,0,5.7,2.6,5.2,6.6H549L549,112.4z M552,110.5
			c0.2-1.9-0.5-2.8-1.6-2.8c-0.9,0-1.6,0.9-1.4,2.8H552L552,110.5z"/>
		<path style="fill-rule:evenodd;clip-rule:evenodd;fill:#23C2E7;" d="M562.3,107.4L562.3,107.4c0.7-0.9,2.2-1.6,4-1.6
			c1,0,2.6,0.3,3.1,1.6c0.7-0.9,2.1-1.6,3.8-1.6c2.9,0,4.3,1.4,4.3,4.3v7.4H573v-7.2c0-0.9-0.5-1.6-1.4-1.6c-1.2,0-1.7,0.7-1.7,2.1
			v6.7h-4.5v-7.2c0-0.7-0.3-1.6-1.4-1.6c-1.2,0-1.7,0.5-1.7,2.1v6.7h-4.5v-11.4h4.5V107.4L562.3,107.4z"/>
		<path style="fill-rule:evenodd;clip-rule:evenodd;fill:#23C2E7;" d="M583.5,106c0.7,2.1,1.4,4.3,1.9,7.1h0.2
			c0.7-2.8,1.6-5,2.2-7.1l3.4,0.5l-5.3,12.4c-1,2.1-2.4,4.1-5.5,4.1h-1.7v-2.8h0.9c1,0,2.4,0,3.3-3.6l-3.8-10.2L583.5,106L583.5,106
			z"/>
		<path style="fill-rule:evenodd;clip-rule:evenodd;fill:#23C2E7;" d="M509.5,135.4c0-1.7,1-4,1.6-4.5c0.3-0.3,1-0.7,1.7-0.9
			c0.7-0.3,1.4-0.5,2.1-0.5c1.7,0,2.9,0.7,2.9,2.8c0,1.2-0.3,4.1-2.2,5.2c-0.3,0.2-0.9,0.5-1.7,0.9c-0.3,0.2-0.9,0.3-1.6,0.3
			C510.6,138.6,509.5,137.6,509.5,135.4L509.5,135.4z M513.7,137.6c0.3,0,0.7-0.2,0.9-0.3c0.5-0.2,1.2-2.9,1.2-4.3
			c0-2.2-0.9-2.6-2.1-2.6c-0.5,0-0.7,0-0.9,0.5c-0.7,0.9-1.2,3.1-1.2,4.1C511.6,137.1,512.8,137.6,513.7,137.6L513.7,137.6z"/>
		<path style="fill-rule:evenodd;clip-rule:evenodd;fill:#23C2E7;" d="M522.8,130.4c-0.2,1.6-1.7,9.8-2.2,11.6
			c-1,0.3-1.6,0.5-2.6,1.2c1.2-3.6,2.4-9.8,2.9-12.8c-0.3,0-0.9,0.2-1.6,0.2c0.3-0.3,0.3-0.5,0.5-0.9c0.2,0,0.3,0,0.5,0
			c0.3,0,0.5,0,0.7,0c0-0.7,0.2-2.1,0.5-2.9c0.7-0.2,2.1-1.2,2.9-1.6c0.5-0.2,0.7-0.3,1.2-0.3c0,0,0.2,0,0.3,0
			c-0.3,0.7-0.5,1-0.7,1.9c-0.5-0.2-0.9-0.3-1.6-0.5c-0.3,1-0.7,2.6-0.9,3.4c0.9,0,1.4,0,1.9,0c-0.3,0.2-0.3,0.5-0.5,0.9
			c-0.3,0-0.7-0.2-1.2-0.2H522.8L522.8,130.4z"/>
		<path style="fill-rule:evenodd;clip-rule:evenodd;fill:#23C2E7;" d="M541.3,130c0-0.2,0-0.3,0-0.5c0-1.4-2.4-2.1-4.1-2.1
			c-1.2,0-1.7,0.2-2.2,0.5c-1.4,1-2.1,3.4-2.1,5.2c0,3.6,2.1,4.8,4.1,4.8c0.7,0,1.2,0,1.7-0.2c0.2-0.5,0.5-3.1,0.5-4
			c0-0.5-0.2-0.7-0.5-0.9l0,0c0.5,0,1.2,0,1.7,0c0.7,0,1.4,0,1.9,0l0,0c-0.3,0.2-0.7,0.2-0.9,0.9c-0.2,0.9-0.5,3.4-0.5,4.3
			c0,0-3.3,0.5-4.8,0.5c-3.8,0-5.7-1.6-5.7-4.8c0-2.9,1.6-4.8,2.8-5.7c0.5-0.3,1.7-0.9,2.2-1.2c0.5-0.2,1.4-0.5,2.9-0.5
			c1.9,0,3.4,0.3,3.6,0.3c0.3,0,0.5,0,0.7-0.2c-0.5,1.4-0.9,2.1-1,3.4H541.3L541.3,130z"/>
		<path style="fill-rule:evenodd;clip-rule:evenodd;fill:#23C2E7;" d="M542.7,135c0-1.6,0.9-3.3,1.7-4.1c0.5-0.5,2.8-1.4,3.4-1.4
			c1,0,1.9,0.3,1.9,1.2c0,1.9-3.4,2.9-5,3.6c0,0.7,0,2.6,2.2,2.6c0.9,0,1.6-0.3,1.7-0.5c0,0,0.2,0.2,0.2,0.3c-0.9,0.5-1.7,1-2.6,1.9
			C544.9,138.6,542.7,138.3,542.7,135L542.7,135z M547.7,131.2c0-0.5-0.3-0.9-1-0.9c-0.2,0-0.7,0-0.9,0.3c-0.7,0.9-0.9,2.2-1,2.9
			C545.9,133.1,547.7,132.8,547.7,131.2L547.7,131.2z"/>
		<path style="fill-rule:evenodd;clip-rule:evenodd;fill:#23C2E7;" d="M558,138.5c-0.9,0-1.9,0-2.6,0.2c0.2-1.2,1.7-6.7,1.7-7.1
			c0-0.3,0-0.5-0.5-0.5c-0.3,0-1.7,1.6-2.4,2.4c-1.4,1.7-1.2,4.1-1.4,4.8c-0.9,0-1.6,0.2-2.4,0.3c0.5-1.4,1.7-6.4,1.7-8.1
			c0-0.7-0.2-0.7-0.5-0.9l0,0h0.3c0.2,0,0.3,0,0.5,0c1.2,0,1.6,0,2.2-0.2c-0.3,0.9-0.7,2.2-0.9,3.4l0,0c0.9-1.2,2.6-2.8,3.8-3.4
			c0.2,0,0.3,0,0.5,0c0.9,0,1.2,0.5,1.2,1c0,1.2-1.6,5.2-1.6,6.9c0,1,0.7,1,0.7,1l0,0H558L558,138.5z"/>
		<path style="fill-rule:evenodd;clip-rule:evenodd;fill:#23C2E7;" d="M560.9,135c0-1.6,0.7-3.3,1.7-4.1c0.3-0.5,2.8-1.4,3.4-1.4
			c0.9,0,1.7,0.3,1.7,1.2c0,1.9-3.3,2.9-4.8,3.6c0,0.7,0,2.6,2.2,2.6c0.7,0,1.4-0.3,1.7-0.5c0,0,0,0.2,0.2,0.3c-1,0.5-1.9,1-2.8,1.9
			C563,138.6,560.9,138.3,560.9,135L560.9,135z M565.9,131.2c0-0.5-0.3-0.9-1-0.9c-0.3,0-0.7,0-0.9,0.3c-0.9,0.9-0.9,2.2-1,2.9
			C564.2,133.1,565.9,132.8,565.9,131.2L565.9,131.2z"/>
		<path style="fill-rule:evenodd;clip-rule:evenodd;fill:#23C2E7;" d="M569.7,129.7c0.2,0,0.3,0,0.5,0s0.3,0,0.5,0
			c0.7,0,1.2,0,1.4-0.2c0.3,0,0.7,0,0.7,0c-0.2,0.2-0.5,1.9-0.7,2.2h0.2c0.2-0.3,0.9-1.2,1.6-1.9c0.2-0.2,0.5-0.3,1-0.3
			c0.2,0,0.5,0,0.7,0.2c-0.3,0.7-0.5,1.4-0.9,2.2c-0.2-0.2-0.7-0.2-1-0.2c-0.5,0-1.2,0.3-1.7,0.9c-0.2,0.3-0.9,4.5-0.9,5.7
			c-0.9,0-1.6,0.2-2.6,0.3c0.7-1.4,1.9-6.7,1.9-8.1C570.4,129.8,569.9,129.8,569.7,129.7L569.7,129.7L569.7,129.7z"/>
		<path style="fill-rule:evenodd;clip-rule:evenodd;fill:#23C2E7;" d="M583.3,138.5c-0.5,0-1.4,0.2-2.1,0.2c0-1.2,0.2-2.8,0.5-3.6
			h-0.2c-1.9,2.1-4.5,3.6-4.8,3.6c0,0-1-0.2-1-1.6c0-2.1,0.9-4.7,1.7-5.5c0.3-0.3,1.2-0.9,1.6-1.2c1-0.5,1.6-0.9,2.6-0.9
			c1,0,2.2,0.2,2.8,0.2c0.2,0,0.5,0,0.7-0.2c-0.5,1.4-1.6,4.7-1.6,7.6c0,0.9,0.3,1.2,0.7,1.4l0,0H583.3L583.3,138.5z M578.3,136.9
			c0.5,0,2.6-1.6,3.3-2.9c0.5-0.9,0.7-2.1,0.9-2.9c-0.7-0.3-1.4-0.5-1.9-0.5c-0.5,0-0.9,0.2-1,0.3c-0.9,0.7-1.6,3.6-1.6,5.2
			C578,136.6,578.2,136.9,578.3,136.9L578.3,136.9z"/>
		<path style="fill-rule:evenodd;clip-rule:evenodd;fill:#23C2E7;" d="M588.9,138.5c-0.3,0-1.9,0.2-2.4,0.2c0-2.6,1.9-10.5,1.9-12.6
			c0-0.9-0.3-0.9-0.7-0.9V125h0.7c1.4,0,1.9,0,2.4-0.2c-0.5,1.9-2.1,10.5-2.1,12.1c0,0.9,0,1.4,0.7,1.6l0,0H588.9L588.9,138.5z"/>
		<path style="fill-rule:evenodd;clip-rule:evenodd;fill:#23C2E7;" d="M598.2,130.9c0.2-1.2,0.3-2.4,0.3-2.9c0-0.9-0.2-1.2-0.7-1.2
			v-0.2c0.2,0.2,0.3,0.2,0.7,0.2c0.3,0,0.7,0,1,0c0.5,0,1.4,0,2.1-0.2c0.7,0,1.9-0.2,2.4-0.2c4.3,0,4.7,2.8,4.7,4.3
			c0,4.5-3.8,7.9-8.3,7.9c-0.5,0-1,0-1.4,0c-0.3-0.2-0.9-0.2-1.4-0.2c-0.5,0-1,0-1.6,0l0,0c0.7,0,0.9-0.7,1.2-2.4
			C597.7,134.7,597.8,133.1,598.2,130.9L598.2,130.9z M606.4,131.2c0-2.8-1.6-4-3.6-4c-1,0-1.6,0.2-2.1,0.3
			c-0.3,2.1-1.2,7.4-1.4,9.5c0.5,0.3,1.4,0.5,2.4,0.5c0.9,0,1.7-0.2,2.2-0.5C606.1,135.7,606.4,132.1,606.4,131.2L606.4,131.2z"/>
		<path style="fill-rule:evenodd;clip-rule:evenodd;fill:#23C2E7;" d="M609.7,135c0-1.6,0.9-3.3,1.7-4.1c0.5-0.5,2.8-1.4,3.4-1.4
			c1,0,1.9,0.3,1.9,1.2c0,1.9-3.4,2.9-5,3.6c0,0.7,0,2.6,2.2,2.6c0.9,0,1.6-0.3,1.7-0.5c0,0,0.2,0.2,0.2,0.3c-0.9,0.5-1.7,1-2.6,1.9
			C612,138.6,609.7,138.3,609.7,135L609.7,135z M614.7,131.2c0-0.5-0.3-0.9-1-0.9c-0.2,0-0.7,0-0.9,0.3c-0.7,0.9-0.9,2.2-1,2.9
			C613,133.1,614.7,132.8,614.7,131.2L614.7,131.2z"/>
		<path style="fill-rule:evenodd;clip-rule:evenodd;fill:#23C2E7;" d="M624.9,138.5c-0.7,0-1.7,0-2.4,0.2c0.2-1.2,1.7-6.7,1.7-7.1
			c0-0.3,0-0.5-0.5-0.5c-0.3,0-1.7,1.6-2.4,2.4c-1.4,1.7-1.2,4.1-1.4,4.8c-0.9,0-1.6,0.2-2.4,0.3c0.5-1.4,1.7-6.4,1.7-8.1
			c0-0.7-0.2-0.7-0.5-0.9l0,0h0.3c0.2,0,0.3,0,0.5,0c1.2,0,1.6,0,2.2-0.2c-0.3,0.9-0.7,2.2-0.9,3.4l0,0c0.9-1.2,2.6-2.8,3.8-3.4
			c0.2,0,0.3,0,0.5,0c0.9,0,1.2,0.5,1.2,1c0,1.2-1.6,5.2-1.6,6.9c0,1,0.7,1,0.7,1l0,0H624.9L624.9,138.5z"/>
		<path style="fill-rule:evenodd;clip-rule:evenodd;fill:#23C2E7;" d="M631.4,130.4c0,0.5-0.9,4.3-0.9,5.9c0,0.5,0.2,1,0.7,1
			c0.3,0,0.5-0.2,0.7-0.2c0,0.2,0,0.3,0.2,0.3c-1.2,0.3-1.9,0.7-2.9,1.2c-0.3-0.2-0.9-0.7-0.9-1.7c0-1,0.7-3.8,1-5.9
			c0-0.2,0.2-0.3,0.2-0.7c-0.3,0.2-0.9,0.2-1.4,0.2c0.2-0.3,0.2-0.5,0.3-0.9c0.2,0,0.3,0,0.7,0c0.2,0,0.3,0,0.5,0
			c0-0.3,0.3-2.1,0.3-2.2c0.9,0,1.6-0.2,2.2-0.5c-0.2,0.7-0.5,2.2-0.7,2.8c0.9,0,1.4,0,1.9,0c-0.2,0.3-0.3,0.5-0.5,0.9
			c-0.3,0-0.7-0.2-1-0.2H631.4L631.4,130.4z"/>
		<path style="fill-rule:evenodd;clip-rule:evenodd;fill:#23C2E7;" d="M635.2,127.2c0.7-0.5,1-0.9,1.6-1.4c0.3,0.7,0.7,1,1.4,1.6
			c-0.5,0.3-1,0.9-1.6,1.2C636.1,128.1,635.8,127.6,635.2,127.2L635.2,127.2z M636.4,138.5c-1.4,0-1.7,0.2-2.6,0.2
			c0,0,0.2-1.4,0.3-2.8c0.3-2.4,1-4.7,1-5.3c0-0.5-0.3-0.7-0.7-0.9l0,0h0.3c0.2,0,0.3,0,0.5,0c0.9,0,1.7,0,2.2-0.2
			c-0.3,1.2-1.6,5.3-1.6,7.4c0,1.4,0.7,1.4,0.9,1.6l0,0H636.4L636.4,138.5z"/>
		<path style="fill-rule:evenodd;clip-rule:evenodd;fill:#23C2E7;" d="M644.9,132.1c-0.2-0.9-1.2-1.7-2.6-1.7c-0.2,0-0.3,0-0.5,0.2
			c-0.2,0.2-0.2,0.7-0.2,0.9c0,1.9,3.6,2.1,3.6,4.3c0,1-0.5,1.7-1.6,2.2c-0.3,0.2-1.4,0.7-2.9,0.7c-1.2,0-2.1-0.3-2.6-0.7
			c0.5-0.7,0.9-1.2,1-2.2l0,0c0.2,1,1.2,2.1,2.8,2.1c0.3,0,1-0.2,1-0.3c0.3-0.2,0.3-0.3,0.3-0.7c0-2.1-3.8-2.2-3.8-4.5
			c0-1,0.9-1.7,2.1-2.2c0.9-0.3,1.4-0.5,1.9-0.5c1.2,0,2.1,0.3,2.2,0.5c-0.3,0.7-0.7,1.2-0.7,2.1H644.9L644.9,132.1z"/>
		<path style="fill-rule:evenodd;clip-rule:evenodd;fill:#23C2E7;" d="M650.4,130.4c-0.2,0.5-1,4.3-1,5.9c0,0.5,0.2,1,0.9,1
			c0.3,0,0.5-0.2,0.7-0.2c0,0.2,0,0.3,0,0.3c-1,0.3-1.9,0.7-2.8,1.2c-0.3-0.2-0.9-0.7-0.9-1.7c0-1,0.7-3.8,1-5.9
			c0-0.2,0-0.3,0.2-0.7c-0.3,0.2-1,0.2-1.6,0.2c0.2-0.3,0.3-0.5,0.5-0.9c0.2,0,0.3,0,0.5,0c0.2,0,0.3,0,0.5,0
			c0.2-0.3,0.3-2.1,0.3-2.2c1,0,1.6-0.2,2.4-0.5c-0.2,0.7-0.5,2.2-0.7,2.8c0.9,0,1.4,0,1.9,0c-0.3,0.3-0.3,0.5-0.5,0.9
			c-0.3,0-0.7-0.2-1.2-0.2H650.4L650.4,130.4z"/>
		<path style="fill-rule:evenodd;clip-rule:evenodd;fill:#23C2E7;" d="M653.5,129.7c0.2,0,0.3,0,0.5,0c0.2,0,0.3,0,0.5,0
			c0.7,0,1.2,0,1.6-0.2c0.3,0,0.5,0,0.5,0c-0.2,0.2-0.5,1.9-0.5,2.2l0,0c0.2-0.3,0.9-1.2,1.6-1.9c0.2-0.2,0.5-0.3,1-0.3
			c0.3,0,0.5,0,0.9,0.2c-0.5,0.7-0.7,1.4-0.9,2.2c-0.3-0.2-0.7-0.2-1-0.2c-0.7,0-1.4,0.3-1.7,0.9c-0.3,0.3-0.9,4.5-1,5.7
			c-0.9,0-1.6,0.2-2.6,0.3c0.7-1.4,1.9-6.7,1.9-8.1C654.2,129.8,653.7,129.8,653.5,129.7L653.5,129.7L653.5,129.7z"/>
		<path style="fill-rule:evenodd;clip-rule:evenodd;fill:#23C2E7;" d="M666.5,129.7c0.2,0,0.2,0,0.3,0c0.2,0,0.3,0,0.7,0
			c1,0,1.4,0,1.9-0.2c-0.3,0.7-1.9,3.4-3.8,6.4c-2.6,4-4.5,7.2-7.8,7.2c0.2-0.7,0.3-1.6,0.3-2.2c0.3,0,0.7,0.2,1,0.2
			c1.9,0,3.3-1.6,3.8-2.4h-0.5c-0.2-1.2-0.7-4.1-1.2-6.6c-0.3-1.7-0.3-2.2-0.9-2.4l0,0c0,0,0.2,0,0.3,0c0.2,0,0.3,0,0.5,0
			c0.9,0,1.4,0,1.9-0.2c0,1.6,0.9,6.4,1,7.6c0.9-1.4,2.8-5.7,2.8-6.9C667,129.8,666.8,129.8,666.5,129.7L666.5,129.7L666.5,129.7z"
			/>
	</g>
	<g>
		<path style="fill:#23C2E7;" d="M163.6,202c0.7,0,1.3,0,2,0c6.6,0,13.2,0.1,19.8,0c3.2,0,6.3,0.5,9.3,1.6c1.4,0.5,3,1.1,4.1,2.3
			c0.6,0.6,1.4,1.1,2,1.7c1.8,1.7,3.2,3.8,4.1,6.1c0.6,1.6,1.1,3.2,1.5,4.8c1.1,4,0.6,8.1,0.7,12.1c0.1,4.6-1.2,8.9-3.5,12.9
			c-0.5,0.8-1,1.5-1.5,2.3c-0.4,0.6-0.8,1.2-1.2,1.6c-2.7,2.5-5.8,4.4-9.5,5.3c-2.3,0.5-4.6,0.7-6.9,0.7c-6.3,0-12.6,0-18.9,0
			c-0.6,0-1.3,0-2,0C163.6,236.3,163.6,219.2,163.6,202z M174.1,244.1c3.3,0,6.4,0,9.5,0c1.2,0,2.3,0,3.5-0.3
			c3.1-0.8,5.7-2.3,7.2-5.2c1.2-2.3,1.8-4.7,2-7.2c0.1-0.9-0.3-1.9,0.3-2.8c0.2-0.3,0.2-1.1-0.1-1.5c-0.4-0.5-0.3-1-0.3-1.5
			c0.2-2.5-0.5-4.9-1.2-7.3c-0.6-1.9-1.7-3.6-3.2-4.9c-0.8-0.7-1.8-1.2-2.8-1.6c-1.1-0.5-2.4-0.7-3.5-0.8c-3.8-0.2-7.6-0.1-11.5-0.1
			C174.1,222.1,174.1,233,174.1,244.1z"/>
		<path style="fill:#23C2E7;" d="M150.8,229.6c-3.6,0-7,0-10.5,0c-2-5.6-4.1-11.2-6.3-17.2c-2.7,7.5-5.3,14.6-7.9,21.8
			c0.4,0,0.8,0.1,1.1,0.1c7.4,0,14.8,0,22.2,0c2,0,3.1,0.9,4,2.5c1.1,1.8,1.5,3.8,2.3,5.7c0.9,2.1,1.7,4.2,2.4,6.4
			c0.4,1.2,1,2.4,1.5,3.7c0.1,0.2,0,0.5,0,0.8c-3.6,0-7.2,0-10.9,0c-1.5-3.2-2.3-6.8-3.6-10.4c-7.2,0-14.5,0-22,0
			c-1.1,3.4-2.3,6.9-3.5,10.4c-3.9,0-7.5,0-11.2,0c0.8-3,2.1-5.7,3.1-8.6c0.7-2.1,1.5-4.2,2.4-6.2c0.7-1.5,1.2-3.1,1.8-4.7
			c0.7-2,1.5-3.9,2.2-5.9c0.7-1.8,1.4-3.6,2-5.4c0.5-1.3,0.9-2.6,1.4-3.9c0.9-2.6,2-5.2,2.9-7.7c1.1-2.9,2.1-5.7,3.3-8.6
			c0-0.1,0.2-0.2,0.3-0.3c3.5,0,7,0,10.6,0c0.6,0.3,1.4,0.6,1.8,1.1c0.6,0.7,1.1,1.6,1.4,2.5c0.4,1.5,1.2,2.9,1.6,4.4
			c0.5,1.7,1.3,3.2,1.9,4.9c0.9,2.4,1.9,4.8,2.8,7.2c0.6,1.6,1.3,3.2,1.9,4.9C150.1,227.9,150.4,228.6,150.8,229.6z"/>
		<path style="fill:#23C2E7;" d="M248.5,229.6c-3.5,0-6.9,0-10.4,0c-2-5.6-4.1-11.3-6.2-17.2c-2.7,7.3-5.3,14.5-8,21.8
			c0.4,0,0.7,0.1,1.1,0.1c7.3,0,14.7,0,22,0c2.7,0,3.7,0.8,4.7,3.4c1,2.4,1.9,4.9,2.9,7.4c0.6,1.4,1,2.8,1.6,4.2
			c0.5,1.3,1,2.7,1.5,4.1c-3.7,0-7.4,0-11.2,0c-1.4-3.3-2.2-7-3.6-10.4c-7.3,0-14.5,0-22,0c-1.2,3.4-2.3,7-3.5,10.5
			c-3.8,0-7.5,0-11.4,0c1.6-3.5,2.9-7.1,4.2-10.7c1.2-3.3,2.5-6.6,3.7-10c0.9-2.5,2-5,2.9-7.5c1.2-3.3,2.7-6.6,3.7-10
			c0.6-2.1,1.6-4.1,2.5-6.2c0.6-1.6,1.2-3.1,1.8-4.7c0.3-0.7,0.5-1.5,0.9-2.3c3.4,0,6.8-0.1,10.2,0.1c1.4,0.1,2.8,1,3.3,2.6
			c1,3.4,2.6,6.6,3.7,9.9c1,3,2.4,5.9,3.4,8.9c0.6,1.9,1.4,3.7,2.2,5.5C248.5,229.2,248.4,229.4,248.5,229.6z"/>
		<path style="fill:#23C2E7;" d="M132.7,274.9c-1.6-0.3-2.8,0.3-4.2,0.8c0,3.5,0,7.1,0,10.7c-0.9,0-1.8,0-2.7,0c0,0-0.1-0.1-0.1-0.1
			c0-4.4,0-8.8,0-13.3c0.8,0,1.5,0,2.2,0c0.1,0.2,0.2,0.5,0.3,0.8c1.1-0.8,2.4-1.1,3.6-1.3c1.4-0.2,2.6,0.4,3.4,1.5
			c1.2-0.3,2.1-1.4,3.4-1.2c1.2-1.1,2.4,0.2,3.5,0c2.2,1.4,2.6,3.6,2.6,5.9c0,2.5,0,5,0,7.6c-0.9,0-1.7,0-2.7,0c0-0.4,0-0.9,0-1.4
			c0-2.5,0-5.1,0-7.6c0-1.8-1.5-3-3.2-2.6c-0.6,0.1-1.1,0.5-1.6,0.8c-1,0.5-1,0.5-0.7,1.6c0.1,0.4,0.1,0.9,0.1,1.3
			c0,2.6,0,5.2,0,7.9c-0.9,0.2-1.7,0-2.7,0.1c0-3.4,0-6.7,0-9.8c-0.3-0.5-0.5-0.9-0.8-1.3C133.1,275.3,132.8,275.1,132.7,274.9z"/>
		<path style="fill:#23C2E7;" d="M110,312.7c-0.1-0.1-0.2-0.2-0.2-0.3c0-6.1,0-12.2,0-18.4c2.3,0,4.5,0,6.8,0c0.5,0,0.9,0.3,1.4,0.4
			c0.5,0.1,1-0.1,1.4,0.4c2.3,0.2,4.4,3,5.1,4.8c0.3,0.7,0.5,1.4,0.5,2.1c0,1.5,0.1,3-0.3,4.5c-0.8,2.9-2.5,5.1-5.4,6.1
			c-0.9,0.3-1.8,0.4-2.8,0.4C114.3,312.6,112.1,312.7,110,312.7z M112.1,296.3c0,4.5,0,9,0,13.4c0,0.3,0.3,0.7,0.4,1
			c0.9,0,1.6,0.1,2.4,0c0.7-0.1,1.4-0.3,2.2-0.4c1.5-0.1,3.1-1.2,4-2.6c0.9-1.4,1.1-2.9,1.1-4.6c0-2.2-0.6-4-2.3-5.5
			c-1-0.9-2.1-1.3-3.3-1.4C115.2,296.2,113.7,296.3,112.1,296.3z"/>
		<path style="fill:#23C2E7;" d="M114.5,267.9c1,0,1.7,0,2.7,0c1.4,3,2.3,6.2,3.5,9.4c1.2,3.1,2.3,6.2,3.4,9.3c-0.9,0-1.9,0-2.9,0
			c-0.5-1.5-1-3-1.6-4.6c-2.5,0-4.9,0-7.5,0c-0.5,1.5-1.1,3-1.6,4.5c-0.9,0-1.7,0-2.7,0C110,280.3,112.2,274.1,114.5,267.9z
			 M115.8,271c-1,2.8-2,5.6-3,8.5c2.1,0,4,0,6,0C117.8,276.6,116.8,273.8,115.8,271z"/>
		<path style="fill:#23C2E7;" d="M123.8,338.4c-0.8,0-1.5,0-2.2,0c-1.3-1.4-1.1-3.4-2.1-5c-2.4,0-4.8,0-7.3,0
			c-0.6,1.6-1.3,3.2-2,4.9c-0.8,0-1.5,0-2.3,0c-0.5-0.8,0.2-1.5,0.4-2.2c0.8-1.6,1.1-3.3,1.8-4.9c0.8-1.9,1.5-3.8,2.2-5.7
			c0.6-1.7,1.2-3.4,1.8-5.1c0.1-0.2,0.3-0.4,0.5-0.7c0.9,0,1.9,0,3,0c0.3,1.8,1.1,3.5,1.7,5.2c1.2,3.2,2.5,6.4,3.5,9.7
			c0.2,0.7,0.6,1.4,0.9,2.2c0.1,0.2,0.2,0.5,0.2,0.7C123.9,337.7,123.8,338,123.8,338.4z M118.9,331.4c-1.1-3-2-5.8-3.1-8.8
			c-1,3-2,5.8-3,8.6c0.2,0.1,0.2,0.2,0.3,0.2C115,331.4,116.8,331.4,118.9,331.4z"/>
		<path style="fill:#23C2E7;" d="M129.3,306.8c0,2.4,1.4,3.9,3.5,4c0.8,0,1.7,0,2.3,0c0.8-0.4,1.4-0.6,1.9-0.9
			c0.3,0.2,0.4,0.2,0.5,0.3c0.6,1.6,0.4,2-1.2,2.5c-1.7,0.6-3.5,0.6-5.1,0.3c-1.4-0.3-2.7-1.3-3.5-2.8c-1.3-2.4-1.5-4.7-0.6-7.3
			c0.6-1.6,1.5-2.8,3-3.5c2.7-1.2,4.4-1.1,6.6,0.7c1.2,1,1.6,2.6,1.9,4.1c0.1,0.8,0,1.7,0,2.6C135.5,306.8,132.5,306.8,129.3,306.8z
			 M134.2,301c-2.8-0.4-4.6,0.8-4.8,3.4c2.2,0,4.3,0,6.5,0C136.1,302.8,135.1,301.9,134.2,301z"/>
		<path style="fill:#23C2E7;" d="M158.9,280.8c-3.2,0-6.2,0-9.4,0c0.5,1.6,0.7,3.2,2.9,3.8c1.5,0,3.3,0.2,5.1-0.9
			c0.4,0.6,0.7,1.1,1.2,1.8c-2.5,1.5-4.9,2-7.6,1.1c-1.3-0.4-2.3-1.1-2.9-2.4c-0.6-1.2-1.1-2.3-0.9-3.7c0.2-1.2-0.1-2.5,0.3-3.8
			c0.4-1.1,1-1.8,1.8-2.6c0.7-0.8,1.5-1.1,2.6-1.3c1.1-0.2,1.9-0.3,3,0c1.4,0.3,2.3,1.1,3,2.1c0.7,0.9,1.1,2.1,1,3.3
			C158.8,279,158.9,279.8,158.9,280.8z M156.5,278.4c-0.2-1.7-0.8-2.7-2.1-3.5c-1.1,0-2.3-0.2-3.3,0.5c-1,0.7-1.2,1.8-1.5,2.9
			c0.1,0,0.2,0.1,0.4,0.1C152.1,278.4,154.3,278.4,156.5,278.4z"/>
		<path style="fill:#23C2E7;" d="M192,337.8c-0.6,0.9-1.4,0.5-2.2,0.6c-0.1-0.3-0.3-0.5-0.4-0.9c-1.7,1.4-3.7,0.9-5.5,0.9
			c-0.8,0-1.5-0.7-2-1.5c-0.8-1.2-0.8-2.5-0.7-3.8c0.9-1.5,1.9-2.7,3.8-3.1c0.4-0.1,0.8-0.2,1.3-0.2c1,0,2,0,3.1,0
			c0-0.8,0-1.4,0-2.1c-1.4-1.9-2.8-1.6-4.9-0.9c-0.5,0.2-1,0.5-1.4,0.8c-0.3-0.7-0.6-1.3-1-1.9c1-0.8,2.3-1.4,3.7-1.3
			c1.2,0.1,2.3-0.3,3.6,0.3c1.7,0.8,2.8,1.9,2.9,3.7c0,2.6,0,5.2,0,7.8C192,336.7,192,337.3,192,337.8z M189.3,331.8
			c-0.8,0-1.5,0-2.1,0c-0.8,0.1-1.7,0.1-2.3,0.4c-0.6,0.4-1,1.2-1.5,1.8c0.7,0.8,0.4,2.2,1.3,2.2c2.1,0.4,3.4-0.2,4.7-0.8
			c0-0.9,0-1.8,0-2.7C189.3,332.5,189.3,332.2,189.3,331.8z"/>
		<path style="fill:#23C2E7;" d="M197.1,277.9c0-0.7,0-1.3,0-2c-1.3-1.2-2.8-1.2-4.3-0.7c-0.2,0.1-0.3,0.1-0.5,0.1
			c-1.6,0.5-1.6,0.5-2.6-1c1.4-1.4,3.2-1.6,4.9-1.7c1.8-0.1,2.8,0.5,4.8,2.5c0.9,3.8,0.2,7.6,0.5,11.5c-0.9-0.1-1.7,0.3-2.6-0.3
			c-0.7-0.4-1.4,0.3-2.1,0.5c-1.3,0.3-2.9,0.4-3.8-0.1c-2.6-1.4-3.1-3.5-2.1-5.8c0.6-1.4,1.9-2,3.2-2.3
			C193.9,278,195.4,278.1,197.1,277.9z M197.1,280c-0.8,0-1.4-0.1-1.9,0c-0.6,0.1-1.2,0.3-1.8,0.4c-1.3,0.3-2.4,1.7-2.1,2.9
			c0.1,0.3,0.4,0.6,0.6,0.9c0.1,0,0.2,0,0.3,0c0.4,0.2,0.8,0.7,1.2,0.7c0.5,0.1,1-0.2,1.6-0.3c0.7-0.2,1.4-0.3,2.1-0.5
			c0-1.1,0-2.1,0-3.1C197.1,280.7,197.1,280.4,197.1,280z"/>
		<path style="fill:#23C2E7;" d="M156.2,324.4c0.7,0.4,1.4,0.8,2,1.2c1,0.6,1.3,1.7,1.8,2.5c0.3,0.5,0.5,1.1,0.5,1.8
			c-0.1,1,0,2.1,0,3.1c-0.2,2.8-2.3,5.3-5,5.5c-0.4,0-0.9,0.5-1.2,0.3c-1.1-0.4-2.4-0.1-3.3-0.8c-1.2-1-2.5-2.1-2.8-3.7
			c-0.2-0.9-0.6-1.8-0.5-2.7c0.1-0.9,0.2-1.8,0.4-2.7c0.6-2.1,2.2-3.7,4.3-4.3c0.3-0.1,0.6-0.1,0.9-0.1
			C154.3,324.4,155.3,324.4,156.2,324.4z M153.3,336.4c0.2,0,0.5,0,0.7,0c1.8,0,3.1-1.1,3.8-2.7c0.7-1.9,0.3-3.6-0.5-5.3
			c-0.5-1.1-1.4-1.4-2.3-1.9c-0.7-0.4-1.3-0.1-1.9,0.2c-0.2,0.1-0.5,0-0.6,0C149.2,329.3,149.6,334.7,153.3,336.4z"/>
		<path style="fill:#23C2E7;" d="M216.8,324.4c2.9-0.5,5.7,2.3,6,5.5c0.1,1.8,0,3.2-0.4,4.8c-0.4,1.9-2.9,3.6-4.6,3.8
			c-0.8,0.1-1.6,0.1-2.4,0c-2.8-0.3-5-2.6-5.1-5.6c0-0.6,0.1-1.3,0-1.9c-0.2-1.3,0.3-2.4,0.8-3.6c0.8-1.7,2.8-2.9,4.8-2.9
			C216.2,324.4,216.5,324.4,216.8,324.4z M217.4,336.4c0.3-0.1,0.5-0.2,0.7-0.3c1-0.5,1.6-1.2,1.9-2.4c0.5-1.9,0.6-3.2-0.3-5
			c-1.3-2.7-4.5-3-6.3-0.6c-0.4,0.5-0.5,1.2-0.7,1.8c-0.6,1.8-0.2,3.5,0.8,5C214.4,336.2,215.8,336.8,217.4,336.4z"/>
		<path style="fill:#23C2E7;" d="M172.4,304c0.1-1.5,0-1.6-1.2-2.9c-1.9-0.4-3.7,0.1-5.5,0.8c-0.3-0.7-0.5-1.2-0.7-1.7
			c1.2-1.3,2.9-1.2,4.3-1.5c1.5-0.3,3.1,0.3,4.3,1.3c0.8,0.7,1.3,1.8,1.3,3c0,3.2,0,6.4,0,9.6c-0.7,0-1.5,0-2.3,0
			c0-0.2-0.1-0.3-0.1-0.6c-1.4,0.6-2.7,1.2-4.3,1.1c-1.9-0.1-3.2-1.1-3.9-2.9c-0.5-1.3-0.2-2.4,0.3-3.4c0.7-1.4,2-2,3.5-2.2
			C169.6,304.3,171,304.1,172.4,304z M172.4,309.9c0-1.2,0-2.4,0-3.7c-1.2-0.4-2.5,0-3.7,0.3c-0.3,0.1-0.7,0.2-1,0.4
			c-0.4,0.3-0.8,0.7-1.1,0.9c0,0.8,0,1.4,0,1.8c0.5,1.2,1.6,1.5,2.4,1.4C170.2,311,171.4,310.8,172.4,309.9z"/>
		<path style="fill:#23C2E7;" d="M203,273c0.8,0,1.5,0,2.1,0c0.1,0.3,0.2,0.5,0.3,0.7c2.9-0.9,2.3-1.2,6.4-0.7
			c0.4,0.4,0.9,0.8,1.2,1.2c0.3,0.4,0.7,0.9,0.8,1.4c0.2,1.2,0.4,2.5,0.4,3.7c0.1,2.4,0,4.8,0,7.2c-0.9,0-1.8,0-2.7,0
			c0-2.9,0-5.8,0-8.7c0-0.4,0-0.9-0.1-1.3c-0.4-1-1.1-1.6-2.2-1.6c-0.5,0-0.9,0-1,0c-1,0.4-1.7,0.7-2.4,1c0,3.4,0,7,0,10.6
			c-0.9,0.2-1.8,0-2.7,0.2C203,282.1,203,277.6,203,273z"/>
		<path style="fill:#23C2E7;" d="M233.7,337.8c0-2.9,0-5.8,0-8.7c0-0.6,0-1.1-0.4-1.6c-0.5-0.7-1.5-1.1-2.4-1
			c-1.1,0.2-2.1,0.6-3.1,1.2c0,3.5,0,7.1,0,10.6c-0.8,0-1.4,0-2.2,0c0-4.5,0-9,0-13.5c0.6,0,1.2,0,1.7,0c0.1,0.2,0.2,0.4,0.3,0.7
			c1.7-1.2,3.6-1.3,5.5-1.1c1.4,0.2,2.3,1.2,2.9,2.4c0.2,0.5,0.4,1,0.4,1.6c0,3.3,0,6.6,0,10.1C235.4,338.2,234.5,338.8,233.7,337.8
			z"/>
		<path style="fill:#23C2E7;" d="M141,299.1c0.8,0,1.5,0,2.2,0c0.1,0.3,0.2,0.5,0.3,0.8c1-0.4,1.9-0.8,2.9-1c2-0.5,4.5,0.6,5.3,2.5
			c0.1,0.2,0.2,0.5,0.2,0.7c0,3.5,0,7,0,10.5c-0.8,0-1.5,0-2.3,0c0-2.8,0-5.5,0-8.3c0-0.4,0-0.9-0.1-1.3c-0.3-0.9-0.4-1.9-1.7-2
			c-1.5-0.2-3,0.3-4.4,1.1c0,3.5,0,7,0,10.5c-0.8,0-1.5,0-2.3,0c0-2.3,0-4.5,0-6.8C141,303.7,141,301.4,141,299.1z"/>
		<path style="fill:#23C2E7;" d="M139.4,327.3c0,0.4,0,0.8,0,1.2c0.4,0.4,0.9,0.9,1.4,1.4c1.7,0.3,3.6,1.5,5.2,3.3
			c0,0.6,0,1.2,0,1.9c0.1,1-0.4,1.8-1.2,2.4c-0.8,0.6-1.6,1-2.6,1.2c-0.9,0.2-1.8,0.3-2.7-0.2c-0.4-0.2-1.1-0.3-1.6-0.3
			c-0.7-0.1-1.1-0.6-1.6-1c0.3-0.5,0.6-1,0.9-1.5c2,0.6,4,1.7,6,0c0-0.5,0-1,0-1.7c-0.3-0.2-0.7-0.6-1.2-0.9
			c-0.8-0.4-1.6-0.8-2.4-1.2c-0.4-0.2-0.9-0.3-1.3-0.6c-0.4-0.3-0.7-0.7-1.1-1.1c-0.1-1.1-1-2.1-0.1-3.3c0.7-1,1.5-1.8,2.6-2.4
			c2.2,0,4.5-0.3,6.3,1.3c-0.3,0.5-0.6,0.9-1,1.4c-0.6-0.1-1.2-0.2-1.8-0.4C141.2,326.1,140.9,326.1,139.4,327.3z"/>
		<path style="fill:#23C2E7;" d="M125.8,329.6c0-1.1,0-2.1,0-3.3c0.2-0.2,0.6-0.4,0.9-0.7c0.5-0.5,1.1-0.8,1.7-1
			c1.3-0.4,4.4-0.3,5.4,0.2c0.4,0.2,0.7,1.2,0.6,1.7c-0.2,0.5-0.9,0.8-1.4,0.5c-0.4-0.2-0.7-0.4-1.2-0.7c-0.7,0-1.5,0-2.3,0
			c-0.4,0.4-0.9,0.9-1.4,1.4c-0.2,0.9,0.5,1.3,1.2,1.7c1,0.5,2,1.1,3.1,1.5c1.1,0.4,1.9,1,2.4,2.5c0,0.2,0,0.7,0,1.2
			c0,2-1.2,3.3-3.2,3.8c-1.1,0.2-2.1,0.3-3.2,0.1c-1.1-0.2-1.9-0.7-3.1-1.1c0.2-0.6,0.4-1.2,0.6-1.8c0.7,0.2,1.5,0.2,2,0.5
			c0.9,0.6,1.8,0.4,2.6,0.2c0.8-0.1,1.6-0.6,1.7-2.2c-0.2-1-1.6-1.6-2.7-2c-1.2-0.3-2-0.9-2.8-1.7
			C126.4,330.2,126.1,330,125.8,329.6z"/>
		<path style="fill:#23C2E7;" d="M187.3,273.7c0,0.6,0,1,0,1.5c-0.4,0.5-0.8,0.7-1.5,0.4c-0.5-0.3-1.1-0.6-1.7-0.6
			c-2-0.2-3.6,0.5-4.4,2.3c-0.1,0.3-0.3,0.6-0.6,1.1c0,0.6,0,1.4,0,2.1c-0.1,2.4,1.9,4.2,4.1,4.2c1,0,1.9-0.3,2.9-0.6
			c0.3-0.1,0.6-0.2,0.8-0.3c0.2,0.1,0.3,0.1,0.4,0.2c0.7,1.6,0.6,1.6-1.1,2.3c-1.9,0.8-3.8,0.9-5.8,0.3c-2.1-0.7-3.9-2.8-4-5.3
			c-0.1-1.5-0.1-3.1,0.6-4.6c1-2.1,2.5-3.2,4.8-3.9C184,272.3,185.5,273,187.3,273.7z"/>
		<path style="fill:#23C2E7;" d="M163.2,312.5c-1.3,0.7-2.7,0.6-4.1,0.6c-1.9-0.1-2.9-1.2-2.9-2.9c-0.1-2.8,0-5.7,0-8.7
			c-0.7,0-1.5,0-2.3,0c0-0.8,0-1.5,0-2.4c0.7,0,1.4,0,2.2,0c0-1.2,0-2.3,0-3.5c0.8,0,1.5,0,2.4,0c0,1.1,0,2.2,0,3.4
			c1.4,0,2.7,0,4.2,0c0,0.8,0,1.5,0,2.3c-1.3,0-2.6,0-4.2,0c0,2.5-0.1,4.9,0,7.4c0,0.7,0.5,1.3,0.7,2c1.2,0,2.3,0,3.3,0
			C162.8,311.4,163,311.9,163.2,312.5z"/>
		<path style="fill:#23C2E7;" d="M172.7,335.3c0.3,0.3,0.6,0.6,1.1,1c-0.2,0.3-0.3,0.9-0.6,1c-0.9,0.4-1.6,1.1-2.7,1
			c-0.5-0.1-1,0.3-1.4,0.3c-0.8,0.1-1.7-0.3-2.5-0.5c-2.6-0.8-4.3-3.5-4.3-5.7c0-1.5,0.1-2.8,0.8-4.2c0.7-1.5,1.9-2.6,3.3-3.5
			c0.2-0.2,0.5-0.2,1-0.4c2,0,4.4-0.4,6.3,1.4c-0.4,0.6-0.7,1.1-1.1,1.7c-0.8-0.2-1.5-1.1-2.5-0.8c-0.8-0.9-1.6,0.4-2.6-0.2
			c-0.1,0.2-0.2,0.5-0.4,0.7c-2.7,2.6-2,2.6-2,5.4c0,1.3,0.7,2.4,2,3.1c1.1,0.6,2.2,1.2,3.4,0.4C171.4,336.2,172,335.7,172.7,335.3z
			"/>
		<path style="fill:#23C2E7;" d="M199,335.8c1.1,0.7,2.1,0.8,3.1,0.2c1,0.1,0.5,1.4,1.2,1.7c-1.6,0.9-2.2,0.7-5.3,0.6
			c-0.6-0.6-1.1-1.1-1.7-1.7c0-3.2,0-6.5,0-9.9c-0.8,0-1.5,0-2.3,0c0-0.7,0-1.3,0-1.9c0.7-0.4,1.7,0.3,2.3-0.8c0-0.9,0-2,0-3.1
			c0.8,0,1.5,0,2.3,0c0,1.2,0,2.5,0,3.8c1.5,0,2.8,0,4.2,0c0,0.7,0,1.3,0,2c-1.4,0-2.7,0-4.1,0C198.4,330.5,198.5,334.5,199,335.8z"
			/>
		<path style="fill:#23C2E7;" d="M178.4,292.5c0.7,0,1.4,0,2.2,0c0,6.7,0,13.4,0,20.2c-0.7,0-1.4,0-2.2,0
			C178.4,305.9,178.4,299.2,178.4,292.5z"/>
		<path style="fill:#23C2E7;" d="M161.7,273c0.6,0,1.2,0,1.8,0c0.2,0.3,0.4,0.7,0.6,1.1c1.5-0.8,2.9-1.7,4.7-1.5
			c0.8,1,0.8,1.3,0,2.3c-2-0.3-3.6,0.6-4.9,2.1c0,3.1,0,6.2,0,9.4c-0.7,0-1.5,0-2.3,0C161.7,282,161.7,277.5,161.7,273z"/>
		<path style="fill:#23C2E7;" d="M204.9,324.8c0.9,0,1.7,0,2.6,0c0,4.5,0,9,0,13.6c-0.9,0-1.7,0-2.6,0
			C204.9,333.8,204.9,329.3,204.9,324.8z"/>
		<path style="fill:#23C2E7;" d="M176.1,338.3c0-4.5,0-9,0-13.5c0.9,0,1.7,0,2.7,0c0,2.3,0.1,4.6,0,6.9c-0.1,2.2,0.4,4.4-0.3,6.6
			C177.5,338.3,176.8,338.3,176.1,338.3z"/>
		<path style="fill:#23C2E7;" d="M171.4,286.5c0-4.5,0-9,0-13.5c0.7,0,1.4,0,2.2,0c0,0,0,0,0.1,0.1c0,0,0.1,0.1,0.1,0.2
			c0,4.4,0,8.8,0,13.3C172.9,286.5,172.2,286.5,171.4,286.5z"/>
		<path style="fill:#23C2E7;" d="M246.1,324.7c-0.4,0.5-1,1.1-1.4,1.7c-0.5,0.8-1.4,0.9-2.1,1.1c-0.6,0.2-1.4-0.2-2.2-0.3
			c-2.8-2.3-2.4-4.1-1.7-5.5c0.8-1.5,3-2.4,4.8-1.8c0.8,0.3,1.5,0.9,2.1,1.6C246.4,322.3,246.1,323.5,246.1,324.7z M240.9,326.3
			c1.1-0.1,2.3,0.2,3.3-0.7c0.5-0.5,0.9-1,1.1-1.6c0.4-1.3-0.6-2.8-2-3.4c-1.2-0.5-3.2,0.1-3.8,1.2
			C238.9,323.2,238.6,324.3,240.9,326.3z"/>
		<path style="fill:#23C2E7;" d="M205.3,318.9c0.8,0.1,1.6-0.3,2.2,0.6c0,0.6,0,1.3,0,2.1c-0.7,0.2-1.4,0.4-2.1,0.6
			c-0.4-0.6-0.7-1.1-1-1.7C204.7,320,204.9,319.5,205.3,318.9z"/>
		<path style="fill:#23C2E7;" d="M176.6,318.9c0.3,0,0.6,0,1.1,0c0.2,0.3,0.5,0.7,1,1.4c0-0.1,0,0.3,0,0.7c-0.5,0.6-1.1,1.3-2.3,0.9
			c-0.1-0.2-0.4-0.5-0.9-1.2C175.3,320.1,175.9,319.5,176.6,318.9z"/>
		<path style="fill:#23C2E7;" d="M173.5,270.2c-0.8-0.2-1.8,0.4-2.5-0.6c0-0.5,0-1.1,0-1.6c0.7-1,1.7-0.4,2.5-0.6
			C174.2,268.4,174.2,269.3,173.5,270.2z"/>
		<path style="fill:#23C2E7;" d="M244.2,325.5c-0.3,0-0.6,0-1,0c-0.2-0.5-0.4-1-0.7-1.5c-0.3,0-0.6,0-1,0c0,0.5,0,1,0,1.5
			c-0.3,0-0.5,0-0.7,0c0-1.4,0-2.7,0-4.2c0.6,0,1.3,0,2.2,0c0.2,0.2,0.6,0.6,0.9,0.9C243.4,324.1,243.4,324.1,244.2,325.5z
			 M243.4,322c-1,0.1-1.5,0.1-2.3,0.2c0.5,0.5,0.7,0.8,1.1,1.3C242.6,323,242.9,322.7,243.4,322z"/>
	</g>
	<g>
		<path style="fill:#23C2E7;" d="M133.6,87.3c-4.9,7.3-11.3,13.1-19.1,17.2c-6,3.1-12.3,4.1-18.9,3c-5.2-0.9-9.6-3.1-12.8-7.3
			c-2.2-2.9-3.4-6.2-4-9.7c-0.7-4.3-0.7-8.5,0-12.7c0.2-0.9,0.1-1.9,0.1-2.9c0.3-0.1,0.5-0.1,0.8-0.2c0.1-0.9-0.1-1.9,0.3-2.6
			c1.3-2.5,1.7-5.3,3-7.8c0.4-0.8,1.4-1.3,1.1-2.4c1.8-2.7,3.5-5.4,5.3-8c5.5-8.1,12.5-14.8,20.5-20.5c6.9-5,14.3-9.3,22.2-12.4
			c3.3-1.3,6.7-2.4,10.4-1.1c2.3,0.8,2.9,1.2,4.4,3.4c0.9,3.8-0.6,7-2.7,10c-1.2,1.6-2.7,3-3.6,4.8c-0.8,0.1-1.5,0.2-2.3-0.1
			c0.4-0.7,0.7-1.4,1.3-1.9c1.2-1.3,2.3-2.6,3.4-4c1.3-1.8,2.4-3.6,2.6-5.9c0.2-2.7-1.4-4.6-4.1-4.8c-1-0.1-2.1,0-3.1,0.3
			c-2.5,0.7-4.9,1.8-7.2,3.2c-10.6,6.2-20.3,13.6-28.2,23.1c-4.1,4.9-8,10.1-11.7,15.8c1.3-0.2,2.4-0.3,3.3-0.6
			c8-2.5,15.6-5.9,22.8-10.2c1.6-1,3.4-1.8,4.8-3.2c2.5-1,4.5-3,6.7-4.4c1.2-0.8,2.8-1.3,3.5-2.8c1.6-0.7,2.7-2,3.9-3.3
			c0.8,0,1.6,0,2.3,0.1c0,0.5-0.3,0.7-0.6,1c-1.8,1.9-4.3,3.1-5.8,5.2c-3.6,1.9-6.8,4.5-10.3,6.7c-1.2,0.3-2,1.3-3.1,1.9
			c-6.5,3.7-13.2,7.1-20.3,9.5c-3,1-5.9,2.1-8.9,3.1c-0.7,1.4-1.4,2.8-1.8,4.3c-2.6,5.2-3.1,10.6-2.8,16.3c-1,1.6-0.1,3.2,0,4.8
			c0.6,6.2,4.1,10.2,9.8,12.4c4,1.5,8.1,1.2,12.1,0.4c5.1-1.1,9.7-3.5,13.8-6.6c4-3,7.8-6.4,10.6-10.7c0-0.8,1-0.8,1.1-1.5
			c2.6-3.2,4.1-6.9,5.1-10.7c0.9-3.2,1.4-6.6,0.2-10c-1-2.6-2.5-4.5-5.3-5.3c0-0.6,0-1.1,0-1.7c4.3,1.3,6.6,4.4,7.2,8.6
			c0.6,4.1-0.1,8.1-1.6,12.1c-1,2.6-2.7,4.9-3.6,7.5C134,86.7,133.4,86.6,133.6,87.3z"/>
		<path style="fill:#23C2E7;" d="M60,65c-0.6,2.7-1.8,5.2-2.9,7.7c-1.5,3.7-3.1,7.5-4.6,11.2c-0.2,0.5-0.4,1,0,1.6
			c1.5,0.6,3.5,0.1,5.4,1.4c-2.2,0.8-4.1,0.4-6,0.4c-1.9,0.1-3.8,0-5.8,0c-2,0-4,0-6,0c-1.9,0-3.7-0.1-6.1-0.1
			c1.7-1.7,3.4-0.5,4.6-1.2c0-2-6.9-17.7-8.5-19.4c-4.6,0-9.2,0-13.8,0c-0.4,0-0.8,0.4-1.2,0.6c-2.4,5.9-4.8,11.8-7.2,17.6
			c1.3,1.5,2.6,1.8,4,0.8c0.6,0.4,1.2,0.6,1.4,1.2C12.9,87.6,3.1,87.7,0,87c0.7-1.2,1.8-1.2,2.9-1.2c1,0,2.1,0.2,3.2-0.2
			c2.8-6.8,5.8-13.6,8.5-20.5c2.1-5.4,4.5-10.6,6.6-16c0.2-0.5,0.4-0.7,1-0.5c0.2,0.9,0,1.8-0.4,2.5c-2.3,4.5-3.7,9.4-5.9,14.1
			c4.7,0,9.3,0,13.8,0c0.1-1.1-0.1-2-0.4-2.7c-1.9-4-3.6-8-5.2-12.1c-0.3-0.8-0.7-1.8-1.9-1.8c-0.4-0.8,0-1.5,0.3-2.3
			c1.4-3.4,2.7-6.7,4.1-10c0.7-0.4,1.3-0.4,2.2-0.1c7,16,14,32.2,21.1,48.5c2.1-0.8,2.2-2.7,2.8-4.1c1.6-4.1,3.4-8.1,5-12.2
			c0.5-1.4,1.1-2.7,1.6-4.1C59.5,64.5,59.9,64.5,60,65z"/>
		<path style="fill:#23C2E7;" d="M138.5,39.2c-0.8,0-1.6,0-2.3-0.1c-1.3-0.2-2.5-0.2-3.9,0.1c0,1.1,0,2.1,0,3.1
			c-0.7,1.5-2.4,2-3.5,2.8c-2.2,1.5-4.2,3.4-6.7,4.4c-0.4-3.4,0.2-6.9-0.3-10.4c-2.1-0.3-4,0.2-6.3-0.4c1.9-0.8,15.6-1.2,22.8-0.9
			c0.7,0.3,1.5,0.2,2.3,0.1c6.1,0.1,11.7,2,16.8,5.3c4.7,3.1,7.5,7.5,8.6,13c0.4,2,0.9,4.1,0.9,6.2c-0.1,5.9-1.8,11.3-5.5,15.9
			c-2.1,2.5-4.9,4.3-7.9,5.7c-6.3,3-12.9,3.7-19.8,3.1c-0.2-0.7,0.4-0.7,0.8-0.9c2.6,0,5.2-0.2,7.7-0.8c5.6-1.3,9.2-4.7,11.2-10
			c1.4-3.8,1.8-7.8,2-11.8c0.2-4-0.4-8-1.1-12C152.6,43.8,147.2,39.1,138.5,39.2z"/>
		<path style="fill:#23C2E7;" d="M84,62c0.3,1.1-0.8,1.6-1.1,2.4c-1.2,2.5-1.6,5.3-3,7.8c-0.4,0.7-0.2,1.7-0.3,2.6
			c-0.3,0.1-0.6,0.1-0.8,0.2c-1.4-2.3-2.5-4.8-3.4-7.4c0.4-1-1.1-1.1-1-1.9c0.2-0.9-0.6-1.4-0.9-2.1c-1.8-4.3-3.6-8.5-5.4-12.8
			c-0.3-0.8-0.7-1.4-1.7-1.1c-0.9,2.2-1.6,4.5-2.7,6.6c-1,2-1.2,4.5-2.9,6.2c-0.3,0-0.6-0.1-0.9-0.1c0.1-2.2,1.5-3.8,2.3-5.7
			c2.6-6.8,5.5-13.5,8.4-20.2c0.8-0.4,1.5-0.4,2.2,0C76.6,44.9,80.3,53.5,84,62z"/>
		<path style="fill:#23C2E7;" d="M60.1,62.3c0.3,0,0.6,0.1,0.9,0.1c0,0.4,0.1,0.7,0.5,0.8c4.3,1,8.5,2.5,13.1,2.3
			c-0.1,0.9,1.4,0.9,1,1.9c-5,0.4-9.8-1-14.5-2.4C60.7,65,60.3,65,60,65c-0.1-0.5-0.5-0.5-0.9-0.5c-4.2-1.8-8.1-3.9-10.7-7.9
			c-2.8-4.1-3.2-8.4-1.6-12.9c2.2-6.2,7.1-9.5,12.8-11.8c9.6-3.9,19.7-4.8,30-4.1c3.3,0.2,6.5,1.2,9.6,2.3c0.7,0.2,1.5,0.6,1.9,1.4
			c-0.2,0.7-0.6,0.7-1.2,0.6c-2.7-0.5-5.3-1.6-8.1-1.9c-6.8-0.8-13.6-0.9-20.3,0.3c-4.6,0.8-9.2,1.9-13.4,4.1
			c-2.8,1.5-5.3,3.3-7.3,5.7c-4.7,5.9-3.9,14,2.3,18.3C55.2,60.1,57.3,61.8,60.1,62.3z"/>
		<path style="fill:#23C2E7;" d="M203.4,49.7c-1.2-0.2-2.2-0.3-3.3,0.1c-0.9,0.8-1.3,2-1.2,3.2c0,1.7,0,3.5,0,5.2
			c0,0.7,0.1,1.4-0.8,1.7c-1.1-0.1-1-1-1-1.8c0-1.8,0-3.7,0-5.5c0-1.1,0-2.1-0.9-3c-1.1-0.3-2.3-0.3-3.5,0.2c-1.1,1.5-1.1,3.3-1.1,5
			c0,1.2,0,2.4,0,3.7c0,0.9-0.3,1.5-1.8,1.3c-0.1-3.9,0-7.9,0.1-11.9c1.2-0.5,1.3,0.7,1.9,0.7c3.1-1.4,3.2-1.4,6.6,0.1
			c0.9,0.1,1.5-0.5,2.2-0.8c2.6-1,5.1,0.2,5.5,2.9c0.5,2.8,0.2,5.6,0.1,8.3c0,0.3-0.3,0.6-0.8,0.7c-0.8-0.1-0.9-0.7-0.9-1.5
			c0-1.9,0-3.8,0-5.8C204.3,51.7,204.3,50.6,203.4,49.7z"/>
		<path style="fill:#23C2E7;" d="M348.5,50c-1.3-0.9-2.6-0.9-3.9-0.1c-2.4,2.9-0.6,6.7-1.4,10c-1.5,0.3-1.6-0.8-1.6-1.7
			c-0.1-1.7,0-3.3,0-5c0-1,0.1-2.1-0.2-3.1c-1.2-1.4-2.5-0.9-3.9-0.3c-2.5,2.9-0.7,6.7-1.5,9.9c-0.5,0.4-0.9,0.3-1.3-0.1
			c-0.2-3.7-0.9-7.6,0-11.3c0.7-0.2,1-0.2,1.3,0c0.2,0.1,0.4,0.3,0.8,0.5c2.1-1.6,4.3-1.4,6.5,0.1c1.7-0.6,3.2-1.8,5-1.2
			c1.1,0.4,1.8,1.2,2.5,2.3c0,3.2,0,6.5,0,9.8c-1.6,0.3-1.7-0.8-1.7-1.7c-0.1-1.7,0-3.3,0-5C348.7,52.2,348.9,51.1,348.5,50z"/>
		<path style="fill:#23C2E7;" d="M239.5,74.5c-0.5,2.5-0.2,4.9-0.3,7.4c0,1,0,1.9-1.9,1.9c0-3.9,0-7.8,0-11.5
			c1.1-0.8,1.4,0.2,2.1,0.6c1.2-1.2,2.8-1.3,4.7-1c0.5,0.3,1.2,0.7,1.7,1.1c1.1,0.1,1.6-0.9,2.6-1.1c0.9-0.2,1.9-0.1,2.9,0
			c1.8,0.8,2.4,2.3,2.5,4c0.1,2.1,0,4.2,0,6.3c0,1-0.3,1.7-1.8,1.6c0-3,0-6.1,0-8.8c-1.7-1.9-1.7-1.9-4.1-1.6
			c-1.2,0.6-1.5,1.6-1.5,2.8c0,1.9,0,3.8,0,5.8c0,1-0.1,1.9-1.7,1.7c0-3,0-5.9,0-8.6C243,72.6,242.3,72.6,239.5,74.5z"/>
		<path style="fill:#23C2E7;" d="M296.3,83.8c0-5.5,0-10.7,0-16.1c2.7-0.2,5.3-0.3,7.9,0c2.5,0.3,5.1,3.4,5.4,6.1
			c0.2,2.2-0.1,4.4-1,6.4c-1.1,2.2-3,3.4-5.4,3.5C300.9,83.9,298.7,83.8,296.3,83.8z M306.4,80.6c1.8-3,2.1-6.2,0.2-9.4
			c-1.3-2.1-4.8-2.7-8.5-1.6c0,2-0.1,4.1,0,6.2c0.1,2.1-0.3,4.3,0.3,6.5C301.2,82.3,303.9,82.7,306.4,80.6z"/>
		<path style="fill:#23C2E7;" d="M211.9,72.3c-0.5,0.5-0.9,0.4-1.5,0.3c-0.8-0.8-1-2.1-2.1-2.9c-3.5-2.5-7.7-0.1-8.7,3.3
			c-1.1,3.6,0.1,6.9,3.4,9.1c1.3,0.3,2.7,0.3,4.3,0c1.6-1,2.7-2.4,3-4.4c0.5-0.4,1-0.5,1.7,0c0.1,3.2-2,4.8-4.5,6.2
			c-3.3,0.6-6.1,0-8.2-2.7c-3-3.9-2.5-10.4,2-13.1C205,66,210.9,67.2,211.9,72.3z"/>
		<path style="fill:#23C2E7;" d="M177.8,54.9c-0.7,1.7-1.3,3.3-1.8,4.7c-0.7,0.5-1.2,0.6-1.8,0c0.2-1.8,1.2-3.3,1.8-5
			c1.2-3.1,2.5-6.1,3.7-9.2c0.5-1.3,1.1-2.2,2.8-1.7c2,5.2,4.1,10.5,6.2,15.9c-1.4,0.8-1.9,0.1-2.3-0.8c-0.5-1.2-0.8-2.5-1.7-3.7
			C182.5,54.7,180.2,55,177.8,54.9z M181.2,45.7c-1,2.7-1.9,5-2.9,7.5c2.1,0,3.9,0,5.8,0C183.3,50.8,182.6,48.4,181.2,45.7z"/>
		<path style="fill:#23C2E7;" d="M279.9,43.6c2.1,5.4,4.2,10.7,6.3,16.1c-1.8,0.1-1.8,0.1-4-4.7c-2.2,0-4.5,0-6.7,0
			c-1.5,1.3-0.9,4.2-3.3,5.1c-0.9-1-0.3-1.8-0.1-2.4c1.9-4.1,3.3-8.4,5.1-12.5C277.7,44.1,278.2,43.4,279.9,43.6z M279,46.1
			c-1.4,2.4-2.5,4.6-3.2,7.3c2-0.1,3.9,0.2,5.9-0.2C280.8,50.8,279.9,48.4,279,46.1z"/>
		<path style="fill:#23C2E7;" d="M309.9,51.4c0.8-1.7,1.9-2.9,3.2-3.4c2.2-0.8,4,0.1,5.8,0.9c0.7-1.8-0.1-3.6,0.6-5.2
			c0.9-0.1,1.2,0.4,1.2,1.1c0,4.8,0,9.6,0,14.4c0,0.4-0.3,0.6-0.6,0.8c-0.7,0.2-0.8-0.5-1.4-0.8c-1.1,0.5-2.3,1.2-3.8,1.2
			c-2.8-0.1-4.7-1.7-5-4.6C309.6,54.3,309.7,52.9,309.9,51.4z M317.7,50.1c-3-2-5.4-0.2-6.1,1.8c-1.1,3.3,0.3,6.2,3.5,7.1
			C319.3,57.7,320.3,54.6,317.7,50.1z"/>
		<path style="fill:#23C2E7;" d="M210.4,60c-2.8-2.4-3.7-5.7-2.5-8.9c1-2.6,3.8-4,6.4-3.2c2.5,0.7,4.2,3.7,3.5,6.6
			c-2.6,1-5.4,0-8.1,0.6c-0.1,2.1,0.4,2.9,1.9,3.5c1.5,0.6,2.8,0.2,3.9-1.1c0.8-0.9,0.8-0.9,2-1.3C217.7,59.4,215.5,60.6,210.4,60z
			 M209.5,53.3c2.4-0.2,4.6,0.3,6.7-0.3c-0.3-2.7-1.4-3.9-3.4-3.8C210.7,49.2,209.7,50.4,209.5,53.3z"/>
		<path style="fill:#23C2E7;" d="M324.6,57.6c3,1.8,4.3,1.5,6.6-1.5c0.4-0.1,0.9-0.2,1.2,0.2c1,2.3-2.8,4.2-7.2,3.8
			c-3.3-2.5-4.2-5.7-2.5-9.4c0.8-1.9,2.2-2.8,4.2-3c2-0.2,3.6,0.6,4.7,2.3c0.8,1.3,1.6,2.7,0.8,4.5c-2.7,0.6-5.5-0.1-8.3,0.4
			C323.8,56,324.5,56.8,324.6,57.6z M324,53.2c2.5,0,4.8,0.3,7.1-0.1c-0.6-2.4-0.6-2.4-2.4-3.7C325.3,49.1,324.3,49.8,324,53.2z"/>
		<path style="fill:#23C2E7;" d="M265.5,78.5c-2.8,0-5.4,0-7.9,0c-0.6,2.8-0.1,3.4,3,4.2c2.5,0.6,2.5-2.9,4.8-2.9
			c-0.2,3.6-2,4.7-6.4,4.5c-3.7-1.8-4.2-5-3.6-8.8c2.1-3.6,2.8-4,7.1-3.5C265,73.2,266,75.3,265.5,78.5z M263.9,76.9
			c-0.5-3.2-1.1-3.8-4.1-4c-2.6,1.6-2.6,1.6-2.3,4C259.5,76.9,261.6,76.9,263.9,76.9z"/>
		<path style="fill:#23C2E7;" d="M313,78.6c-0.1,2.9,0.2,3.3,3.3,4.1c2.5,0.6,2.6-2.8,4.8-3c0.1,3.4-1.9,4.8-6.4,4.5
			c-4.1-2.1-4.4-5.3-3.5-8.6c0.8-2.9,2.5-4.5,7-3.7c2.5,1.3,3.5,3.4,3,6.4C318.5,78.7,315.8,78.3,313,78.6z M312.9,77
			c1.5,0,2.9,0,4.4,0c0.8,0,1.6,0.2,2.3-0.3c-0.4-2.9-1.2-3.6-4.2-3.8C314,73.7,312.7,74.6,312.9,77z"/>
		<path style="fill:#23C2E7;" d="M251.9,57.3c0.4,1,1.5,1.3,1.1,2.4c-1.2,1.1-1.9-0.1-2.8-1c-1.7,1.9-3.8,1.7-6,1.4
			c-2.4-1.9-2.6-2.8-1.3-5.5c1.9-1.6,4.4-1.4,6.6-1.8c0.8-0.9,0.4-1.7,0.4-2.5c-0.7-0.8-1.6-0.7-2.3-1.1c-0.8,0.2-1.6,0.5-1.9,0.6
			c-1.1,0.5-1,1.4-1.4,1.9c-0.5,0.3-1,0.3-1.4-0.1c-0.4-0.9,0.5-2.3,1.9-3.1c2.6-1.5,5-0.9,7.2,1.8
			C251.9,52.5,251.9,54.9,251.9,57.3z M243.6,56.6c0.5,1.7,1.7,2.2,3,2.4c1.1-0.3,2.2-0.7,3-1.5c0.7-1.8,0.7-1.8,0.5-3.7
			C247.7,54.5,244.9,53.8,243.6,56.6z"/>
		<path style="fill:#23C2E7;" d="M298.8,51.6c1.1-4.1,4.3-5,8.4-2.7c0.8,1.3,0.9,2.8,0.8,4.3c0,1.4,0,2.8,0,4.5
			c-0.1,0.6,1.1,0.8,1.1,1.8c-1.3,1.3-2.1,0-3-0.6c-2.4,1.6-2.5,1.6-5.9,1.2c-0.8-0.4-1.4-1-1.9-1.8c-0.3-0.9-0.2-1.9-0.1-2.9
			c1.7-2.7,4.6-2.2,7.1-2.6c0.9-0.8,0.9-1.6,0.5-2.5c-2.6-1.7-3.5-1.5-5.4,0.8C300.2,51.4,300.2,51.4,298.8,51.6z M301.8,59
			c1.7,0.1,2.8-0.6,4-1.5c0.2-1.1,1.2-2.1,0.4-3.6c-2.1,0.2-4.3,0.2-6,1.5C299.4,57.3,300.4,58.2,301.8,59z"/>
		<path style="fill:#23C2E7;" d="M351.3,84.1c-3.2,0.4-5.6-0.2-6.8-3.2c0.1-0.7,0.3-1.1,1.1-1.2c1,1,1.5,2.8,3.7,2.9
			c0.5-0.1,1.5-0.3,2.3-0.5c1-1,1-1.9,0.2-2.8c-2.2-1.2-5.2-0.7-6.7-3.2c-0.5-1.9,0.3-3.2,1.7-4.2c5.3-0.7,7.1,0.3,6.6,3.7
			c-1,0.1-1.3-0.7-1.7-1.3c-0.9-1.2-2.2-1.3-3.5-1c-1.2,0.2-1.5,1-1.3,2.2c1.7,2,4.7,1.1,6.7,3c0.2,0.5,0.4,1.2,0.6,1.7
			c0.1,1.1-0.4,1.7-0.7,2.5C352.8,83.2,352.1,83.7,351.3,84.1z"/>
		<path style="fill:#23C2E7;" d="M259.8,49.2c-0.8,0.2-1.4,0.4-2.1,0.5c-1.5,1.3-1.6,3.1-1.6,5c0,1.7,0.2,3.5-0.2,5.1
			c-0.7,0.3-1.1,0.2-1.6-0.4c0-3.6,0-7.3,0-10.9c0.9-0.7,1.6-0.1,2.4,0.3c1.4-1,2.9-1.4,4.8-1c2.1,0.9,2.9,2.6,2.9,4.9
			c0,2.3,0,4.5,0,6.5c-0.6,0.8-1,0.9-1.7,0.6c-0.4-2.3-0.2-4.6-0.1-6.9C262.6,51,262,49.7,259.8,49.2z"/>
		<path style="fill:#23C2E7;" d="M234.9,76.3c-1.9-1.4-2.5-3.7-4.9-3.1c-0.9,0.2-1.6,0.7-2,1.5c0.4,1.7,1.8,2.1,3.1,2.3
			c1.4,0.2,2.7,0.6,4,1.5c0.2,0.6,0.5,1.4,0.7,1.9c-0.1,2.2-1.5,3-3.1,3.7c-4.2,0.3-5.2-0.2-6.7-3.5c0.1-0.2,0.2-0.4,0.4-0.6
			c0.1-0.1,0.3-0.2,0.6-0.3c1.2,1,1.7,3.1,3.9,3c0.8-0.1,1.7-0.3,2.4-0.7c1.1-1.1,0.4-1.9,0-2.6c-2.3-1.3-5.1-0.8-6.6-3.1
			c-0.3-0.9-0.3-1.6-0.1-2.4c0.4-0.9,1.1-1.4,1.8-1.9c1.4-0.3,2.9-0.3,4.5-0.1C233.9,72.8,235.4,73.7,234.9,76.3z"/>
		<path style="fill:#23C2E7;" d="M330.9,74.3c-3.6-2-5.9-0.8-6.1,2.8c-0.1,1.6,0,3.1,0,4.7c0,0.8,0,1.6-0.8,2c-0.7,0-0.9-0.4-1-0.8
			c-0.4-1.8-0.1-9.5,0.4-10.8c0.8-0.5,1,0.4,1.8,0.7c1.1-0.9,2.6-1.2,4.2-1c1.9,0.2,3.1,1.3,3.2,3.2c0.1,2.9,0,5.7,0,8.6
			c-1.4,0.5-1.8-0.2-1.8-1.2c-0.1-1.4,0-2.8,0-4.2C330.9,76.9,330.9,75.6,330.9,74.3z"/>
		<path style="fill:#23C2E7;" d="M173.4,75.4c2.1-3.4,5.4-4.8,7.9-3.3c2.5,1.5,4,4.8,3,7.7c-1.2,3.3-3.8,5.1-6.7,4.4
			C174.5,83.5,173,80.4,173.4,75.4z M182.8,77.9c0-0.5,0-1.1-0.1-1.6c-0.4-1.7-1.5-2.8-3-3.3c-1.5-0.5-2.7,0.3-3.7,1.4
			c-1.7,2-1.4,5.1-0.1,6.8c1.8,2.3,4.9,1.9,6.3-0.6C182.7,79.8,182.8,78.9,182.8,77.9z"/>
		<path style="fill:#23C2E7;" d="M375.1,81.3c1.6-3.3,1.8-6.7,3.9-9.4c0.1-0.1,0.5,0,0.7,0c0.6,0.6,0.3,1.2,0.1,1.7
			c-1.5,3.9-3,7.8-4.5,11.7c-0.4,1-0.8,2-1.8,2.5c-1.1,0.6-2.1,0.8-2.8-0.6c0.2-0.2,0.3-0.5,0.5-0.6c2.6-0.7,3.3-2,2.3-4.6
			c-1.3-3.2-2.6-6.4-3.8-9.5c0.3-0.9,0.9-0.5,1.5-0.8C372.5,74.9,373.7,77.9,375.1,81.3z"/>
		<path style="fill:#23C2E7;" d="M237.9,47.8c0.6,0.4,1.4,0.9,2,1.3c0.8,1.9,0.8,1.9,0.1,2.9c-1.2-0.2-1.1-1.7-2.1-2.3
			c-1-0.4-2.2-0.3-3.4-0.1c-2.9,2.5-3.1,4.3-1.1,8c2.9,1.7,3.9,1.5,5.8-1.2c0.4-0.5,0.6-1.1,1.4-0.8c0.6,3-2.1,5.4-6.8,4.3
			c-3.3-2.6-4.1-5.2-2.8-8.8C231.8,48.8,234.2,47.1,237.9,47.8z"/>
		<path style="fill:#23C2E7;" d="M355.1,64.2c-1,0-2,0.5-2.5-0.7c0-0.6,0.5-0.6,0.9-0.7c0.4-0.1,0.8-0.3,1.2-0.5
			c0.4-0.8,1.1-1.4,1.3-2.4c-1.2-3.8-3.3-7.5-4.4-11.6c1.6-0.4,1.8,0.4,2.2,1.4c0.9,2.4,1.8,4.8,2.9,7.5c1.9-2.8,2.1-6.1,3.7-8.8
			c0.5-0.3,0.9-0.4,1.5,0.1c-1.7,4.8-3.4,9.6-5.5,14.3C356.2,63.3,355.7,63.7,355.1,64.2z"/>
		<path style="fill:#23C2E7;" d="M279.3,75.9c-0.4,4.9,0.2,5.9,3.8,6.8c1-0.2,1.8-0.7,2.4-1.5c0.5-0.7,0.7-1.6,1.7-1.9
			c1.1,3-1.3,5.1-5.6,4.8c-3.8-2.2-4.4-3.2-4.1-8.1c1.9-4.3,3.6-4.8,8-4.1c1,0.9,2.6,1.7,2.2,3.7c-2.1,0.5-1.8-2.3-3.3-2.3
			C281.2,73.1,281.1,73.1,279.3,75.9z"/>
		<path style="fill:#23C2E7;" d="M221.5,71.9c5.1,3.2,4.9,9.1-0.5,12.3c-1,0.2-2.1,0.1-3.1,0c-5.4-3.1-5.6-9-0.6-12.3
			C218.7,71.6,220.1,71.7,221.5,71.9z M222.1,81.8c0.6-0.4,0.5-1,0.8-1.5c1.2-1.7,0.7-3.5-0.1-5.2c-0.6-1.3-1.8-2.2-3.3-2.2
			c-1.5,0-2.5,0.8-3.3,2.1c-1.6,2.5-0.6,4.7,0.6,6.7C218.6,83,220.3,83,222.1,81.8z"/>
		<path style="fill:#23C2E7;" d="M292.2,49.2c-2.6,0.2-3.5,1.9-3.9,4c-0.3,1.9,0.2,3.7,1.8,4.9c1.4,1.1,3,0.8,4.4-0.2
			c0.9-0.5,0.4-2.7,2.3-2.2c-0.1,2.5-1.2,4-3.2,4.4c-3,0.7-4.7-0.2-6.8-3.6c-0.3-1.7-0.2-3.4,0-5.3c1.4-2.3,3.3-4.1,6.3-3.5
			c2,0.4,3.5,1.5,3.8,3.6c-0.4,0.5-0.8,0.6-1.5,0.4C294.9,50.6,294,49.4,292.2,49.2z"/>
		<path style="fill:#23C2E7;" d="M218.2,92.1c1.7,3.4,1.8,7.2,3.2,10.5c-0.5,0.7-0.9,0.6-1.4,0.5c-1.4-3.2-1.8-3.4-4.5-2.2
			c-0.2,0.6-0.4,1.4-0.6,2c-0.5,0.2-0.9,0.3-1.5-0.2c0.4-1.6,0.7-3.4,1.3-5.1c0.4-1.2,0.7-2.5,1-3.7
			C215.9,92.9,216.2,91.8,218.2,92.1z M218.4,98.8c0-1.4-0.1-2.7-1.1-3.9c-1.1,1.2-1.1,2.6-1.1,4C217,99,217.6,99.2,218.4,98.8z"/>
		<path style="fill:#23C2E7;" d="M176.6,100.3c-0.6,1-1.1,1.9-1.6,2.8c-0.5,0.1-0.9,0.1-1.3-0.2c0.8-3.6,1.9-7.1,3-10.6
			c0.8-0.4,1.5-0.3,2.3,0c0.4,3.6,2,7.1,2.5,10.5c-0.7,0.5-1.1,0.3-1.6,0.1c-0.2-0.8-0.5-1.6-0.7-2.4
			C178.5,100.1,177.6,100.3,176.6,100.3z M179.1,98.6c-0.9-1.2-0.2-2.7-1.4-3.9c-0.4,1.2-0.8,2.1-1.1,3.1c-0.1,0.3,0,0.6-0.1,1
			C177.3,99.1,178.1,99.1,179.1,98.6z"/>
		<path style="fill:#23C2E7;" d="M230,103.1c0-3.8,0-7.3,0-10.8c1.9-0.5,3.8-0.3,5.7-0.1c0,0.4,0.1,0.8,0.1,1.1
			c-1.2,0.8-2.6,0-4,0.7c-0.3,0.8-0.4,1.7,0.1,2.5c1.1,0.9,2.6-0.2,3.6,1.1c-1,1.2-2.6,0.1-3.7,1c-0.3,1-0.3,2.1,0,3.1
			c1.2,1.1,3.1-0.2,4.4,1.4C234,103.4,232,103.3,230,103.1z"/>
		<path style="fill:#23C2E7;" d="M191,68.3c-0.5,1.1-1.6,0.4-2.1,1c-0.6,0.6-0.6,1.3-0.5,2c0.5,0.9,1.8,0.1,2.2,1.1
			c-0.2,1.2-1.4,1-2.1,1.5c-0.6,3.3,0.4,6.6-0.6,9.8c0,0.2-0.4,0.2-0.7,0.3c-1.3-1.5-0.5-3.2-0.7-4.7c-0.1-1.6,0-3.3,0-4.4
			c-0.2-1.6-2.1-1-1.7-2.2c0.2-1.1,1.1-0.7,1.5-1.1C187.5,67.4,188.4,66.7,191,68.3z"/>
		<path style="fill:#23C2E7;" d="M356.2,69.1c0.6-0.5,1.1-0.5,1.5-0.4c0.7,0.9,0,2,0.6,2.9c0.6,0.6,1.8-0.1,2.2,1.1
			c-0.1,1.3-1.5,0.8-2.3,1.3c0,2.6,0,5.2,0,7.5c0.5,1.2,1.9,0.5,2.2,1.5c-0.9,1.4-0.9,1.4-3.1,0.5c-1.9-2.9-0.8-6.2-1.2-9.3
			c-0.3-0.7-1.5-0.7-1.5-1.5c0-1.2,1.1-0.7,1.6-1.5C356.1,70.6,356.2,69.8,356.2,69.1z"/>
		<path style="fill:#23C2E7;" d="M335,74c-0.5-0.9-1.6-0.4-1.9-1.4c0-1.1,1.3-0.5,1.8-1.3c0-0.6,0.1-1.5,0.1-2.2
			c0.6-0.6,1-0.5,1.5-0.2c0.5,0.8,0.1,1.7,0.4,2.6c0.4,0.7,1.3,0.2,1.8,0.7c0.3,0.4,0.2,0.8,0,1.2c-0.5,0.5-1.2,0.2-1.8,0.7
			c0,2.5,0,5.2,0,7.8c0.5,0.8,1.4,0.3,1.9,0.9c0.2,0.4,0.2,0.8-0.1,1.2c-0.8,0.7-2.3,0.1-3.8-1.7C335,79.5,335,76.6,335,74z"/>
		<path style="fill:#23C2E7;" d="M184.8,98c0,1.8,0,3.3,0,4.7c-0.7,0.7-1.1,0.5-1.7,0c0.2-3.4-0.3-6.9,0.3-10.5
			c1.9-0.5,3.6-0.1,5.2-0.2c0.4,0.6,0.4,1,0.1,1.4c-1.1,0.5-2.4,0-3.6,0.4c-0.5,0.9-0.3,1.8-0.1,2.7c1.2,0.8,2.8-0.3,3.9,0.9
			c-0.4,0.9-1.2,0.6-1.9,0.6C186.4,98.1,185.8,98,184.8,98z"/>
		<path style="fill:#23C2E7;" d="M269.4,68.6c0.8,1.1,0.1,2.2,0.6,3c0.6,0.6,1.6,0,2.2,0.7c0.3,1.8-1.6,1-2.3,1.9
			c-0.1,2.5-0.1,5.1,0,7.3c0.6,1.2,1.7,0.7,2.3,1.2c0.2,0.3,0.3,0.7,0,1c-1.5,1.2-3.5,0.4-3.8-1.7c-0.2-1.5-0.1-3-0.1-4.4
			c0-1.1,0-2.2,0-3.2c-0.6-0.8-2-0.5-2-1.7c0.1-1.1,1.4-0.4,1.8-1.1C268.8,70.7,267.5,69,269.4,68.6z"/>
		<path style="fill:#23C2E7;" d="M225.5,102.9c-0.6,0.3-1,0.3-1.5,0c0-2.9,0-5.9,0-8.3c-0.5-1-0.9-1-1.4-1c-0.3,0-0.7-0.1-0.9-0.1
			c-0.5-0.5-0.4-0.9-0.1-1.4c2.1,0,4.2,0,6.3,0c0.3,0.4,0.3,0.7,0.2,1.1c-0.5,0.8-1.5,0.1-2.3,0.8
			C225.3,96.8,225.7,99.8,225.5,102.9z"/>
		<path style="fill:#23C2E7;" d="M362.5,72.1c1.2-0.6,1.5,0.5,2.2,0.8c1.1-0.2,2-1.4,3.4-0.9c0.5,0.4,0.4,0.9,0.2,1.5
			c-0.2,0.1-0.4,0.2-0.7,0.3c-2.4,0.5-3.3,1.4-3.4,3.8c-0.1,2,0,4,0,5.7c-0.6,0.8-1.1,0.5-1.7,0.4C362.5,79.7,362.5,75.9,362.5,72.1
			z"/>
		<path style="fill:#23C2E7;" d="M220.9,60c-1-1.5-1.2-7.9-0.5-11.7c1.3-0.6,1,0.7,1.5,1.3c1.1-0.7,2.1-1.8,3.5-1.8
			c0.5,0.2,0.9,0.6,0.7,1.2c0,0.3-0.3,0.4-0.5,0.5c-2.9,0.8-3.6,1.6-3.7,4.5c0,1.4,0,2.8,0,4.2C222,59,222,59.7,220.9,60z"/>
		<path style="fill:#23C2E7;" d="M202.6,103.1c0.1-3.8-0.1-7.4,0.2-11.3c1.5,0.6,1.5,1.6,1.5,2.7c0,2.3-0.2,4.7,0.2,6.9
			c1.2,1.2,3,0,4.4,1.3C206.7,103.6,204.8,103.1,202.6,103.1z"/>
		<path style="fill:#23C2E7;" d="M192.4,98.4c-0.6,1.5,0.3,3.3-0.6,4.8c-1-1.3-1.2-7.8-0.5-11c2.7-0.4,3.2-0.3,5,0.2
			c-0.4,0.9-0.4,0.9-3.8,1.5c-0.4,1-0.3,1.9,0.5,2.8c1,0.5,2.3-0.1,3.4,0.6C195.4,98.7,193.8,97.5,192.4,98.4z"/>
		<path style="fill:#23C2E7;" d="M342.6,71.9c0,4,0,7.8,0,11.5c-0.5,0.5-0.9,0.5-1.3,0.3c-0.1-0.1-0.3-0.3-0.3-0.4
			c0-3.2-0.1-6.5-0.1-9.7C340.9,72.6,341.1,71.9,342.6,71.9z"/>
		<path style="fill:#23C2E7;" d="M198.7,92c0.5,0,0.9,0.1,1.4,0.1c0,3.6,0,7.1,0,10.7c-0.3,0.4-0.7,0.4-1.4,0.3
			C198.7,99.5,198.7,95.9,198.7,92z"/>
		<path style="fill:#23C2E7;" d="M211.8,92.2c0,3.6,0,7.1,0,10.6c-0.5,0.4-0.9,0.4-1.5,0.1c0-3.6,0-7.2,0-10.7
			C210.8,92,211.1,92,211.8,92.2z"/>
		<path style="fill:#23C2E7;" d="M275.6,84c-0.8-0.3-1.2-0.4-1.2-0.5c-0.6-3.8-0.1-7.6-0.3-11.2c0.7-0.5,1.2-0.5,1.5-0.3
			C275.6,76,275.6,79.8,275.6,84z"/>
		<path style="fill:#23C2E7;" d="M228.7,59.8c-0.6,0.2-1,0-1.1-0.3c-0.6-3.3-0.1-6.6-0.3-9.9c0-0.8-0.1-1.6,1.3-1.5
			C228.7,52.1,228.7,56,228.7,59.8z"/>
		<path style="fill:#23C2E7;" d="M274.6,70.1c-0.7-0.8-0.4-1.5-0.4-2.1c0.5-0.6,1-0.5,1.6-0.3C276.1,68.8,276.2,69.8,274.6,70.1z"/>
		<path style="fill:#23C2E7;" d="M342.5,67.6c0.4,0.9,0.4,1.7,0,2.3c-1,0.3-1.5-0.1-1.5-0.9C340.9,68.1,341.3,67.5,342.5,67.6z"/>
		<path style="fill:#23C2E7;" d="M228.5,46.2c-1.5-1.1-1.6-1.7-0.1-2.6C228.9,44.8,228.9,44.8,228.5,46.2z"/>
		<path style="fill:#23C2E7;" d="M132.1,45.5c0.4,3.3,0.1,6.6,0.2,9.9c0,1,0.1,1.9,0.1,2.9c0,0.6,0,1.1,0,1.7
			c-0.1,8.7-0.2,17.3,0,26c-0.1,0.7-1.1,0.8-1.1,1.5c-5.1-0.1-10.3-0.1-15.4-0.4c1.9-1,3.9-0.4,5.7-0.8c0.1-0.2,0.3-0.3,0.3-0.5
			c0.2-8.5,0.2-17.1,0-25.6c0-0.5,0-1,0-1.4c0.3-2.2,0.2-4.4,0.1-6.6C125.3,50,128.4,47.4,132.1,45.5z"/>
		<path style="fill:#23C2E7;" d="M87.7,71c2.3,5.1,4.6,10.1,6.9,15.3c1.9,0.4,3.9-0.2,5.7,0.7c-5.1,0.5-10.3,0.5-15.4,0.3
			C84.6,81.6,85.2,76.1,87.7,71z"/>
		<path style="fill:#23C2E7;" d="M121.7,58.7c0,0.5,0,1,0,1.4c-6.4,2.3-12.4,5.3-17.2,10.3c-0.8,0.2-1.5,0.4-2.5,0
			C107.8,65.1,114.1,60.7,121.7,58.7z"/>
	</g>
	<g>
		<path style="fill:#23C2E7;" d="M507.1,293.3c-1-1.6-2.1-3.2-3.1-4.8c-9.5-15.3-19.1-30.6-28.6-45.9c-7.2-11.6-14.4-23.2-21.7-34.8
			c-0.4-0.6-0.4-1.1,0-1.7c0.5-0.8,0.9-1.7,1.3-2.5c0.1,0,0.3,0,0.4,0c0.1,0.2,0.1,0.5,0.2,0.7c6.4,11.1,12.8,22.1,19.2,33.2
			c8.2,14.1,16.3,28.2,24.5,42.3c2.4,4.1,4.7,8.1,7.1,12.2C506.8,292.4,506.9,292.9,507.1,293.3L507.1,293.3z"/>
		<path style="fill:#23C2E7;" d="M452.1,302.1c-0.5,0.6-1,1.2-1.6,1.7c-4.8,4.1-10.3,7-16.4,8.7c-2.5,0.7-5.1,1.2-7.6,1.4
			c-0.2,0-0.3,0.1-0.4,0.2c-2.5,0-5,0-7.5,0c-0.7-0.1-1.4-0.3-2.1-0.4c-4.4-0.5-8.6-1.8-12.5-3.6c-3.6-1.7-6.9-3.7-9.9-6.4
			c-1.7-1.5-3.2-3.2-4.8-4.8c-0.8-0.8-0.7-0.8-0.2-1.8c0.3-0.5,0.5-1,0.8-1.6c1.2,1.4,2.4,2.8,3.6,4c5.9,5.9,12.9,9.9,21.1,11.8
			c3.8,0.8,7.6,1.1,11.4,0.9c7.7-0.5,14.8-2.9,21.4-6.9c1.5-0.9,3-1.9,4.4-2.9C451.9,302.2,452,302.2,452.1,302.1L452.1,302.1z"/>
		<path style="fill:#23C2E7;" d="M366.4,300.8c0.2-0.3,0.5-0.6,0.7-0.9c10.3-16.6,20.6-33.3,30.9-49.9c0.2-0.3,0.3-0.5,0.5-0.8
			c0.1,0,0.1,0.1,0.1,0.1c-5.8,10.7-11.7,21.4-17.5,32c-3.4,6.3-6.8,12.5-10.2,18.8c-0.4,0.7-0.8,0.9-1.5,0.9c-1-0.1-2,0-2.9,0
			C366.4,301,366.4,300.9,366.4,300.8z"/>
		<path style="fill:#23C2E7;" d="M636.4,262.6c-1.4,1.5-3.2,1.9-5.1,1.5c-0.9-0.2-1.9-0.3-3-0.5c0.3-0.7,0.6-1.3,0.9-2
			c0.9,1.1,3.3,1.6,4.6,1c0.2-0.1,0.5-0.5,0.5-0.7c0-0.2-0.4-0.5-0.6-0.5c-0.9-0.1-1.7-0.1-2.6-0.2c-0.5-0.1-1-0.2-1.4-0.4
			c-1.3-0.6-1.4-2.2-0.2-2.9c1-0.7,2.1-0.8,3.3-0.7c1.1,0.1,2.2,0.3,3.4,0.5c-0.3,0.6-0.6,1.2-0.8,1.7c-1-1.1-2.3-1-3.5-0.9
			c-0.5,0-1,0.1-1.1,0.9c0.4,0.1,0.8,0.2,1.1,0.3c0.6,0.1,1.1,0,1.7,0.1c1.1,0.1,2.1,0.4,2.9,1.2C636.4,261.5,636.4,262,636.4,262.6
			z"/>
		<path style="fill:#23C2E7;" d="M498.4,295c-7.6-12-15.3-24.1-22.9-36.1c-8.4-13.2-16.7-26.4-25.1-39.6c-0.7-1.1-1.4-2.3-2.2-3.5
			c0.7-1.2,1.4-2.4,2.2-3.7c0.2,0.4,0.5,0.7,0.6,1c9.5,16.3,19,32.6,28.5,49c6.3,10.8,12.6,21.6,18.9,32.5c0.1,0.1,0.1,0.2,0.2,0.4
			C498.5,294.8,498.5,294.9,498.4,295z"/>
		<path style="fill:#23C2E7;" d="M494.4,296.5c-7.5-11.6-14.9-23.3-22.4-34.9c-8.8-13.7-17.6-27.5-26.4-41.2
			c-0.1-0.1-0.1-0.2-0.2-0.3c0.7-1.2,1.4-2.4,2.2-3.8c1.1,1.8,2,3.4,3,5.1c6.3,10.7,12.6,21.4,18.8,32.1
			c8.2,14.1,16.5,28.2,24.7,42.2c0.1,0.2,0.2,0.5,0.4,0.7C494.5,296.4,494.5,296.4,494.4,296.5z"/>
		<path style="fill:#23C2E7;" d="M502.8,295c-4.4-7.2-8.8-14.3-13.3-21.5c-11.2-18.1-22.3-36.3-33.5-54.4c-1.5-2.5-3.1-5-4.6-7.5
			c-0.3-0.5-0.4-0.9,0-1.4c0.5-0.8,1-1.7,1.5-2.6c0.2,0.3,0.4,0.6,0.5,0.8c10,17.4,20,34.9,30,52.3c6.4,11.2,12.9,22.5,19.3,33.7
			c0.1,0.2,0.2,0.4,0.3,0.6C502.9,295,502.8,295,502.8,295z"/>
		<path style="fill:#23C2E7;" d="M446.5,275c-0.2-0.3-0.5-0.6-0.7-0.9c-10-15-20.1-30-30.1-45.1c-1.7-2.5-3.4-5-5.1-7.6
			c0.7-1.2,1.4-2.4,2.2-3.8c0.2,0.3,0.4,0.6,0.6,0.9c10.9,18.5,21.8,36.9,32.7,55.4C446.2,274.2,446.3,274.6,446.5,275L446.5,275z"
			/>
		<path style="fill:#23C2E7;" d="M414.1,243.5c-1.6,3.2-3.2,6.5-4.8,9.7c-5.8,11.7-11.6,23.5-17.4,35.2c-2,4.1-4,8.2-6.1,12.3
			c-0.1,0.2-0.2,0.4-0.3,0.6c-1.4,0-2.8,0-4.3,0c0.2-0.3,0.3-0.6,0.4-0.8c10.1-17.9,20.2-35.7,30.3-53.6c0.7-1.2,1.4-2.4,2.2-3.7
			C414.1,243.4,414.1,243.5,414.1,243.5z"/>
		<path style="fill:#23C2E7;" d="M376.7,280.4c-1.1-4.1-1.7-8.2-1.5-12.4c0.3-5.5,1.4-10.8,3.6-15.8c2.5-5.7,6-10.6,10.5-14.8
			c5-4.7,10.9-7.9,17.5-9.8c1.4-0.4,2.9-0.7,4.4-1c0.4-0.1,0.7-0.1,1,0.3c0.4,0.6,0.8,1.3,1.2,1.9c-2.1,0.5-4,0.9-6,1.4
			c-5.6,1.5-10.7,4.1-15.2,7.7c-5.1,4.1-9,9.1-11.7,15c-1.8,4-3,8.1-3.6,12.4c-0.5,3.2-0.7,6.4-0.6,9.6
			C376.3,276.8,376.5,278.6,376.7,280.4z"/>
		<path style="fill:#23C2E7;" d="M459.4,281.8c0.5-1.6,1-3,1.5-4.5c0.8-2.8,1.4-5.7,1.5-8.6c0.1-1.4,0.2-2.8,0.2-4.2
			c-0.1-6.9-1.8-13.4-5.2-19.5c-2.1-3.8-4.7-7.2-7.8-10.1c-4.6-4.4-10-7.9-15.9-10.4c-0.2-0.1-0.4-0.2-0.5-0.4
			c1.2,0.4,2.3,0.8,3.5,1.2c5.4,2,10.2,5,14.4,9c6,5.6,10,12.3,12.3,20.1c1.4,4.7,1.9,9.5,1.6,14.4c-0.2,4.2-1.1,8.4-2.6,12.4
			c-0.1,0.4-0.3,0.6-0.7,0.6C461,281.8,460.2,281.8,459.4,281.8z"/>
		<path style="fill:#23C2E7;" d="M510.3,258.7c-1.6,2.4-3.1,4.9-4.7,7.4c-1.6-2.5-3.1-5-4.7-7.6c0,0.5-0.1,0.7-0.1,0.9
			c0,1.8,0,3.6,0,5.4c0,0.6,0,1.1,0.7,1.4c-1.6,0-3.1,0-4.7,0c0.7-0.6,0.7-0.6,0.7-1.6c0-2.5,0-5,0-7.5c0-0.6,0-1.1-0.7-1.4
			c2.4-0.1,4.7-0.1,7.3-0.1c-0.3,0.3-0.5,0.5-0.8,0.7c0.8,1.3,1.6,2.7,2.5,4.3c1-1.5,1.9-2.8,2.9-4.3c-0.3-0.1-0.5-0.2-0.8-0.4
			c0-0.1,0.1-0.1,0.1-0.2c2.4,0,4.7,0,7.2,0c-0.2,0.3-0.5,0.5-0.6,0.7c-0.1,0.3-0.1,0.6-0.1,0.9c0,2.4,0,4.8,0,7.2
			c0,0.6-0.2,1.3,0.6,1.7c-1.7,0-3.4,0-5.3,0c0.9-0.5,0.8-1.2,0.8-1.9c0-1.9,0-3.8,0-5.6C510.4,258.7,510.4,258.7,510.3,258.7z"/>
		<path style="fill:#23C2E7;" d="M458.1,282.2c-0.9,0-1.8,0-2.8,0c4.6-11.1,5-22.3,0.4-33.4c-4.6-11.1-12.6-18.9-23.6-23.7
			C454.1,231.6,468.4,258,458.1,282.2z"/>
		<path style="fill:#23C2E7;" d="M415.9,232.4c-5.9,0.7-11.3,2.4-16.4,5.2c-5,2.8-9.3,6.5-12.9,11.1c-3.6,4.6-6.1,9.7-7.6,15.3
			c-1.5,5.5-1.8,11.1-1,16.8c-0.1,0-0.2,0-0.3,0c-0.2-1.4-0.5-2.8-0.6-4.2c-0.1-1.5-0.2-3-0.2-4.5c0.1-8,2.2-15.5,6.5-22.3
			c4.6-7.4,10.9-12.9,18.8-16.5c3.6-1.7,7.5-2.7,11.4-3.4c0.6-0.1,1,0,1.3,0.6C415.1,231.2,415.5,231.7,415.9,232.4z"/>
		<path style="fill:#23C2E7;" d="M452.7,300.4c-0.9,0.7-1.8,1.5-2.7,2.2c-5.3,4-11.3,6.5-17.8,7.8c-3.6,0.7-7.3,0.9-11,0.6
			c-8.8-0.7-16.7-3.7-23.6-9.2c-2.6-2.1-4.9-4.5-7.1-7.1c-0.2-0.3-0.4-0.6-0.2-0.9c0.4-0.7,0.7-1.3,1.2-2.1
			c7.3,9.6,16.8,15.5,28.8,17.1c11.9,1.6,22.6-1.4,32.2-8.6C452.6,300.2,452.6,300.3,452.7,300.4z"/>
		<path style="fill:#23C2E7;" d="M401.1,287.7c2.5-0.2,5-0.3,7.5-0.5c3.3-0.2,6.5-0.4,9.8-0.6c2.3-0.1,4.5-0.3,6.8-0.4
			c3.1-0.2,6.2-0.4,9.4-0.6c3.1-0.2,6.2-0.4,9.3-0.6c3.4-0.2,6.8-0.4,10.2-0.7c3.1-0.2,6.2-0.4,9.4-0.6c0.9-0.1,1.7-0.2,2.6-0.2
			c0.3,0,0.7,0.1,0.9,0.4c0.7,1,1.3,2.1,2,3.4c-1.3,0-2.4,0-3.5,0c-3.1,0-6.2,0-9.3,0c-1.5,0-2.9,0.1-4.4,0.1
			c-7.6,0-15.1,0-22.7,0.1c-6.6,0-13.2,0.1-19.7,0.2c-2.4,0-4.7,0.1-7.1,0.1c-0.3,0-0.7,0-1,0C401.1,287.8,401.1,287.8,401.1,287.7z
			"/>
		<path style="fill:#23C2E7;" d="M446.7,267.6c-5.7-8.6-11.4-17.3-17.2-25.9c-5.2-7.9-10.4-15.7-15.6-23.6c-0.2-0.3-0.4-0.6-0.6-0.9
			c0.7-1.2,1.4-2.4,2.2-3.8c0.5,0.8,0.9,1.5,1.3,2.2c10,17.2,20,34.3,30,51.5c0.1,0.1,0.1,0.2,0.1,0.3
			C446.9,267.5,446.8,267.5,446.7,267.6z"/>
		<path style="fill:#23C2E7;" d="M451,282.4c0.6-1.6,1.2-3.1,1.8-4.6c1.3-3.6,2.1-7.4,2.3-11.3c0.6-7.9-1.1-15.4-4.8-22.4
			c-3.9-7.3-9.5-13-16.7-17c-0.3-0.2-0.6-0.5-0.9-0.7c0-0.1,0.1-0.2,0.1-0.2c0.2,0.1,0.5,0.1,0.7,0.2c3.8,1.8,7.3,4.1,10.4,6.9
			c5.7,5.1,9.6,11.4,12,18.6c0.9,2.9,1.5,5.8,1.7,8.9c0.3,2.8,0.2,5.6-0.1,8.3c-0.5,4.3-1.6,8.4-3.3,12.3c-0.3,0.6-0.7,0.9-1.3,0.9
			C452.3,282.4,451.7,282.4,451,282.4z"/>
		<path style="fill:#23C2E7;" d="M378.8,279.9c-1.1-3.6-0.7-13.4,3.1-21.7c3.2-6.9,7.8-12.6,14-17c6.2-4.4,13.1-6.9,20.7-7.6
			c0.1,0.2,0.3,0.4,0.5,0.6c0.3,0.5,0.6,1.1,1,1.7c-1.2,0.2-2.3,0.3-3.3,0.5c-5.2,0.7-10,2.4-14.5,4.9c-3.8,2.1-7.2,4.8-10.1,8
			c-4.3,4.7-7.5,10.1-9.4,16.2c-0.9,3-1.6,6.1-1.7,9.3c-0.1,1.4-0.1,2.7-0.2,4.1C378.9,279.2,378.8,279.5,378.8,279.9z"/>
		<path style="fill:#23C2E7;" d="M407.4,247.1c-3.4,6.7-6.7,13.4-10.1,20.2c-5.5,10.9-10.9,21.8-16.4,32.8c-0.2,0.3-0.3,0.7-0.5,1
			c-1.4,0-2.8,0-4.3,0c0.2-0.3,0.3-0.6,0.4-0.9c10.2-17.8,20.4-35.5,30.6-53.3C407.3,247,407.3,247,407.4,247.1z"/>
		<path style="fill:#23C2E7;" d="M393.5,287.9c0.9,1.1,1.6,2.2,2.4,3.1c3.7,4.5,8.1,8.1,13.3,10.8c4.1,2.1,8.5,3.6,13.1,4.2
			c3.1,0.4,6.2,0.6,9.4,0.3c3.6-0.3,7.1-1,10.5-2.1c2.8-1,5.5-2.2,8-3.7c0.4-0.2,0.8-0.3,1.2-0.5c0,0.1,0.1,0.2,0.1,0.2
			c-0.2,0.2-0.3,0.4-0.5,0.5c-5.2,3.7-11,6-17.3,7.1c-3,0.5-6,0.7-9,0.6c-7.6-0.4-14.7-2.7-21.1-6.9c-2.4-1.6-4.6-3.3-6.5-5.3
			c-1.6-1.6-2.9-3.4-4.3-5.1c-0.3-0.4-0.4-0.7-0.1-1.1C392.8,289.2,393.1,288.6,393.5,287.9z"/>
		<path style="fill:#23C2E7;" d="M471,291.8c-21.7,0.1-43.2,0.1-64.7,0c1.1-0.1,2.3-0.2,3.4-0.3c1.8-0.1,3.7-0.2,5.5-0.3
			c2.8-0.2,5.7-0.4,8.5-0.6c1.1-0.1,2.3-0.1,3.4-0.2c1.8-0.1,3.6-0.2,5.4-0.3c2.8-0.2,5.6-0.4,8.4-0.6c1.3-0.1,2.6-0.2,3.8-0.2
			c1.6-0.1,3.2-0.1,4.8-0.2c2.9-0.2,5.8-0.4,8.7-0.6c1.1-0.1,2.2-0.1,3.3-0.2c2.1-0.1,4.2-0.3,6.2-0.4c0.6,0,1.1,0.1,1.4,0.7
			C469.7,289.7,470.3,290.6,471,291.8z"/>
		<path style="fill:#23C2E7;" d="M420.7,240.1c-0.5,0-0.8,0.1-1.1,0.1c-6.5,0.3-12.6,2.1-18.3,5.3c-3.7,2.1-7,4.7-9.9,7.8
			c-4.3,4.6-7.4,10-9.2,16.1c-0.7,2.3-1.2,4.7-1.5,7.1c-0.1,0.5-0.5,1-0.7,1.5c-0.1,0-0.2,0-0.3-0.1c0-0.6,0-1.1,0-1.7
			c0.5-7.5,2.8-14.4,7-20.5c5.4-7.8,12.6-13.3,21.6-16.2c3.2-1,6.5-1.6,9.9-1.9c0.6-0.1,1,0.1,1.3,0.7
			C420,238.9,420.3,239.4,420.7,240.1z"/>
		<path style="fill:#23C2E7;" d="M394.5,286.1c0.4-0.7,0.8-1.5,1.3-2.4c0.2,0.2,0.4,0.4,0.5,0.6c1.9,2.9,4.1,5.6,6.7,8
			c4.8,4.4,10.3,7.6,16.5,9.4c4.6,1.3,9.2,1.9,13.9,1.6c4.7-0.3,9.3-1.3,13.7-3.2c0.7-0.3,1.3-0.4,2,0
			C430.1,310.7,405.8,304.3,394.5,286.1z"/>
		<path style="fill:#23C2E7;" d="M433.9,228.2c1.1,0.8,2.3,1.5,3.4,2.4c4,3.1,7.4,6.7,10,10.9c2.8,4.5,4.6,9.3,5.6,14.5
			c0.7,3.5,0.8,7.1,0.5,10.6c-0.4,5.3-1.8,10.3-4.1,15.1c-0.3,0.6-0.6,0.9-1.4,0.8c-0.5-0.1-1.1,0-1.8,0c0.1-0.3,0.2-0.6,0.3-0.8
			c1.8-3.4,3-7,3.8-10.8c0.7-3.4,0.9-6.8,0.7-10.3c-0.2-4.6-1.2-9-2.9-13.2c-2.4-5.9-5.9-10.9-10.6-15.2c-0.9-0.8-1.8-1.5-2.7-2.3
			C434.1,229.4,434.1,229.4,433.9,228.2z"/>
		<path style="fill:#23C2E7;" d="M506.6,282.6c0.5-0.3,0.5-0.8,0.5-1.4c0-2.6,0-5.2,0-7.7c0-0.6,0-1.1-0.6-1.5
			c0.1,0,0.3-0.1,0.4-0.1c3,0,5.9,0,8.9,0.1c1.2,0,2.4,0.3,3.6,0.6c2.2,0.7,3.5,2.6,3.5,4.7c0,2.2-1.3,3.9-3.5,4.7
			c-0.8,0.3-1.8,0.6-2.6,0.6C513.4,282.7,510,282.6,506.6,282.6z M511.4,274.4c0,2,0,3.9,0,5.8c1,0,1.9,0,2.8,0c0.4,0,0.8,0,1.1-0.1
			c0.6-0.1,1.3-0.2,1.9-0.5c0.9-0.4,1.4-1.1,1.4-2.1c0-1.5-0.7-2.5-2.3-2.8C514.7,274.5,513.1,274.5,511.4,274.4z"/>
		<path style="fill:#23C2E7;" d="M448.1,263.4c-2.8-4.4-5.6-8.8-8.3-13.3c-7.7-12.3-15.4-24.6-23.1-36.9c-0.2-0.3-0.4-0.6-0.6-0.9
			c0.6-1.1,1.3-2.2,2-3.4c1.9,3.5,3.8,6.8,5.7,10.2c7.9,14.2,15.8,28.4,23.7,42.6c0.3,0.5,0.6,1.1,0.9,1.7
			C448.3,263.4,448.2,263.4,448.1,263.4z"/>
		<path style="fill:#23C2E7;" d="M400.2,252.3c0.8-1.3,1.6-2.6,2.4-4c0.1,0.1,0.1,0.1,0.2,0.2c-2,3.8-4,7.6-6,11.3
			c-6.9,12.9-13.7,25.9-20.6,38.8c-0.4,0.8-0.9,1.6-1.3,2.4c-1.3,0-2.5,0-3.9,0c1.2-1.9,2.2-3.8,3.4-5.6c8.5-14.2,17-28.3,25.5-42.5
			c0-0.1,0.1-0.1,0.1-0.2C400.1,252.6,400.2,252.5,400.2,252.3z"/>
		<path style="fill:#23C2E7;" d="M449.2,258.6c-0.2-0.2-0.4-0.3-0.5-0.5c-10-16.4-20-32.7-29.9-49.1c-0.1-0.2-0.2-0.4-0.3-0.6
			c0.6-1.1,1.3-2.2,2-3.4c1.2,2.2,2.3,4.3,3.5,6.4c7.3,13.5,14.5,27,21.8,40.5C446.9,254.1,448,256.3,449.2,258.6L449.2,258.6z"/>
		<path style="fill:#23C2E7;" d="M408.1,294.9c2.7,0,5.5-0.1,8.2-0.1c2.3-0.1,4.7-0.1,7-0.2c2-0.1,4-0.1,6-0.2
			c3.9-0.1,7.8-0.3,11.7-0.4c3.7-0.1,7.4-0.3,11-0.4c4.2-0.1,8.3-0.3,12.5-0.4c2.1-0.1,4.2-0.2,6.3-0.3c0.3,0,0.7,0,0.9,0.4
			c0.5,0.9,1.1,1.9,1.7,2.9c-0.6,0.1-1,0.2-1.5,0.2c-3.5,0-7-0.1-10.5-0.2c-3.9-0.1-7.8-0.1-11.7-0.2c-4.2-0.1-8.5-0.1-12.7-0.2
			c-4.2-0.1-8.4-0.1-12.6-0.2c-5.5-0.1-10.9-0.2-16.4-0.3C408,295,408,295,408.1,294.9z"/>
		<path style="fill:#23C2E7;" d="M413.3,298.1c1,0,1.9,0,2.9,0c3.5-0.1,6.9-0.1,10.4-0.2c3.4-0.1,6.9-0.2,10.3-0.2
			c3-0.1,6.1-0.1,9.1-0.2c2.9-0.1,5.7-0.1,8.6-0.2c3-0.1,5.9-0.1,8.9-0.2c2.3-0.1,4.5-0.1,6.8-0.2c1,0,1.9-0.1,2.9-0.2
			c0.5,0,0.8,0.1,1.1,0.6c0.5,0.9,1.1,1.9,1.7,2.9c-0.9,0-1.6,0-2.3,0c-1.4,0-2.7-0.1-4.1-0.2c-3.1-0.1-6.1-0.2-9.2-0.2
			c-4.1-0.1-8.2-0.3-12.3-0.4c-2.5-0.1-4.9-0.1-7.4-0.2c-2.6-0.1-5.3-0.1-7.9-0.2c-4-0.1-8.1-0.3-12.1-0.4c-2.5-0.1-4.9-0.2-7.4-0.3
			C413.2,298.2,413.3,298.2,413.3,298.1z"/>
		<path style="fill:#23C2E7;" d="M530.9,286.6c-0.5,0.9-1.1,1.8-1.8,2.9c-0.7-1.4-1.9-1.4-3-1.5c-1.3-0.2-2.7-0.1-4.1,0
			c-0.5,0-0.9,0.2-1.4,0.4c-0.2,0.1-0.5,0.5-0.5,0.6c0.1,0.2,0.4,0.5,0.6,0.6c0.7,0.1,1.4,0.2,2.2,0.2c1.8,0.2,3.5,0.3,5.3,0.5
			c0.6,0.1,1.3,0.3,1.9,0.7c1.5,0.8,1.8,2.7,0.6,3.9c-0.7,0.6-1.6,1.1-2.5,1.4c-1.6,0.6-3.3,0.6-5,0.6c-2.2-0.1-4.3-0.3-6.4-0.9
			c-0.4-0.1-0.8,0.1-1.3,0.2c0.7-1.2,1.4-2.3,2.2-3.5c0.3,1,1.1,1.3,1.8,1.5c2,0.6,4,0.7,6,0.5c0.2,0,0.5-0.1,0.7-0.2
			c0.9-0.2,1.3-0.6,1.3-1.1c0-0.5-0.6-0.9-1.5-0.9c-1.3-0.1-2.6-0.1-4-0.2c-1.2-0.1-2.4-0.4-3.6-0.6c-0.4-0.1-0.7-0.3-1-0.5
			c-1.4-0.9-1.5-2.5-0.3-3.5c0.5-0.4,1.1-0.8,1.8-1c2.3-0.9,4.7-0.8,7-0.5c0.9,0.1,1.8,0.4,2.8,0.5
			C529.4,286.5,530.1,286.5,530.9,286.6z"/>
		<path style="fill:#23C2E7;" d="M537.8,272.8c0.7,1.5,2.2,2.4,3.2,3.6c0.1,0,0.2-0.1,0.3-0.1c-0.1-1.1-0.1-2.3-0.2-3.5
			c0.6,0,1.3,0,2,0c-0.2,2.3-0.2,4.5,0,6.8c-0.7,0-1.4,0-2,0c-0.3-0.5-0.6-0.9-0.9-1.2c-1-1-2-2-3.1-3.1c0,1.5,0,2.9,0,4.3
			c-0.6,0-1.3,0-2,0c0-1.1,0-2.3,0-3.4c0-1.1,0.1-2.3-0.1-3.4C535.9,272.8,536.9,272.8,537.8,272.8z"/>
		<path style="fill:#23C2E7;" d="M537,295.4c-0.8-0.2-1.7-0.4-2.5-0.7c-1.4-0.6-2-1.8-1.9-3.4c0.1-1.4,1-2.3,2.2-2.8
			c1.7-0.7,3.4-0.6,5,0.4c2,1.3,2,4.1,0,5.5C539,295,538.3,295.2,537,295.4z M537,293.6c0.7,0,1.4-0.1,1.8-0.8
			c0.6-1,0.4-2.2-0.6-2.8c-1.1-0.6-2.7-0.2-3.2,0.8C534.3,292.2,535.3,293.6,537,293.6z"/>
		<path style="fill:#23C2E7;" d="M531.8,277.8c0,0.7,0,1.3,0,1.9c-2.4,0-4.8,0-7.2,0c0.5-1.2,0.2-2.4,0.3-3.5c0-1.1,0.1-2.3-0.1-3.4
			c1.9,0,3.8,0,5.8,0c0.4,0,0.8-0.1,1.2-0.1c0,0.5,0,1.2,0,1.9c-1.6,0-3.1,0-4.7,0c0,0.2,0,0.5-0.1,0.7c1.1,0,2.1,0,3.1,0
			c0,0.6,0,1.2,0,1.7c-1,0-2,0-3.1,0c0,0.3,0,0.6-0.1,1C528.3,278.1,531.2,278.1,531.8,277.8z"/>
		<path style="fill:#23C2E7;" d="M601.5,259c0,0.2,0,0.5,0,0.8c1,0,2,0.2,3.1-0.3c0,0.7,0,1.4,0,1.9c-1,0-2-0.1-3-0.1
			c0,0.4,0,0.8-0.1,1.2c1.7-0.1,3.2,0.2,4.8-0.2c0,0.6,0,1.3,0,1.9c-0.9,0-1.7-0.1-2.6-0.1c-1.5,0-3.1,0-4.5,0
			c0.3-2.2,0.2-4.5,0-6.8c2.3-0.2,4.7,0.2,7-0.2c0,0.6,0,1.3,0,1.9C604.6,259,603.1,259,601.5,259z"/>
		<path style="fill:#23C2E7;" d="M588.5,263.7c0.3-0.7,0.6-1.3,0.9-2c1.2,1.3,2.8,1.1,4.3,1c0.1,0,0.3-0.1,0.4-0.2
			c0.2-0.2,0.4-0.4,0.4-0.6c0-0.1-0.3-0.4-0.5-0.5c-0.5-0.1-1-0.1-1.5-0.2c-0.9-0.1-1.7-0.2-2.5-0.4c-0.6-0.2-1.1-0.6-1.1-1.3
			c0-0.7,0.3-1.4,0.9-1.7c1.2-0.7,2.6-0.8,3.9-0.6c0.8,0.1,1.7,0.3,2.6,0.5c-0.3,0.5-0.5,1-0.8,1.7c-1.1-1.2-2.4-0.9-3.7-0.8
			c-0.5,0-0.8,0.2-1,0.8c0.3,0.1,0.6,0.2,0.8,0.3c0.8,0.1,1.7,0.1,2.5,0.2c0.5,0.1,1,0.2,1.4,0.4c1.4,0.6,1.5,2.2,0.4,3.1
			c-0.7,0.6-1.6,0.8-2.5,0.9c-1.4,0.1-2.8,0-4.1-0.5C589,263.7,588.8,263.7,588.5,263.7z"/>
		<path style="fill:#23C2E7;" d="M566.5,290c-0.7-0.3-2.6-0.4-4.7-0.2c0,0.3,0,0.6,0,1c1,0,2-0.1,3-0.1c0,0.5,0,1.2,0,1.8
			c-1-0.5-2-0.1-3-0.3c0,0.4,0,0.8,0,1.2c1.6-0.1,3.1,0.2,4.7-0.2c0,0.7,0,1.3,0,2c-0.5-0.1-0.9-0.2-1.4-0.2c-1.9,0-3.8,0-5.6,0
			c0.3-1.2,0.2-2.3,0.1-3.5c0-1.1,0.3-2.3-0.3-3.5c2.4,0,4.8,0,7.2,0C566.5,288.7,566.5,289.3,566.5,290z"/>
		<path style="fill:#23C2E7;" d="M575,264.2c-0.9,0-1.7,0-2.5,0c0-0.9,0.1-1.8,0.1-2.8c-1.2,0-2.4,0-3.6,0c0,0.9,0,1.8,0,2.8
			c-0.8,0-1.6,0-2.3,0c0.2-2.3,0.2-4.5-0.1-6.8c0.8,0,1.7,0,2.4,0c0,0.8-0.1,1.5-0.1,2.4c1.2,0,2.3,0,3.5,0c0-0.8,0-1.6,0-2.4
			c0.7,0,1.6,0,2.5,0c-0.4,1.1-0.2,2.3-0.2,3.5C574.8,261.9,574.5,263.1,575,264.2z"/>
		<path style="fill:#23C2E7;" d="M534.2,257.9c-0.3,0.5-0.5,1.1-0.8,1.7c-0.9-1-2.1-1-3.2-1c-0.7,0-1,0.2-1.5,0.8
			c0.3,0.5,0.7,0.4,1.2,0.4c1.1,0.1,2.1,0.2,3.2,0.4c1.4,0.2,2,2.1,0.7,3.2c-0.8,0.6-1.7,0.9-2.6,0.9c-1.1,0-2.3-0.2-3.4-0.3
			c-0.4,0-0.9-0.2-1.4-0.3c0.3-0.6,0.6-1.2,0.9-1.9c1.3,1.3,2.8,1.2,4.3,1c0.3,0,0.7-0.4,0.8-0.7c0.1-0.5-0.5-0.6-0.9-0.7
			c-0.9-0.1-1.7-0.1-2.6-0.2c-0.2,0-0.3,0-0.5-0.1c-1-0.3-1.7-0.9-1.7-1.7c-0.1-0.7,0.5-1.4,1.5-1.8c1.2-0.5,2.5-0.5,3.8-0.3
			C532.7,257.6,533.4,257.7,534.2,257.9z"/>
		<path style="fill:#23C2E7;" d="M544,257.9c-0.3,0.6-0.5,1.1-0.8,1.7c-1.2-1.2-3.5-1.3-4.7-0.3c0.2,0.5,0.7,0.5,1.1,0.5
			c0.9,0.1,1.7,0.1,2.6,0.2c0.3,0,0.6,0.1,0.9,0.2c1.4,0.5,1.7,2,0.7,3c-0.8,0.8-1.8,1.1-2.8,1.1c-1.2,0-2.3-0.2-3.5-0.4
			c-0.4,0-0.8-0.1-1.2-0.2c0.3-0.6,0.6-1.2,0.9-1.9c1.1,1.1,2.5,1.2,3.8,1.1c0.1,0,0.1,0,0.2,0c0.4-0.2,1-0.1,1.1-0.7
			c0.1-0.4-0.4-0.7-1.2-0.7c-0.8-0.1-1.5-0.1-2.3-0.2c-0.1,0-0.2,0-0.3,0c-1.2-0.2-2-0.9-2-1.8c0-0.8,0.7-1.6,1.8-1.9
			c1.4-0.4,2.7-0.3,4.1,0C542.9,257.7,543.4,257.8,544,257.9z"/>
		<path style="fill:#23C2E7;" d="M551.6,288.7c-0.4,0.7-0.7,1.3-1.1,2c-1.1-1.3-3.4-1.1-4.2-0.4c-0.5,0.4-0.9,0.9-0.7,1.6
			c0.2,0.7,0.7,1.3,1.4,1.4c1.3,0.1,2.6,0.4,3.6-0.8c0.5,0.7,0.9,1.3,1.3,1.9c-1.6,0.6-3.2,1-4.8,0.8c-1.3-0.2-2.5-0.6-3.3-1.7
			c-1.3-2-0.2-4.5,2.2-5.1c1.4-0.4,2.9-0.3,4.3,0.1C550.6,288.5,551,288.6,551.6,288.7z"/>
		<path style="fill:#23C2E7;" d="M563.4,259.8c-1.2-1-3.1-1.1-4.2-0.4c-0.9,0.5-1.1,1.8-0.4,2.5c1.1,1,3.5,0.9,4.6-0.3
			c0.4,0.6,0.8,1.3,1.4,2c-1,0.3-2,0.5-2.9,0.7c-1.4,0.3-2.7,0-3.9-0.6c-2.3-1.1-2.4-4.3-0.3-5.7c1.6-1,3.3-1.1,5.1-0.6
			c0.6,0.1,1.1,0.2,1.8,0.4C564.1,258.4,563.7,259.1,563.4,259.8z"/>
		<path style="fill:#23C2E7;" d="M583.7,257.4c0.8,0,1.6,0,2.3,0c0,1.2,0,2.3,0,3.4c0,2.3-0.8,3.3-3.1,3.4c-0.9,0.1-1.8,0-2.6-0.2
			c-1.3-0.3-2-1.2-2-2.6c0-1,0-2,0-3c0-0.4-0.1-0.7-0.2-1.1c0.3,0,0.8,0,1.2,0c0.4,0,0.8,0,1.3,0c-0.1,0.3-0.2,0.5-0.2,0.8
			c0,1,0,1.9,0,2.9c0,1.1,0.7,1.6,1.8,1.5c1.2-0.1,1.6-0.6,1.6-1.7c0-0.7,0.1-1.5,0.1-2.2C583.8,258.3,583.7,257.8,583.7,257.4z"/>
		<path style="fill:#23C2E7;" d="M557.6,272.7c1,0,2.1,0,3.1,0c0.7,2.4,1.8,4.6,2.9,6.9c-0.8,0-1.6,0-2.5,0
			c-0.1-0.4-0.1-0.9-0.2-1.4c-1.1,0-2.1,0-3.1,0c-0.6,0-0.8,0.5-0.5,1.4c-0.8,0-1.5,0-2.3,0C555.8,277.3,556.6,275.1,557.6,272.7z
			 M558.9,274c-0.4,1.1-0.7,2-1,2.9c0.8,0,1.5,0,2.3,0C559.7,275.9,559.4,275,558.9,274z"/>
		<path style="fill:#23C2E7;" d="M518.9,257.4c1.1,0,2.2,0,3.3,0c0.7,2.4,1.9,4.6,2.9,6.9c-0.8,0-1.6,0-2.4,0
			c-0.1-0.5-0.2-0.9-0.3-1.4c-1.1,0-2.1,0-3.1,0c-0.6,0-0.8,0.5-0.5,1.4c-0.8,0-1.6,0-2.5,0C516.8,263.6,518.8,258.5,518.9,257.4z
			 M520.4,258.8c-0.4,1.1-0.8,2-1.1,2.9c0.8,0,1.5,0,2.3,0C521.3,260.7,520.9,259.8,520.4,258.8z"/>
		<path style="fill:#23C2E7;" d="M554.5,264.2c-0.8,0-1.6,0-2.3,0c-0.1-0.4-0.2-1-0.5-1.3c-0.2-0.2-0.7-0.2-1.1-0.2
			c-0.4,0-0.8,0-1.3,0c-1.2,0-1.3,0.2-1.2,1.4c-0.7,0-1.4,0-2.2,0c0.5-1.1,0.9-2.2,1.3-3.3c0.4-1.1,0.8-2.3,1.3-3.5c1,0,2.2,0,3.3,0
			c0.1,0.4,0.1,0.9,0.3,1.3C552.9,260.5,553.7,262.4,554.5,264.2z M548.9,261.6c0.9,0,1.6,0,2.4,0c-0.4-1-0.8-1.9-1.3-2.9
			C549.5,259.8,549.2,260.7,548.9,261.6z"/>
		<path style="fill:#23C2E7;" d="M614,264.1c-0.7,0-1.6,0-2.4,0c0-1.7,0-3.3,0-5.1c-0.9,0-1.8,0-2.7,0c0-0.6,0-1.3,0-2
			c2.6,0,5.1,0,7.7,0c0,0.6,0,1.3,0,2c-0.9,0-1.8,0-2.8,0C613.9,260.8,614,262.4,614,264.1z"/>
		<path style="fill:#23C2E7;" d="M553.5,272.7c0,0.6,0,1.3,0,2.1c-0.9-0.4-1.7-0.2-2.6-0.2c0,1.7,0,3.4,0,5.1c-0.8,0-1.6,0-2.4,0
			c0-1.7,0-3.3,0-5.1c-0.9-0.1-1.8-0.3-2.7,0.2c0-0.7,0-1.4,0-2.1c1.3,0,2.6,0,3.8,0C551,272.7,552.2,272.7,553.5,272.7z"/>
		<path style="fill:#23C2E7;" d="M623.7,264.1c-0.8,0-1.6,0-2.3,0c0-1.7,0-3.4,0-5.1c-0.9,0-1.8,0-2.7,0c0-0.6,0-1.3,0-1.9
			c2.6,0,5.1,0.1,7.7-0.1c0,0.6,0,1.3,0,1.9c-0.9,0-1.7,0-2.6,0C623.7,260.6,623.7,262.3,623.7,264.1z"/>
		<path style="fill:#23C2E7;" d="M569.3,290c0-0.7,0-1.4,0-2.1c0.7,0.3,6.4,0.3,7.7,0.1c0,0.7,0,1.4,0,2.1c-0.8,0-1.7,0-2.6,0
			c-0.3,1.4-0.2,4.3,0.2,5c-0.9,0-1.7,0-2.5,0c0-1.6,0-3.3,0-5C571.1,290,570.2,290,569.3,290z"/>
		<path style="fill:#23C2E7;" d="M573.1,277.8c0,0.7,0,1.3,0,1.9c-0.6,0-1.2,0-1.8,0c-1.9,0-3.8,0-5.7,0c0.2-2.3,0.1-4.6,0-6.9
			c0.7,0,1.6,0,2.4,0c0,1.7,0,3.4,0,5.1C569.7,277.8,571.4,277.8,573.1,277.8z"/>
		<path style="fill:#23C2E7;" d="M583.9,295c-0.8,0-1.7,0-2.5,0c0.2-1.3,0.5-2.5-0.5-3.6c-0.9-1-1.6-2.1-2.4-3.2c1,0,2,0,3,0
			c0,1,0.8,1.5,1.3,2.3c0.6-0.8,1.4-1.3,1.4-2.3c0.8,0,1.6,0,2.6,0c-0.8,1.1-1.6,2.2-2.4,3.1C583.3,292.5,583.7,293.7,583.9,295z"/>
		<path style="fill:#23C2E7;" d="M553.9,288.2c0.8,0,1.6-0.1,2.5-0.1c-0.4,0.9-0.5,6-0.1,6.9c-0.8,0-1.6,0-2.4,0
			C553.9,292.8,553.9,290.6,553.9,288.2z"/>
		<path style="fill:#23C2E7;" d="M446.7,267.6c0.1-0.1,0.2-0.1,0.2-0.2c0.6,1,1.2,2.1,1.8,3.1l0,0c-0.2-0.1-0.4-0.2-0.5-0.4
			C447.8,269.3,447.2,268.4,446.7,267.6z"/>
		<path style="fill:#23C2E7;" d="M448.1,263.4c0.1,0,0.2,0,0.2,0c0.5,0.8,1,1.7,1.5,2.5c-0.1,0-0.1,0.1-0.2,0.1
			C449.1,265.2,448.6,264.3,448.1,263.4z"/>
		<path style="fill:#23C2E7;" d="M407.4,247.1c-0.1-0.1-0.2-0.1-0.2-0.2c0.5-0.8,0.9-1.6,1.4-2.3l0.1,0.1
			C408.2,245.4,407.8,246.3,407.4,247.1z"/>
		<path style="fill:#23C2E7;" d="M498.4,295c0.1-0.1,0.1-0.1,0.2-0.2c0.4,0.8,0.8,1.5,1.3,2.3l0,0
			C499.3,296.4,498.9,295.7,498.4,295z"/>
		<path style="fill:#23C2E7;" d="M508,294.5c0.5,0.9,0.9,1.7,1.4,2.6l0,0C508.9,296.3,508.4,295.4,508,294.5
			C508,294.6,508,294.6,508,294.5z"/>
		<path style="fill:#23C2E7;" d="M403.2,247.5c0.4-0.7,0.7-1.3,1.1-2c0.1,0,0.1,0.1,0.2,0.1c-0.4,0.7-0.8,1.3-1.2,2
			C403.2,247.6,403.2,247.5,403.2,247.5z"/>
		<path style="fill:#23C2E7;" d="M502.8,295c0.1,0,0.1,0,0.2,0c0.4,0.6,0.7,1.2,1.1,1.9l0,0C503.6,296.2,503.2,295.6,502.8,295z"/>
		<path style="fill:#23C2E7;" d="M398.6,249.4c0-0.1-0.1-0.1-0.1-0.1c0.3-0.5,0.5-0.9,0.8-1.4c0.1,0,0.1,0.1,0.2,0.1
			C399.2,248.4,398.9,248.9,398.6,249.4z"/>
		<path style="fill:#23C2E7;" d="M507.9,294.6c-0.2-0.4-0.5-0.7-0.7-1.1c0.1,0,0.1,0,0.2,0C507.6,293.9,507.8,294.2,507.9,294.6
			C508,294.6,508,294.6,507.9,294.6z"/>
		<path style="fill:#23C2E7;" d="M402.8,248.6c-0.1-0.1-0.1-0.1-0.2-0.2c0.2-0.3,0.4-0.6,0.5-0.9c0,0,0.1,0.1,0.1,0.1
			C403.1,247.9,403,248.2,402.8,248.6z"/>
		<path style="fill:#23C2E7;" d="M495,297.3c0.2,0.3,0.4,0.6,0.6,0.9c-0.1,0-0.1,0.1-0.2,0.1C495.3,297.9,495.2,297.6,495,297.3
			L495,297.3z"/>
		<path style="fill:#23C2E7;" d="M504,296.9c0.2,0.3,0.4,0.6,0.6,0.8c-0.1,0-0.1,0.1-0.2,0.1C504.3,297.5,504.1,297.2,504,296.9
			L504,296.9z"/>
		<path style="fill:#23C2E7;" d="M446.5,274.9c0.2,0.3,0.4,0.7,0.6,1l0,0C446.9,275.6,446.7,275.3,446.5,274.9L446.5,274.9z"/>
		<path style="fill:#23C2E7;" d="M494.4,296.5c0.1,0,0.1,0,0.2,0c0.2,0.3,0.3,0.5,0.5,0.8l-0.1,0.1
			C494.8,297,494.6,296.7,494.4,296.5z"/>
		<path style="fill:#23C2E7;" d="M414.1,243.5c0-0.1,0-0.1,0-0.2c0.1-0.3,0.3-0.5,0.4-0.8l0,0C414.3,242.8,414.2,243.2,414.1,243.5z
			"/>
		<path style="fill:#23C2E7;" d="M500,297.3c0.1,0.3,0.3,0.6,0.4,0.8l0,0C500.3,297.8,500.2,297.6,500,297.3L500,297.3z"/>
		<path style="fill:#23C2E7;" d="M448.8,270.5c0.1,0.2,0.3,0.4,0.4,0.6c-0.1,0-0.1,0.1-0.2,0.1C448.9,271,448.9,270.8,448.8,270.5
			L448.8,270.5z"/>
		<path style="fill:#23C2E7;" d="M449.2,258.6c0.1,0.2,0.2,0.5,0.4,0.7l0,0C449.5,259.1,449.4,258.8,449.2,258.6L449.2,258.6z"/>
		<path style="fill:#23C2E7;" d="M414.9,241.9c-0.1,0.2-0.3,0.4-0.4,0.6l0,0C414.6,242.3,414.8,242.1,414.9,241.9L414.9,241.9z"/>
		<path style="fill:#23C2E7;" d="M452.1,302.1c0.2-0.1,0.4-0.3,0.6-0.4l0,0C452.5,301.8,452.3,302,452.1,302.1L452.1,302.1z"/>
		<path style="fill:#23C2E7;" d="M400.2,252.3c-0.1,0.1-0.1,0.3-0.2,0.4C400.1,252.6,400.2,252.5,400.2,252.3z"/>
		<path style="fill:#23C2E7;" d="M449.8,259.7c0.1,0.2,0.1,0.4,0.2,0.6l0,0C450,260.1,449.9,259.9,449.8,259.7L449.8,259.7z"/>
		<path style="fill:#23C2E7;" d="M414.9,241.9c0-0.1,0-0.2,0.1-0.3c0,0,0.1,0,0.1,0C415,241.7,415,241.8,414.9,241.9L414.9,241.9z"
			/>
		<path style="fill:#23C2E7;" d="M408.6,244.5c0-0.1,0.1-0.2,0.1-0.3c0,0,0.1,0,0.1,0.1C408.8,244.4,408.7,244.5,408.6,244.5
			L408.6,244.5z"/>
		<path style="fill:#23C2E7;" d="M500.7,298.3c0.1,0.1,0.1,0.2,0.2,0.2c0,0-0.1,0-0.1,0C500.7,298.5,500.7,298.4,500.7,298.3
			L500.7,298.3z"/>
		<path style="fill:#23C2E7;" d="M432.8,224C432.8,224,432.8,224,432.8,224C432.7,224,432.7,224,432.8,224
			C432.7,224,432.7,224,432.8,224C432.7,224,432.7,224,432.8,224z"/>
		<path style="fill:#23C2E7;" d="M449.6,259.3L449.6,259.3c0.1,0.1,0.2,0.2,0.2,0.4l0,0C449.8,259.5,449.7,259.4,449.6,259.3z"/>
		<path style="fill:#23C2E7;" d="M500.4,298.1c0.1,0.1,0.1,0.1,0.2,0.2l0,0C500.6,298.3,500.5,298.2,500.4,298.1L500.4,298.1z"/>
		<path style="fill:#23C2E7;" d="M509.4,297.1C509.5,297.1,509.5,297.2,509.4,297.1C509.5,297.2,509.5,297.1,509.4,297.1
			L509.4,297.1z"/>
		<path style="fill:#23C2E7;" d="M499.8,297.1c0.1,0.1,0.1,0.1,0.2,0.2l0,0C500,297.2,499.9,297.2,499.8,297.1L499.8,297.1z"/>
		<path style="fill:#23C2E7;" d="M447.1,276c0,0,0.1,0.1,0.1,0.1c0,0-0.1,0.1-0.1,0.1C447.2,276.1,447.1,276,447.1,276L447.1,276z"
			/>
		<path style="fill:#23C2E7;" d="M507.4,293.5c-0.1,0-0.1,0-0.2,0c0-0.1-0.1-0.1,0-0.2l0,0C507.2,293.4,507.3,293.5,507.4,293.5z"/>
		<polygon style="fill:#23C2E7;" points="447.4,276.4 447.5,276.5 447.4,276.5 		"/>
		<path style="fill:#23C2E7;" d="M452.8,301.7c0,0,0-0.1,0.1-0.1C452.8,301.6,452.8,301.6,452.8,301.7L452.8,301.7z"/>
		<path style="fill:#23C2E7;" d="M450,260.3c0.1,0,0.1,0,0.2,0.1C450.1,260.3,450.1,260.3,450,260.3L450,260.3z"/>
	</g>
</g>
</svg>
