<?xml version="1.0" encoding="utf-8"?>
<!-- Generator: Adobe Illustrator 19.1.0, SVG Export Plug-In . SVG Version: 6.00 Build 0)  -->
<svg version="1.1" id="titleist-logo-svg" xmlns="http://www.w3.org/2000/svg" xmlns:xlink="http://www.w3.org/1999/xlink" x="0px"
	 y="0px" viewBox="-122 383.4 713.3 194.6" style="enable-background:new -122 383.4 713.3 194.6;" xml:space="preserve">
<title>Titleist</title>
<g>
	<path d="M548.9,453.5c1.2,1.2,1.8,2.7,1.8,4.4c0,1.8-0.6,3.2-1.8,4.5c-1.2,1.2-2.7,1.9-4.4,1.9s-3.2-0.6-4.4-1.9
		c-1.2-1.2-1.8-2.7-1.8-4.5c0-1.7,0.6-3.2,1.8-4.4s2.7-1.9,4.4-1.9C546.1,451.7,547.6,452.3,548.9,453.5z M549.6,452.8
		c-1.4-1.4-3.1-2.1-5.2-2.1c-2,0-3.7,0.7-5.1,2.1c-1.4,1.4-2.1,3.1-2.1,5.2c0,2,0.7,3.8,2.1,5.2c1.4,1.4,3.1,2.1,5.2,2.1
		c2,0,3.7-0.7,5.2-2.1c1.4-1.4,2.1-3.2,2.1-5.2C551.7,455.9,551,454.2,549.6,452.8z M545.5,457.6c-0.3,0.1-0.7,0.2-1.3,0.2h-1.3
		v-2.9h1.2c0.8,0,1.3,0.1,1.7,0.3s0.5,0.6,0.5,1.2C546.3,457,546,457.4,545.5,457.6z M541.5,461.9h1.4v-3.1h1.1
		c0.7,0,1.3,0.1,1.6,0.3c0.5,0.3,0.8,0.9,0.8,1.8v0.6v0.3v0.1v0.1h1.3l-0.1-0.1c0-0.1-0.1-0.2-0.1-0.4s0-0.4,0-0.6v-0.6
		c0-0.4-0.1-0.8-0.4-1.2c-0.3-0.4-0.8-0.7-1.4-0.8c0.5-0.1,0.9-0.2,1.2-0.4c0.5-0.3,0.8-0.9,0.8-1.6c0-1-0.4-1.7-1.2-2
		c-0.5-0.2-1.2-0.3-2.2-0.3h-2.8L541.5,461.9L541.5,461.9z"/>
	<path d="M198.5,390.5c1.8,3.4,3.5,7.2,2.1,11.3c-9.4,17.3-30.4,18-48.8,19.1l-23.7-0.2l-88.9-3.4c-19.6-1.2-38.2,1.4-53.4,10.6
		c-4.2,3.4-8.7,7.2-8.7,12.7c1.6,4.1,6.4,4.4,10.4,4.6c9.9,0.4,18.2-3,26.7-5.8c2.7-0.5,5.7-0.4,8,1.1c2.5,1.6,2.8,4.4,3,7.1
		c0.4,2.7-0.7,4.6-2.3,6.4c-11.7,8.8-27,9.7-42.2,9c-11.3-0.4-20.1-6.7-23.9-16.8c-3.2-14.8,7.6-25.1,17.1-32.7
		c38.4-22.8,90.7-12,135.9-11.1c21,0.4,42.9,1.1,62.9-2.5c7.6-1.4,13.6-6.2,19.1-11C194.4,387.5,196.9,389.3,198.5,390.5z"/>
	<path d="M75.8,438.1l-0.2,3.7l-20.6,30l-35.9,50.9c-15.6,20.1-31.5,47.7-59.7,49.7c-17.1,2.5-33.8-4.4-42.8-16.8
		c-2.8-5.1-7.6-11-5.8-17.9c2.3-2.8,6.4-4.2,10.3-4.4c8.1,0.9,8.3,11.3,14.1,14.7c7.1,6.7,19.8,8.7,29.2,4.4
		c9.7-4.2,16.3-11.1,22.6-18.7l58.1-81.5c6.2-6.5,8.7-18.4,19.8-19.1C69,433.8,74.1,433.8,75.8,438.1z"/>
	<g>
		<circle cx="116" cy="464.3" r="11"/>
		<path d="M116,464.3"/>
	</g>
	<g>
		<circle cx="383.5" cy="452" r="11"/>
		<path d="M383.5,452"/>
	</g>
	<path d="M552.7,475.2c-0.9-1.9-3.2-2.3-5.1-2.7l-33-0.2l-0.7-0.7c1.4-2.8,2.8-5.8,3.5-8.8c-0.5-5.8-5.1-9.7-10.3-11.5
		c-2.3-0.4-4.8,0.4-6.2,1.9c-3.2,6.2-5.7,12.5-9.4,18.7c-7.2,0.9-17.1-2.5-21.4,4.1c-1.8,3.2-2.3,7.6-0.9,11c2.1,5,8.5,2.7,12.7,3.7
		c-0.7,1.9-1.6,4.2-3,6.4c-6.9,10.8-13.4,24.9-27.6,27.9c1.4-17.3-5.8-32.2-13.1-46.5c-2.5-4.6-2.1-10.6-6.4-14.1
		c-2.5-1.4-6.2-1.4-9-0.7c-2.3,0.9-3.4,2.7-4.2,4.8c-5.1,20.3-15.7,38.7-29.2,53.6c-4.2,4.8-11.3,9.2-18.4,6.7
		c-3.5-1.6-4.4-6-4.1-9.9c3.2-12.7,8.5-24.7,13.3-36.9c0.9-2.5,1.9-5.3,0.9-8c-1.9-3-5.7-3.7-9.4-3.5c-4.2,0-7.8,1.9-9.9,5.3
		c-5.5,14.3-10.6,29.5-16.6,43.3c-4.1,5.7-11,9-17.5,11.3c-5.8,1.2-12.4,0.4-16.3-3.5c5.7-4.2,10.4-8.7,15.2-14.3
		c8-9.5,11.7-23.2,6.7-35.2c-2.8-5.8-9-10.3-15.7-10.4c-14.3-0.2-24.4,9.9-30.6,20.5c-4.9,10.1-6.7,23-4.6,34.6
		c-3.9,3-7.2,6-11.8,7.8c-8.7,3.7-20.3,2.1-27.9-2.5c-3.7-2.5-6.9-5.5-8-9.9c17-13.3,30.4-27.2,41.9-45.8c7.8-14.7,17.1-34.6,6-50.5
		c-2.5-3.2-6-5.3-9.9-6.4c-10.6-2.1-20.1,2.1-27.2,8.5c-22.6,21.9-37.8,52-33.9,86.8c-11.8,8.8-24.2,17.5-39.2,22.4
		c-7.4,1.4-16.1,0.7-21-5.7c-2.3-3.9-1.1-8.8,0.7-12.7l20.1-33.6c7.6-0.9,16.4,0.5,23.7-1.4c4.4-2.1,7.4-7.4,7.1-12.7
		c-0.4-1.4-1.2-2.7-2.7-3.2c-5.7-0.4-12.2,0.2-18-0.4c1.1-3.2,4.1-5.8,3.7-9.5c-1.2-3.7-5.3-5-8.8-5.1c-11.3-2.5-11.1,10.1-16.4,15
		c-5.5,0.5-11.7-0.4-16.6,1.4c-4.2,2.8-6.4,6.7-6.2,12c0.4,6,7.8,3,11.8,4.2l-0.2,0.7c-14.3,19.1-21,44.5-48.1,50.4
		c-3.9,0.9-8.3,0.4-10.6-3.2c-1.1-2.5-1.2-6-0.5-8.7c3.9-12,14.1-21.4,18.4-33.2v-1.6c-0.5-3.2-3.9-4.8-6.5-5.5
		c-3.9-1.1-8.1-0.5-10.8,2.7c-5.5,7.4-10.4,15.9-15.9,23.2C66.2,519.2,52.8,527,38.3,533c-3.4,1.9-8,1.2-10.4,4.8
		c-0.5,1.2-1.1,3-0.4,4.4c3.4,3.7,7.2,9.9,13.8,8.8c11.8-2.8,20.7-10.2,30.9-15.7c1.6,4.2,4.6,9.5,8.7,12
		c14.1,6.4,33.4,3.7,45.4-5.1c3-1.8,5.3-4.6,8.3-6c1.4,2.8,4.1,5.5,6.7,8c12.5,11.5,33.9,7.6,48.1,1.6c10.6-4.1,19.8-11.3,29.2-16.6
		c1.2,1.8,2.7,3.5,3.9,5.5c9.9,13.4,28.5,19.3,46,14.5c8.8-2.1,16.1-7.1,24.2-11.1c4.8,4.4,10.8,7.8,17.1,9.9
		c15.2,5.5,32.3,0.5,43.3-9.2c3.5,3.4,7.2,6.5,11.8,8.7c13.6,6,26.3-2.7,36.4-10.2c5.1,4.8,9.4,10.1,16.3,12.2
		c7.4,2.5,17.5,2.1,23-3.9c11.5,0.7,21.4-2.8,29.9-8.7c4.8,6.4,11,10.8,18.4,12.9c12.5,3.5,26.2,0.7,35.7-7.4
		c4.2-3.2,6.7-8.1,5.1-13.6c-0.4-2.1-2.3-3.9-4.1-5c-1.9-0.5-4.2-0.7-5.8,0.2c-5.1,4.2-11.1,8.1-18.2,8.5c-4.8,0.7-9.7-0.5-12.2-4.4
		c-1.8-3-1.4-7.2-0.4-10.4c3.9-9.4,9.2-17.7,14.5-26.3c14.8-0.2,28.6-0.4,43.3-1.1c2.8-0.7,5.3-3.2,6.2-5.8
		C553.7,481.4,554.3,477.8,552.7,475.2z M250.8,445c4.1-4.9,8.7-9.7,15.4-11.1c1.6-0.2,2.5,1.2,3,2.3c1.4,9.9-4.4,17.5-8.5,24.9
		c-8.1,12-17.8,24.7-29.7,35.2C230.8,476.3,239.9,459.6,250.8,445z M302.1,513.9c-3.9-9.4,1.2-18.9,6.5-26c1.9-1.8,7.1-5.8,8-0.9
		C318,498.7,310.4,508.2,302.1,513.9z M430.7,526.6c-0.7,1.4-2.1,2.7-3.5,3.2c-5.5,1.6-9.5-3.2-12.4-6.4l0.2-1.2l10.4-20.3
		C429.7,508.6,433.4,517.8,430.7,526.6z"/>
</g>
</svg>
