<?xml version="1.0" standalone="no"?>
<!DOCTYPE svg PUBLIC "-//W3C//DTD SVG 20010904//EN"
 "http://www.w3.org/TR/2001/REC-SVG-20010904/DTD/svg10.dtd">
<svg version="1.0" xmlns="http://www.w3.org/2000/svg"
 width="2550.000000pt" height="2550.000000pt" viewBox="0 0 2550.000000 2550.000000"
 preserveAspectRatio="xMidYMid meet">
<metadata>
Created by potrace 1.11, written by Peter Selinger 2001-2013
</metadata>
<g transform="translate(0.000000,2550.000000) scale(0.100000,-0.100000)"
fill="#000000" stroke="none">
<path d="M13800 20995 c-244 -9 -331 -15 -351 -26 -14 -8 -403 -306 -864 -664
-461 -357 -1187 -909 -1614 -1226 l-776 -576 -530 -671 c-291 -369 -533 -673
-536 -676 -3 -4 -62 3 -130 15 l-124 22 -348 174 c-224 111 -359 173 -379 173
-24 0 -68 29 -210 141 -99 77 -190 145 -202 150 -17 8 -228 -29 -947 -170
-509 -99 -944 -187 -968 -197 -38 -15 -61 -15 -270 -4 -163 9 -233 9 -247 2
-10 -6 -241 -201 -513 -434 l-494 -423 -494 -1040 -494 -1040 -155 -552 -154
-552 0 -1022 0 -1022 366 -1566 c201 -861 369 -1572 373 -1581 3 -9 164 -229
356 -489 l350 -472 1314 -947 c723 -521 1324 -952 1336 -959 12 -7 354 -149
761 -316 l739 -304 654 -128 654 -127 846 24 846 25 935 246 935 246 1160 419
1160 420 1840 487 1840 488 835 398 835 398 463 412 c388 346 464 418 472 448
6 20 105 601 220 1292 l210 1256 0 794 0 794 -189 947 -190 947 -116 338
c-163 471 -1035 2895 -1047 2910 -10 13 -778 542 -814 561 -11 6 -154 18 -319
27 l-300 17 -749 220 c-537 157 -756 218 -775 213 -14 -4 -221 -67 -459 -142
-239 -74 -435 -133 -436 -131 -2 2 -120 179 -264 393 l-260 390 -507 540
c-279 297 -540 574 -580 615 l-73 75 -535 228 -534 227 -114 -1 c-63 -1 -260
-7 -439 -14z m200 -145 c-54 -28 -59 -29 -209 -30 -130 0 -157 3 -173 17 -10
9 -18 20 -18 24 0 8 100 13 345 16 l110 2 -55 -29z m280 -15 c0 -10 -10 -15
-32 -15 l-33 1 25 14 c32 18 40 18 40 0z m-773 -84 c-98 -116 -181 -211 -183
-211 -2 0 34 61 78 136 l82 136 18 -22 c16 -20 17 -25 5 -39z m153 -71 c-39
-20 -43 -20 -34 4 4 10 17 16 38 16 l31 -1 -35 -19z m628 -2 c-2 -16 -104 -95
-383 -295 -209 -149 -382 -272 -386 -272 -3 -1 -32 18 -65 42 l-61 42 68 142
67 142 219 110 218 110 163 0 c163 1 163 1 160 -21z m-1144 -172 l-86 -134
-76 -35 c-42 -20 -140 -65 -217 -102 -77 -37 -136 -63 -132 -59 19 19 583 463
589 463 4 1 -31 -59 -78 -133z m1927 29 c139 -41 254 -77 257 -79 2 -3 0 -74
-4 -158 l-9 -152 -260 228 c-309 272 -285 250 -258 242 12 -4 135 -40 274 -81z
m-638 43 c-8 -46 -13 -48 -13 -5 0 21 4 37 10 37 5 0 7 -14 3 -32z m867 -587
c0 -3 -21 -71 -48 -149 l-47 -143 -225 353 c-123 194 -248 390 -277 436 l-53
82 325 -286 c179 -157 325 -289 325 -293z m-999 507 c0 -7 6 -112 13 -233 l14
-220 -44 -219 c-24 -121 -45 -221 -47 -222 -2 -2 -141 94 -309 213 l-307 216
332 238 c183 131 335 238 340 238 4 1 7 -5 8 -11z m319 -582 c50 -279 90 -510
88 -511 -3 -2 -220 35 -225 39 0 0 -9 132 -18 291 l-17 290 38 202 c21 111 39
201 40 200 1 -1 43 -231 94 -511z m294 17 c130 -205 236 -378 236 -385 0 -7
-14 -58 -31 -114 l-31 -100 -120 22 c-66 12 -123 26 -127 30 -4 5 -42 207 -85
449 -43 242 -80 449 -83 460 -3 11 -3 18 -1 15 3 -3 112 -172 242 -377z m744
61 c112 -168 199 -303 193 -299 -36 21 -416 348 -415 356 1 5 2 63 3 129 0 66
4 120 9 120 4 0 98 -138 210 -306z m-2765 66 c-19 -33 -40 -63 -45 -66 -16
-10 -131 -43 -123 -36 7 7 198 160 202 161 1 1 -14 -26 -34 -59z m483 -1 c19
-11 34 -22 34 -24 0 -2 -32 -27 -71 -55 -39 -29 -70 -48 -68 -42 14 34 65 142
68 142 2 0 19 -9 37 -21z m-244 -131 c-65 -135 -69 -142 -106 -155 -22 -7 -40
-12 -42 -11 -2 3 208 308 212 308 2 0 -27 -64 -64 -142z m-527 93 c-6 -5 -59
-48 -120 -95 -104 -81 -117 -88 -243 -130 l-134 -45 48 42 c31 28 115 74 248
139 214 102 215 103 201 89z m1270 -313 c323 -229 349 -252 327 -285 -5 -9
-140 36 -484 160 -369 133 -474 175 -465 184 7 7 68 52 137 101 88 64 129 87
140 82 8 -5 164 -114 345 -242z m-1266 25 c-41 -43 -228 -239 -414 -437 l-340
-359 -12 114 c-6 63 -14 135 -17 161 l-5 46 306 238 306 237 116 38 c64 21
120 38 125 38 5 1 -24 -34 -65 -76z m3224 -184 c240 -203 275 -236 323 -308
30 -45 52 -85 50 -90 -3 -5 -18 -14 -33 -20 -24 -10 -58 -5 -208 27 l-179 38
-122 287 c-151 354 -139 323 -117 306 9 -8 138 -116 286 -240z m-3060 149 c-4
-19 -38 -54 -117 -119 l-111 -93 114 122 c63 68 115 121 117 120 1 -2 0 -15
-3 -30z m2863 -465 c-2 -3 -38 3 -80 12 -74 16 -76 18 -106 66 -28 46 -30 56
-30 147 0 53 3 134 7 180 l6 83 104 -242 c57 -133 101 -244 99 -246z m600 282
c231 -247 211 -222 188 -240 -10 -8 -24 -15 -30 -15 -6 0 -87 102 -179 228
-92 125 -161 220 -153 212 8 -8 86 -92 174 -185z m-2576 -37 c228 -82 418
-153 422 -156 4 -4 -162 -96 -368 -205 -207 -109 -378 -197 -379 -195 -4 4
-145 708 -145 721 0 4 12 2 28 -4 15 -6 214 -78 442 -161z m-752 13 c-40 -77
-74 -138 -76 -137 -1 2 18 59 42 127 38 108 47 125 72 136 16 7 30 12 32 13 2
0 -30 -63 -70 -139z m-828 125 c0 -2 -59 -50 -131 -106 -99 -76 -134 -98 -140
-88 -16 25 -9 37 52 90 54 47 104 72 217 107 1 1 2 -1 2 -3z m3217 -48 c-3 -8
-6 -5 -6 6 -1 11 2 17 5 13 3 -3 4 -12 1 -19z m-2143 -364 c55 -286 65 -349
54 -360 -12 -11 -689 -492 -715 -507 -6 -4 8 50 31 121 36 106 88 214 297 610
140 265 256 482 259 482 3 0 36 -156 74 -346z m1203 324 c-3 -8 -6 -5 -6 6 -1
11 2 17 5 13 3 -3 4 -12 1 -19z m916 -162 c42 -66 39 -72 -34 -60 l-36 6 15
49 c9 27 18 49 21 49 3 0 18 -20 34 -44z m-627 -75 l89 -16 36 -200 c19 -110
38 -214 42 -232 5 -27 -15 -10 -141 123 -146 154 -147 156 -158 217 -7 34 -12
79 -13 99 -1 36 0 37 28 32 15 -3 68 -13 117 -23z m-3396 -199 c-96 -92 -272
-261 -390 -375 l-215 -207 -119 0 -119 0 179 133 c98 72 325 241 504 374 179
133 327 242 330 242 2 1 -74 -75 -170 -167z m321 125 l-23 -22 17 28 c10 15
20 25 23 22 3 -3 -5 -16 -17 -28z m3428 9 l48 -11 -57 -170 c-32 -93 -60 -163
-63 -155 -3 8 -18 85 -32 170 -15 85 -29 163 -32 173 -4 17 0 18 42 11 26 -3
68 -12 94 -18z m-659 -86 l68 -75 46 -345 c25 -190 46 -352 46 -362 0 -15
-493 -453 -511 -453 -4 0 -134 187 -288 416 l-280 416 412 241 c227 133 418
241 426 239 7 -1 44 -36 81 -77z m920 41 l35 -7 -3 -75 c-2 -71 -6 -82 -99
-275 l-98 -201 -50 17 c-29 10 -50 23 -49 31 1 8 39 130 84 271 l83 257 31 -6
c17 -3 47 -9 66 -12z m-3531 -192 l19 -174 -116 -207 c-64 -114 -117 -206
-119 -205 -2 3 174 734 182 756 3 8 8 12 10 9 3 -3 14 -83 24 -179z m4866 84
l47 -78 -61 59 c-50 49 -58 62 -50 78 5 10 11 18 14 18 2 0 24 -35 50 -77z
m-896 12 c5 -6 27 -51 49 -101 l40 -92 -32 -23 c-17 -12 -45 -33 -61 -45 l-31
-23 -59 156 c-33 86 -61 159 -63 163 -4 10 146 -24 157 -35z m-3299 -390
c-124 -330 -162 -421 -177 -423 -10 -1 -62 3 -115 10 l-98 13 272 413 c149
227 272 411 274 409 2 -1 -68 -192 -156 -422z m-396 123 c-302 -336 -288 -324
-212 -180 l65 123 184 154 c101 84 185 154 187 154 2 1 -99 -113 -224 -251z
m3944 221 c30 -6 52 -12 50 -13 -2 -1 -27 -17 -55 -34 l-53 -32 -14 28 c-7 15
-17 38 -21 51 -6 21 -5 23 17 18 13 -4 47 -11 76 -18z m-441 -159 l59 -155
-75 -57 -76 -57 -3 192 c-2 184 7 262 29 240 4 -4 34 -78 66 -163z m-4046
-174 c-44 -180 -81 -329 -83 -331 -2 -2 -81 6 -175 17 -120 15 -174 25 -177
34 -3 8 61 109 142 226 144 208 149 214 257 299 61 48 111 86 113 85 1 -2 -34
-150 -77 -330z m4809 266 l75 -17 181 -325 181 -325 -189 -117 c-103 -65 -190
-118 -193 -118 -7 0 -374 747 -377 768 -3 16 204 151 232 150 8 0 49 -7 90
-16z m-4077 -179 c-64 -98 -161 -247 -216 -330 l-100 -153 -56 7 c-31 3 -63 9
-72 12 -12 5 53 83 269 324 157 174 286 317 288 317 2 0 -49 -80 -113 -177z
m4739 -282 l28 -49 -26 -17 c-14 -9 -27 -15 -28 -13 -7 8 -295 381 -354 458
-60 78 -48 68 144 -122 127 -127 220 -227 236 -257z m-2112 118 c0 -4 -47 -48
-105 -99 -58 -50 -105 -86 -105 -78 0 7 -14 112 -30 233 -16 121 -30 222 -30
225 1 7 269 -273 270 -281z m1211 -242 c97 -199 175 -364 174 -365 -5 -6 -188
-52 -206 -52 -12 0 -48 83 -138 320 l-123 320 52 70 c29 39 55 70 58 70 4 0
86 -163 183 -363z m-745 187 c-4 -10 -12 -11 -38 -2 -18 6 -34 12 -36 13 -2 2
14 37 35 80 l38 77 3 -78 c2 -42 1 -83 -2 -90z m2769 42 c30 -41 55 -76 55
-78 0 -3 -386 25 -460 33 -12 1 319 116 342 118 5 1 33 -33 63 -73z m-7097
-56 c-37 -54 -46 -60 -77 -60 -19 0 -32 2 -29 5 8 9 143 114 146 115 1 0 -16
-27 -40 -60z m2426 -266 c51 -175 92 -320 91 -322 -1 -1 -86 18 -189 44 -117
29 -186 51 -183 58 2 6 44 131 93 278 48 147 90 266 91 264 2 -2 45 -146 97
-322z m5163 251 c128 -38 231 -70 229 -72 -2 -2 -84 5 -182 17 -154 18 -182
24 -209 45 -54 42 -100 87 -85 82 8 -2 120 -35 247 -72z m-5484 -211 c-41
-126 -78 -231 -80 -234 -4 -5 -417 98 -440 109 -7 4 123 86 289 183 167 97
304 176 305 174 2 -1 -32 -106 -74 -232z m1930 200 c26 -9 47 -17 47 -19 0 -2
-35 -77 -78 -167 l-79 -163 -104 -82 c-87 -69 -105 -80 -111 -65 -20 52 -9 78
130 296 75 118 140 215 143 216 3 0 26 -7 52 -16z m421 -151 c-69 -93 -131
-172 -136 -178 -6 -5 17 45 51 112 58 117 64 125 133 177 40 31 74 56 76 56 2
0 -54 -75 -124 -167z m349 -170 c58 -153 105 -278 104 -279 -4 -2 -777 -194
-782 -194 -3 0 122 169 277 375 156 206 286 375 289 375 3 0 54 -125 112 -277z
m-596 202 c-28 -23 -53 -41 -55 -40 -2 2 8 26 22 54 25 49 27 50 56 40 l30
-11 -53 -43z m-1312 -543 c-1 -1 -56 12 -122 29 l-120 32 -73 251 c-40 138
-75 258 -78 266 -3 8 85 -118 195 -280 110 -162 199 -296 198 -298z m-3407
495 l63 -12 -25 -34 c-21 -28 -61 -50 -233 -127 -115 -50 -210 -90 -211 -89
-3 3 70 98 186 244 l35 43 61 -7 c34 -3 89 -12 124 -18z m7194 -9 c207 -18
375 -34 373 -37 -3 -2 -139 -77 -302 -166 l-298 -162 -97 175 c-54 96 -98 177
-98 180 0 7 32 42 39 42 3 1 176 -14 383 -32z m-6796 -52 c3 -7 -32 -173 -76
-367 -88 -381 -99 -408 -146 -387 -13 6 -24 16 -24 22 0 6 14 160 32 342 l32
332 81 35 c93 41 94 41 101 23z m237 -183 l106 -162 -172 -131 c-94 -72 -173
-128 -174 -123 -2 5 26 135 62 288 36 154 65 284 65 289 0 13 -3 18 113 -161z
m7594 126 l88 -42 -33 -9 c-30 -8 -41 -4 -108 38 -40 26 -74 49 -74 51 0 12
51 -3 127 -38z m-7413 15 c42 -4 78 -10 81 -14 4 -6 -13 -86 -36 -172 -5 -21
-13 -38 -18 -38 -8 0 -161 224 -161 236 0 4 13 4 28 1 16 -3 64 -9 106 -13z
m7761 11 c-51 -19 -84 -21 -106 -9 -22 12 -18 13 46 13 39 0 66 -2 60 -4z
m-3994 -294 c-133 -265 -141 -279 -172 -285 -35 -7 -79 -8 -79 -2 0 2 45 96
99 208 l99 206 94 76 c51 41 94 76 96 76 1 0 -61 -125 -137 -279z m3165 247
c-7 -18 -28 -68 -46 -112 -21 -48 -42 -82 -54 -87 -29 -13 -389 -109 -393
-105 -3 3 495 336 503 336 2 0 -2 -15 -10 -32z m-1282 -19 c-8 -13 -24 -1 -24
18 0 13 3 13 15 3 8 -7 12 -16 9 -21z m-5144 -8 l29 -6 -92 -141 -92 -142 -73
60 c-51 42 -70 64 -64 73 4 8 39 50 77 94 l70 80 58 -6 c32 -3 71 -8 87 -12z
m5381 -53 c23 -40 49 -84 58 -98 24 -39 8 -21 -62 70 -60 76 -71 100 -48 100
5 0 28 -33 52 -72z m2944 52 c3 -5 -1 -10 -9 -10 -9 0 -16 5 -16 10 0 6 4 10
9 10 6 0 13 -4 16 -10z m-9584 -282 c-15 -147 -29 -269 -32 -272 -7 -7 -239
128 -236 138 3 9 291 404 293 402 1 0 -10 -121 -25 -268z m4019 245 c0 -16
-44 -95 -121 -215 -67 -103 -124 -188 -128 -188 -12 1 -193 48 -197 52 -6 6
419 376 434 377 7 1 12 -11 12 -26z m-2483 7 c43 -6 94 -13 112 -16 l35 -6
-60 -37 c-47 -30 -194 -96 -330 -148 -8 -3 18 45 57 106 47 72 79 111 90 111
10 0 53 -5 96 -10z m6272 -12 c23 -63 23 -64 -16 -76 -20 -6 -38 -10 -39 -9
-2 3 40 107 44 107 1 0 6 -10 11 -22z m-1519 -20 c14 -26 12 -28 -157 -205
-94 -98 -211 -217 -260 -265 l-88 -87 -46 10 -46 10 70 168 70 167 211 116
c116 64 216 115 221 114 6 -1 17 -14 25 -28z m1664 13 c14 -16 15 -19 2 -24
-9 -4 -16 3 -19 19 -5 29 -5 29 17 5z m996 7 c0 -8 -92 -42 -232 -85 l-232
-73 -48 31 c-26 17 -48 34 -48 38 0 4 14 20 30 36 30 28 34 29 228 46 256 21
302 22 302 7z m595 -81 l130 -44 32 -54 c18 -30 33 -57 33 -60 0 -3 -24 -15
-53 -27 l-54 -23 -233 83 c-173 61 -228 84 -214 90 10 4 60 26 109 48 50 21
97 37 105 35 8 -3 73 -24 145 -48z m-2966 -80 c50 -65 91 -121 91 -125 0 -5
-16 -16 -35 -25 -34 -16 -35 -16 -49 6 -33 54 -126 226 -126 234 0 9 22 35 26
30 1 -1 43 -55 93 -120z m-4405 52 c133 -34 245 -65 250 -69 9 -9 -165 -541
-175 -534 -4 2 -83 111 -176 241 l-168 238 3 93 c2 58 7 92 14 92 6 0 120 -28
252 -61z m-2380 29 c-4 -7 -44 -62 -88 -123 -44 -60 -80 -111 -81 -113 -3 -4
-156 85 -158 92 -2 5 312 152 331 155 2 1 0 -5 -4 -11z m8276 -117 c-51 -46
-56 -47 -63 -28 -4 11 -4 24 0 28 7 7 102 47 113 48 3 1 -20 -21 -50 -48z
m-1632 -88 c29 -51 52 -96 52 -100 -1 -12 -443 -247 -461 -246 -9 1 -35 7 -58
13 l-42 11 218 223 c184 188 220 220 229 207 6 -9 34 -58 62 -108z m-4678 42
l21 -34 -15 -247 c-9 -135 -16 -261 -16 -278 l0 -33 -142 -10 c-79 -6 -144 -9
-146 -8 -2 2 54 137 124 301 69 165 130 309 135 322 11 29 14 28 39 -13z
m1028 -26 c137 -34 217 -59 222 -69 7 -14 340 -1144 340 -1155 0 -4 -981 645
-1000 662 -9 9 202 624 214 620 6 -2 107 -28 224 -58z m1262 46 c0 -8 -9 -19
-21 -25 -20 -11 -20 -11 -4 14 20 30 25 32 25 11z m173 -59 c-27 -55 -43 -64
-43 -23 0 17 51 75 67 77 2 0 -9 -25 -24 -54z m5067 -11 c91 -32 168 -61 172
-64 4 -4 -67 -39 -158 -80 -90 -41 -167 -71 -170 -69 -4 5 -34 239 -34 272 0
4 6 6 13 4 6 -3 86 -31 177 -63z m-8310 -4 l25 -20 -89 -40 c-48 -23 -92 -41
-97 -41 -4 0 13 35 39 79 l47 79 25 -19 c14 -10 36 -27 50 -38z m6929 -35 c-2
-2 -63 -6 -136 -8 -73 -1 -129 0 -125 4 4 4 59 27 122 51 l115 45 14 -44 c8
-24 13 -46 10 -48z m788 58 c-3 -3 -12 -4 -19 -1 -8 3 -5 6 6 6 11 1 17 -2 13
-5z m207 -56 c-8 -35 -15 -66 -17 -70 -1 -4 -21 4 -45 18 -23 14 -40 30 -36
35 4 8 104 79 110 79 1 0 -4 -28 -12 -62z m1075 -25 c1 -24 -2 -43 -6 -43 -5
0 -20 23 -35 50 l-26 50 26 14 c25 13 27 13 34 -7 3 -12 6 -41 7 -64z m-8530
-214 c-66 -156 -124 -287 -128 -292 -4 -4 -119 -6 -256 -5 l-249 3 374 291
c206 161 376 291 377 290 2 -1 -52 -130 -118 -287z m4161 274 c-5 -10 -23 -33
-39 -51 l-29 -33 -8 28 c-13 44 -11 46 36 59 25 7 46 12 48 13 1 1 -2 -7 -8
-16z m2930 -38 c32 -16 40 -35 16 -35 -19 0 -76 49 -58 50 7 0 26 -7 42 -15z
m-3108 -79 l26 -74 -21 -20 c-21 -19 -30 -20 -362 -12 -187 5 -342 10 -345 10
-7 2 641 168 660 169 10 1 24 -24 42 -73z m1843 64 c-11 -5 -29 -8 -40 -8 -16
0 -15 2 5 8 34 11 60 11 35 0z m-7783 -33 l57 -33 -41 -58 c-22 -31 -42 -55
-45 -52 -6 5 -43 146 -43 164 0 18 9 15 72 -21z m10713 17 c20 -15 20 -16 -4
-12 -14 2 -26 9 -29 16 -5 16 9 15 33 -4z m-6916 -33 c62 -17 114 -31 115 -33
0 -2 -1 -181 -4 -397 l-5 -395 -73 250 c-40 137 -97 331 -126 432 -44 148 -51
182 -38 178 10 -3 68 -19 131 -35z m5108 -6 c39 -37 45 -47 33 -54 -8 -6 -76
-52 -150 -104 l-135 -95 -37 116 c-20 64 -36 117 -35 118 6 4 244 62 259 63 9
1 38 -19 65 -44z m-4321 -20 c3 -25 5 -48 2 -50 -4 -4 -90 15 -98 22 -5 5 71
72 82 73 4 0 10 -20 14 -45z m-4738 -110 l30 -129 -136 -188 c-86 -117 -146
-190 -162 -196 -14 -6 -59 -26 -101 -45 l-76 -35 201 368 c111 202 204 365
207 362 4 -4 20 -65 37 -137z m10372 90 l35 -13 -25 -10 c-105 -40 -530 -175
-536 -169 -4 4 -5 9 -3 11 2 2 105 49 229 104 146 66 232 99 245 95 11 -3 36
-11 55 -18z m-7682 -172 c72 -100 128 -184 124 -186 -4 -3 -61 -8 -127 -11
-66 -4 -129 -10 -139 -13 -18 -5 -19 0 -12 98 3 57 9 148 13 202 3 53 7 96 8
95 1 -2 61 -85 133 -185z m6751 132 c87 -54 86 -52 64 -128 -5 -19 -23 -6
-148 108 -48 43 -49 45 -30 60 23 18 14 21 114 -40z m-1034 7 c-64 -59 -237
-204 -240 -200 -2 2 15 48 38 103 l42 100 50 6 c28 3 68 7 90 7 39 2 39 2 20
-16z m-10665 2 c0 -3 -12 -26 -27 -52 -15 -26 -27 -48 -27 -49 -2 -3 -548 -34
-552 -31 -3 4 563 134 594 137 6 0 12 -2 12 -5z m6583 -184 c-13 -47 -49 -181
-81 -298 l-57 -213 -3 318 c-1 175 0 333 3 350 l6 33 78 -52 78 -52 -24 -86z
m3470 184 c3 -4 -1 -17 -10 -31 l-16 -25 -13 24 c-7 12 -13 26 -14 31 0 8 44
10 53 1z m295 -66 c-17 -40 -54 -128 -83 -196 l-53 -123 -37 68 c-21 37 -48
86 -61 108 l-22 40 57 80 57 80 70 6 c38 3 77 6 86 7 15 2 13 -8 -14 -70z
m-7614 -28 l147 -85 -6 -40 c-3 -21 -7 -40 -8 -41 -1 -1 -94 -26 -207 -56
l-205 -55 -19 77 -19 77 78 107 c43 59 81 105 85 104 3 -2 72 -41 154 -88z
m8191 -39 c26 -83 33 -117 25 -125 -18 -18 -445 -314 -448 -311 -2 2 81 130
184 284 103 155 191 278 195 274 4 -5 23 -59 44 -122z m2324 112 c0 -5 -6 -37
-13 -73 l-13 -65 -25 50 c-14 28 -29 60 -32 73 -7 21 -4 22 38 22 25 0 46 -3
45 -7z m-9454 -32 c-8 -7 -204 -135 -253 -165 -8 -5 -3 7 9 27 17 26 50 48
133 90 116 58 126 63 111 48z m6045 -77 c36 -47 64 -90 62 -96 -6 -21 -86
-128 -96 -128 -6 0 -31 37 -55 83 l-44 83 28 72 c15 40 31 72 34 72 4 0 36
-39 71 -86z m1758 -47 c68 -60 120 -113 115 -117 -10 -9 -527 -170 -546 -170
-15 0 -63 138 -55 160 6 18 341 249 353 242 6 -3 65 -55 133 -115z m1295 -149
c70 -238 97 -370 97 -472 0 -9 -85 24 -269 108 l-269 121 -121 142 c-66 78
-122 147 -123 154 -2 9 558 204 597 208 6 1 45 -117 88 -261z m254 42 c32 -70
38 -91 32 -120 -4 -19 -17 -91 -30 -160 l-22 -125 -19 60 c-14 47 -70 514 -67
560 1 10 27 -44 106 -215z m-3663 90 c-26 -39 -51 -70 -55 -70 -20 0 -165 34
-172 40 -4 4 52 34 125 68 162 73 175 68 102 -38z m-2520 58 c-21 -35 -184
-261 -185 -257 -1 2 -9 61 -18 131 -12 87 -14 129 -6 132 5 2 56 5 113 5 80 1
101 -2 96 -11z m5004 -52 l23 -21 -58 -17 c-32 -10 -61 -18 -64 -18 -6 0 4 57
17 99 5 15 38 -2 82 -43z m-4738 40 c0 -2 -6 -18 -14 -36 -14 -33 -18 -32 -35
14 -10 24 -9 26 19 26 17 0 30 -2 30 -4z m1002 -25 c7 -7 -658 -817 -670 -814
-7 2 -140 765 -141 811 l-1 23 403 -7 c221 -3 405 -9 409 -13z m-1154 -351
c-147 -365 -217 -534 -218 -525 0 6 -14 115 -30 242 l-30 231 132 186 132 185
39 -82 38 -82 -63 -155z m1715 280 c7 -1 -5 -10 -26 -21 -22 -11 -41 -18 -45
-15 -9 10 31 47 46 41 7 -3 19 -5 25 -5z m1677 -144 l-89 -135 -41 16 c-22 9
-39 21 -37 26 3 9 246 225 255 227 1 0 -38 -60 -88 -134z m-10417 117 c-7 -2
-19 -2 -25 0 -7 3 -2 5 12 5 14 0 19 -2 13 -5z m-612 -30 c7 -20 2 -23 -54
-41 -81 -26 -142 -33 -162 -18 -14 10 0 18 82 48 54 20 104 35 112 34 8 0 17
-11 22 -23z m3899 12 c-7 -8 -17 -12 -22 -9 -6 4 -5 10 3 15 22 14 33 10 19
-6z m3997 -127 c12 -73 21 -133 20 -135 -2 -1 -21 40 -44 92 -42 93 -42 94
-26 134 9 23 19 41 22 41 4 0 17 -59 28 -132z m1878 76 c66 -15 124 -30 128
-34 5 -4 -44 -83 -108 -175 -64 -91 -118 -165 -119 -163 -2 2 -65 70 -140 152
-76 82 -134 152 -129 156 21 20 210 99 228 95 11 -3 74 -17 140 -31z m2956
-87 l21 -28 -33 14 c-108 47 -156 71 -172 85 -18 16 -16 17 30 33 l48 17 43
-46 c23 -26 52 -60 63 -75z m-13301 94 c0 -5 -21 -16 -47 -25 -39 -13 -53 -14
-87 -3 l-41 12 80 11 c44 6 83 12 88 13 4 0 7 -3 7 -8z m11185 -79 c-7 -8
-105 20 -105 29 0 5 8 21 17 36 l17 26 38 -44 c20 -24 35 -45 33 -47z m-12211
48 c14 -5 0 -14 -58 -38 l-76 -31 31 45 c31 46 38 48 103 24z m4495 -36 c1 -5
-19 -20 -44 -32 -25 -12 -45 -20 -45 -17 0 3 17 28 37 57 36 49 38 50 44 27 4
-13 7 -29 8 -35z m-539 -26 c-22 -40 -59 -108 -82 -151 l-43 -78 -18 22 c-10
12 -16 28 -13 35 5 13 187 244 193 244 1 0 -16 -33 -37 -72z m1740 47 c-7 -8
-20 -15 -29 -15 -13 1 -13 3 3 15 26 19 42 19 26 0z m4794 -66 c-31 -72 -38
-80 -113 -134 l-54 -39 94 121 c52 66 95 120 97 118 1 -1 -9 -31 -24 -66z
m2690 0 c10 -33 16 -62 14 -63 -2 -1 -59 -20 -128 -41 -69 -21 -159 -49 -199
-62 -53 -16 -71 -18 -60 -8 26 26 344 243 350 239 3 -2 14 -31 23 -65z
m-12614 51 c0 -5 -4 -10 -10 -10 -5 0 -10 5 -10 10 0 6 5 10 10 10 6 0 10 -4
10 -10z m1663 -17 c9 -3 17 -8 17 -12 0 -3 -37 -27 -83 -53 -45 -26 -106 -61
-136 -79 l-53 -31 42 79 c24 43 46 82 50 86 10 11 110 26 130 20 8 -3 23 -8
33 -10z m6552 -204 c-27 -38 -50 -68 -51 -66 -3 2 32 131 63 237 l17 55 9 -78
10 -78 -48 -70z m2782 -16 c-47 -120 -91 -231 -97 -247 l-11 -29 -39 38 c-22
22 -42 47 -46 57 -3 12 38 79 132 213 76 107 139 193 142 191 2 -3 -34 -103
-81 -223z m-9647 194 c0 -12 -77 -141 -86 -144 -5 -2 -18 23 -28 54 -10 32
-21 63 -23 70 -3 7 9 13 34 16 58 6 103 7 103 4z m9948 -19 c6 -6 12 -16 12
-22 0 -10 -264 -393 -284 -414 -3 -3 13 42 35 99 22 57 63 162 91 232 l50 128
41 -6 c23 -4 48 -12 55 -17z m-4560 -290 c6 -166 10 -303 9 -304 -4 -4 -391
88 -399 95 -7 6 20 472 27 480 4 3 247 26 326 30 l25 1 12 -302z m7192 -88
l412 -365 -35 -32 -35 -32 -169 45 c-92 24 -247 65 -344 90 l-177 46 -61 307
c-33 168 -61 312 -61 319 0 32 85 -36 470 -378z m-14163 372 c13 -8 7 -78 -7
-87 -9 -6 -273 -75 -276 -72 -6 6 195 142 226 153 42 16 42 16 57 6z m1337
-49 c9 -26 16 -48 16 -50 0 -11 -29 3 -81 40 -60 42 -61 42 -32 48 70 16 80
12 97 -38z m9373 -132 l160 -173 -241 -343 -240 -342 -118 39 c-103 35 -118
43 -117 61 0 12 17 197 37 411 l37 388 150 69 c83 37 155 67 161 66 6 -1 83
-80 171 -176z m-4230 97 c-4 -35 -9 -126 -13 -203 -4 -77 -10 -146 -13 -153
-4 -7 -55 69 -125 189 -65 110 -115 203 -112 206 6 6 141 19 220 22 l49 1 -6
-62z m6848 52 c-7 -12 -256 -225 -263 -225 -3 0 -15 30 -28 67 l-22 67 131 41
c73 23 143 45 157 50 14 5 26 9 28 9 2 1 1 -3 -3 -9z m-11253 -80 c14 -44 22
-80 16 -80 -17 0 -262 31 -265 34 -3 2 209 126 217 126 3 0 18 -36 32 -80z
m2356 18 c-170 -145 -181 -153 -175 -133 3 11 11 57 17 102 14 94 4 88 153 91
l79 2 -74 -62z m7379 33 l54 -16 -45 -37 -44 -37 -36 59 -35 60 26 -6 c14 -4
50 -14 80 -23z m-11654 12 c-7 -2 -19 -2 -25 0 -7 3 -2 5 12 5 14 0 19 -2 13
-5z m13322 -225 c-21 -123 -41 -227 -46 -232 -12 -13 -301 63 -317 83 -7 8
-11 21 -10 27 4 14 400 356 406 350 2 -3 -13 -105 -33 -228z m-12410 212 c3
-6 -4 -10 -17 -10 -18 0 -20 2 -8 10 19 12 18 12 25 0z m4988 -12 c13 -52 49
-329 44 -334 -3 -3 -67 4 -141 17 l-136 22 -151 159 -151 158 265 0 265 0 5
-22z m-1398 -84 c-5 -34 -11 -43 -32 -49 -14 -3 -27 -4 -30 -2 -2 3 11 35 29
72 35 72 46 65 33 -21z m205 82 c0 -2 -18 -15 -40 -30 l-40 -26 0 30 c0 28 2
30 40 30 22 0 40 -2 40 -4z m587 -118 c46 -67 81 -123 80 -124 -3 -4 -489 75
-494 79 -4 4 310 167 322 166 6 0 47 -54 92 -121z m3700 -120 c60 -134 113
-261 116 -284 l7 -40 -250 -53 c-138 -29 -254 -51 -259 -49 -9 3 258 668 268
668 4 0 57 -109 118 -242z m-4997 212 c0 -15 -30 -214 -33 -216 -6 -4 -339
-75 -342 -72 -2 2 28 46 66 98 l69 95 108 52 c111 53 132 60 132 43z m11081
-560 c27 -212 48 -391 47 -399 -3 -15 -254 576 -251 593 1 6 16 93 34 194 l33
184 44 -94 44 -93 49 -385z m-15686 532 c-34 -30 -155 -111 -175 -117 -22 -7
-22 -5 11 41 29 40 44 51 89 65 62 19 89 23 75 11z m12498 -165 c-3 -4 -35
-23 -72 -41 l-67 -34 -32 53 c-18 29 -32 55 -32 58 0 3 35 35 78 72 l77 66 26
-83 c14 -46 24 -86 22 -91z m-4759 -129 c103 -153 181 -278 174 -278 -7 0 -90
18 -184 41 l-172 41 -6 166 c-3 92 -9 203 -12 247 -4 51 -3 76 3 70 6 -5 94
-135 197 -287z m-6994 275 c-1 -22 -24 -36 -105 -63 -49 -16 -90 -28 -93 -25
-2 2 -2 15 2 28 5 21 18 28 83 45 86 22 113 26 113 15z m7769 -539 c9 -8 -92
-134 -107 -133 -9 1 -82 17 -162 38 l-144 36 -193 285 c-107 157 -198 293
-204 303 -7 13 771 -496 810 -529z m-7104 484 c174 -46 178 -55 25 -56 -71 -1
-79 1 -163 47 -83 45 -102 69 -47 56 14 -3 97 -24 185 -47z m14421 -193 c3
-11 -13 17 -34 62 -24 48 -42 103 -46 135 -5 47 -2 41 34 -62 22 -63 43 -124
46 -135z m-2444 140 c18 -59 24 -93 18 -99 -10 -10 -300 100 -300 114 0 9 220
79 240 77 9 -1 25 -35 42 -92z m-10455 19 c-1 -1 -17 1 -34 3 -29 5 -33 9 -33
36 l0 31 35 -34 c19 -18 34 -35 32 -36z m9136 14 c9 -29 15 -52 14 -53 -1 0
-65 -55 -142 -120 -85 -73 -132 -108 -120 -89 51 78 220 314 225 314 4 0 14
-23 23 -52z m2602 -2 c111 -129 112 -133 15 -47 -52 47 -99 89 -105 94 -5 4 8
1 30 -8 22 -9 49 -27 60 -39z m-13575 -31 c0 -3 -48 -5 -107 -4 l-108 1 70 22
c69 22 71 22 108 4 20 -10 37 -21 37 -23z m-676 8 c-4 -16 -8 -29 -9 -31 -4
-5 -579 -130 -583 -127 -1 1 13 14 32 28 26 20 94 42 287 91 140 35 260 65
267 65 9 1 10 -7 6 -26z m13686 -166 c18 -88 29 -161 27 -164 -3 -2 -33 3 -67
13 -58 16 -61 19 -56 43 2 14 15 88 28 164 14 89 25 132 30 120 4 -10 21 -89
38 -176z m-5100 -94 c16 -127 30 -234 30 -236 0 -4 -267 66 -296 77 -10 4 -10
15 0 53 9 33 48 97 122 201 60 84 110 149 111 145 2 -5 16 -112 33 -240z
m4227 80 l62 -25 -107 -93 c-59 -51 -168 -145 -242 -208 -74 -64 -138 -113
-141 -109 -9 9 -152 483 -147 487 2 1 59 20 128 42 l125 39 130 -54 c72 -29
158 -65 192 -79z m-9097 124 c0 -2 -10 -17 -23 -35 -22 -29 -25 -30 -40 -14
-16 15 -15 18 15 34 31 16 48 22 48 15z m2580 -71 l39 -66 -29 0 c-35 0 -45
16 -54 90 -8 64 -7 63 44 -24z m-2946 44 c37 -14 32 -31 -6 -23 -40 7 -42 9
-33 22 8 13 8 13 39 1z m11511 -172 c0 -16 -98 -108 -115 -108 -6 0 -167 184
-233 266 -13 18 26 3 165 -59 132 -59 183 -87 183 -99z m-9586 108 c355 -58
426 -74 406 -94 -4 -4 -899 29 -904 34 -2 1 0 19 3 38 5 27 16 40 49 59 23 14
44 25 47 26 3 0 182 -28 399 -63z m-3267 18 l106 -6 -108 -186 c-59 -103 -112
-187 -116 -187 -5 0 -170 86 -368 190 l-359 190 329 5 c181 3 347 4 369 3 22
-1 88 -5 147 -9z m7921 4 c-6 -7 -70 -94 -143 -193 -72 -99 -137 -186 -144
-193 -11 -11 -19 -11 -45 0 l-33 13 100 130 c80 103 117 143 184 192 87 65 97
71 81 51z m-7235 -34 l37 -35 -60 29 c-33 16 -67 32 -75 35 -8 3 2 6 23 6 30
1 45 -6 75 -35z m-1485 -130 c161 -86 285 -154 276 -151 -8 3 -235 69 -505
147 -269 79 -500 146 -514 150 -14 5 82 9 213 9 l238 1 292 -156z m1194 58
c67 -42 120 -78 115 -80 -4 -1 -108 -40 -232 -86 -124 -46 -226 -82 -228 -81
-1 1 41 77 94 169 73 126 100 166 112 161 9 -3 71 -40 139 -83z m7688 -182
c-13 -140 -25 -256 -25 -257 -1 -6 -190 63 -190 70 0 11 233 447 237 444 1 -2
-9 -117 -22 -257z m1628 243 c2 -10 8 -26 12 -35 5 -14 -17 -29 -127 -83 -73
-37 -124 -58 -113 -47 35 35 210 182 216 182 4 0 9 -8 12 -17z m-11753 -5 c-1
-23 -67 -348 -72 -353 -3 -3 -80 25 -171 62 l-166 67 -42 57 c-23 32 -41 61
-41 65 1 7 439 110 480 113 6 1 12 -5 12 -11z m198 -4 c32 -9 58 -18 60 -19 2
-2 -23 -84 -55 -184 l-58 -181 -48 0 c-46 0 -49 2 -44 23 3 12 20 102 38 200
19 97 38 177 42 177 5 0 34 -7 65 -16z m4141 -38 c-6 -13 -23 -29 -38 -36 -24
-11 -24 -9 8 24 41 42 44 44 30 12z m6745 -47 l55 -61 -21 -52 c-11 -28 -35
-88 -52 -134 l-33 -83 -182 -135 -182 -135 -37 12 c-20 6 -41 15 -45 19 -9 8
421 630 434 630 4 0 32 -27 63 -61z m-7630 -12 c3 -16 5 -32 3 -33 -2 -2 -23
16 -47 40 l-43 45 41 -11 c33 -8 41 -15 46 -41z m551 17 c-80 -71 -82 -71
-117 -37 l-31 31 84 20 c111 26 110 27 64 -14z m-3046 -141 l543 -158 -612 -3
c-337 -1 -615 -1 -616 1 -2 2 20 76 49 165 47 145 54 162 72 158 11 -3 265
-76 564 -163z m11206 32 c15 -55 30 -107 32 -115 5 -16 -96 146 -104 167 -6
15 28 66 37 56 4 -4 19 -53 35 -108z m868 92 c-28 -48 -438 -617 -444 -617
-16 0 -118 91 -124 111 -5 15 -1 28 14 43 41 40 556 483 559 480 2 -1 0 -9 -5
-17z m-6919 -2 c31 -4 63 -13 70 -21 8 -7 17 -43 21 -80 4 -37 9 -73 12 -81 5
-12 -133 129 -172 176 -16 19 -17 23 -4 19 9 -4 42 -9 73 -13z m-2508 -29 c-3
-11 -6 -25 -7 -31 -1 -15 -17 27 -18 47 -1 12 4 15 15 11 10 -4 14 -13 10 -27z
m2795 -16 c30 0 22 -14 -25 -48 -44 -32 -44 -32 -50 -9 -3 12 -6 33 -6 46 0
21 3 23 31 17 17 -3 40 -6 50 -6z m7078 -66 c2 -1 -25 -172 -61 -378 l-63
-375 -68 397 c-38 218 -70 404 -73 413 -4 14 16 11 128 -18 73 -19 135 -37
137 -39z m-9703 15 l42 -41 -31 -28 c-32 -28 -106 -64 -115 -56 -6 6 48 166
56 166 3 0 25 -19 48 -41z m1225 34 c28 -6 16 -9 -66 -19 -140 -18 -145 -18
-145 6 0 18 7 20 89 20 49 0 104 -3 122 -7z m904 -169 c50 -75 91 -139 92
-143 2 -3 -12 -15 -30 -27 -30 -19 -40 -20 -167 -13 -75 4 -187 3 -250 -2
l-115 -10 -210 96 c-115 53 -226 104 -245 112 -34 15 -24 17 380 68 228 29
424 53 435 54 15 0 42 -33 110 -135z m966 86 l186 -43 7 -205 c4 -112 5 -206
3 -208 -2 -2 -49 14 -103 37 l-100 40 -86 147 c-47 81 -90 165 -96 187 -23 91
-24 98 -10 93 7 -3 97 -25 199 -48z m-7918 -42 c-98 -141 -485 -683 -492 -691
-4 -4 46 151 111 345 65 193 120 353 121 355 5 4 288 71 305 72 7 1 -13 -36
-45 -81z m12767 79 c0 -3 -142 -124 -183 -156 -15 -12 -21 -11 -43 10 l-25 23
123 63 c132 66 128 65 128 60z m-12324 -61 l119 -48 95 -125 c52 -69 98 -131
102 -138 5 -9 -73 -86 -239 -236 -135 -123 -253 -228 -261 -233 -12 -7 -13 37
-7 335 7 326 9 348 32 422 13 43 28 77 32 75 5 -2 62 -25 127 -52z m3559 -110
c138 -87 250 -158 251 -159 1 -1 4 -23 7 -48 6 -45 5 -47 -94 -185 -56 -76
-103 -139 -106 -139 -9 1 -911 480 -908 483 10 11 564 210 580 208 11 -1 133
-73 270 -160z m10215 -219 c35 -202 61 -370 57 -373 -5 -5 -333 32 -369 42
-23 7 -163 122 -163 135 0 16 399 577 406 570 3 -3 35 -171 69 -374z m2011 35
c43 -104 45 -104 -63 -7 l-56 50 -11 115 c-7 63 -14 133 -17 155 -4 39 31 -37
147 -313z m389 33 c136 -290 140 -300 121 -315 -11 -8 -46 -36 -79 -62 -58
-46 -61 -47 -81 -30 -19 15 -26 50 -61 332 -22 173 -42 331 -46 350 -3 19 -3
33 0 30 3 -3 68 -140 146 -305z m-8969 67 c11 -46 19 -86 17 -88 -2 -2 -36 -1
-75 3 -68 5 -73 8 -127 57 -46 42 -57 58 -61 91 l-6 40 78 57 78 56 38 -66
c23 -39 46 -99 58 -150z m5533 20 c54 -90 96 -165 95 -166 -81 -61 -104 -76
-107 -69 -121 330 -138 388 -124 411 18 27 4 45 136 -176z m1563 177 l82 -22
10 -46 c56 -269 93 -473 85 -481 -8 -8 -386 -121 -390 -117 -1 1 105 634 116
685 1 5 18 2 97 -19z m-10621 -40 c8 -13 -21 1 -51 26 -19 15 -18 15 12 1 17
-9 35 -21 39 -27z m8686 -102 l-90 -135 -35 36 -36 37 121 102 c67 57 123 101
125 99 2 -2 -36 -65 -85 -139z m-12800 -377 l-128 -414 -219 -42 c-121 -23
-221 -41 -221 -40 -1 0 154 219 345 486 300 421 346 481 348 455 2 -17 -55
-217 -125 -445z m8753 252 c39 -57 71 -108 73 -112 4 -9 -273 -230 -287 -230
-13 0 -293 110 -302 119 -4 3 -10 103 -14 222 l-7 216 234 -55 234 -55 69
-105z m6473 137 c146 -39 268 -71 269 -73 1 -1 -68 -62 -154 -136 -147 -127
-161 -136 -230 -156 -40 -12 -73 -21 -73 -20 0 1 -20 103 -45 226 -25 123 -45
225 -45 227 0 6 8 3 278 -68z m-9553 4 c-4 -32 -8 -59 -9 -60 -1 -2 -56 17
-122 42 -65 24 -117 45 -114 45 6 2 220 27 239 29 10 1 12 -11 6 -56z m6768
-89 c-16 -12 -107 -90 -203 -172 -96 -82 -176 -147 -177 -143 -2 3 21 71 51
150 l53 144 114 58 114 57 38 -36 37 -36 -27 -22z m3364 60 c-1 -1 -15 0 -30
3 -19 4 -25 8 -16 13 10 7 53 -9 46 -16z m-14965 -15 c29 -11 55 -22 57 -25 6
-6 -43 -43 -51 -38 -11 7 -70 84 -64 84 3 0 29 -9 58 -21z m9659 -75 l16 -97
-185 -251 c-101 -138 -189 -255 -194 -261 -5 -5 1 15 15 45 268 611 291 660
312 660 19 0 23 -10 36 -96z m2502 -76 c32 -90 57 -167 57 -173 -1 -5 -19 -24
-41 -41 l-41 -30 -61 65 c-34 36 -75 80 -91 98 l-28 32 67 105 c38 58 71 106
75 106 3 0 32 -73 63 -162z m-2707 134 c-7 -22 -276 -625 -281 -630 -2 -3 -90
61 -147 107 -7 6 -38 400 -38 476 l0 32 183 15 c264 22 290 22 283 0z m-4482
-29 c17 -35 11 -42 -17 -20 -11 8 -15 20 -11 35 7 26 6 27 28 -15z m253 -76
c-46 -17 -70 -5 -103 55 l-32 57 78 -52 c69 -46 76 -53 57 -60z m4563 103 c0
-5 -4 -10 -10 -10 -5 0 -10 5 -10 10 0 6 5 10 10 10 6 0 10 -4 10 -10z m-5121
-69 c73 -28 135 -52 137 -54 2 -2 1 -18 -2 -35 -6 -29 -10 -31 -83 -47 -42 -9
-130 -30 -196 -45 -66 -16 -121 -27 -123 -25 -7 6 116 255 126 255 5 0 68 -22
141 -49z m3434 36 l48 -12 -34 -33 -35 -34 -31 46 c-36 52 -34 53 52 33z m776
-178 c7 -105 11 -193 8 -195 -2 -2 -42 25 -89 61 l-85 65 -42 108 c-24 59 -45
112 -48 118 -3 8 31 15 109 21 62 6 118 11 124 11 7 1 15 -63 23 -189z m999
73 c-63 -120 -65 -122 -70 -79 -3 31 4 46 52 110 30 41 58 73 63 70 4 -2 -16
-48 -45 -101z m-3462 67 c4 -7 -2 -9 -17 -7 -13 2 -25 11 -27 21 -3 16 -1 17
17 8 11 -6 23 -16 27 -22z m-4936 0 c-93 -24 -134 -24 -285 0 l-120 19 240 0
240 0 -75 -19z m7032 -24 l17 -44 -48 37 c-37 29 -44 39 -32 44 35 15 47 7 63
-37z m6366 25 c23 -6 42 -14 42 -18 -1 -21 -25 -36 -96 -57 -43 -12 -103 -30
-131 -38 -29 -9 -53 -14 -53 -12 0 13 168 144 180 140 8 -2 34 -9 58 -15z
m-14602 -66 c-3 -8 -17 -52 -32 -99 -15 -48 -30 -83 -34 -78 -18 21 -107 140
-114 151 -6 10 7 27 40 56 l48 43 49 -30 c30 -18 46 -35 43 -43z m1734 49 c0
-6 -97 -182 -105 -191 -2 -2 -71 20 -154 49 -82 29 -148 56 -145 59 5 5 365
87 392 89 6 1 12 -2 12 -6z m8161 -33 c62 -22 114 -41 116 -43 4 -5 -46 -519
-51 -525 -8 -7 -327 -74 -332 -69 -3 2 -16 73 -30 156 l-26 151 98 185 c54
102 102 185 106 185 4 0 58 -18 119 -40z m-9356 -18 l259 -37 -167 -43 -167
-43 -128 77 c-156 95 -159 97 -102 89 25 -4 162 -23 305 -43z m1785 -389 c0
-1 -42 13 -92 31 -51 18 -181 64 -288 101 -107 38 -197 70 -198 71 -2 1 15 35
38 76 23 40 53 92 67 116 l24 43 225 -218 c123 -119 224 -218 224 -220z m9159
380 c23 -25 40 -49 39 -53 -15 -34 -184 -280 -192 -279 -6 0 -64 19 -130 43
l-119 42 173 147 c94 81 176 147 180 147 5 0 27 -21 49 -47z m-3040 -469 c57
-143 106 -266 109 -274 6 -14 -281 277 -361 365 -32 37 -39 55 -71 198 -20 86
-36 159 -36 162 0 3 57 -40 128 -94 l127 -99 104 -258z m6552 192 c54 -137 98
-250 96 -251 -1 -1 -157 -48 -347 -105 -190 -56 -351 -105 -358 -108 -10 -3
306 647 323 666 6 6 161 50 174 49 8 -1 53 -102 112 -251z m-4142 184 c-11
-30 -23 -58 -25 -61 -5 -9 -75 12 -72 22 3 8 112 98 115 95 2 -1 -7 -27 -18
-56z m-10640 -8 c52 -31 79 -53 70 -56 -34 -12 -222 -57 -225 -53 -8 8 51 167
61 163 5 -2 48 -26 94 -54z m3131 29 c0 -4 -13 -45 -28 -91 -23 -68 -30 -80
-35 -60 -9 34 33 170 50 163 7 -3 13 -8 13 -12z m6952 -40 c5 -4 -40 -74 -98
-156 -58 -83 -104 -141 -101 -130 3 11 11 83 17 160 6 77 13 150 15 162 l5 22
78 -26 c42 -14 80 -29 84 -32z m-3943 9 l34 -29 -88 24 c-48 14 -90 27 -93 30
-3 3 21 5 54 5 50 -1 64 -5 93 -30z m-6554 -83 c37 -48 66 -89 64 -91 -10 -8
-613 -245 -616 -242 -2 1 104 100 234 218 131 119 241 213 244 209 3 -3 36
-46 74 -94z m1235 -87 c0 -99 -3 -180 -6 -180 -9 0 -413 244 -414 250 0 5 383
107 408 109 9 1 12 -41 12 -179z m2594 172 c5 -8 -136 -144 -202 -196 -13 -11
6 20 42 67 86 111 143 157 160 129z m-2287 -73 c234 -93 216 -82 196 -124 -15
-32 -28 -39 -182 -99 -91 -36 -174 -68 -183 -72 -17 -6 -18 7 -18 180 0 102 2
186 5 186 3 0 85 -32 182 -71z m3488 4 c10 -38 20 -74 23 -82 4 -11 -6 -13
-56 -7 -34 3 -89 9 -122 12 l-59 6 5 32 c13 76 10 72 81 89 111 25 108 26 128
-50z m686 46 c31 -14 47 -25 41 -31 -6 -6 -28 2 -58 21 -58 36 -52 39 17 10z
m474 -19 c77 -22 141 -40 141 -40 3 0 54 -80 54 -85 0 -19 -78 5 -209 65 -178
82 -173 79 -166 91 10 15 33 11 180 -31z m2004 -20 c1 -12 -1 -12 -14 0 -9 10
-12 24 -8 40 l7 25 7 -25 c4 -14 7 -32 8 -40z m-2891 -5 c2 -1 -25 -19 -60
-38 -35 -19 -64 -34 -66 -32 -2 1 -11 30 -21 63 l-18 60 81 -25 c44 -14 82
-26 84 -28z m9300 -252 c-83 -164 -152 -299 -154 -301 -1 -2 -61 75 -133 170
l-132 173 58 53 c32 30 69 61 82 70 20 14 387 129 418 131 7 1 -56 -133 -139
-296z m-2710 195 l73 -80 -77 -59 c-42 -32 -79 -59 -82 -59 -17 0 -142 45
-142 51 0 11 143 229 149 228 3 0 39 -37 79 -81z m606 -16 c31 -51 56 -96 56
-100 0 -4 -32 -54 -70 -112 -38 -58 -70 -102 -70 -99 0 3 -20 61 -45 129 l-45
124 42 61 c45 65 70 97 73 93 2 -2 28 -45 59 -96z m-1840 79 c17 -6 12 -13
-35 -49 -29 -22 -55 -39 -57 -37 -6 5 58 95 66 94 4 0 16 -4 26 -8z m-6667
-32 c19 -12 32 -23 31 -25 -6 -5 -222 -94 -224 -91 -3 3 146 137 153 137 3 0
21 -10 40 -21z m713 7 c0 -38 -9 -42 -78 -35 -37 5 -76 9 -87 9 -23 2 108 37
143 39 13 1 22 -5 22 -13z m4829 -307 c-63 -116 -119 -213 -125 -216 -17 -6
-114 69 -109 84 2 7 78 113 167 234 l163 222 9 -56 8 -56 -113 -212z m5854
235 c57 -50 74 -73 98 -129 16 -38 28 -69 26 -70 -6 -5 -101 -35 -102 -32 -2
2 -108 269 -123 307 -7 18 1 13 101 -76z m-9424 19 c4 -3 -2 -3 -12 0 -11 4
-30 10 -43 13 -13 3 -24 10 -24 15 0 9 68 -15 79 -28z m-6759 -142 l0 -168
-52 -11 c-29 -5 -54 -9 -56 -7 -4 3 101 355 106 355 1 0 2 -76 2 -169z m6400
117 c0 -4 -52 -8 -117 -8 -64 0 -114 2 -112 4 2 2 23 15 47 29 l43 24 70 -20
c38 -11 69 -24 69 -29z m2281 6 c-6 -16 -15 -48 -21 -71 l-10 -42 -38 16 c-20
8 -41 18 -45 23 -5 4 20 30 55 58 35 27 64 49 66 48 1 -2 -2 -16 -7 -32z
m3027 10 c39 -15 72 -29 72 -33 -1 -3 -9 -22 -18 -41 -17 -34 -17 -34 -192
-76 -96 -23 -188 -45 -204 -48 -21 -5 9 25 115 108 79 63 146 115 149 116 3 0
38 -12 78 -26z m-4322 -22 c-43 -3 -76 9 -76 28 0 3 28 0 62 -9 l61 -16 -47
-3z m-5685 -129 c142 -87 259 -161 259 -165 0 -4 -14 -15 -31 -24 -32 -16 -32
-16 -399 128 -203 78 -366 145 -363 148 5 5 240 68 261 69 8 1 130 -70 273
-156z m1996 -89 c-1 -2 -28 5 -60 13 -49 14 -70 28 -149 105 l-93 88 152 -102
c84 -56 151 -103 150 -104z m5366 3 c9 -45 17 -86 17 -90 0 -5 -26 12 -58 36
l-58 45 -22 93 c-12 52 -22 101 -22 109 0 8 28 -14 63 -48 61 -61 64 -65 80
-145z m-5205 78 c1 -1 0 -9 -4 -18 -5 -13 -25 -3 -110 54 -57 38 -104 72 -104
75 0 5 208 -101 218 -111z m1380 83 c229 -22 232 -22 232 -45 0 -21 -22 -181
-35 -260 -5 -28 -27 -50 -133 -135 -70 -56 -132 -105 -139 -110 -8 -7 -70 16
-185 68 -95 42 -174 78 -175 78 -3 2 163 402 173 417 7 12 -2 13 262 -13z
m7727 12 c-3 -5 -11 -10 -16 -10 -6 0 -7 5 -4 10 3 6 11 10 16 10 6 0 7 -4 4
-10z m1865 -23 c0 -2 -71 -52 -158 -111 l-159 -107 -66 42 c-37 23 -65 44 -63
47 5 4 425 130 439 131 4 1 7 0 7 -2z m-2704 -54 l141 -48 -127 -193 c-70
-107 -131 -195 -135 -195 -5 -1 -38 88 -75 198 l-66 199 50 43 c27 24 55 43
61 43 6 0 74 -21 151 -47z m-2538 -12 c35 -27 38 -39 46 -166 l4 -80 -42 105
c-23 58 -50 124 -59 148 -19 49 -24 49 51 -7z m-6703 -110 c64 -79 113 -146
110 -149 -2 -3 -86 -17 -184 -32 l-180 -26 -73 29 c-40 15 -76 32 -80 35 -3 4
22 56 56 117 l63 109 79 32 c43 18 82 31 87 30 4 0 59 -66 122 -145z m2856
139 c16 0 29 -4 29 -8 0 -10 -191 -164 -196 -159 -2 2 2 43 8 91 l12 88 59 -6
c33 -3 73 -6 88 -6z m10938 -76 c7 -48 11 -88 9 -90 -2 -2 -31 21 -63 50 -33
30 -58 56 -55 58 3 2 22 18 43 36 21 18 41 32 46 32 4 0 13 -39 20 -86z
m-15291 -84 c205 -80 371 -148 369 -152 -2 -6 -775 -470 -840 -505 -27 -14
-30 -13 -83 28 -30 23 -53 47 -51 53 2 6 50 172 108 369 60 208 109 356 115
355 6 -2 178 -68 382 -148z m3342 146 c0 -8 -182 -221 -189 -221 -12 0 -161
69 -161 74 0 3 78 38 173 77 94 40 173 72 175 73 1 0 2 -1 2 -3z m3465 -73
c-14 -13 -30 -23 -34 -23 -15 0 -29 24 -36 64 l-8 39 53 -29 52 -28 -27 -23z
m-1985 46 c-50 -40 -55 -40 -85 -9 l-29 30 70 0 69 0 -25 -21z m695 -135 c138
-86 251 -157 252 -158 2 -1 -92 -64 -207 -139 l-211 -137 -217 196 c-119 108
-230 209 -246 224 l-28 28 93 71 94 71 110 0 110 0 250 -156z m665 131 c0 -40
-26 -46 -89 -17 -84 37 -83 42 7 42 80 0 82 0 82 -25z m5300 -18 c0 -5 -9 -22
-20 -37 -19 -27 -23 -28 -53 -18 -51 17 -51 24 -1 62 43 33 48 35 60 18 7 -9
14 -21 14 -25z m-12099 -292 c-49 -165 -93 -299 -97 -298 -12 4 -443 357 -444
364 0 11 625 255 627 245 2 -6 -37 -146 -86 -311z m2476 233 c150 -46 273 -86
273 -89 0 -3 -71 -16 -157 -28 -87 -12 -172 -24 -188 -27 -28 -5 -36 1 -123
110 -51 64 -89 116 -85 116 5 1 131 -37 280 -82z m10406 62 l67 -10 210 -170
c116 -93 211 -173 211 -177 1 -8 -343 -194 -349 -188 -5 4 -227 475 -247 523
-14 32 -14 32 13 32 15 0 57 -5 95 -10z m-7606 -95 c-1 -5 -46 -45 -102 -87
l-102 -76 56 127 56 128 46 -41 c25 -22 46 -45 46 -51z m2491 66 c40 -15 73
-31 73 -35 1 -23 -14 -19 -81 20 -41 24 -73 44 -70 44 3 0 38 -13 78 -29z
m6466 -146 c64 -85 116 -158 116 -161 0 -4 -61 -4 -136 -1 l-136 7 -109 67
c-60 38 -109 70 -108 73 0 6 241 170 250 170 4 0 59 -70 123 -155z m-11007
119 c8 -21 -11 -37 -36 -29 -17 5 -19 9 -8 26 14 23 35 25 44 3z m6501 -150
c-2 -1 -31 -9 -65 -17 l-62 -14 52 98 52 98 13 -81 c7 -44 11 -82 10 -84z
m1982 126 c0 -4 -28 -29 -62 -55 -35 -27 -91 -71 -126 -98 l-64 -50 79 119 78
120 48 -15 c26 -8 47 -18 47 -21z m1077 -251 l130 -276 -50 -28 c-41 -23 -51
-25 -62 -14 -7 8 -74 95 -150 194 -76 99 -141 185 -146 190 -10 13 131 229
142 218 4 -4 65 -132 136 -284z m553 273 l55 -7 3 -49 c7 -105 4 -105 -108
-14 -55 44 -100 82 -100 85 0 2 21 1 48 -3 26 -3 72 -9 102 -12z m-11700 -19
c0 -5 -13 -29 -28 -54 l-27 -46 -54 22 -53 22 73 31 c81 33 89 36 89 25z
m9424 -199 c37 -113 66 -207 64 -209 -4 -3 -757 -35 -837 -35 l-55 0 370 224
c203 123 374 225 379 225 6 1 41 -92 79 -205z m-3395 75 c71 -75 110 -124 104
-130 -6 -6 -56 27 -134 87 -68 52 -128 100 -134 105 -7 7 0 19 20 35 17 13 30
24 31 24 0 0 51 -54 113 -121z m8164 2 c65 -58 120 -114 122 -125 2 -12 27
-175 55 -362 l51 -342 -17 -68 c-10 -38 -19 -64 -21 -59 -1 6 -75 242 -163
525 -88 283 -163 523 -166 534 -9 27 3 18 139 -103z m-3630 95 c4 -10 1 -13
-8 -9 -8 3 -12 9 -9 14 7 12 11 11 17 -5z m-3158 -39 l29 -24 -34 -81 c-19
-44 -38 -75 -41 -69 -4 7 -9 58 -12 115 -7 114 -8 112 58 59z m-2532 11 c37
-7 67 -15 67 -18 0 -3 -17 -15 -37 -26 l-38 -22 -55 35 c-75 48 -83 57 -40 49
19 -4 65 -12 103 -18z m623 -10 c18 -20 18 -21 1 -15 -10 4 -23 7 -28 7 -5 0
-9 7 -9 15 0 21 14 19 36 -7z m3488 -2 c-32 -23 -455 -276 -460 -276 -3 0 14
35 37 78 58 106 104 135 282 178 153 38 170 40 141 20z m1301 -5 c28 -10 50
-22 50 -28 0 -9 -887 -1264 -891 -1260 -1 1 40 195 92 431 71 326 98 432 111
441 10 7 141 108 292 224 151 116 279 211 285 210 6 0 34 -8 61 -18z m-3820
-38 c3 -19 9 -41 12 -50 5 -13 2 -13 -25 1 -39 20 -43 27 -36 64 8 42 40 32
49 -15z m-4162 -11 c-15 -39 -31 -51 -46 -36 -3 4 8 24 26 44 17 21 33 37 34
36 2 -1 -5 -21 -14 -44z m4678 -134 l174 -182 -167 125 c-148 110 -167 128
-173 159 -3 19 -9 45 -12 58 -3 12 -3 22 -1 22 2 0 83 -82 179 -182z m4993
150 c26 -11 26 -11 5 -26 -23 -16 -24 -16 -33 16 -8 25 -6 26 28 10z m-10028
-44 c55 -25 100 -47 102 -49 4 -3 -626 -755 -633 -755 -2 0 7 35 20 78 14 42
59 193 102 336 l78 259 114 88 c62 49 114 89 116 89 1 0 47 -21 101 -46z
m2028 -164 c124 -113 226 -208 226 -211 0 -3 -149 -58 -332 -122 l-331 -117
-136 71 c-75 39 -140 75 -144 79 -5 4 10 52 34 106 l43 99 200 152 c111 84
204 152 207 150 4 -1 108 -94 233 -207z m1206 191 c0 -5 3 -18 6 -28 6 -16 5
-16 -9 2 -19 23 -21 35 -7 35 6 0 10 -4 10 -9z m608 -36 c-8 -8 -48 8 -42 16
3 5 14 4 25 -2 12 -6 19 -12 17 -14z m4812 -20 c63 -21 116 -39 118 -40 6 -5
-78 -648 -85 -655 -4 -4 -257 -140 -561 -303 -443 -237 -549 -290 -535 -268
88 137 930 1310 938 1308 6 -2 62 -21 125 -42z m3138 16 c10 -28 0 -42 -216
-324 -147 -192 -232 -294 -241 -291 -7 2 -80 46 -160 96 l-147 92 -28 104
c-15 58 -24 108 -19 112 10 10 761 238 785 239 9 1 20 -11 26 -28z m-17012
-27 c-14 -39 -55 -114 -62 -114 -5 0 14 47 47 112 27 56 35 57 15 2z m4724 32
c0 -2 -19 -19 -42 -38 l-43 -33 29 38 c16 20 35 37 42 37 8 0 14 -2 14 -4z
m3612 -33 c68 -104 68 -99 -5 -52 -37 22 -67 45 -67 49 0 6 32 33 46 39 1 1
12 -16 26 -36z m-3859 -61 c-26 -37 -77 -108 -113 -157 l-64 -90 -99 123 c-54
68 -96 126 -93 130 6 6 344 59 389 61 l28 1 -48 -68z m10952 33 l40 -24 -80 0
-80 0 30 24 c37 31 41 31 90 0z m-14198 -206 c142 -116 262 -215 267 -220 8
-7 -94 -381 -113 -415 -5 -9 -397 441 -529 606 l-23 29 47 103 c48 104 60 121
81 114 6 -3 127 -100 270 -217z m5185 199 c-7 -7 -12 -8 -12 -2 0 14 12 26 19
19 2 -3 -1 -11 -7 -17z m5300 -10 c-11 -18 -43 -77 -72 -130 -43 -82 -56 -98
-76 -98 -26 0 -26 1 -44 109 -7 37 -8 67 -2 73 7 7 197 78 210 78 2 0 -5 -15
-16 -32z m5455 10 c-3 -8 -6 -5 -6 6 -1 11 2 17 5 13 3 -3 4 -12 1 -19z
m-16597 -6 c0 -14 -490 -495 -497 -488 -3 3 0 97 7 208 l12 203 212 41 c221
44 266 49 266 36z m10340 -15 l28 -24 -74 -36 c-41 -20 -74 -34 -74 -31 0 7
81 114 87 114 3 0 18 -11 33 -23z m-8045 -18 c77 -31 105 -50 105 -73 0 -6
-211 -116 -468 -245 l-468 -234 -76 29 -76 29 441 263 c243 144 446 262 452
262 5 0 46 -14 90 -31z m2610 -1 c14 -6 25 -15 25 -20 0 -7 -248 -615 -255
-626 -1 -2 -219 -88 -513 -203 -21 -8 -22 -7 -10 9 33 46 714 852 720 852 4 0
19 -5 33 -12z m4247 -31 c52 -31 74 -50 76 -67 3 -18 0 -21 -13 -16 -9 3 -21
6 -26 6 -13 0 -119 100 -119 111 0 13 3 12 82 -34z m-5695 -60 c40 -50 71 -92
69 -94 -1 -1 -89 32 -196 75 l-193 77 109 16 c60 9 116 17 124 17 8 1 47 -40
87 -91z m2494 56 c-11 -21 -32 -47 -47 -57 -23 -16 -20 -10 16 37 23 32 44 57
46 57 3 0 -5 -17 -15 -37z m1792 -79 c94 -58 177 -111 184 -118 9 -8 1 -66
-38 -251 -27 -132 -52 -248 -57 -258 -6 -16 -55 15 -349 215 -189 128 -341
237 -340 241 3 9 408 277 420 277 4 0 85 -48 180 -106z m-7557 80 c-3 -9 -6
-18 -6 -21 0 -3 -7 0 -15 7 -13 11 -13 15 -3 21 21 13 31 10 24 -7z m8453 -33
c74 -22 140 -46 147 -53 9 -10 9 -23 -3 -61 -14 -47 -15 -48 -36 -34 -12 7
-66 40 -120 72 -63 37 -103 68 -113 87 -8 15 -13 28 -12 28 2 0 64 -18 137
-39z m8236 -475 c86 -274 155 -500 153 -502 -2 -1 -77 181 -166 406 l-163 409
7 103 c4 57 9 99 10 93 2 -5 74 -234 159 -509z m-6040 418 c4 -32 9 -63 12
-71 10 -24 -14 -13 -81 39 l-67 52 58 22 c32 12 61 20 64 18 4 -2 10 -29 14
-60z m5707 -34 l34 -85 -26 -297 c-14 -163 -28 -300 -32 -303 -3 -4 -101 53
-217 126 l-210 131 60 77 c32 42 123 160 202 262 78 103 145 184 149 180 3 -3
21 -44 40 -91z m-13260 -61 l378 -151 -96 -74 c-63 -50 -99 -72 -108 -67 -38
22 -585 429 -586 436 -1 18 59 -2 412 -144z m1911 90 c76 -34 136 -65 135 -69
-5 -13 -462 -376 -482 -384 -13 -4 -17 -2 -13 8 40 104 212 506 216 506 3 0
68 -28 144 -61z m496 9 c-11 -71 -27 -85 -75 -67 -20 8 -36 18 -36 22 1 8 103
96 113 96 3 1 2 -22 -2 -51z m2698 -21 c30 -18 57 -42 62 -57 5 -14 21 -52 35
-85 l26 -60 -42 47 c-24 26 -81 88 -128 139 -92 101 -94 100 47 16z m6262 -68
c24 -66 41 -122 39 -125 -3 -2 -33 -15 -67 -29 -50 -19 -62 -21 -57 -9 3 9 6
76 6 150 0 121 2 134 18 134 13 0 28 -29 61 -121z m482 84 c16 -10 29 -20 29
-23 0 -4 -254 -105 -341 -135 -13 -5 -23 13 -47 82 -18 49 -32 92 -32 97 0 5
77 6 181 2 144 -5 188 -10 210 -23z m-15048 -131 c-37 -80 -49 -101 -40 -67 3
11 13 55 22 98 16 75 18 78 35 62 17 -16 17 -19 -17 -93z m3974 -205 c-50
-169 -94 -307 -97 -307 -4 0 -102 255 -137 357 -4 10 316 267 324 260 1 -2
-39 -141 -90 -310z m-1178 4 c144 -165 263 -303 263 -307 1 -12 -316 -254
-323 -246 -4 4 -59 176 -123 382 l-115 375 17 48 c9 26 17 47 18 47 1 0 119
-135 263 -299z m7733 268 c21 -17 37 -33 35 -35 -5 -5 -339 -35 -343 -31 -4 4
237 95 255 96 7 1 31 -13 53 -30z m-7299 -368 c26 -19 47 -38 47 -41 0 -6
-106 -90 -113 -90 -4 0 -345 386 -424 481 -22 26 167 -109 490 -350z m5032
211 c-1 -1 -30 14 -64 35 -48 30 -63 45 -71 73 -5 19 -10 39 -10 43 0 5 33
-27 74 -70 41 -43 73 -79 71 -81z m-8405 111 c-5 -21 -36 -168 -70 -328 l-62
-290 -191 -419 c-122 -265 -193 -410 -195 -396 -2 12 11 243 28 514 l32 491
231 233 c128 127 233 232 233 232 1 0 -2 -17 -6 -37z m2510 -7 c0 -30 -211
-586 -223 -586 -16 0 -597 214 -597 220 0 3 181 96 403 206 269 135 404 198
409 190 4 -6 8 -20 8 -30z m11258 -58 c29 -37 52 -71 52 -76 0 -8 -70 -46 -74
-40 -2 2 -13 41 -25 88 -12 47 -25 94 -28 105 -4 18 -3 18 9 5 8 -8 38 -45 66
-82z m737 -54 l-7 -81 -101 -39 c-55 -22 -104 -40 -107 -42 -3 -1 -12 13 -19
33 l-12 35 123 119 123 119 3 -31 c2 -18 1 -69 -3 -113z m876 108 l26 -17
-171 -266 c-94 -146 -175 -268 -179 -270 -5 -2 -41 86 -81 196 l-71 200 220
87 c121 48 222 87 225 87 3 1 17 -7 31 -17z m-1749 -233 c-4 -3 -29 -18 -56
-33 l-48 -28 6 38 c3 22 10 80 16 129 18 152 19 152 55 20 19 -66 31 -123 27
-126z m-8012 181 c0 -5 -293 -121 -297 -117 -1 2 43 39 98 84 l101 81 49 -22
c27 -11 49 -23 49 -26z m6636 13 c-2 -10 -46 -207 -96 -438 -50 -230 -92 -421
-94 -422 -2 -2 -37 9 -79 24 l-76 28 -331 390 c-182 214 -326 391 -320 393 12
4 784 39 913 41 80 1 88 -1 83 -16z m-3041 -118 c90 -69 171 -133 180 -141 40
-41 -7 -18 -180 86 -165 99 -186 115 -181 134 3 11 6 27 6 34 0 6 3 12 6 12 3
0 79 -56 169 -125z m-8675 -206 c180 -213 270 -325 266 -335 -5 -12 -528 -730
-868 -1192 l-68 -92 -73 39 c-39 22 -73 45 -75 50 -2 5 56 288 129 628 l131
618 106 230 c58 127 120 263 138 303 19 39 35 72 38 72 2 0 126 -144 276 -321z
m9014 274 c5 -12 1 -14 -16 -9 -13 3 -28 6 -35 6 -14 0 -43 27 -43 40 0 14 88
-20 94 -37z m4666 22 c-7 -9 -15 -13 -19 -10 -3 3 1 10 9 15 21 14 24 12 10
-5z m-5983 -296 c35 -144 62 -263 61 -265 -3 -2 -290 54 -294 59 -2 2 94 471
102 495 3 11 11 9 36 -6 31 -20 33 -27 95 -283z m555 236 c-2 -14 -6 -25 -8
-25 -4 0 -54 78 -54 84 0 3 15 -4 34 -14 27 -16 32 -25 28 -45z m6779 9 c67
-40 53 -9 134 -313 25 -95 44 -178 42 -184 -4 -14 -599 -198 -609 -188 -4 3
-12 26 -19 51 l-12 46 199 311 c109 172 201 312 203 313 2 0 30 -16 62 -36z
m-5866 -14 c10 -11 13 -20 7 -20 -6 0 -16 9 -22 20 -6 11 -9 20 -7 20 2 0 12
-9 22 -20z m944 16 c-16 -13 -313 -117 -324 -112 -8 3 -37 22 -65 43 l-51 38
173 16 c173 16 275 22 267 15z m591 -128 l104 -123 -116 109 c-73 67 -114 113
-111 122 3 8 8 14 12 14 4 0 54 -55 111 -122z m-4301 -95 c-28 -103 -55 -191
-58 -195 -3 -4 -102 41 -220 101 l-213 108 209 73 c114 41 235 84 268 96 33
12 61 18 63 14 2 -5 -20 -93 -49 -197z m7162 186 c9 -18 7 -26 -18 -51 l-29
-28 -22 30 -23 30 33 20 c41 25 45 25 59 -1z m-8356 -11 c3 -13 12 -53 20 -89
l15 -67 -34 -75 c-33 -70 -64 -106 -611 -683 -318 -335 -595 -627 -617 -649
-22 -22 241 326 583 773 343 446 627 812 631 812 4 0 10 -10 13 -22z m1737
-219 c194 -133 354 -243 356 -244 1 -1 -52 -65 -118 -141 l-120 -140 -303 152
c-214 108 -302 157 -301 168 3 35 119 446 126 446 4 0 166 -109 360 -241z
m3388 217 c0 -7 -281 -340 -289 -344 -12 -4 -164 66 -172 80 -4 7 -9 31 -11
52 l-3 38 235 88 c263 100 240 91 240 86z m6625 -506 c63 -267 114 -491 113
-499 -2 -8 -58 209 -126 483 -67 273 -119 502 -115 508 8 15 -6 71 128 -492z
m-14751 -78 c-3 -4 -304 105 -323 118 -12 7 26 118 145 424 5 12 35 -71 94
-260 47 -154 85 -281 84 -282z m6023 281 c13 -3 23 -7 23 -9 0 -14 -64 -221
-71 -228 -4 -5 -67 3 -148 19 l-140 27 -55 230 c-31 126 -56 231 -56 233 0 2
96 -57 212 -131 117 -74 223 -137 235 -141z m6116 21 l88 -247 -53 -84 c-29
-47 -58 -87 -64 -90 -6 -2 -62 18 -125 46 l-114 49 0 71 c0 39 2 153 3 254 l2
182 83 32 c45 17 84 32 87 32 3 1 45 -110 93 -245z m-8830 190 l92 -47 -105
-38 c-58 -21 -111 -38 -117 -38 -20 -1 -15 58 9 116 12 29 23 53 25 53 2 0 45
-21 96 -46z m3957 30 c0 -2 -12 -4 -27 -4 -21 0 -24 3 -14 9 13 8 41 5 41 -5z
m-8861 -137 c-10 -45 -21 -96 -25 -113 -5 -26 -16 -36 -71 -63 -37 -18 -63
-26 -61 -19 3 7 27 86 53 175 l47 162 38 -30 38 -30 -19 -82z m7983 63 l133
-80 -60 5 c-33 3 -104 7 -157 11 -54 3 -98 7 -98 9 0 10 41 135 45 135 2 0 64
-36 137 -80z m-5296 -81 c30 -78 53 -146 52 -150 -4 -11 -251 176 -248 187 3
10 133 114 138 109 1 -1 27 -67 58 -146z m1657 139 c-6 -7 -276 -360 -601
-783 l-590 -771 -41 4 c-23 2 -43 8 -46 12 -3 4 123 270 278 591 l283 584 109
89 109 89 245 98 c135 53 250 97 255 98 5 1 4 -5 -1 -11z m8442 -29 l28 -40
-69 -70 -69 -70 -16 54 c-34 113 -36 103 28 136 32 17 61 30 64 31 4 0 19 -18
34 -41z m-14534 -103 l-31 -30 28 83 27 84 3 -53 c3 -48 0 -56 -27 -84z
m10193 119 c3 -8 1 -15 -3 -15 -5 0 -11 7 -15 15 -3 8 -1 15 3 15 5 0 11 -7
15 -15z m7373 -586 c-2 -6 -238 138 -258 158 -8 8 -6 73 7 227 l18 217 118
-298 c65 -164 117 -301 115 -304z m-1069 521 c39 -25 72 -47 72 -50 0 -3 -26
-40 -59 -82 l-58 -77 -33 127 c-18 70 -35 133 -38 141 -6 16 7 9 116 -59z
m-1728 16 c0 -7 -9 -16 -21 -19 -20 -5 -20 -5 -3 14 20 23 24 23 24 5z m-2768
-296 l188 -184 -148 -43 c-81 -23 -154 -43 -162 -43 -11 0 -34 70 -91 276
l-76 275 51 -48 c28 -26 135 -131 238 -233z m3097 138 c0 -79 -4 -163 -7 -187
l-7 -44 -74 157 c-40 86 -72 158 -70 160 10 7 135 55 147 56 9 0 12 -35 11
-142z m-15322 3 l-52 -129 -36 -4 -36 -3 55 85 c30 47 68 106 84 133 17 26 31
47 33 47 2 0 -20 -58 -48 -129z m2155 101 l48 -18 -55 -27 c-31 -15 -58 -27
-61 -27 -6 0 4 69 12 82 6 10 1 11 56 -10z m8492 -22 l27 -41 -53 27 c-48 25
-51 27 -33 40 27 20 29 19 59 -26z m3869 -45 c9 -32 13 -62 9 -66 -13 -11
-193 -71 -198 -66 -3 3 -2 31 1 64 l7 58 77 42 c42 23 79 39 82 35 3 -4 13
-34 22 -67z m-3426 59 c-3 -3 -12 -4 -19 -1 -8 3 -5 6 6 6 11 1 17 -2 13 -5z
m812 -273 c40 -145 69 -267 64 -271 -28 -27 -51 -13 -178 103 -71 65 -132 123
-133 128 -5 13 161 320 169 311 3 -4 38 -126 78 -271z m-4508 119 c178 -90
279 -145 276 -153 -2 -7 -80 -285 -171 -617 -92 -333 -174 -628 -182 -657 -14
-47 -19 -53 -52 -63 -20 -5 -40 -6 -43 -2 -4 4 -73 183 -154 397 l-146 390
-79 360 c-43 198 -77 361 -76 362 4 4 330 121 339 122 4 1 134 -62 288 -139z
m4214 23 c-26 -49 -49 -90 -51 -92 -3 -3 -12 2 -20 11 -15 15 -11 23 47 92 35
42 65 76 67 76 2 0 -17 -39 -43 -87z m3459 40 l17 -38 -25 30 c-26 31 -32 45
-18 45 5 0 16 -17 26 -37z m-12334 -114 c179 -66 328 -124 332 -127 6 -6 -255
-717 -267 -731 -3 -3 -320 237 -701 531 l-102 78 24 107 c13 60 23 111 24 115
0 5 71 43 157 87 134 67 162 77 183 69 14 -5 171 -63 350 -129z m1824 -4 c103
-76 185 -139 183 -142 -3 -2 -65 -28 -139 -57 l-136 -53 -127 144 c-107 122
-125 147 -114 158 47 46 116 94 130 91 9 -2 100 -65 203 -141z m5964 -140 c32
-143 58 -261 57 -263 -2 -2 -505 145 -510 150 -2 2 58 72 132 157 126 144 236
240 255 222 4 -3 33 -123 66 -266z m6631 124 c133 -83 241 -156 241 -162 0 -7
-14 -160 -29 -340 -27 -306 -36 -357 -61 -357 -9 0 -568 770 -570 785 -2 12
159 225 170 225 5 0 117 -68 249 -151z m-7076 93 l107 -7 -104 -120 c-57 -66
-108 -121 -113 -122 -6 -2 -147 223 -161 258 -2 5 34 6 80 3 46 -3 131 -9 191
-12z m4869 -14 c43 -58 43 -60 1 -42 -21 9 -56 24 -77 32 l-39 16 29 13 c45
19 60 16 86 -19z m-746 -45 c-3 -26 -10 -50 -14 -54 -10 -9 -494 -180 -498
-176 -4 4 496 275 510 276 5 1 6 -20 2 -46z m-3503 -4 c45 -23 84 -43 86 -45
5 -5 -60 -378 -68 -386 -6 -6 -112 439 -111 465 0 11 6 9 93 -34z m-10478
-276 c-10 -159 -21 -291 -24 -295 -4 -5 -22 102 -41 237 l-34 245 54 55 c30
30 56 52 58 50 3 -3 -3 -134 -13 -292z m18221 -901 c-2 -1 -20 12 -42 29 -21
17 -53 58 -71 92 -31 58 -36 89 -103 532 -39 259 -72 486 -75 505 -2 19 63
-233 144 -560 82 -327 148 -596 147 -598z m-8667 1068 c30 -50 51 -93 49 -96
-5 -4 -148 23 -156 30 -5 6 40 156 47 156 4 0 31 -41 60 -90z m-5544 -72 l117
-131 -72 -29 -73 -29 -183 48 c-101 26 -183 51 -182 55 2 5 267 215 275 217 1
1 54 -58 118 -131z m10372 14 c17 -64 30 -119 28 -121 -5 -5 -315 122 -315
129 0 5 227 103 250 109 3 0 19 -52 37 -117z m-9282 99 c-6 -4 -126 -76 -268
-159 l-258 -151 40 72 39 71 224 88 c235 92 238 93 223 79z m9753 -111 c64
-29 81 -42 128 -103 40 -51 52 -72 42 -77 -21 -12 -192 -30 -199 -22 -6 7
-179 266 -193 289 -7 12 58 -13 222 -87z m-3912 63 c3 -16 8 -37 11 -48 4 -15
-1 -12 -18 10 -55 68 -54 65 -25 65 20 0 27 -6 32 -27z m-9261 -27 l-7 -36
-30 22 -31 21 34 18 c19 9 35 16 37 14 2 -2 0 -19 -3 -39z m9076 -47 c33 -50
59 -92 57 -93 -2 -2 -45 -31 -96 -65 -80 -54 -92 -59 -88 -39 3 13 15 77 26
143 22 127 26 145 34 145 3 0 33 -41 67 -91z m3806 -14 c33 -49 76 -116 96
-147 l36 -57 -52 20 c-29 12 -59 24 -69 26 -11 3 -26 40 -48 120 -17 63 -34
122 -37 131 -10 29 11 3 74 -93z m-8358 -560 c-44 -351 -81 -640 -82 -641 -1
-1 -212 27 -469 64 l-466 66 81 87 c229 244 1012 1067 1014 1065 1 -1 -34
-290 -78 -641z m2556 604 c88 -18 165 -37 171 -43 9 -9 145 -553 144 -578 0
-7 -584 286 -602 301 -6 5 61 238 97 339 6 17 8 16 190 -19z m-9173 -229 c-53
-132 -97 -238 -98 -237 -4 4 95 449 101 455 3 3 24 9 48 13 23 3 43 7 44 8 0
0 -42 -107 -95 -239z m8253 93 c151 -76 275 -141 275 -145 0 -5 -176 -212
-390 -460 -378 -439 -415 -477 -481 -492 -25 -5 -25 -2 145 614 94 341 172
620 173 620 2 0 127 -62 278 -137z m-4704 56 c90 -33 168 -64 172 -68 6 -6
-298 -257 -551 -454 -9 -7 -6 7 6 39 11 27 61 160 113 297 51 136 93 247 94
247 1 0 75 -27 166 -61z m3535 -846 c48 -222 86 -405 83 -407 -4 -5 -501 64
-507 69 -2 2 31 276 72 609 42 333 76 611 76 618 1 7 43 -99 95 -237 93 -247
95 -254 181 -652z m10043 495 c149 -207 271 -378 271 -380 0 -3 -28 -27 -62
-55 l-63 -50 -375 -42 c-206 -24 -383 -44 -393 -44 -15 -2 -33 39 -102 231
-47 129 -86 240 -87 247 -2 7 114 121 257 253 193 179 263 237 271 228 6 -6
133 -180 283 -388z m1134 297 l6 -40 -14 40 c-7 22 -13 56 -13 75 l0 35 8 -35
c4 -19 10 -53 13 -75z m-6667 64 c19 -11 34 -23 34 -26 0 -18 -75 -143 -84
-140 -6 2 -17 36 -25 77 -14 72 -14 73 10 91 30 23 25 23 65 -2z m-1991 -19
c53 -11 98 -20 100 -20 3 0 -102 -359 -111 -380 -5 -10 -9 -3 -15 20 -4 19
-28 117 -52 218 -32 129 -41 182 -32 182 7 0 57 -9 110 -20z m4761 3 c-2 -10
-10 -66 -17 -125 l-12 -108 -281 1 c-223 0 -276 3 -256 12 196 92 530 236 548
237 18 0 22 -4 18 -17z m2214 -17 c-93 -88 -303 -276 -309 -276 -9 0 -72 172
-66 179 5 4 376 119 390 120 5 1 -2 -10 -15 -23z m-14527 -75 c-4 -14 -21 -91
-39 -171 l-32 -145 -1 203 -1 203 40 -32 c33 -27 39 -36 33 -58z m15814 -17
l153 -95 -177 -149 c-97 -82 -178 -149 -178 -147 -4 5 39 487 44 487 2 0 74
-43 158 -96z m-17582 -375 c35 -244 63 -444 62 -444 -10 -6 -562 -103 -565
-100 -11 11 242 613 331 792 56 111 103 200 105 198 2 -2 32 -203 67 -446z
m14583 288 c6 -5 12 -15 12 -23 0 -12 -34 -14 -211 -14 l-211 0 5 43 c4 23 9
67 13 98 l6 56 186 -76 c103 -42 193 -80 200 -84z m-4850 103 c-6 -16 -292
-284 -287 -270 3 8 25 83 49 166 l43 150 99 -19 c54 -11 97 -23 96 -27z
m-8223 -1181 c-42 -195 -78 -355 -79 -356 -3 -3 -695 382 -707 394 -5 5 154
231 419 593 l427 583 9 -430 8 -430 -77 -354z m3057 1146 l-37 -66 -33 37
c-18 21 -29 41 -25 45 8 7 112 48 125 48 4 1 -10 -28 -30 -64z m6925 -12 l31
-68 -77 -22 c-42 -12 -80 -23 -84 -23 -4 0 14 40 40 90 26 49 51 90 54 90 4 0
20 -30 36 -67z m-2988 16 c-15 -45 -24 -53 -43 -42 -14 7 -12 14 15 46 17 21
33 36 35 34 2 -2 -1 -19 -7 -38z m6920 -4 c2 -3 -4 -5 -15 -5 -10 0 -29 -3
-41 -6 -20 -5 -23 -2 -23 20 l0 26 37 -15 c20 -9 39 -18 42 -20z m-11644 -32
l143 -37 -212 -83 c-116 -45 -212 -83 -213 -83 -1 0 14 35 34 78 19 42 44 96
54 120 11 25 25 42 35 42 9 0 81 -17 159 -37z m8555 -38 l0 -65 -107 0 -108 0
65 41 c36 22 81 51 100 64 19 13 38 24 43 24 4 1 7 -28 7 -64z m-10047 -259
c186 -142 337 -262 335 -266 -2 -5 -205 -170 -453 -368 l-450 -360 -7 251 -8
252 87 402 86 402 36 -28 c20 -15 188 -144 374 -285z m7954 232 l282 -82 10
-45 c9 -42 7 -49 -32 -117 l-42 -73 -80 -5 c-44 -3 -141 -8 -216 -12 l-136 -6
-37 189 c-20 103 -39 198 -41 211 -3 12 -2 22 2 22 5 0 135 -36 290 -82z
m5602 -45 l43 -118 -98 -91 -98 -92 -64 80 -64 79 45 107 45 107 63 22 c35 12
69 22 75 23 6 0 30 -53 53 -117z m-11490 93 c9 -11 6 -12 -14 -8 -14 2 -22 8
-19 13 8 13 20 11 33 -5z m429 -358 c-154 -200 -284 -366 -287 -370 -6 -7
-247 24 -256 33 -4 4 812 697 822 699 2 0 -124 -163 -279 -362z m57 334 c-22
-21 -499 -418 -530 -442 -11 -8 46 56 125 142 142 154 148 159 280 237 74 44
137 80 140 80 2 1 -4 -7 -15 -17z m6288 -101 c31 -47 55 -86 53 -88 -1 -1 -50
13 -109 33 -72 24 -105 40 -100 47 21 35 88 106 93 100 4 -5 33 -46 63 -92z
m-268 49 c-10 -11 -25 -20 -34 -20 -12 0 -9 6 9 20 33 26 48 26 25 0z m4645
16 c0 -1 -5 -17 -11 -35 l-11 -32 -24 22 c-30 28 -30 36 -1 42 33 6 47 7 47 3z
m-11236 -51 c71 -19 130 -36 132 -38 3 -2 -31 -33 -73 -68 -43 -35 -176 -144
-296 -243 l-219 -179 -236 33 c-131 18 -240 36 -244 39 -4 3 15 56 43 116 l50
110 337 132 c185 72 346 132 357 132 11 0 78 -15 149 -34z m4137 14 c29 -14
40 -25 36 -37 -2 -9 -44 -144 -93 -299 l-89 -281 -295 -85 c-162 -47 -296 -85
-297 -84 -2 3 690 806 695 807 1 0 21 -9 43 -21z m-3417 -326 c-90 -186 -165
-342 -167 -348 -3 -9 -174 9 -184 19 -4 4 505 666 512 666 2 0 -70 -152 -161
-337z m4714 174 l-43 -157 -75 0 c-41 0 -100 -3 -130 -6 l-55 -6 168 167 c93
92 170 165 173 163 2 -3 -15 -75 -38 -161z m5661 69 l61 -74 -45 -108 c-25
-59 -47 -109 -49 -111 -2 -3 -55 34 -118 80 l-114 85 -21 73 -20 74 106 27
c58 14 114 27 123 27 9 1 43 -31 77 -73z m-11998 -6 c-29 -60 -33 -65 -88 -86
-32 -12 -83 -32 -113 -44 -30 -12 -50 -17 -45 -11 22 21 269 210 272 207 2 -2
-10 -32 -26 -66z m14458 -175 c17 -121 34 -230 36 -242 l5 -23 -148 0 c-82 0
-197 3 -255 7 l-107 6 0 41 c0 23 6 51 13 64 9 19 417 373 424 368 1 0 15
-100 32 -221z m-7945 113 c10 -51 20 -105 23 -120 l6 -28 -63 0 c-45 0 -61 3
-58 13 3 6 18 60 34 119 16 60 32 108 35 108 3 0 13 -42 23 -92z m-9465 -263
c-39 -181 -72 -331 -74 -333 -2 -2 -33 13 -69 33 -53 29 -64 40 -58 53 5 9 67
144 138 299 70 155 129 281 131 280 1 -2 -30 -151 -68 -332z m8433 194 c154
-78 276 -145 271 -149 -4 -4 -163 -51 -353 -105 -190 -54 -350 -100 -357 -102
-9 -4 -9 6 2 39 7 23 43 136 80 251 36 114 68 207 71 207 3 0 131 -64 286
-141z m5188 134 c0 -15 -33 -288 -36 -291 -2 -3 -532 284 -543 294 -2 2 127 4
287 4 161 0 292 -3 292 -7z m490 3 c0 -3 -57 -106 -126 -229 l-126 -225 -79
45 c-43 25 -79 48 -79 52 0 3 10 86 22 184 l21 177 184 0 c101 0 183 -2 183
-4z m228 -27 c41 -30 42 -31 25 -53 -81 -102 -379 -436 -389 -436 -7 0 33 82
95 193 59 105 125 222 145 260 44 79 60 83 124 36z m-1333 -149 c204 -89 373
-165 378 -169 4 -4 -83 -42 -192 -85 l-200 -79 -246 239 c-135 131 -245 242
-245 246 0 6 102 17 125 12 6 -1 177 -75 380 -164z m-1085 64 l0 -75 -77 62
c-121 97 -120 89 -15 89 l92 0 0 -76z m261 -59 c39 -71 97 -181 130 -243 l60
-113 -165 123 -166 122 0 124 0 123 36 -3 c35 -3 37 -6 105 -133z m374 -127
c151 -144 271 -265 267 -269 -9 -8 -244 -91 -247 -87 -6 8 -325 609 -325 613
0 27 72 -34 305 -257z m-1316 173 l40 -78 -192 62 c-222 71 -236 76 -182 70
22 -3 87 1 145 9 161 21 144 27 189 -63z m184 36 l35 -43 -28 -31 -28 -31 -27
61 c-15 34 -29 68 -32 75 -3 7 4 12 20 12 17 0 35 -13 60 -43z m-1151 -9 c-9
-9 -12 -7 -12 12 0 19 3 21 12 12 9 -9 9 -15 0 -24z m621 -105 c231 -76 414
-139 408 -141 -6 -2 -189 25 -406 59 l-395 63 -35 59 c-30 49 -33 61 -22 77 6
11 16 20 22 20 5 0 198 -62 428 -137z m3641 35 c22 -17 43 -33 45 -34 4 -4
131 -457 128 -459 -1 -1 -132 22 -292 50 -198 35 -289 55 -288 63 4 16 346
412 357 412 4 0 27 -14 50 -32z m1059 -200 l74 -207 -44 -7 c-24 -3 -45 -5
-47 -3 -1 2 -51 63 -109 136 -59 72 -107 135 -107 140 0 7 153 153 157 149 1
0 35 -94 76 -208z m2020 48 c60 -113 61 -126 3 -126 -50 0 -47 -8 -66 135 -6
44 -13 94 -16 110 l-5 30 19 -30 c10 -17 40 -70 65 -119z m-2433 27 c0 -6 -26
-34 -58 -61 -58 -50 -59 -51 -84 -34 l-25 17 40 94 41 94 43 -49 c23 -27 43
-54 43 -61z m-3586 55 c28 -26 48 -95 25 -86 -8 3 -38 14 -66 24 -29 10 -53
23 -53 28 0 15 42 56 56 56 7 0 24 -10 38 -22z m-8770 -45 c-14 -32 -28 -64
-31 -70 -6 -16 -44 -15 -148 1 l-80 13 45 19 c88 37 225 92 232 93 4 1 -4 -25
-18 -56z m7518 -34 l83 -12 232 -391 c128 -214 231 -391 230 -392 -3 -3 -1088
223 -1092 228 -3 2 68 133 157 291 l162 286 45 4 c50 4 59 4 183 -14z m-389
-31 c-11 -18 -66 -116 -123 -217 -83 -146 -105 -180 -112 -165 -7 17 -78 376
-78 395 0 9 68 14 223 17 l109 2 -19 -32z m4855 -21 l59 -43 -24 -55 c-13 -30
-27 -62 -31 -73 -6 -14 -15 9 -37 85 -15 57 -30 110 -33 117 -7 20 5 14 66
-31z m-5238 -239 c29 -150 54 -281 54 -290 1 -15 -654 -819 -662 -813 -3 3
368 1355 375 1368 2 4 44 7 92 7 l87 0 54 -272z m2278 222 c39 -23 72 -44 72
-46 0 -3 -139 45 -146 50 -7 5 -14 47 -8 44 5 -3 42 -24 82 -48z m-2642 23
c-3 -10 -98 -358 -212 -773 -114 -415 -208 -756 -209 -757 -2 -3 -1030 413
-1052 425 -11 7 115 134 541 548 306 296 564 543 574 549 16 9 145 20 295 23
61 2 68 0 63 -15z m1719 -48 c160 -25 300 -48 311 -50 21 -5 16 -20 -93 -277
-63 -150 -120 -286 -127 -302 -11 -28 -14 -25 -151 205 -317 534 -289 481
-258 475 16 -3 159 -26 318 -51z m4425 -84 c44 -55 80 -102 80 -104 0 -2 -19
-7 -41 -10 -39 -5 -47 -1 -130 60 -49 35 -89 66 -89 68 0 7 85 84 92 85 4 0
43 -45 88 -99z m-1796 47 c7 -12 5 -56 -7 -159 -10 -79 -19 -144 -20 -146 -2
-1 -97 35 -211 80 l-207 83 203 81 c112 45 209 80 217 80 8 -1 19 -10 25 -19z
m-11001 -12 c93 -13 170 -26 172 -28 3 -2 -77 -185 -178 -406 l-182 -402 -172
0 c-95 0 -173 2 -173 4 0 6 330 839 337 848 6 11 7 11 196 -16z m5861 -154
c-393 -384 -674 -654 -674 -646 1 12 197 624 201 628 4 4 629 184 639 185 3 0
-72 -75 -166 -167z m3139 102 c150 -23 183 -33 444 -127 155 -56 279 -105 275
-109 -8 -7 -1145 -358 -1149 -354 -2 2 117 288 242 584 8 17 17 32 20 32 3 0
79 -11 168 -26z m-8490 -21 c108 -15 196 -31 194 -36 -3 -9 -681 -567 -684
-563 -4 4 281 626 286 626 4 0 95 -12 204 -27z m-1028 -395 l-146 -366 -102
-7 c-56 -3 -187 -5 -292 -3 l-190 3 0 27 c0 23 56 71 434 372 239 191 436 345
437 343 2 -2 -62 -168 -141 -369z m15265 362 l166 0 25 -180 25 -180 -139
-353 c-77 -193 -141 -353 -142 -355 -5 -6 -155 68 -155 77 0 11 -127 918 -136
970 l-5 34 98 -6 c54 -4 172 -7 263 -7z m-2162 -43 l33 -25 -58 -6 c-32 -4
-76 -9 -98 -12 l-40 -5 47 46 c52 50 52 50 116 2z m2501 -9 c-29 -74 -38 -89
-39 -62 0 12 -3 42 -6 68 l-7 46 36 0 37 0 -21 -52z m-14206 19 c-4 -8 -71
-82 -148 -166 l-140 -153 -140 -70 c-77 -38 -133 -63 -125 -55 20 20 553 457
557 457 2 0 0 -6 -4 -13z m10297 -78 c0 -13 -70 -129 -79 -129 -4 0 -2 44 5
98 7 53 13 101 14 106 0 11 60 -63 60 -75z m3158 -373 c35 -247 62 -450 59
-452 -2 -2 -197 84 -433 192 -236 108 -441 201 -455 207 -27 12 -26 13 116
132 137 115 153 126 386 246 134 70 249 126 254 125 6 -2 38 -204 73 -450z
m-2926 343 c10 -35 18 -68 18 -73 0 -5 -22 19 -49 53 -45 56 -49 65 -39 87 10
22 13 23 31 11 13 -8 28 -39 39 -78z m2438 87 c0 -2 -35 -33 -77 -68 -53 -44
-131 -92 -240 -148 -89 -46 -164 -82 -166 -80 -5 7 -86 234 -84 236 3 3 508
62 540 63 15 0 27 -1 27 -3z m-12545 -24 c69 -10 120 -22 120 -28 0 -11 -1188
-1545 -1193 -1540 -1 2 98 273 220 602 l223 599 228 193 c177 148 235 192 255
191 15 0 81 -8 147 -17z m3940 -44 c-2 -7 -54 -170 -115 -362 -60 -192 -111
-351 -113 -352 -1 -1 -158 58 -349 130 l-346 132 116 135 117 135 335 96 c184
53 340 97 347 97 7 1 10 -5 8 -11z m5080 -74 c-3 -35 -9 -64 -12 -64 -4 0 -52
17 -107 37 l-100 37 110 36 c60 21 111 33 113 28 2 -5 0 -38 -4 -74z m-8632
62 c48 -7 90 -15 93 -18 3 -3 -75 -171 -173 -373 l-178 -368 -430 -319 c-635
-471 -651 -483 -635 -460 81 117 1209 1552 1220 1552 8 0 54 -6 103 -14z
m10191 -37 c160 -28 291 -51 292 -52 0 -1 -6 -64 -14 -140 l-15 -137 -156 2
-156 3 -118 170 c-132 191 -141 205 -131 205 4 0 138 -23 298 -51z m3465 -631
c-30 -236 -57 -428 -60 -428 -8 0 -17 267 -24 750 l-5 365 71 -130 71 -130
-53 -427z m-18256 640 c-2 -18 -24 -268 -48 -554 l-45 -522 -67 -126 c-51 -93
-70 -121 -75 -108 -12 28 -348 1210 -348 1224 0 9 86 29 273 64 149 28 281 52
292 53 18 1 20 -4 18 -31z m13652 -255 c-1 -3 -297 106 -303 111 -2 3 -1 44 3
91 l7 87 147 -144 c80 -78 146 -144 146 -145z m2431 243 c12 -34 12 -37 -2
-25 -8 6 -24 25 -36 41 l-21 30 23 -4 c16 -2 27 -14 36 -42z m-184 7 c33 -39
30 -45 -8 -18 -21 16 -41 30 -43 32 -2 2 5 3 16 3 11 0 27 -8 35 -17z m-11012
-10 c0 -8 -170 -233 -176 -233 -2 0 23 54 56 120 57 113 62 120 90 120 17 0
30 -3 30 -7z m10976 -135 c107 -78 194 -145 194 -149 0 -4 -8 -10 -17 -15 -15
-6 -850 -23 -861 -17 -6 3 21 238 29 253 6 11 62 21 226 41 120 15 222 27 226
28 5 0 96 -63 203 -141z m-9690 -50 c7 -8 -24 -261 -34 -269 -32 -28 -157 -47
-830 -129 -405 -50 -740 -89 -744 -88 -5 2 126 145 291 319 l299 315 506 -71
c278 -39 508 -74 512 -77z m8053 84 c24 -29 42 -55 39 -57 -2 -3 -34 7 -71 21
l-67 26 23 38 c12 22 24 36 28 32 3 -4 25 -31 48 -60z m-426 -7 c66 -27 67
-28 66 -64 -1 -20 -4 -48 -8 -64 -6 -27 -8 -25 -116 83 l-110 111 50 -19 c28
-11 80 -32 118 -47z m-930 23 c17 -13 271 -597 263 -605 -4 -5 -1418 231
-1469 245 -22 6 87 42 560 189 323 99 597 182 609 182 11 1 28 -5 37 -11z
m5185 -333 l0 -160 -29 190 -28 190 22 58 22 58 6 -88 c4 -48 7 -160 7 -248z
m-17588 244 c0 -12 -63 -99 -71 -99 -17 0 -49 72 -43 98 15 67 11 65 65 36 27
-15 49 -31 49 -35z m12743 -36 c9 -5 5 -82 -10 -242 l-6 -63 -78 183 c-44 101
-79 184 -79 185 0 3 161 -56 173 -63z m1343 -44 c46 -66 43 -91 -5 -45 -16 16
-32 45 -38 72 -6 24 -8 43 -6 40 2 -2 24 -33 49 -67z m-8066 30 c85 -12 158
-25 162 -28 4 -4 -50 -28 -120 -55 -70 -26 -156 -59 -191 -73 l-64 -24 7 63
c13 120 18 138 35 138 9 0 86 -10 171 -21z m7788 -96 c-15 -8 -66 -12 -146
-13 l-123 0 31 59 31 59 115 -46 c107 -43 113 -47 92 -59z m-13311 -123 c208
-116 383 -216 389 -223 7 -7 57 -262 113 -568 99 -547 101 -558 101 -709 l0
-153 -40 44 c-59 65 -1062 1657 -1053 1672 16 27 105 147 109 147 2 0 174 -95
381 -210z m12737 56 c173 -64 194 -72 185 -79 -12 -10 -573 -216 -576 -213 -5
4 11 253 23 368 l6 56 91 -33 c51 -18 173 -63 271 -99z m-6677 69 c12 -30 17
-55 13 -55 -4 0 -114 -13 -246 -30 -131 -16 -239 -28 -241 -26 -5 4 420 165
438 166 11 0 23 -19 36 -55z m3712 -70 c305 -63 556 -117 558 -119 5 -5 -421
-1876 -427 -1876 -3 0 -69 190 -148 423 -79 232 -241 709 -361 1059 -191 559
-215 637 -197 632 12 -2 270 -56 575 -119z m-444 -687 c143 -419 306 -897 362
-1061 56 -164 96 -294 90 -289 -21 15 -1359 1104 -1419 1153 l-58 48 378 455
c207 251 379 456 382 456 3 0 122 -343 265 -762z m-7101 97 l-229 -616 -67
463 c-37 255 -66 468 -65 475 2 12 578 304 586 297 2 -2 -99 -280 -225 -619z
m-1667 518 c-13 -13 -13 -8 -3 39 l11 53 3 -39 c2 -24 -2 -44 -11 -53z m-1433
-258 c-40 -70 -39 -71 -24 122 16 189 21 195 41 58 l18 -119 -35 -61z m16142
248 c4 -27 26 -174 49 -328 23 -154 41 -281 40 -282 -2 -4 -1076 225 -1081
230 -3 2 179 99 403 214 l408 211 87 1 87 1 7 -47z m-467 33 c-14 -13 -632
-326 -636 -322 -3 3 2 68 11 146 9 77 16 147 16 155 0 9 13 15 38 18 50 5 576
8 571 3z m2191 -325 l46 -318 -51 22 c-144 65 -241 111 -245 116 -6 7 193 509
200 502 3 -2 25 -148 50 -322z m-2924 272 c-3 -27 -9 -81 -12 -121 -4 -40 -10
-75 -14 -77 -5 -3 -46 51 -93 120 l-86 125 106 0 106 0 -7 -47z m-632 -35 c-3
-40 -8 -75 -10 -76 -3 -5 -204 108 -204 115 0 15 76 32 143 33 l78 0 -7 -72z
m563 -379 c-6 -10 -15 -18 -18 -17 -3 2 -101 57 -217 123 l-212 120 0 60 c0
33 3 83 6 112 l7 52 223 -215 c200 -194 222 -218 211 -235z m1916 201 c362
-164 448 -206 452 -224 6 -28 54 -380 52 -382 -2 -1 -931 198 -933 200 -3 2
-94 621 -94 634 0 9 10 7 38 -6 20 -11 238 -110 485 -222z m-9750 8 c26 -111
45 -203 44 -205 -3 -3 -366 156 -707 310 l-45 20 295 37 c162 21 311 38 330
39 l36 1 47 -202z m-6533 -130 c375 -596 411 -653 378 -617 -18 20 -138 151
-266 293 l-234 256 -58 176 c-46 136 -57 181 -49 195 5 11 13 19 18 19 5 0
100 -145 211 -322z m6919 191 c183 -69 269 -106 260 -112 -17 -11 -463 -185
-466 -183 -4 3 -93 385 -93 397 0 6 6 9 13 7 6 -3 135 -52 286 -109z m4801
-45 c448 -75 816 -138 818 -139 2 -2 -237 -377 -530 -833 -397 -619 -535 -827
-540 -814 -4 9 -141 442 -304 961 -163 520 -299 951 -302 959 -4 12 0 14 19 9
13 -3 391 -67 839 -143z m1897 35 c98 -55 178 -101 178 -102 1 -1 -8 -237 -20
-523 l-20 -522 -504 497 -504 496 334 127 c184 69 340 126 346 127 7 1 93 -44
190 -100z m-7594 -146 c218 -97 395 -178 393 -180 -2 -2 -278 -28 -612 -58
-335 -30 -625 -56 -645 -58 -33 -4 -22 9 205 234 133 131 246 239 251 239 6 0
189 -79 408 -177z m-4436 85 c-7 -18 -116 -293 -242 -610 -162 -407 -232 -572
-237 -558 -18 47 -27 252 -33 702 l-7 488 248 3 c137 1 257 3 267 5 16 2 16
-1 4 -30z m473 27 c0 -4 -157 -317 -350 -698 l-349 -692 -98 -37 c-53 -21
-101 -34 -105 -30 -6 6 489 1275 562 1440 9 22 13 22 175 22 91 0 165 -2 165
-5z m2895 -4 c-11 -5 -186 -72 -388 -150 l-368 -142 -123 88 c-92 66 -117 89
-102 91 81 11 965 120 981 120 l20 1 -20 -8z m-4006 -153 c0 -84 -2 -148 -4
-143 -2 6 -14 64 -25 130 -12 66 -24 130 -27 143 -4 19 -1 22 26 22 l31 0 -1
-152z m10141 -826 c154 -491 280 -896 280 -899 0 -7 -997 1 -1004 8 -3 3 89
421 204 928 116 508 210 926 211 929 1 12 26 -65 309 -966z m6779 752 c1 -7
-6 -14 -14 -18 -13 -5 -15 10 -14 97 l1 102 13 -85 c7 -47 14 -90 14 -96z
m-12749 -14 l-185 -179 -140 6 c-264 11 -276 -6 133 184 196 92 361 167 367
168 5 1 -73 -80 -175 -179z m12930 99 c0 -7 -31 -22 -35 -17 -1 2 -5 25 -8 53
l-5 49 24 -39 c13 -22 24 -43 24 -46z m-10531 -186 c94 -108 170 -198 168
-199 -3 -3 -807 203 -813 209 -3 3 452 185 468 186 4 1 84 -88 177 -196z
m6588 87 c101 -56 181 -105 180 -109 -29 -54 -402 -660 -404 -657 -3 2 3 176
11 385 9 210 16 406 16 437 0 30 3 53 8 51 4 -2 89 -50 189 -107z m-11907
-364 c34 -235 59 -430 57 -432 -4 -4 -422 -167 -665 -260 l-63 -24 298 591
c220 436 299 586 305 572 4 -10 35 -211 68 -447z m-2317 13 c59 -173 192 -564
296 -869 l188 -555 -140 -108 c-77 -59 -143 -104 -147 -100 -4 4 -74 97 -155
206 l-148 197 -53 778 c-29 427 -55 802 -57 831 l-4 55 57 -60 57 -61 106
-314z m-246 -1002 c-2 -38 -3 -37 -141 149 l-140 186 36 424 37 423 58 109 58
110 47 -682 c26 -374 47 -698 45 -719z m14051 374 c2 -5 -2091 -623 -2094
-618 0 1 219 344 488 762 269 418 506 789 528 823 l40 64 518 -512 c284 -282
518 -515 520 -519z m-9704 934 l79 -58 -57 -23 c-99 -40 -91 -43 -105 38 -7
40 -15 84 -19 98 -4 21 -3 23 9 14 8 -6 49 -37 93 -69z m3985 -80 c203 -82
368 -151 367 -152 -7 -7 -427 -55 -439 -50 -16 6 -325 361 -309 356 6 -2 177
-71 381 -154z m7306 -61 c253 -54 463 -100 467 -103 6 -5 89 -543 85 -547 -1
-1 -281 157 -622 351 -628 357 -634 361 -650 427 l-7 26 134 -28 c73 -16 340
-73 593 -126z m1653 52 c-11 -28 -23 -60 -28 -71 -7 -20 -7 -20 -13 0 -3 11
-8 45 -12 75 -4 30 -9 63 -11 73 -5 16 -1 15 39 -4 l45 -22 -20 -51z m1127 27
c-4 -38 -9 -69 -10 -71 -5 -6 -14 121 -9 129 3 5 10 9 15 9 7 0 8 -24 4 -67z
m-14572 -90 c-42 -65 -83 -130 -92 -145 -13 -22 -49 -39 -191 -94 -96 -37
-191 -73 -210 -81 -32 -12 -33 -12 -15 2 132 99 581 434 582 434 2 1 -32 -52
-74 -116z m14452 -253 l46 -315 -18 -162 c-9 -90 -20 -163 -23 -163 -3 0 -32
56 -64 124 l-58 125 7 346 8 346 26 14 c14 7 27 10 28 7 2 -4 23 -149 48 -322z
m-610 191 c-8 -7 -379 -170 -382 -167 -2 2 56 151 102 263 l13 32 136 -61 c75
-34 134 -64 131 -67z m-13669 55 c-11 -56 -14 -60 -53 -77 l-41 -17 51 79 c28
43 52 77 53 76 1 -1 -3 -29 -10 -61z m10825 -18 c5 -9 81 -229 170 -490 89
-260 174 -510 189 -555 l28 -82 -36 14 c-20 9 -237 90 -480 183 -244 92 -445
170 -445 174 -1 4 108 189 243 411 l245 404 38 -21 c21 -11 42 -28 48 -38z
m-15512 -173 c34 -121 61 -223 61 -227 0 -8 -64 -48 -77 -48 -5 0 -17 91 -27
203 -10 111 -20 225 -23 252 -3 28 -3 48 0 45 2 -3 32 -104 66 -225z m4831
199 c0 -8 -4 -14 -10 -14 -5 0 -10 9 -10 21 0 11 5 17 10 14 6 -3 10 -13 10
-21z m2272 -214 c-200 -132 -368 -240 -373 -240 -12 0 -543 348 -547 358 -2 6
1147 116 1258 121 16 0 -104 -85 -338 -239z m-7267 -51 c14 -145 25 -271 25
-281 0 -9 -16 -26 -37 -38 l-36 -21 6 107 c4 59 7 197 7 307 0 110 2 198 5
196 2 -3 16 -124 30 -270z m5411 250 c24 -14 34 -28 34 -46 0 -27 -79 -1207
-83 -1236 -1 -11 -53 256 -115 593 -63 336 -111 614 -107 618 7 8 215 91 229
91 5 1 24 -8 42 -20z m2411 -336 c7 -185 11 -338 9 -340 -7 -7 -776 181 -774
189 4 11 742 496 747 492 2 -2 10 -155 18 -341z m501 62 c203 -143 369 -261
367 -263 -1 -1 -166 -35 -367 -75 l-365 -74 -7 116 c-3 64 -8 204 -11 311 -3
107 -8 210 -11 228 -4 28 -3 32 10 25 8 -4 181 -125 384 -268z m260 150 c210
-54 382 -102 382 -107 0 -11 -134 -247 -140 -247 -5 -1 -588 410 -635 446 -11
9 -13 13 -5 11 8 -3 187 -49 398 -103z m-6998 -379 c301 -333 417 -468 461
-537 33 -52 58 -97 57 -100 -2 -4 -102 -84 -223 -177 l-220 -171 -96 287 c-53
158 -162 479 -242 715 -80 235 -144 427 -143 427 2 0 184 -200 406 -444z
m4258 428 c90 -4 176 -10 191 -13 l28 -6 -291 -667 c-160 -367 -292 -665 -294
-664 -1 2 18 305 43 674 25 369 45 676 45 682 0 9 16 11 58 7 31 -4 130 -9
220 -13z m13056 -214 c-6 -74 -8 -81 -17 -56 -7 20 -5 66 4 150 13 116 14 118
17 56 2 -36 0 -103 -4 -150z m-1932 -448 c4 -4 -167 -98 -380 -209 -213 -111
-390 -199 -394 -195 -6 6 -358 1033 -358 1045 0 6 1120 -629 1132 -641z m523
544 l390 -83 -60 -30 c-33 -17 -197 -103 -365 -190 l-306 -159 -38 261 c-21
143 -40 268 -42 277 -4 12 0 15 13 12 10 -3 194 -42 408 -88z m-12318 -746
c83 -448 148 -818 145 -821 -4 -3 -178 -115 -387 -249 -209 -134 -390 -250
-403 -258 -18 -12 -21 -12 -17 -1 2 8 99 482 215 1054 116 572 213 1047 216
1056 5 18 42 39 64 36 11 -2 48 -183 167 -817z m1329 608 l291 -193 -615 -518
c-338 -285 -616 -516 -618 -514 -2 2 137 325 309 719 256 587 315 714 327 707
8 -4 146 -95 306 -201z m12094 170 c0 -7 -16 -105 -35 -218 -19 -113 -35 -209
-35 -213 0 -5 -70 56 -156 135 -85 78 -152 144 -147 145 4 2 87 39 183 82 96
43 178 79 183 80 4 1 7 -5 7 -11z m-8714 -148 c55 -63 203 -234 329 -380 145
-167 217 -257 195 -243 -19 12 -286 174 -592 360 -307 186 -558 340 -558 343
0 4 111 20 248 36 224 27 248 29 263 15 9 -9 61 -68 115 -131z m-5076 101 c0
-19 -411 -2036 -418 -2053 -5 -13 -76 51 -326 296 l-320 313 443 684 c244 376
451 692 460 701 9 9 45 28 81 42 74 28 80 30 80 17z m-4335 -143 c-4 -57 -10
-107 -14 -111 -4 -4 -15 20 -24 53 -17 60 -17 60 8 110 14 28 28 50 31 50 3 0
2 -46 -1 -102z m9355 -368 c212 -128 389 -237 394 -241 5 -5 -280 88 -633 206
-354 118 -645 216 -647 218 -2 1 31 62 72 135 l75 131 177 -108 c97 -59 350
-213 562 -341z m-5377 376 c-56 -95 -739 -1134 -743 -1130 -2 3 -28 172 -55
376 l-51 370 94 70 c91 67 109 76 426 199 182 70 332 128 334 129 2 0 -1 -6
-5 -14z m13968 -321 c45 -41 77 -78 78 -90 0 -11 -16 -121 -37 -245 l-38 -225
-89 -125 c-63 -87 -91 -118 -92 -105 -8 61 -103 1016 -103 1030 0 11 37 -17
102 -76 56 -52 137 -125 179 -164z m254 -63 c-3 -3 -13 2 -23 11 -18 16 -18
21 2 144 l21 128 3 -139 c1 -76 0 -141 -3 -144z m-778 253 c-34 -87 -264 -594
-269 -592 -13 4 -397 302 -398 308 0 6 646 296 664 298 4 1 6 -6 3 -14z m176
-496 c26 -260 46 -473 45 -475 -2 -1 -90 64 -195 147 l-192 149 27 63 c108
250 258 587 262 587 3 0 27 -212 53 -471z m-17778 99 l41 -321 -46 -174 -46
-173 -43 466 c-23 256 -40 468 -37 471 9 9 80 52 86 53 3 0 23 -145 45 -322z
m18580 264 c20 -45 21 -58 14 -307 -4 -143 -8 -286 -8 -317 -1 -32 -4 -58 -9
-58 -4 0 -21 92 -38 204 l-30 205 20 160 c10 89 22 161 25 161 3 0 15 -22 26
-48z m-8107 -371 c204 -167 372 -305 372 -307 0 -2 -30 8 -67 22 -38 14 -119
44 -181 67 l-114 42 -216 250 c-311 358 -287 328 -222 274 30 -25 223 -181
428 -348z m-3388 284 c216 -52 394 -96 395 -97 4 -4 -679 -657 -683 -653 -1 1
-27 177 -57 391 -30 214 -57 404 -60 422 -3 17 -2 32 3 32 5 0 185 -43 402
-95z m-463 -387 c34 -243 61 -443 60 -443 -6 -4 -1372 -173 -1375 -170 -3 3
1240 1054 1248 1055 3 0 33 -199 67 -442z m1853 417 c0 -22 -179 -1025 -188
-1053 -6 -20 -51 48 -294 445 -174 284 -282 470 -275 472 18 7 720 149 740
150 9 1 17 -6 17 -14z m-8711 -177 c7 -84 15 -166 17 -183 2 -16 -21 44 -51
135 -30 91 -51 166 -46 168 4 1 17 9 27 17 10 8 24 15 30 15 6 0 15 -58 23
-152z m9820 -860 c61 -63 89 -99 80 -102 -18 -5 -1270 -49 -1274 -44 -1 2 44
260 101 573 56 314 103 572 103 574 1 4 773 -777 990 -1001z m-20 732 c418
-140 761 -258 761 -262 0 -7 -177 -197 -422 -455 l-78 -83 -393 398 c-523 530
-654 665 -641 661 7 -2 354 -119 773 -259z m-6574 181 c-8 -7 -313 -202 -718
-458 l-38 -24 63 123 63 123 315 122 c341 132 328 127 315 114z m14052 -207
c125 -98 232 -180 237 -185 10 -8 -483 -1131 -495 -1127 -10 4 -822 1048 -818
1052 8 7 834 435 841 436 4 0 109 -79 235 -176z m-14200 -721 l-292 -871 -199
559 c-109 308 -196 562 -193 565 8 8 972 621 974 619 1 0 -129 -393 -290 -872z
m15494 783 c-18 -25 -35 -46 -38 -46 -5 0 3 73 14 118 l6 24 25 -25 24 -25
-31 -46z m-10444 -404 c160 -262 289 -479 287 -481 -7 -7 -1294 274 -1291 282
3 10 700 677 707 677 3 0 136 -215 297 -478z m7406 252 c369 -138 476 -182
472 -194 -3 -8 -160 -269 -348 -581 -244 -404 -344 -562 -349 -550 -4 9 -66
338 -137 731 -72 393 -134 730 -137 749 -6 27 -4 33 7 29 8 -2 229 -85 492
-184z m3505 -15 c-3 -8 -91 -79 -94 -76 -1 1 1 63 4 137 l5 135 44 -94 c24
-52 42 -98 41 -102z m-5132 -659 c-454 -457 -829 -832 -832 -833 -7 -2 -404
1054 -399 1061 3 3 2037 601 2049 601 4 1 -363 -373 -818 -829z m1154 20 c78
-426 143 -782 146 -790 3 -14 -119 -21 -992 -64 -547 -26 -997 -47 -999 -45
-1 2 378 388 843 857 698 704 848 851 854 835 4 -10 71 -367 148 -793z
m-11555 411 l43 -313 -286 -388 c-158 -214 -288 -387 -289 -386 -2 1 106 328
239 727 147 438 244 714 246 699 2 -14 23 -166 47 -339z m-1122 154 c-40 -80
-44 -80 -56 1 -7 41 -6 42 31 57 62 26 64 22 25 -58z m-1839 -637 l118 -681
-38 -85 c-21 -47 -39 -81 -41 -76 -1 5 -43 333 -93 729 -85 672 -96 795 -71
795 4 0 60 -307 125 -682z m154 534 l100 -133 6 -82 c4 -45 9 -113 12 -152 4
-38 4 -68 1 -65 -3 3 -57 135 -121 294 -63 159 -111 285 -106 280 5 -5 54 -69
108 -142z m17981 14 l18 -116 -44 -35 c-23 -19 -63 -51 -86 -70 l-44 -35 66
189 c36 105 67 188 69 186 2 -1 11 -55 21 -119z m-16491 -88 l63 -102 -106
-615 c-58 -339 -110 -625 -114 -635 -5 -13 -64 151 -196 539 l-188 558 24 18
c13 9 116 89 229 177 113 89 210 161 215 161 6 0 38 -45 73 -101z m16841 -9
c-9 -80 -77 -310 -96 -329 -3 -3 -2 74 2 170 l6 175 47 42 c26 23 48 40 50 39
1 -2 -2 -46 -9 -97z m-8001 -37 c112 -42 200 -78 195 -79 -106 -32 -957 -263
-959 -261 -1 2 95 107 214 235 l216 231 66 -24 c36 -14 157 -59 268 -102z
m6827 -48 c118 -92 213 -170 209 -173 -17 -17 -870 -628 -873 -626 -1 2 93
222 210 489 139 315 218 484 226 481 7 -2 109 -79 228 -171z m-1335 -424 c353
-452 399 -515 378 -518 -143 -16 -1493 -140 -1496 -137 -6 6 702 1175 710
1172 4 -1 188 -234 408 -517z m1788 296 l-11 -67 -25 24 -25 25 33 46 c19 25
35 45 36 43 2 -2 -2 -33 -8 -71z m-17948 -286 c22 -179 43 -341 46 -360 3 -19
-32 73 -76 205 l-82 240 34 134 c18 74 34 128 35 120 2 -8 21 -160 43 -339z
m18399 54 l38 -253 -64 -71 c-36 -38 -68 -68 -72 -65 -6 3 -173 301 -220 392
-6 13 -8 30 -3 44 13 33 276 242 281 221 2 -8 20 -129 40 -268z m-6292 253 c6
-1 -256 -393 -584 -870 -327 -477 -597 -866 -599 -864 -4 4 183 1681 191 1723
l5 21 487 -4 c269 -2 493 -5 500 -6z m-11732 -280 l107 -268 -43 -96 c-33 -74
-45 -91 -51 -77 -4 11 -32 168 -63 349 -31 182 -59 339 -62 350 -16 56 15 -15
112 -258z m10615 250 c0 -28 -199 -1769 -203 -1773 -2 -2 -225 325 -496 727
-270 402 -491 733 -489 734 6 6 1153 323 1171 324 9 1 17 -5 17 -12z m-10220
-272 c0 -6 -162 -126 -166 -122 -2 2 -9 67 -14 143 -5 76 -12 164 -15 194 l-6
54 101 -134 c55 -73 100 -134 100 -135z m11649 -305 c142 -383 188 -517 178
-523 -22 -15 -1581 -707 -1584 -703 -2 1 268 398 598 880 331 482 606 873 610
869 4 -4 93 -240 198 -523z m-5951 412 c-29 -54 -314 -585 -633 -1179 -398
-742 -582 -1076 -587 -1065 -9 22 -209 2145 -202 2151 3 3 1348 178 1462 190
7 0 -11 -42 -40 -97z m1030 -78 c451 -98 591 -131 587 -141 -6 -18 -1375
-2316 -1386 -2327 -5 -6 -9 565 -9 1316 l0 1326 108 -23 c59 -13 374 -81 700
-151z m-6170 -274 c72 -212 142 -419 157 -460 15 -45 20 -69 11 -60 -26 28
-558 742 -554 745 2 1 57 44 122 94 86 67 121 89 127 79 4 -7 66 -186 137
-398z m16602 314 c7 -7 -26 -115 -99 -325 -61 -173 -110 -309 -110 -304 -1 9
89 585 104 673 l6 33 45 -33 c25 -18 49 -37 54 -44z m-14698 -740 c-362 -84
-657 -151 -658 -150 -1 0 152 208 340 462 l341 460 317 -310 316 -311 -656
-151z m-1047 259 l178 -503 -219 -451 c-120 -248 -220 -446 -222 -441 -1 5 16
428 38 941 22 513 40 940 40 949 0 8 2 13 4 11 2 -2 83 -230 181 -506z m15510
465 c-3 -13 -46 -279 -95 -593 -49 -313 -91 -576 -92 -583 -2 -8 -159 106
-363 262 -198 151 -358 278 -356 283 6 11 894 652 904 653 4 0 5 -10 2 -22z
m-11130 -2646 c-3 -3 -287 56 -632 130 -485 104 -627 138 -625 149 2 8 286
539 630 1181 l627 1167 3 -1311 c1 -721 0 -1313 -3 -1316z m3642 1730 c294
-437 533 -795 531 -796 -14 -10 -2460 -1117 -2463 -1114 -4 4 -27 2650 -23
2653 5 4 1296 53 1362 51 l59 -1 534 -793z m7908 603 c53 -97 95 -179 93 -184
-3 -10 -452 -494 -485 -524 -14 -12 25 113 136 433 86 247 157 450 157 450 1
0 45 -79 99 -175z m-16522 -855 c-35 -34 -958 -739 -960 -733 -1 4 -48 275
-104 600 l-102 593 84 183 84 183 124 96 125 96 379 -505 c208 -278 375 -509
370 -513z m3127 808 c-54 -112 -236 -480 -404 -818 l-307 -615 5 80 c3 44 15
303 28 576 l22 496 375 242 c207 132 376 241 378 241 1 0 -43 -91 -97 -202z
m320 -943 c54 -566 96 -1032 95 -1033 -2 -2 -253 63 -558 144 l-554 147 245
496 c654 1326 666 1349 670 1311 2 -19 48 -498 102 -1065z m13535 985 c-12
-90 -13 -92 -14 -36 -1 49 16 142 25 134 1 -2 -4 -46 -11 -98z m-10433 -1279
c5 -689 8 -1254 6 -1256 -4 -5 -1407 171 -1413 177 -3 4 1389 2338 1393 2334
1 -2 8 -567 14 -1255z m10288 1057 l0 -93 -30 52 c-17 29 -30 58 -30 65 0 10
48 68 57 68 2 0 3 -42 3 -92z m127 55 c-3 -10 -5 -4 -5 12 0 17 2 24 5 18 2
-7 2 -21 0 -30z m-208 -252 l70 -129 -16 -423 c-9 -233 -17 -425 -18 -427 -3
-4 -715 414 -728 427 -5 5 133 160 305 344 172 185 314 337 315 337 0 0 33
-58 72 -129z m-16513 -303 c-10 -227 -20 -431 -24 -453 -6 -34 -11 -13 -35
139 l-28 180 47 278 c27 152 50 275 52 273 2 -2 -3 -190 -12 -417z m2104 325
c0 -46 -49 -1083 -56 -1169 l-6 -82 -653 482 c-359 264 -652 482 -651 484 5 4
1330 310 1349 311 12 1 17 -7 17 -26z m12296 -1243 c-198 -693 -363 -1260
-366 -1260 -4 0 -471 1272 -841 2290 l-27 76 791 76 c436 42 795 76 798 77 4
0 -156 -566 -355 -1259z m890 908 c183 -139 331 -258 329 -264 -3 -11 -1385
-1776 -1416 -1809 -18 -19 -18 -17 0 45 10 36 163 571 340 1190 177 619 324
1131 326 1138 6 16 -20 34 421 -300z m-17037 87 c36 -103 39 -120 44 -265 4
-85 5 -150 2 -145 -4 8 -114 519 -131 605 -8 43 46 -80 85 -195z m14684 82
c-14 -24 -946 -1168 -948 -1165 -2 2 -228 246 -504 543 l-502 540 68 3 c37 2
453 23 923 46 1012 51 974 50 963 33z m-14384 -313 c27 -154 48 -280 47 -281
-1 -1 -40 91 -87 205 l-85 207 35 77 c19 43 37 76 38 74 2 -2 26 -129 52 -282z
m14946 -919 c232 -638 422 -1161 420 -1163 -1 -1 -414 257 -918 574 l-916 576
147 182 c715 883 827 1017 835 1005 5 -8 199 -536 432 -1174z m-2115 540 c255
-275 479 -516 498 -537 l34 -36 -792 -1089 c-436 -598 -796 -1092 -801 -1097
-6 -7 -2034 557 -2090 582 -13 5 285 322 1300 1380 l1316 1372 36 -37 c20 -21
244 -263 499 -538z m-1931 -705 c-628 -655 -1143 -1189 -1145 -1187 -5 4 724
1669 736 1681 7 7 1533 693 1548 695 1 1 -511 -535 -1139 -1189z m-8095 667
c358 -264 653 -481 655 -483 2 -2 -191 -298 -430 -658 -239 -360 -437 -652
-440 -648 -4 5 -320 1566 -457 2261 -4 18 -2 22 8 16 7 -4 306 -224 664 -488z
m-569 -652 c118 -583 213 -1061 212 -1062 -3 -2 -911 1147 -915 1158 -2 4 90
200 204 436 269 558 277 573 282 548 2 -11 100 -497 217 -1080z m-917 574 c35
-220 61 -403 58 -406 -5 -5 -1007 114 -1013 120 -3 3 879 686 887 687 3 0 34
-180 68 -401z m-1319 11 c74 -181 114 -287 107 -291 -6 -4 -49 -12 -96 -19
-47 -6 -92 -14 -101 -16 -15 -4 -17 14 -23 148 -11 296 -16 483 -11 473 3 -5
59 -138 124 -295z m17577 64 c192 -113 355 -209 362 -213 9 -5 -101 -109 -339
-322 -194 -173 -363 -322 -376 -332 l-23 -18 5 363 c6 365 15 728 20 728 1 0
159 -93 351 -206z m-488 -429 c-5 -307 -10 -560 -11 -560 -1 -1 -308 -147
-682 -325 -374 -178 -684 -326 -690 -329 -5 -3 -1 7 10 21 51 69 1379 1757
1381 1755 0 -1 -3 -254 -8 -562z m-6770 176 c-1 -5 -182 -418 -401 -918 l-399
-910 -774 381 c-425 210 -774 383 -774 386 0 5 2328 1067 2343 1069 5 1 7 -3
5 -8z m-10056 -517 c53 -163 93 -292 88 -288 -4 5 -94 126 -200 269 -106 143
-197 265 -201 271 -7 8 17 16 78 26 153 27 124 61 235 -278z m708 211 c250
-31 458 -59 461 -63 58 -69 830 -1055 827 -1057 -3 -3 -1779 1163 -1794 1178
-4 4 6 5 22 2 16 -3 234 -30 484 -60z m348 -650 c484 -319 879 -581 878 -582
-2 -2 -366 95 -809 214 l-807 218 -130 397 c-72 218 -130 399 -130 402 0 8
-24 24 998 -649z m2718 -35 c257 -355 484 -668 504 -695 l37 -50 -671 32
c-369 17 -798 37 -954 44 -155 7 -281 16 -280 19 2 4 199 302 438 662 323 486
438 652 446 644 7 -6 222 -301 480 -656z m187 534 c281 -75 516 -140 520 -144
4 -4 -14 -237 -40 -518 -44 -477 -49 -511 -64 -494 -15 15 -914 1250 -933
1280 -4 7 -5 12 -1 12 3 0 236 -61 518 -136z m10255 -539 l859 -540 -41 -12
c-81 -25 -3351 -891 -3353 -889 -2 1 338 470 755 1042 l757 1040 81 -50 c45
-28 469 -294 942 -591z m-9000 238 c325 -70 592 -129 592 -132 -1 -8 -1290
-794 -1295 -790 -2 2 19 238 46 524 27 286 49 521 49 523 0 5 37 -3 608 -125z
m1522 -258 c333 -41 617 -79 632 -83 24 -6 -22 -43 -525 -414 -455 -336 -553
-404 -559 -390 -7 15 -228 957 -228 969 0 3 17 2 38 -1 20 -3 309 -40 642 -81z
m-682 -439 c63 -268 111 -490 108 -493 -7 -7 -1518 177 -1528 186 -9 7 1282
801 1297 797 5 -1 60 -222 123 -490z m2352 -88 l777 -383 -707 -715 c-389
-393 -784 -794 -879 -890 l-172 -175 4 60 c3 33 45 606 94 1273 49 682 92
1212 97 1212 5 0 359 -172 786 -382z m-1009 -896 c-49 -668 -91 -1216 -94
-1218 -2 -2 -222 360 -490 805 l-485 810 576 426 c434 320 578 421 580 408 1
-10 -38 -564 -87 -1231z m-5961 908 c447 -121 814 -221 815 -222 3 -3 451
-995 486 -1075 l18 -43 -87 64 c-48 35 -532 384 -1077 776 -544 391 -994 716
-1000 722 -7 7 -3 8 11 4 12 -4 387 -105 834 -226z m2003 -284 c511 -25 930
-46 932 -48 1 -2 -8 -358 -21 -793 -13 -434 -23 -816 -24 -849 0 -55 -1 -58
-22 -54 -38 8 -1342 549 -1354 561 -9 9 -525 1147 -551 1212 -7 21 -22 21
1040 -29z m1964 -167 c420 -52 763 -98 763 -103 0 -21 -495 -1666 -501 -1666
-5 0 -1098 1836 -1108 1863 -2 6 13 8 40 5 24 -3 387 -47 806 -99z m4931 -286
c540 -153 982 -280 982 -283 0 -5 -2033 -741 -2036 -737 0 1 12 261 27 577 15
316 28 608 28 648 1 39 4 72 9 72 4 0 449 -124 990 -277z m-5215 -808 c245
-412 444 -751 443 -751 -3 -3 -1109 216 -1113 220 -3 3 4 339 16 748 12 409
21 768 21 798 l0 55 95 -160 c52 -88 294 -497 538 -910z m4068 376 c-16 -343
-32 -625 -35 -628 -6 -6 -1589 -423 -1593 -420 -1 2 370 379 824 840 454 461
827 836 829 834 2 -2 -9 -284 -25 -626z m-2427 -296 l486 -810 -32 -2 c-63 -5
-1441 -43 -1444 -40 -2 2 475 1612 491 1656 3 8 7 12 9 10 2 -2 223 -368 490
-814z"/>
</g>
</svg>
