<?xml version="1.0" encoding="utf-8"?>
<!-- Generator: Adobe Illustrator 18.0.0, SVG Export Plug-In . SVG Version: 6.00 Build 0)  -->
<svg version="1.1" xmlns="http://www.w3.org/2000/svg" xmlns:xlink="http://www.w3.org/1999/xlink" x="0px" y="0px"
	 viewBox="0 0 100 100" style="enable-background:new 0 0 100 100;" xml:space="preserve">
<g id="bg" style="display:none;">
</g>
<g id="Layer_1">
	<g id="Y75l8o.tif_1_">
		<g>
			<path style="fill:#23C2E7;" d="M0,85c0-23.3,0-46.6,0-70c0.1-0.2,0.1-0.4,0.2-0.6C1.7,7.2,6,2.6,13,0.5c0.7-0.2,1.3-0.3,2-0.5
				c23.3,0,46.6,0,70,0c0.2,0.1,0.4,0.1,0.6,0.2C92.7,1.7,97.4,5.9,99.5,13c0.2,0.7,0.3,1.4,0.5,2.1c0,23.3,0,46.6,0,70
				c-0.1,0.2-0.1,0.4-0.2,0.6c-1.5,7.2-5.8,11.8-12.8,13.9c-0.7,0.2-1.4,0.3-2.1,0.5c-6.4,0-12.9,0-19.3,0c0-0.3-0.1-0.5-0.1-0.8
				c0-12,0-24,0-36c0-0.3,0-0.6,0-1c0.4,0,0.7,0,1,0c4.9,0,9.8,0,14.7,0c0.7,0,1-0.2,1-0.9c0-5,0-10,0-14.9c0-0.3,0-0.5,0-0.9
				c-5.6,0-11,0-16.5,0c0-2.6-0.1-5.2,0-7.7c0.1-1.8,1.4-3.5,3.9-3.4c3.9,0.1,7.8,0,11.7,0c0.6,0,0.9-0.1,0.9-0.8c0-5,0-10.1,0-15.1
				c0-0.2,0-0.5-0.1-0.8c-0.3,0-0.6,0-0.9,0c-4,0-8,0-12,0c-3.7,0-7.1,1-10.1,3.1c-5,3.6-7.9,8.5-8.9,14.5c-0.4,2.8-0.3,5.8-0.4,8.7
				c0,0.5,0,0.9,0,1.5c-4.1,0-8.1,0-12.2,0c0,0.3-0.1,0.5-0.1,0.7c0,5.1,0,10.2,0,15.3c0,0.7,0.3,0.8,0.9,0.8c3.5,0,6.9,0,10.4,0
				c0.3,0,0.6,0,1,0c0,12.6,0,25.2,0,37.8c-11.7,0-23.3,0-35,0c-0.2-0.1-0.4-0.1-0.6-0.2C7.3,98.3,2.7,94.1,0.5,87.1
				C0.3,86.4,0.2,85.7,0,85z"/>
		</g>
	</g>
</g>
</svg>
